<?xml version="1.0" standalone="no"?>
<!DOCTYPE svg PUBLIC "-//W3C//DTD SVG 20010904//EN"
 "http://www.w3.org/TR/2001/REC-SVG-20010904/DTD/svg10.dtd">
<svg version="1.0" xmlns="http://www.w3.org/2000/svg"
 width="260.000000pt" height="260.000000pt" viewBox="0 0 260.000000 260.000000"
 preserveAspectRatio="xMidYMid meet">
<metadata>
Created by potrace 1.11, written by Peter Selinger 2001-2013
</metadata>
<g transform="translate(0.000000,260.000000) scale(0.100000,-0.100000)"
fill="#000000" stroke="none">
<path d="M975 2266 c-44 -54 -73 -99 -70 -107 5 -12 114 -100 150 -121 9 -5
40 25 91 88 44 52 80 100 81 107 2 12 -149 127 -167 127 -5 0 -43 -42 -85 -94z"/>
<path d="M1045 1819 c-113 -13 -190 -63 -262 -169 -40 -59 -66 -121 -55 -132
5 -5 34 20 67 57 31 36 71 73 87 81 44 23 231 21 270 -3 4 -2 -25 -36 -65 -76
-148 -149 -228 -266 -293 -430 -105 -263 -103 -584 6 -743 82 -119 185 -167
354 -165 294 3 584 274 705 660 29 90 32 109 20 117 -13 7 -15 4 -73 -101
-122 -221 -256 -338 -436 -380 -43 -9 -102 -13 -175 -11 -94 2 -119 7 -170 30
-78 35 -127 84 -161 160 -24 53 -28 74 -28 161 -1 111 4 142 34 229 57 166
179 316 396 487 141 112 166 166 94 201 -53 26 -208 39 -315 27z"/>
</g>
</svg>
