<?xml version="1.0" encoding="UTF-8" standalone="no"?>
<!-- Created with Inkscape (http://www.inkscape.org/) -->

<svg
   xmlns:dc="http://purl.org/dc/elements/1.1/"
   xmlns:cc="http://creativecommons.org/ns#"
   xmlns:rdf="http://www.w3.org/1999/02/22-rdf-syntax-ns#"
   xmlns:svg="http://www.w3.org/2000/svg"
   xmlns="http://www.w3.org/2000/svg"
   xmlns:sodipodi="http://sodipodi.sourceforge.net/DTD/sodipodi-0.dtd"
   xmlns:inkscape="http://www.inkscape.org/namespaces/inkscape"
   width="167px"
   height="45px"
   viewBox="0 0 1182 320"
   id="svg4484"
   version="1.1"
   inkscape:version="0.91 r13725"
   sodipodi:docname="101_11.svg">
  <defs
     id="defs4486">
    <clipPath
       clipPathUnits="userSpaceOnUse"
       id="clipPath4627">
      <path
         inkscape:connector-curvature="0"
         id="path4629"
         d="m 153.80871,319.09705 c -43.55123,-3.8677 -82.91291,-27.8799 -107.72278,-65.7151 -13.42087,-20.4669 -22.27722,-48.47293 -22.27722,-70.44623 0,-6.2824 -0.18111,-6.9329 -1.75,-6.2854 -6.5424,2.7001 -10.805,2.1866 -15.0945,-1.8183 -5.98195,-5.5851 -6.24815,-9.6385 -1.6701,-25.4297 4.234,-14.6046 3.11681,-35.279 -2.50146,-46.2917 l -2.02459,-3.9685 3.55187,0 c 1.95353,0 6.25714,0.9113 9.56358,2.0252 l 6.01171,2.0252 5.7087,-5.7752 c 3.13978,-3.1764 9.13442,-9.023 13.32142,-12.9925 5.76001,-5.4608 8.48118,-8.9897 11.18114,-14.5 3.22066,-6.573 6.70223,-19.4354 6.70223,-24.7609 l 0,-2.0625 3.84468,1.9614 c 4.98949,2.5455 9.85634,8.1544 12.74688,14.6904 l 2.3078,5.2183 8.21814,-5.4067 c 8.8559,-5.8264 19.09915,-10.1408 30.6325,-12.9023 3.9875,-0.9547 7.25,-2.0824 7.25,-2.506 0,-0.4236 -0.675,-2.3857 -1.5,-4.3602 -3.09055,-7.3967 -1.28259,-17.0733 4.30305,-23.0307 6.01445,-6.4148 18.89762,-9.5624 26.88185,-6.5676 7.28558,2.7326 13.39921,9.0275 15.25599,15.7081 l 0.76042,2.736 1.68028,-3.9462 c 2.68943,-6.3162 6.18854,-10.1607 11.78679,-12.9505 12.2824,-6.1205 27.81759,-1.2631 33.92319,10.6068 2.337,4.5433 2.5259,13.3762 0.3953,18.4755 -0.8322,1.9918 -1.3947,3.7257 -1.25,3.8531 0.1447,0.1274 4.0573,1.2075 8.6947,2.4004 11.1884,2.8778 20.5291,6.9448 29.336,12.7729 8.6726,5.7392 8.7324,5.7684 8.7324,4.2665 0,-2.2755 5.1598,-11.5004 8.2006,-14.6616 2.8086,-2.9197 8.4445,-6.1177 9.1668,-5.2015 0.1667,0.2115 1.0249,4.1446 1.9071,8.7402 0.8821,4.5957 3.2292,11.7957 5.2157,16 3.1864,6.7438 5.2189,9.2064 17.2529,20.9037 l 13.641,13.2594 4.05783,-1.5394 c 4.0155,-1.5232 14.558,-3.5438 14.558,-2.7902 0,0.2148 -0.9043,2.163 -2.0095,4.3294 -5.7587,11.2881 -6.877,30.9208 -2.6067,45.7642 4.8364,16.811 4.558,20.14 -2.2233,26.5861 -2.3296,2.2145 -3.9348,2.8562 -7.0366,2.8134 -2.21003,-0.031 -4.91243,-0.534 -6.00533,-1.1188 -1.0928,-0.5849 -2.1738,-1.0634 -2.4021,-1.0634 -0.2283,0 -0.6784,4.6125 -1.0003,10.25 -2.5055,43.87663 -26.4131,84.36573 -65.2161,110.44733 -25.2307,16.959 -59.44957,25.1928 -92.49997,22.2576 z m 39.69212,-8.5134 c 53.66205,-9.3393 98.74005,-52.8345 110.83315,-106.94153 0.8608,-3.8517 1.8315,-14.5374 2.1581,-23.7587 l 0.5937,-16.7586 2.8811,3.9176 c 3.4072,4.6332 7.4577,6.357 11.92593,5.0755 6.836,-1.9605 7.4317,-6.9655 2.775,-23.3146 -2.9196,-10.2502 -3.0963,-11.7541 -2.509,-21.353 0.3565,-5.825 1.4563,-12.7684 2.5233,-15.929 l 1.8915,-5.6028 -3.5227,0.5717 c -7.70473,1.2503 -15.78283,9.6242 -19.44003,20.1519 l -1.7369,5 -0.029,-6.5 c -0.031,-6.9084 1.5469,-10.7118 6.731,-16.2274 l 2.5635,-2.7275 -4.9684,-4.7725 c -2.7327,-2.625 -8.6034,-8.1476 -13.0461,-12.2726 -9.22,-8.5608 -14.3025,-17.2653 -16.9649,-29.0545 -0.8627,-3.82 -1.909,-6.9455 -2.3251,-6.9455 -2.0777,0 -6.0711,4.5449 -7.6978,8.7607 -1.4066,3.6455 -1.8286,7.5087 -1.8286,16.7393 0,6.6 0.343,13.546 0.7622,15.4357 l 0.7621,3.4357 -2.6616,-2.4357 c -1.5894,-1.4545 -0.3768,0.8527 3.0099,5.727 7.4066,10.6598 14.0774,24.8825 17.3821,37.0599 2.4669,9.0903 2.6533,11.218 2.6533,30.2774 0,19.0074 -0.1911,21.204 -2.626,30.1695 -5.8712,21.61923 -15.1771,37.48283 -31.6533,53.95913 -16.4908,16.4907 -32.4038,25.8206 -53.95913,31.6362 -8.92272,2.4074 -11.25284,2.6107 -30.16954,2.6317 -19.06346,0.021 -21.17759,-0.1616 -30.16954,-2.6089 -22.3554,-6.0842 -37.65298,-15.2063 -54.83046,-32.6958 -21.21958,-21.6051 -31.79858,-44.21453 -33.8777,-72.40343 -2.08377,-28.252 4.75586,-55.4211 19.13249,-76.0001 5.90651,-8.4547 6.47791,-9.5299 3.8275,-7.2023 l -2.26149,1.9861 0.8396,-3.9861 c 1.60006,-7.5964 1.00811,-26.5351 -0.99161,-31.7253 -1.61686,-4.1964 -5.61473,-8.7607 -7.67354,-8.7607 -0.40427,0 -1.27827,2.8125 -1.94221,6.25 -0.66395,3.4375 -2.79671,9.5796 -4.73946,13.6492 -3.6629,7.6728 -7.26112,11.7438 -22.77354,25.7657 l -7.92654,7.1649 3.63668,4.0253 c 5.53549,6.1271 6.56749,8.7955 5.99042,15.4887 l -0.50383,5.8439 -1.76609,-5.015 c -3.72161,-10.5679 -11.52496,-18.577 -19.33441,-19.8443 l -3.64409,-0.5914 1.56836,3.7536 c 0.8626,2.0645 2.07784,8.8513 2.70054,15.0819 1.12122,11.2186 1.10104,11.452 -2.08615,24.1278 -3.73986,14.8738 -3.87215,17.1436 -1.19743,20.5439 4.00359,5.0898 10.36271,4.1703 16.0225,-2.3166 l 3.5,-4.0116 0.0487,14.792 c 0.0926,28.1332 6.50313,49.16063 22.15512,72.67173 7.33197,11.0135 23.76168,28.2093 34.03319,35.6203 19.99137,14.4237 42.65002,23.315 66.00454,25.9001 11.01033,1.2187 30.45127,0.5428 41.95059,-1.4586 z m -2.28223,-31.0865 c 22.02718,-4.1569 41.37168,-15.0585 58.67548,-33.0664 18.761,-19.5244 28.9775,-42.10203 30.7476,-67.95003 1.9404,-28.3344 -3.8221,-52.0975 -17.5631,-72.426 -19.5793,-28.9658 -52.3698,-48.6382 -84.57784,-50.742 -23.86581,-1.5588 -41.35658,1.5831 -60.19203,10.8126 -30.32905,14.8615 -51.96169,41.2275 -60.70362,73.986 -2.90616,10.8902 -3.62324,36.2926 -1.36997,48.5308 4.23188,22.9845 13.36636,40.93153 29.34557,57.65673 20.17623,21.1182 43.69075,32.5777 72.22802,35.1993 7.25652,0.6666 24.8617,-0.3878 33.40989,-2.001 z m -48.72628,-64.7152 c -1.80848,-2.76003 -4.08393,-10.47643 -5.79157,-19.63983 -0.66621,-3.575 -4.55479,-14.5617 -8.64129,-24.4149 -4.0865,-9.8532 -7.66564,-19.367 -7.95365,-21.1418 -1.1723,-7.224 4.8936,-16.1865 10.07499,-14.8861 1.45754,0.3658 3.48809,1.8526 4.51233,3.304 6.33313,8.9739 13.71216,29.1072 16.59319,45.2734 2.29669,12.8873 1.85619,28.7399 -0.8826,31.76273 -2.52245,2.7842 -5.99245,2.6712 -7.9114,-0.2575 z m 49.49667,0.077 c -1.85903,-2.24003 -3.26425,-6.89543 -5.731,-18.98643 -2.55052,-12.5016 -5.34461,-20.443 -11.60628,-32.9872 -2.12946,-4.266 -4.52777,-10.275 -5.32958,-13.3534 -1.67552,-6.4327 -1.15505,-8.0584 4.75869,-14.8634 3.19288,-3.674 3.64861,-3.8839 6.05374,-2.7881 5.43538,2.4765 10.584,14.1001 16.79704,37.9212 3.47487,13.3228 4.15096,17.5088 4.25428,26.3401 0.1485,12.6943 -1.98383,20.00003 -5.83743,20.00003 -1.26217,0 -2.77392,-0.5773 -3.35946,-1.2828 z M 97.30871,72.06442 c 13.67587,-10.3876 26.06265,-16.1573 42.69644,-19.8876 15.08084,-3.382 21.79226,-9.4009 21.79982,-19.5503 0.005,-6.0749 -2.35716,-10.842 -7.38872,-14.9144 -3.01386,-2.4393 -4.82619,-3.0528 -9.98837,-3.3815 -6.44373,-0.4104 -10.68421,0.9154 -14.97558,4.6821 -6.88666,6.0445 -7.5709,20.7952 -1.20953,26.0746 2.56945,2.1325 1.87157,2.7344 -4.66011,4.0195 -14.65647,2.8834 -32.63065,10.386 -41.77378,17.4367 l -4.49984,3.47 -0.14296,10.3185 -0.14297,10.3184 7.1428,-7.0143 c 3.92854,-3.8579 9.8428,-9.0651 13.1428,-11.5717 z m 161.68537,8.5633 -0.3147,-10.5185 -5.2473,-3.9618 c -9.0947,-6.8665 -27.9982,-14.5507 -42.2601,-17.1786 l -6.3998,-1.1792 2.4546,-2.5738 c 10.8594,-11.3863 1.7489,-31.0737 -14.37945,-31.0737 -6.66594,0 -11.26376,2.1973 -15.46854,7.3924 -2.44843,3.0251 -3.04234,4.7902 -3.32935,9.8948 -0.65768,11.6973 4.79032,16.5561 23.96767,21.3755 21.27817,5.3475 37.49927,14.7373 53.26737,30.8347 3.8633,3.9439 7.2492,7.2464 7.5242,7.3388 0.275,0.092 0.3584,-4.5654 0.1854,-10.3506 z m -85.5965,-33.7356 c -0.91029,-1.2375 -2.5947,-4.2382 -3.74311,-6.6681 l -2.08804,-4.4181 -1.28378,3.7343 c -0.70608,2.0538 -1.93312,4.492 -2.72675,5.4181 -3.39155,3.9575 -3.1582,4.1838 4.31577,4.1838 l 7.18098,0 -1.65507,-2.25 z m 488.66103,264.13963 c -1.5538,-1.603 -1.6207,-6.982 -0.1276,-10.2589 1.616,-3.5467 59.3787,-27.6307 66.2691,-27.6307 4.0664,0 4.6268,0.2646 4.764,2.25 0.2947,4.2635 -0.3094,7.2544 -1.7987,8.904 -1.7697,1.9605 -36.7855,18.5442 -49.6246,23.5027 -10.2855,3.9723 -17.5905,5.1845 -19.4822,3.2329 z m -65.2775,-21.5408 c -4.6669,-3.1165 -8.9725,-7.7427 -8.9725,-9.6406 0,-2.7167 3.2601,-6.9235 7.8075,-10.0749 l 3.921,-2.7172 6.1926,1.7217 6.1925,1.7216 6.8783,-3.715 c 8.3908,-4.5321 10.219,-4.2645 16.4618,2.4095 5.936,6.3461 6.1675,10.1458 0.9685,15.9005 -1.9678,2.1781 -4.5036,4.254 -5.6351,4.6131 -1.1697,0.3713 -4.9126,-0.319 -8.6744,-1.5997 l -6.617,-2.2528 -5.2146,2.6425 c -6.011,3.046 -9.8082,3.3289 -13.3086,0.9913 z m 334.5276,-8.7556 c -0.55,-0.2092 -7.075,-1.4007 -14.5,-2.6479 -18.9919,-3.1902 -24.8923,-6.4995 -20.1096,-11.2786 2.0473,-2.0457 3.1022,-2.1691 18.889,-2.2082 26.0253,-0.065 32.3855,-2.613 49.7714,-19.9432 10.9154,-10.8804 16.4492,-18.9706 16.4492,-24.0479 0,-1.177 -2.9714,-6.8261 -6.6032,-12.55373 -9.0226,-14.2293 -9.6738,-15.6276 -8.9824,-19.2852 0.9578,-5.0665 4.2329,-9.6285 6.9124,-9.6285 3.3671,0 14.0608,11.4544 17.4532,18.6947 2.4943,5.3235 2.7174,6.8011 2.6893,17.80533 -0.027,10.4423 -0.3772,12.9598 -2.7,19.3942 -6.4763,17.9406 -20.3091,34.8885 -33.9234,41.5627 -6.5869,3.2292 -8.8178,3.8057 -16,4.1345 -4.5902,0.2101 -8.7959,0.2109 -9.3459,0 z m -448.0001,-25.7397 c -2.75,-0.5075 -7.925,-1.8713 -11.5,-3.0307 -5.9026,-1.9143 -7.4912,-3.0982 -17.2846,-12.8812 l -10.7846,-10.7731 -10.802,5.4435 c -13.3254,6.7151 -18.1174,7.4975 -27.8381,4.5449 -3.7993,-1.154 -8.4564,-3.1526 -10.3492,-4.4412 -3.0256,-2.0599 -3.4315,-2.8436 -3.3585,-6.4847 0.116,-5.7858 3.6333,-10.4403 17.867,-23.64373 6.5739,-6.098 15.2781,-14.2588 19.3425,-18.1351 l 7.3899,-7.0478 0.8115,-10.3272 c 0.6763,-8.6062 1.1712,-10.6813 2.9697,-12.4522 l 2.1582,-2.125 1.8593,2.2621 c 2.192,2.6672 7.1316,22.74 10.0079,40.6691 2.2825,14.2281 4.0851,18.59613 9.8078,23.76623 9.2126,8.323 24.733,11.3225 58.2032,11.2482 32.4823,-0.072 51.1547,-2.8549 71.3152,-10.628 7.4053,-2.8553 8.0965,-3.3936 13.1774,-10.26413 8.9011,-12.036 14.5074,-12.5594 14.5074,-1.3542 0,5.21423 0.3546,6.30913 2.8522,8.80673 3.8283,3.8283 12.8475,6.408 19.87,5.6832 9.8513,-1.0168 15.1449,-5.4545 31.3996,-26.32293 10.191,-13.0836 14.1701,-16.4195 20.4266,-17.1247 3.807,-0.4291 4.9406,-0.1308 7.0561,1.8565 8.6531,8.1292 14.2712,30.6663 10.4951,42.10193 -1.6779,5.0816 -6.9783,9.5093 -12.3475,10.3144 -5.826,0.8737 -15.7998,-1.0429 -23.9197,-4.5965 -3.6672,-1.6049 -6.9229,-2.9179 -7.2349,-2.9179 -0.312,0 -3.8307,2.5214 -7.8193,5.6032 -9.9396,7.6797 -15.9779,10.5628 -23.364,11.1557 -7.6446,0.6136 -12.4101,-0.8613 -19.0066,-5.8826 -2.8008,-2.132 -6.0745,-3.8763 -7.2749,-3.8763 -1.2005,0 -5.2089,1.511 -8.9077,3.3579 -17.3176,8.647 -30.6036,11.7319 -69.4292,16.121 -22.6896,2.5649 -41.1172,3.0685 -50.2958,1.3746 z m -47.7085,-40.5364 c 4.4643,-3.31533 5.7984,-6.47883 4.2791,-10.14663 -1.8181,-4.3894 -4.2131,-4.7621 -10.0804,-1.5687 -5.4719,2.9782 -12.9902,9.0229 -12.9902,10.4442 0,0.48953 1.2375,1.58733 2.75,2.43943 3.7561,2.1162 12.4736,1.4813 16.0415,-1.1683 z m 257.2085,-7.20053 c 0,-1.0142 -4.1526,-2.2974 -4.9274,-1.5226 -0.6467,0.6467 2.0044,2.3702 3.6774,2.3907 0.6875,0.01 1.25,-0.3823 1.25,-0.8681 z m 79.3437,42.84193 c -9.1436,-1.809 -15.6959,-6.9745 -19.3612,-15.2635 -2.9601,-6.6941 -6.9752,-50.21753 -6.983,-75.69503 -0.01,-14.8828 -0.5812,-22.7336 -2.9491,-40.1518 -3.1267,-22.9993 -3.0628,-25.0948 0.9654,-31.6623 1.6227,-2.6456 2.5821,-3.2507 4.7563,-3 4.2531,0.4905 7.3571,10.0505 7.8943,24.3141 0.2279,6.05 0.8293,21.8 1.3365,35 0.9292,24.1801 4.1974,60.9174 6.0152,67.6146 1.3202,4.86403 4.6437,8.89243 7.3045,8.85373 1.5565,-0.023 3.4605,-1.9442 6.6774,-6.7388 6.1817,-9.21373 16.4541,-19.43063 22.7169,-22.59433 8.1371,-4.1105 10.648,-3.6522 28.9701,5.2879 8.9029,4.3441 18.6492,8.6141 21.6586,9.4889 6.9502,2.0205 25.7591,5.2074 36.1545,6.1258 10.0559,0.8885 11.5,1.619 11.5,5.81803 0,4.4274 -4.9003,13.8478 -8,15.3794 -1.7178,0.8488 -8.5011,1.2399 -21.6795,1.25 l -19.1795,0.015 -10.1472,3.9545 c -12.1123,4.7202 -21.5789,7.1527 -40.9685,10.5267 -15.0137,2.6125 -19.6471,2.8691 -26.6817,1.4773 z m 36.1586,-24.8594 c 9.5745,-2.8466 11.7438,-4.1972 11.2465,-7.0023 -0.3809,-2.1485 -7.4065,-5.35753 -12.8811,-5.88363 -9.5612,-0.9187 -22.8238,8.24703 -20.541,14.19593 1.0039,2.616 10.9457,2.0287 22.1756,-1.31 z m 254.78549,22.8743 c -24.0591,-3.0432 -34.4349,-8.9216 -36.2872,-20.5584 -3.1868,-20.02073 -11.4119,-111.10213 -10.5901,-117.27063 0.5694,-4.274 4.2536,-12.1444 5.6848,-12.1444 0.3999,0 1.8361,1.3181 3.1917,2.9291 2.7045,3.2141 3.2168,5.7665 4.7312,23.5709 0.5614,6.6 1.6782,15.825 2.4819,20.5 1.9369,11.2667 3.6935,31.8425 2.9914,35.0391 -0.828,3.7697 1.2054,19.6763 3.2377,25.3279 2.119,5.8929 8.146,13.02443 13.1427,15.55153 12.6238,6.3846 47.7479,6.6275 83.6623,0.5786 14.8019,-2.493 23.5573,-5.208 27.9582,-8.66983 3.2316,-2.5419 2.9385,-4.3654 -2.0168,-12.5457 -1.9263,-3.1799 -3.9514,-7.4235 -4.5001,-9.4301 -1.3196,-4.8253 0.4172,-12.9322 3.3635,-15.7002 2.0806,-1.9546 2.4176,-1.9905 5.193,-0.5544 5.0117,2.5934 7.4434,5.5483 11.7891,14.326 4.1047,8.2909 4.1773,8.6198 4.0818,18.509 -0.1225,12.68753 -2.3829,20.00423 -7.1691,23.20583 -4.1312,2.7635 -17.8474,7.7454 -30.2009,10.9696 -18.0241,4.7041 -64.7562,8.3885 -80.7451,6.3661 z m 79.7021,-101.22343 c -8.1241,-5.5293 -8.7303,-10.785 -2.0534,-17.8039 4.7402,-4.9829 8.8996,-5.2992 14.6636,-1.115 5.8777,4.2668 7.0284,7.0425 4.8352,11.6642 -2.008,4.2315 -8.6308,9.5047 -11.9374,9.5047 -1.2111,0 -3.6897,-1.0125 -5.508,-2.25 z m -618.33489,-16.5788 c -2.2117,-2.4439 -2.0853,-4.739 0.4907,-8.9069 2.4892,-4.0277 13.8257,-13.299 22.9956,-18.8066 3.4973,-2.1005 19.4087,-11.9969 35.3587,-21.9921 34.3961,-21.5545 36.4749,-22.6768 41.2541,-22.2718 2.9694,0.2516 3.7418,0.7896 4.333,3.018 1.04,3.92 -0.6,9.9072 -3.277,11.9629 -1.2705,0.9757 -12.6601,7.9348 -25.3101,15.4647 -12.65,7.5299 -34.1126,20.3665 -47.6946,28.5257 -13.582,8.1592 -25.0998,14.8349 -25.595,14.8349 -0.4952,0 -1.6452,-0.823 -2.5554,-1.8288 z m -110.1042,-4.6871 c -4.3908,-4.3908 -6.8353,-9.0124 -6.0596,-11.4563 0.8482,-2.6724 7.9745,-8.8556 11.1147,-9.6438 1.5473,-0.3883 4.8501,0.025 7.9115,0.9899 l 5.2552,1.6566 7.8573,-3.1462 7.8574,-3.1462 4.5063,2.3809 c 2.8056,1.4823 5.2352,3.7421 6.4373,5.9872 1.7159,3.2048 1.7805,3.9691 0.5804,6.8666 -1.6914,4.0832 -8.3737,9.0272 -12.2012,9.0272 -1.5894,0 -4.6742,-0.9104 -6.8552,-2.023 -4.3938,-2.2416 -5.4678,-1.9618 -13.5669,3.5344 -5.1662,3.5059 -8.5769,3.233 -12.8372,-1.0273 z m -37.3571,-5.7507 c -1.1023,-1.3282 -6.2817,-27.3246 -8.2726,-41.5209 -0.6392,-4.5582 -0.9512,-12.2082 -0.6933,-17 0.3949,-7.339 1.0442,-9.9534 4.1187,-16.5834 l 3.6499,-7.8709 -1.6236,-4.6291 c -1.9921,-5.6798 -0.9136,-10.7021 3.6517,-17.0043 6.0863,-8.4018 13.9887,-9.2049 20.8641,-2.1202 5.6951,5.8684 10.1114,14.8157 10.1114,20.4853 0,7.1102 -3.8643,10.5017 -15.447,13.557 -10.2715,2.7095 -15.1234,6.146 -16.1112,11.4115 -0.388,2.0684 0.9465,11.8646 3.5657,26.1736 4.5558,24.8888 4.6945,29.9274 0.934,33.9302 -2.6113,2.7796 -3.2767,2.9437 -4.7478,1.1712 z m 551.9116,-0.1067 c -0.6268,-0.7553 -0.8847,-2.0379 -0.5729,-2.8503 0.3117,-0.8124 8.1945,-8.1167 17.5172,-16.2319 10.3348,-8.9961 16.9505,-15.466 16.9505,-16.5771 0,-1.9397 -4.4153,-5.9674 -6.5418,-5.9674 -0.6996,0 -3.1558,2.25 -5.4582,5 -4.9757,5.9429 -7.6434,6.4009 -11.3848,1.9545 -5.8079,-6.9022 -5.9061,-19.6012 -0.2787,-36.0372 10.2667,-29.986 29.8779,-47.69 46.0051,-41.531 6.3026,2.407 10.1459,6.7977 10.0239,11.4516 -0.1321,5.0375 -2.8353,9.9909 -5.8677,10.752 -1.6935,0.425 -3.8577,-0.1969 -6.9099,-1.9855 -7.6263,-4.4694 -14.2593,-2.8069 -22.1963,5.563 -11.9234,12.574 -17.4475,26.8832 -12.6416,32.7458 1.7317,2.1124 1.7944,2.0475 5.9921,-6.2 5.4633,-10.7341 9.9952,-15.9483 16.7217,-19.2393 5.9368,-2.9046 8.4077,-2.7268 12.3812,0.891 5.161,4.6989 6.1599,9.8317 4.0912,21.0225 -1.4629,7.9135 -0.6669,10.4178 5.6186,17.6758 4.072,4.7021 5.4452,7.0701 5.4452,9.3898 0,7.1016 -5.4138,9.6994 -13.2284,6.3474 -2.7677,-1.1871 -5.6703,-1.7743 -7,-1.4161 -1.2494,0.3367 -8.5716,5.115 -16.2716,10.6186 -7.7,5.5035 -16.25,11.3501 -19,12.9924 -5.4015,3.2256 -11.4594,3.9635 -13.3948,1.6314 z m 45.8115,-57.251 c 0.6032,-0.544 -0.1167,-1.0351 -2.6667,-1.8189 -1.8467,-0.5676 -2.25,-0.3089 -2.25,1.4432 0,1.7521 0.4033,2.0108 2.25,1.4431 1.2375,-0.3804 2.4375,-0.8607 2.6667,-1.0674 z m 98.08329,36.7751 0,-5.8492 19.75,-12.9866 c 10.8625,-7.1427 26.725,-17.2729 35.25,-22.5117 24.4405,-15.0191 28.8444,-16.816 32.4286,-13.2319 2.129,2.129 1.9774,5.6428 -0.3723,8.6299 -2.6996,3.432 -14.3395,11.2921 -28.5563,19.2833 -6.6,3.7099 -16.05,9.3292 -21,12.4873 -11.9427,7.6196 -34.2964,20.0281 -36.0802,20.0281 -1.0646,0 -1.4198,-1.4635 -1.4198,-5.8492 z m -283.33339,2.1825 c -1.366,-1.366 -0.5949,-8.9368 1.2052,-11.8333 1.2165,-1.9574 13.3198,-10.5588 34.8264,-24.75 29.6221,-19.5463 33.3824,-21.75 37.1128,-21.75 3.5936,0 4.2351,0.3356 4.7784,2.5 0.3451,1.375 0.3367,3.6582 -0.019,5.0738 -0.9552,3.8059 -8.6996,10.8222 -18.456,16.7207 -4.7355,2.863 -18.63,11.843 -30.8766,19.9555 -21.2268,14.0612 -26.1614,16.4935 -28.5716,14.0833 z m -391.5926,-22.2946 c -1.3342,-0.3266 -2.5908,-1.0889 -2.7925,-1.6939 -0.5868,-1.7603 7.9195,-8.6247 20.144,-16.2556 10.5705,-6.5986 18.5744,-13.594 18.5744,-16.2343 0,-0.6266 -2.08,-3.574 -4.6222,-6.5496 -4.3415,-5.0818 -4.5947,-5.6956 -4.1706,-10.1078 1.0689,-11.1203 11.6931,-26.3378 19.3968,-27.783 5.1958,-0.9748 8.3403,0.9812 11.396,7.0887 2.2377,4.4725 2.4722,6.0341 2.2352,14.8845 l -0.2648,9.8877 5.0672,5.3578 c 4.9172,5.1993 5.0583,5.5134 4.7648,10.6123 l -0.3024,5.2545 -7.8647,-0.2452 -7.8646,-0.2452 -13.3597,8.5289 c -20.5146,13.0968 -34.1537,19.0141 -40.3369,17.5002 z m 46.739,-57.2887 c 0.2477,-1.2997 -0.3286,-1.75 -2.2398,-1.75 -1.9355,0 -2.5733,0.5129 -2.5733,2.0695 0,1.5719 0.5386,1.9927 2.2398,1.75 1.2319,-0.1757 2.3899,-1.107 2.5733,-2.0695 z"
         style="fill:#000000" />
    </clipPath>
  </defs>
  <sodipodi:namedview
     id="base"
     pagecolor="#ffffff"
     bordercolor="#666666"
     borderopacity="1.0"
     inkscape:pageopacity="0.0"
     inkscape:pageshadow="2"
     inkscape:zoom="0.35"
     inkscape:cx="1104.3457"
     inkscape:cy="197.98908"
     inkscape:document-units="px"
     inkscape:current-layer="layer1"
     showgrid="false"
     fit-margin-top="0"
     fit-margin-left="0"
     fit-margin-right="0"
     fit-margin-bottom="0"
     inkscape:window-width="1920"
     inkscape:window-height="1001"
     inkscape:window-x="-9"
     inkscape:window-y="-9"
     inkscape:window-maximized="1" />
  <metadata
     id="metadata4489">
    <rdf:RDF>
      <cc:Work
         rdf:about="">
        <dc:format>image/svg+xml</dc:format>
        <dc:type
           rdf:resource="http://purl.org/dc/dcmitype/StillImage" />
        <dc:title></dc:title>
      </cc:Work>
    </rdf:RDF>
  </metadata>
  <g
     inkscape:label="Layer 1"
     inkscape:groupmode="layer"
     id="layer1"
     transform="translate(-680.42859,-786.64795)">
    <path
       style="opacity:1;fill:#000000;fill-opacity:1;stroke:none;stroke-width:0.30000001;stroke-linecap:butt;stroke-linejoin:round;stroke-miterlimit:4;stroke-dasharray:none;stroke-opacity:1"
       d="M -19.283203 -30.523438 C -19.79239 -30.523438 -20.203125 -30.112703 -20.203125 -29.603516 L -20.203125 382.7207 C -20.203125 383.22989 -19.79239 383.63867 -19.283203 383.63867 L 1314.2988 383.63867 C 1314.808 383.63867 1315.2188 383.22989 1315.2188 382.7207 L 1315.2188 -29.603516 C 1315.2188 -30.112703 1314.808 -30.523438 1314.2988 -30.523438 L 1007.627 -30.523438 L 1007.627 134.22266 C 1007.627 134.73184 1007.2182 135.14258 1006.709 135.14258 L 907.02539 135.14258 C 906.5162 135.14258 906.10742 134.73184 906.10742 134.22266 L 906.10742 -30.523438 L -19.283203 -30.523438 z "
       transform="translate(680.42859,786.64795)"
       id="rect4566"
       clip-path="url(#clipPath4627)" />
    <path
       style="fill:#d40000"
       d="m 1659.3934,832.9624 c -14.698,-0.32742 -30.8369,16.50639 -39.8203,42.74414 -5.6274,16.436 -5.5286,29.13491 0.2793,36.03711 3.7414,4.4464 6.4091,3.98978 11.3848,-1.95312 2.3024,-2.75 4.7594,-5 5.459,-5 2.1265,0 6.541,4.0271 6.541,5.9668 0,1.11109 -6.6164,7.58202 -16.9512,16.57812 -9.3227,8.1152 -17.2039,15.41807 -17.5156,16.23047 -0.3118,0.8124 -0.055,2.09626 0.5723,2.85156 1.9353,2.3321 7.993,1.59279 13.3945,-1.63281 2.75,-1.6423 11.3,-7.48869 19,-12.99219 7.7,-5.5036 15.0221,-10.28049 16.2715,-10.61719 1.3297,-0.3582 4.2323,0.22892 7,1.41602 7.8146,3.352 13.2285,0.75394 13.2285,-6.34766 0,-2.3197 -1.3733,-4.68852 -5.4453,-9.39062 -6.2855,-7.258 -7.0821,-9.76228 -5.6192,-17.67578 2.0687,-11.1908 1.0712,-16.32259 -4.0898,-21.02149 -3.9735,-3.6178 -6.4441,-3.79718 -12.3809,-0.89258 -6.7265,3.291 -11.2593,8.50614 -16.7226,19.24024 -4.1977,8.2475 -4.2605,8.31162 -5.9922,6.19922 -4.8059,-5.8626 0.7192,-20.1721 12.6426,-32.7461 7.937,-8.3699 14.569,-10.0319 22.1953,-5.5625 3.0522,1.7886 5.2166,2.41133 6.9101,1.98633 3.0324,-0.7611 5.7351,-5.71445 5.8672,-10.75195 0.122,-4.6539 -3.7208,-9.04417 -10.0234,-11.45117 -2.0159,-0.76988 -4.0858,-1.16807 -6.1856,-1.21485 z m -6.7324,47.61328 a 7.5892859,7.5892859 0 0 1 7.5899,7.58985 7.5892859,7.5892859 0 0 1 -7.5899,7.58984 7.5892859,7.5892859 0 0 1 -7.5898,-7.58984 7.5892859,7.5892859 0 0 1 7.5898,-7.58985 z"
       id="path4519"
       inkscape:connector-curvature="0" />
  </g>
</svg>
