<?xml version="1.0" encoding="UTF-8" standalone="no"?>
<!-- Created with Inkscape (http://www.inkscape.org/) -->

<svg
   xmlns:dc="http://purl.org/dc/elements/1.1/"
   xmlns:cc="http://creativecommons.org/ns#"
   xmlns:rdf="http://www.w3.org/1999/02/22-rdf-syntax-ns#"
   xmlns:svg="http://www.w3.org/2000/svg"
   xmlns="http://www.w3.org/2000/svg"
   xmlns:sodipodi="http://sodipodi.sourceforge.net/DTD/sodipodi-0.dtd"
   xmlns:inkscape="http://www.inkscape.org/namespaces/inkscape"
   width="311px"
   height="51px"
   viewBox="0 0 2202.9999 357.99999"
   id="svg4371"
   version="1.1"
   inkscape:version="0.91 r13725"
   sodipodi:docname="105_3.svg">
  <defs
     id="defs4373" />
  <sodipodi:namedview
     id="base"
     pagecolor="#ffffff"
     bordercolor="#666666"
     borderopacity="1.0"
     inkscape:pageopacity="0.0"
     inkscape:pageshadow="2"
     inkscape:zoom="0.35"
     inkscape:cx="1424.0308"
     inkscape:cy="-318.94158"
     inkscape:document-units="px"
     inkscape:current-layer="layer1"
     showgrid="false"
     fit-margin-top="0"
     fit-margin-left="0"
     fit-margin-right="0"
     fit-margin-bottom="0"
     inkscape:window-width="1920"
     inkscape:window-height="1001"
     inkscape:window-x="-9"
     inkscape:window-y="-9"
     inkscape:window-maximized="1" />
  <metadata
     id="metadata4376">
    <rdf:RDF>
      <cc:Work
         rdf:about="">
        <dc:format>image/svg+xml</dc:format>
        <dc:type
           rdf:resource="http://purl.org/dc/dcmitype/StillImage" />
        <dc:title></dc:title>
      </cc:Work>
    </rdf:RDF>
  </metadata>
  <g
     inkscape:label="Layer 1"
     inkscape:groupmode="layer"
     id="layer1"
     transform="translate(207.21428,-364.79077)">
    <path
       inkscape:connector-curvature="0"
       id="path4392"
       d="m 1190.7857,721.9865 c 0,-0.4423 1.3439,-2.9233 2.9865,-5.5134 3.4976,-5.5151 8.9841,-9.2403 20.3144,-13.7932 4.5095,-1.812 15.8937,-7.2534 25.2983,-12.0919 14.3087,-7.3616 17.8603,-8.7972 21.7634,-8.7972 l 4.6642,0 -1.5443,3.6961 c -3.4972,8.37 -5.6031,9.9414 -27.8536,20.7849 -30.341,14.7862 -34.5942,16.519 -40.5465,16.519 -2.7953,0 -5.0824,-0.3619 -5.0824,-0.8043 z m -81.0519,-6.3867 c -0.029,-0.17 -2.8789,-21.4488 -6.3341,-47.2863 l -6.2821,-46.9773 2.6753,-10.5227 c 5.1282,-20.1711 11.7488,-28.5926 26.6944,-33.9559 4.8391,-1.7365 10.6427,-4.466 12.8969,-6.0654 l 4.0985,-2.9081 5.9015,5.0307 c 7.1583,6.1019 11.4592,8.4105 19.6529,10.5488 11.5864,3.0237 36.5508,1.3589 47.3679,-3.1588 1.7155,-0.7165 6.2703,-4.2753 10.1216,-7.9084 4.9709,-4.6893 7.7648,-6.6056 9.6307,-6.6056 2.2633,0 2.6284,0.4236 2.6284,3.0496 0,3.6329 -0.8881,5.4415 -11.2028,22.8144 -7.4244,12.5049 -7.8904,13.625 -7.2488,17.4225 l 0.6857,4.0584 3.6158,-4.4225 c 18.551,-22.6894 36.4876,-33.8735 54.3844,-33.9106 5.0694,-0.01 6.9823,0.652 16.5,5.7146 10.317,5.4877 11.0783,5.7273 18.2657,5.75 9.9452,0.031 14.669,-2.2373 17.6503,-8.4764 l 2.1502,-4.5 -6.9051,-52 -6.9051,-52 2.0601,-4.5 c 1.1331,-2.475 2.8811,-5.5872 3.8844,-6.916 l 1.8242,-2.416 2.551,2.5511 c 3.336,3.336 4.431,7.7233 5.6942,22.8149 1.822,21.7666 11.0194,86.1461 12.9242,90.466 2.7206,6.1701 9.5937,12.5 13.5726,12.5 3.7198,0 4.4626,-1.4938 4.4853,-9.0201 0.018,-5.8799 3.3052,-17.6335 6.9534,-24.8605 8.7198,-17.2738 22.822,-26.4313 35.7071,-23.1868 7.4127,1.8666 17.186,7.1127 22.0766,11.8504 4.8011,4.6509 4.9895,6.0532 1.0702,7.9653 -2.2038,1.0751 -3.918,0.8298 -12.358,-1.7682 -9.7054,-2.9875 -9.8525,-3.0009 -15.3674,-1.4031 -8.1542,2.3625 -15.8682,6.2475 -20.2309,10.1889 -6.77,6.1163 -4.6627,12.1085 7.7372,22.0002 7.5871,6.0525 11.3427,7.6596 15.9014,6.8044 3.0327,-0.569 16.8305,-7.3083 35.2912,-17.2376 4.5427,-2.4434 5.4072,-2.6267 6.2862,-1.3329 2.8123,4.1389 -1.9926,13.6979 -9.8182,19.5327 -7.7481,5.7769 -25.7288,14.1129 -41.7351,19.3486 -29.8825,9.7746 -37.8987,9.2964 -54.4245,-3.2463 -4.0835,-3.0993 -7.9622,-5.635 -8.6194,-5.635 -0.6571,0 -3.3911,1.7401 -6.0755,3.8669 -7.1808,5.6893 -12.6909,8.1439 -19.7637,8.8044 -7.4288,0.6937 -10.2669,-0.106 -24.1907,-6.8164 -6.5879,-3.175 -11.3824,-4.8549 -13.8556,-4.8549 -8.4631,0 -24.956,6.0876 -31.5695,11.6525 -5.8222,4.899 -6.5103,7.391 -6.0329,21.8475 1.0145,30.7246 1.0181,30.7041 -6.9527,39.75 -4.5262,5.1366 -9.254,6.5128 -10.3066,3 -0.2884,-0.9625 -2.6463,-7.375 -5.2397,-14.25 -4.4584,-11.8187 -4.7425,-13.1669 -5.2125,-24.7345 -0.3905,-9.6106 -0.1496,-13.2967 1.1231,-17.1879 0.8911,-2.7244 1.6202,-6.8511 1.6202,-9.1706 l 0,-4.2171 -13.6581,0.655 c -7.512,0.3603 -16.201,0.6551 -19.3089,0.6551 -3.1079,0 -6.4485,0.5833 -7.4235,1.2963 -1.143,0.8357 -2.3014,4.0957 -3.2607,9.1761 -1.8303,9.6935 -4.5352,15.2853 -7.7888,16.1019 -7.1377,1.7914 -13.1627,-5.5567 -22.094,-26.9457 l -2.8692,-6.8714 -5.8107,0.6073 c -12.6533,1.3226 -19.7861,8.5544 -19.7861,20.0609 0,2.4693 2.0654,21.4963 4.5897,42.2821 4.76,39.1948 5.055,47.2112 1.9577,53.2009 -1.3222,2.5568 -3.4396,4.8515 -3.5993,3.9006 z m -729.53926,-8.3163 c -0.88663,-3.5326 1.48243,-6.6653 8.79715,-11.6326 8.13786,-5.5263 56.03328,-28.8601 59.23884,-28.8601 3.87281,0 5.07592,3.2737 2.8653,7.7965 -2.15681,4.4128 -9.4941,9.1148 -19.21656,12.3146 -3.62645,1.1935 -9.74355,3.7491 -13.59355,5.6791 -7.03992,3.5291 -36.57319,17.2098 -37.1518,17.2098 -0.17055,0 -0.59328,-1.1283 -0.93938,-2.5073 z M -52.72221,686.8131 c -33.54096,-2.9487 -61.17768,-15.5996 -86.2865,-39.498 -17.73776,-16.8826 -31.27673,-38.0818 -38.01562,-59.5243 -3.3241,-10.577 -6.18995,-25.8792 -6.18995,-33.0513 0,-2.5843 -0.27867,-6.0921 -0.61927,-7.7951 -0.53825,-2.6913 -0.87222,-2.961 -2.55274,-2.0616 -3.15825,1.6903 -9.40902,1.3164 -12.13029,-0.7254 -3.92053,-2.9417 -6.69822,-7.6856 -6.69181,-11.4285 0.003,-1.891 1.35058,-8.3881 2.99411,-14.4381 4.54552,-16.7326 3.77957,-35.1711 -1.92559,-46.3542 -1.14093,-2.2364 -2.07441,-4.371 -2.07441,-4.7437 0,-1.0639 10.59868,0.4538 14.75226,2.1125 l 3.74774,1.4966 13.66543,-13.2556 c 16.92102,-16.4136 20.19612,-22.3107 23.32873,-42.0056 0.73818,-4.641 2.07594,-4.7203 7.6781,-0.4552 2.93228,2.2324 5.51113,5.5904 7.99778,10.4139 l 3.67003,7.1191 3.82997,-2.8051 c 9.70366,-7.1071 24.1097,-13.382 36.74451,-16.005 3.072,-0.6377 5.58545,-1.2977 5.58545,-1.4665 0,-0.1688 -0.675,-1.9225 -1.5,-3.897 -1.87093,-4.4778 -1.94086,-13.6633 -0.13688,-17.9809 1.81054,-4.3332 9.55246,-11.0319 14.44372,-12.4973 5.01904,-1.5038 11.38381,-1.4988 16.42898,0.013 5.95071,1.7829 13.4732,9.0208 15.07118,14.5011 l 1.31578,4.5125 1.1674,-3.8964 c 1.70718,-5.6981 7.2831,-11.6611 13.34107,-14.2671 11.13169,-4.7888 24.40269,-1.0516 31.33782,8.8248 2.70333,3.8498 3.02706,5.0902 2.9951,11.4763 -0.0234,4.6782 -0.60654,8.2239 -1.68233,10.2295 l -1.64651,3.0695 9.18234,2.2193 c 10.05521,2.4303 25.24221,9.201 32.77133,14.6102 l 4.80182,3.4497 2.60873,-5.7091 c 3.02684,-6.6241 7.44101,-11.5807 12.75045,-14.3171 l 3.75,-1.9327 0,3.3604 c 0,5.4993 3.71846,18.3686 7.22186,24.9942 2.12947,4.0273 5.8822,8.6289 10.75353,13.1861 4.11541,3.85 10.08331,9.6233 13.262,12.8295 l 5.77943,5.8295 4.24159,-1.6095 c 4.56633,-1.7328 15.03033,-3.6527 14.47428,-2.6558 -4.30678,7.7215 -6.59475,16.5335 -7.29752,28.1063 -0.52685,8.6758 -0.26806,10.7032 2.98304,23.3694 2.17905,8.4896 3.3193,14.8899 2.93957,16.5 -0.79261,3.3609 -4.80051,8.762 -7.62259,10.2723 -2.53338,1.3558 -9.03559,1.3031 -11.64698,-0.095 -1.65567,-0.8861 -1.85307,-0.1896 -2.47851,8.745 -2.79578,39.9383 -20.70128,74.6409 -51.9662,100.7155 -25.40139,21.1846 -51.85178,31.2154 -86.6435,32.8581 -5.225,0.2467 -13.55357,0.092 -18.50793,-0.3434 z m 28.08425,-7.1201 c 32.85202,-3.3012 60.59948,-16.8314 84.92368,-41.4103 26.1349,-26.4085 38.72682,-56.4271 38.92099,-92.786 l 0.079,-14.7941 3.5,3.9528 c 1.925,2.1741 4.47566,4.44 5.66814,5.0355 3.12915,1.5625 8.06683,0.2501 10.46388,-2.7812 2.52443,-3.1924 2.12858,-8.2699 -1.64248,-21.0676 -3.66528,-12.4387 -3.1304,-31.0438 1.12931,-39.2812 1.3566,-2.6233 1.3154,-2.7701 -0.77745,-2.7701 -3.5279,0 -10.49185,3.8378 -13.79931,7.6048 -3.38867,3.8595 -7.97865,12.361 -8.15899,15.1119 -0.0643,0.9808 -0.51392,-0.6023 -0.99916,-3.518 -0.99525,-5.9803 -0.0357,-8.6784 5.21176,-14.655 2.02308,-2.3041 2.85827,-4.1134 2.46737,-5.345 -0.32501,-1.024 -5.28618,-5.9849 -11.02483,-11.0243 -14.17492,-12.4476 -19.75578,-21.0024 -22.62049,-34.6744 -0.69145,-3.3 -1.39176,-6.1735 -1.55625,-6.3855 -0.83892,-1.0812 -5.60869,3.4374 -7.54758,7.1501 -1.95432,3.7423 -2.21776,5.807 -2.26286,17.7354 -0.0281,7.425 0.32019,14.8377 0.77393,16.4728 0.82078,2.9577 0.81441,2.9633 -1.25,1.095 -1.14124,-1.0328 -2.07498,-1.6724 -2.07498,-1.4213 0,0.2511 2.89257,4.8438 6.42792,10.206 11.82062,17.9288 17.34134,35.345 18.27355,57.6475 0.94453,22.597 -2.52819,40.013 -11.66478,58.5 -15.12161,30.597 -44.41904,54.7028 -76.75934,63.1573 -12.00144,3.1374 -36.1334,4.311 -49.43127,2.4039 -10.27694,-1.4739 -26.7531,-6.8535 -36.23293,-11.8304 -20.6958,-10.8653 -40.35474,-30.6588 -51.20118,-51.5517 -9.25125,-17.8201 -12.74329,-32.4338 -12.82699,-53.6791 -0.10607,-26.925 5.53205,-45.8417 20.02373,-67.1824 3.10651,-4.5747 4.76747,-7.5301 3.69101,-6.5676 -2.70849,2.4217 -3.41715,2.189 -2.29799,-0.7546 3.06664,-8.0659 1.96812,-27.7666 -1.97354,-35.393 -1.76417,-3.4134 -5.67658,-6.7874 -6.69249,-5.7715 -0.25826,0.2583 -1.09162,3.4427 -1.85192,7.0766 -2.15743,10.3114 -7.73301,20.0154 -15.8537,27.5925 -3.83149,3.575 -9.7009,9.0603 -13.04314,12.1896 l -6.07678,5.6896 2.64296,2.8104 c 5.40126,5.7434 6.84381,9.322 6.77625,16.8104 l -0.0632,7 -1.26836,-4 c -4.01164,-12.6515 -13.44037,-22.5 -21.54098,-22.5 -1.77704,0 -1.88722,0.3155 -0.96025,2.75 3.83356,10.0678 4.0415,29.0049 0.45843,41.75 -4.04369,14.3835 -3.36436,19.4177 2.8992,21.4849 4.46874,1.4748 9.25434,-0.6189 12.79766,-5.5988 l 2.48936,-3.4987 0.55136,16.8063 c 0.57175,17.4276 1.9751,26.1481 6.2926,39.1026 15.24147,45.7314 59.16241,83.5298 106.41477,91.5807 16.14973,2.7517 25.04479,3.086 40.57632,1.5252 z m -2.73987,-30.9203 c 25.33407,-2.6686 46.8344,-12.5012 65.41313,-29.915 15.59886,-14.6208 27.02522,-33.5258 32.47472,-53.7297 2.4441,-9.0615 2.65335,-11.375 2.65335,-29.3372 0,-17.9242 -0.2145,-20.3081 -2.65439,-29.5 -5.74438,-21.6411 -18.85442,-41.9032 -36.88042,-57 -15.48303,-12.9672 -32.12905,-21.2341 -50.2561,-24.9589 -9.3775,-1.9269 -33.36323,-2.2137 -42.7519,-0.5112 -34.04882,6.1742 -66.32579,30.2201 -81.8407,60.9701 -7.81471,15.4884 -11.28013,31.1564 -11.28013,51 0,32.7439 10.46107,57.983 33.46579,80.7419 20.26534,20.0489 41.46269,29.8078 70.8202,32.6046 7.10246,0.6766 11.7183,0.5958 20.83645,-0.3646 z m -13.6398,-66.7319 c -1.33618,-1.1548 -2.89193,-5.2733 -4.57401,-12.1086 -2.51835,-10.2336 -6.99202,-20.3623 -18.61305,-42.1414 -4.68373,-8.7779 -5.02391,-9.8782 -4.47504,-14.475 0.32672,-2.7363 1.0702,-5.5488 1.65219,-6.25 2.02071,-2.4348 6.26027,-1.4422 9.86709,2.3103 4.38713,4.5643 7.94248,6.4147 12.32508,6.4147 3.95413,0 5.83643,-1.5416 8.67432,-7.1044 1.09308,-2.1426 2.25548,-3.8956 2.58312,-3.8956 0.32763,0 2.80533,1.622 5.506,3.6045 4.33457,3.1818 5.12788,3.4456 6.76596,2.25 10.2289,-7.4663 11.11497,-7.9559 11.60194,-6.4096 0.26936,0.8553 0.71075,2.2564 0.98085,3.1137 0.6928,2.1987 -1.12893,9.6927 -3.67075,15.1002 -2.5073,5.334 -5.31772,6.8456 -14.70204,7.9073 -4.50526,0.5097 -7.12368,1.4089 -9.20702,3.162 -3.76565,3.1686 -3.81268,7.1563 -0.30496,25.8592 2.52427,13.4591 2.55415,14.0623 0.9489,19.1547 -1.81419,5.7553 -2.35134,6.1069 -5.35858,3.508 z m -67.1069,-143.7372 c 12.70055,-9.3496 27.68825,-16.1226 40.97783,-18.5181 7.91296,-1.4264 15.31698,-5.3213 18.80267,-9.8913 2.18095,-2.8593 2.62975,-4.4975 2.62975,-9.5986 0,-5.0366 -0.49839,-6.904 -2.75112,-10.3081 -3.50766,-5.3005 -9.09333,-8.1967 -15.80791,-8.1967 -6.21984,0 -10.93315,2.0881 -14.8928,6.5979 -5.88357,6.701 -6.09788,16.7009 -0.51501,24.0302 l 2.38277,3.1282 -6.20797,1.1971 c -14.59988,2.8155 -34.64882,11.2513 -42.89402,18.0482 l -3.68606,3.0386 -0.31394,10.3818 -0.31394,10.3819 8.15864,-7.8368 c 4.48725,-4.3102 10.98125,-9.9146 14.43111,-12.4543 z m 159.74383,9.9628 -0.0434,-10.5243 -6.29874,-4.4947 c -3.46434,-2.4721 -9.15462,-5.7841 -12.64511,-7.3599 -8.03557,-3.6279 -23.90099,-8.6989 -30.09043,-9.6178 l -4.7441,-0.7043 2.45567,-2.9183 c 4.40621,-5.2365 5.56078,-12.459 2.97948,-18.6385 -3.31561,-7.9373 -9.73809,-12.3607 -17.94695,-12.3607 -6.27776,0 -10.06013,1.7389 -14.30948,6.5787 -6.26995,7.141 -6.41767,16.0932 -0.3759,22.7807 4.67917,5.1793 7.00554,6.2676 19.83701,9.2797 19.6669,4.6166 38.15244,15.3198 53.6155,31.0435 3.97808,4.0451 7.3177,7.3785 7.42137,7.4075 0.10368,0.029 0.16896,-4.6832 0.14508,-10.4716 z M -34.6606,413.45 c -1.40145,-1.8374 -3.14982,-5.0787 -3.88527,-7.203 l -1.33718,-3.8624 -0.68778,3.4389 c -0.37829,1.8914 -2.04902,5.1328 -3.71274,7.2031 l -3.02496,3.7642 7.59802,0 7.59801,0 -2.5481,-3.3408 z m 885.21322,263.4079 c -4.3972,-2.7886 -6.7669,-5.6057 -6.7669,-8.0442 0,-1.588 8.8601,-10.8438 11.0436,-11.5368 1.0247,-0.3252 4.0521,0.5421 6.8618,1.9659 6.2589,3.1716 8.0034,3.1777 13.8824,0.048 2.583,-1.375 5.2611,-2.5 5.9514,-2.5 0.6903,0 3.0563,1.6274 5.2579,3.6164 4.9313,4.4551 5.2509,7.8361 1.1552,12.2206 -3.5758,3.8279 -7.3313,4.7974 -12.8576,3.3194 -6.2222,-1.6642 -8.3011,-1.4501 -12.7947,1.3176 -5.1374,3.1642 -6.158,3.1288 -11.7331,-0.4068 z M 321.0356,672.8568 c -2.22761,-1.6136 -4.30326,-3.3434 -4.61255,-3.8438 -1.09282,-1.7682 1.473,-8.1787 4.47518,-11.1809 3.63296,-3.6329 6.76751,-3.8666 13.2719,-0.9894 5.01996,2.2205 5.13483,2.1926 11.21858,-2.7312 5.8207,-4.7109 8.58459,-4.4189 14.53987,1.5364 2.67143,2.6714 4.85714,5.5885 4.85714,6.4825 0,0.8939 -1.94786,3.6581 -4.32858,6.1428 -4.90438,5.1185 -6.67256,5.4492 -14.17142,2.6504 -5.62057,-2.0977 -6.32062,-1.9819 -12.18018,2.0155 -5.28739,3.607 -8.0006,3.5899 -13.06994,-0.082 z m 947.2278,-5.1934 c -5.9231,-5.4597 -6.1781,-9.5327 -0.9082,-14.5029 4.6431,-4.379 7.2285,-4.9297 13.4475,-2.8641 l 5.1131,1.6983 5.8357,-3.6019 c 7.2943,-4.5023 10.0276,-4.5514 14.7057,-0.2643 5.1512,4.7208 4.9494,8.7603 -0.7013,14.0311 -3.8435,3.5852 -4.456,3.8215 -8.3098,3.2058 -12.5256,-2.0009 -11.8095,-2.0978 -17.1578,2.3217 -2.7312,2.257 -5.5467,4.1037 -6.2566,4.1037 -0.7099,0 -3.3056,-1.8573 -5.7683,-4.1274 z M 210.28572,663.3919 c -6.23232,-1.971 -9.65391,-4.0841 -14.20216,-8.7709 -6.83199,-7.0402 -8.74789,-12.4616 -8.7749,-24.8302 -0.0203,-9.2915 0.27877,-11.1331 2.59831,-16 2.67909,-5.6214 13.1679,-19.6326 13.63899,-18.2193 0.14339,0.4302 -1.094,4.7899 -2.74977,9.6883 -3.95498,11.7004 -3.958,17.3461 -0.013,24.2248 9.16673,15.9833 35.22601,20.2126 57.50249,9.3324 9.58113,-4.6795 15.55086,-11.3853 16.96867,-19.0608 0.37033,-2.0048 -2.14778,-28.7547 -5.97434,-63.4654 -3.63796,-33 -6.67888,-61.5828 -6.75761,-63.5172 -0.0877,-2.1547 1.13919,-6.2222 3.16706,-10.5 2.79375,-5.8934 3.44004,-6.6708 4.14244,-4.9828 0.45774,1.1 3.37636,16.85 6.48584,35 3.34726,19.5379 6.80321,36.4675 8.4717,41.5 1.54996,4.675 3.13484,10.075 3.52194,12 2.09399,10.4129 10.70749,20.8757 21.25623,25.8199 5.13385,2.4062 6.84195,2.6771 16.71807,2.6506 10.70004,-0.029 11.45523,-0.1837 27.69388,-5.6841 l 16.69388,-5.6546 11.18507,3.4341 c 12.24518,3.7595 18.2805,4.2757 21.73135,1.8587 2.16191,-1.5143 2.2239,-1.9703 1.59749,-11.75 -0.5265,-8.22 -0.33953,-10.9185 0.97326,-14.0466 1.55825,-3.7131 1.71735,-3.8108 3.87502,-2.3796 1.23753,0.8208 3.31612,3.5617 4.6191,6.0908 1.97102,3.8259 2.36905,6.0962 2.36905,13.5131 0,18.5737 -7.09375,28.3657 -21.6157,29.8378 -4.20855,0.4266 -7.38297,-0.2246 -17.79359,-3.65 l -12.67118,-4.1692 -11.32882,5.0185 c -14.95903,6.6267 -21.07228,8.1106 -33.41314,8.1106 -11.55578,0 -15.59507,-1.1069 -23.71529,-6.4984 -3.40133,-2.2583 -6.41727,-3.5373 -7.85974,-3.3331 -2.16023,0.3059 -2.39531,0.9479 -3.05053,8.3315 -0.39047,4.4 -1.21221,10.025 -1.82611,12.5 -5.55605,22.3999 -31.28852,39.1325 -59.87392,38.9331 -5.27452,-0.037 -11.39004,-0.6362 -13.59004,-1.332 z m 342.26171,-0.5739 c -3.91587,-3.0802 -6.00134,-8.263 -4.70522,-11.6934 3.12984,-8.2834 10.61851,-10.8127 16.02043,-5.4107 8.27218,8.2721 -2.27492,24.2152 -11.31521,17.1041 z m -146.36167,-1.8583 c -5.68269,-4.1252 -7.01637,-7.0764 -4.97866,-11.0169 2.09308,-4.0476 8.21298,-10.152 10.17769,-10.152 4.54336,0 12.04552,9.2956 10.96777,13.5897 -0.80077,3.1905 -8.02507,10.4103 -10.4168,10.4103 -1.01748,0 -3.60498,-1.274 -5.75,-2.8311 z m 1128.09994,-0.2882 c -24.5763,-1.9023 -36.929,-12.9742 -38.2369,-34.272 -0.4274,-6.9588 -0.1211,-9.2277 2.1594,-15.9989 3.1753,-9.4276 6.5851,-15.4824 11.8155,-20.9807 3.1465,-3.3076 4.0457,-3.7945 4.8015,-2.5995 1.5739,2.4886 1.0948,5.3607 -2.5937,15.5505 -2.8425,7.8524 -3.4208,10.6298 -2.8881,13.8692 2.0708,12.5929 8.8766,19.051 23.2983,22.1077 13.1573,2.7888 27.14,1.2374 39.2209,-4.3517 12.4011,-5.7371 17.9231,-11.6598 17.9231,-19.2233 0,-2.5462 -3.15,-32.9131 -7,-67.482 -3.85,-34.569 -6.9956,-64.9108 -6.9902,-67.4263 0.01,-2.7507 0.9971,-6.6947 2.487,-9.895 2.0403,-4.3827 2.872,-5.2646 4.7158,-5 2.1446,0.3078 2.521,2.0163 8.972,40.7279 9.0018,54.018 12.3249,66.4791 20.2175,75.8111 8.1561,9.6437 29.4376,13.5358 53.5979,9.8025 13.5187,-2.0889 16.2614,-3.0596 22.0514,-7.8044 16.5068,-13.5268 15.9486,-13.413 15.9486,-3.251 0,6.3568 0.2871,7.6185 1.9343,8.5 2.843,1.5215 10.9416,1.2612 17.0321,-0.5475 6.9375,-2.0602 14.3336,-9.4043 18.7997,-18.6673 2.2944,-4.7589 3.8048,-6.75 5.1203,-6.75 1.5464,0 1.9464,0.9702 2.3358,5.6661 0.5825,7.0239 2.9121,9.3339 9.4133,9.3339 5.1731,0 5.7063,-0.867 6.7222,-10.9296 0.7274,-7.2049 3.3741,-13.5704 5.6423,-13.5704 0.825,0 2.3888,1.8 3.4751,4 1.5799,3.1997 1.9531,5.9007 1.8651,13.5 -0.1774,15.3228 -5.7193,26.5352 -14.401,29.1363 -3.1123,0.9325 -5.4421,0.8469 -11.8324,-0.4348 l -7.957,-1.596 -11.3119,4.9215 c -15.0311,6.5396 -17.1616,6.7818 -29.7936,3.3873 -11.6241,-3.1237 -10.9143,-3.2071 -27.0443,3.1778 -9.3937,3.7184 -9.6882,3.7654 -26.317,4.2011 -19.387,0.508 -26.8964,-0.5669 -33.9061,-4.8534 -9.9818,-6.104 -12.5302,-4.4866 -15.1454,9.6122 -2.2196,11.9655 -4.5702,16.5974 -12.3627,24.3606 -13.9341,13.8816 -30.4601,19.6175 -51.7688,17.9681 z m 365.7843,-6.2432 c -8.6915,-2.2258 -10.6695,-5.6162 -5.6019,-9.6023 2.4094,-1.8952 3.5034,-2.0452 10.75,-1.4736 18.1957,1.4351 38.2267,-7.6371 57.373,-25.9847 12.7798,-12.2467 22.042,-27.5769 16.6614,-27.5769 -0.8433,0 -3.7534,1.125 -6.4668,2.5 -8.0275,4.0678 -13.2861,3.0865 -19.638,-3.6647 -8.2017,-8.7173 -8.3206,-17.6418 -0.4589,-34.442 5.3584,-11.4507 12.0112,-15.0746 20.0462,-10.9196 9.4313,4.8771 19.2803,25.2529 19.1996,39.7205 -0.1223,21.9486 -20.3834,55.7966 -39.0663,65.2639 -11.1888,5.6698 -41.1124,9.172 -52.7983,6.1794 z m 69.0038,-84.4843 c 1.5968,-0.6306 1.467,-1.0136 -1.2139,-3.5821 -2.5124,-2.4071 -3.2524,-2.6682 -4.538,-1.6011 -4.0487,3.3601 0.3443,7.3188 5.7519,5.1832 z m -196.251,83.2989 c -8.7955,-1.0082 -11.7655,-1.7278 -12.7632,-3.0922 -1.0962,-1.4991 -1.0158,-2.0625 0.5122,-3.5905 1.3913,-1.3913 4.4733,-2.0445 13.2632,-2.8113 16.1166,-1.4059 23.6668,-2.8321 29.5589,-5.5837 14.2485,-6.654 38.77,-30.9002 42.4121,-41.936 0.6434,-1.9496 0.897,-4.6317 0.5636,-5.9603 -0.3335,-1.3286 -4.3914,-6.1499 -9.0176,-10.7141 -4.6263,-4.5642 -8.714,-9.5043 -9.0839,-10.9782 -1.2121,-4.8294 3.6107,-14.7858 7.1621,-14.7858 2.4074,0 10.0973,4.9044 12.8857,8.2182 9.6845,11.5094 11.4178,28.5669 4.5612,44.8861 -6.8014,16.1879 -26.3556,39.4252 -38.0377,45.2023 -5.093,2.5186 -6.2608,2.6858 -18,2.5765 -6.9046,-0.064 -17.712,-0.7083 -24.0166,-1.431 z m -995.34441,-1.6062 c -8.63007,-0.9864 -19.19267,-4.7286 -19.19267,-6.7997 0,-2.0129 4.61613,-4.9912 8,-5.1615 1.65,-0.083 6.825,0.1785 11.5,0.5812 16.9183,1.457 29.1322,-3.5733 43.7247,-18.0082 9.8895,-9.7827 14.3566,-17.2171 16.1665,-26.9048 l 0.9159,-4.9027 -4.6535,-4.2132 c -4.2379,-3.8368 -4.6536,-4.6192 -4.6536,-8.7594 0,-3.6208 0.5721,-5.1435 2.8106,-7.4799 2.3878,-2.4924 3.7871,-3.012 9.3035,-3.4548 9.2822,-0.7451 14.4614,-4.2109 21.0664,-14.097 2.8584,-4.2783 5.3457,-8.2247 5.5274,-8.7696 0.1816,-0.5449 1.1211,-0.6873 2.0877,-0.3164 3.1998,1.2279 6.6409,8.8498 8.8109,19.5157 2.5401,12.4855 4.4498,16.5328 10.0717,21.3449 13.0154,11.1407 28.5434,12.1644 37.3109,2.4599 4.3651,-4.8317 6.872,-10.169 8.4634,-18.019 1.002,-4.943 0.5159,-11.3585 -3.9402,-52 -4.3776,-39.9263 -5.4404,-47.2811 -7.6567,-52.987 -1.9742,-5.083 -2.4164,-7.5548 -1.8992,-10.6164 0.7571,-4.481 7.6071,-18.4459 9.3297,-19.0201 0.6145,-0.2048 2.4836,2.3344 4.1536,5.6427 1.6701,3.3083 4.6168,7.276 6.5483,8.8172 4.5748,3.6503 4.6021,6.9989 0.1685,20.6718 l -3.3436,10.3111 3.3104,25.4096 c 2.5274,19.4 3.3256,29.3121 3.3749,41.9097 l 0.065,16.5 2.5765,1.878 2.5764,1.8781 8.6422,-6.1616 c 4.7531,-3.3888 11.5671,-7.609 15.1421,-9.378 5.7794,-2.86 7.4423,-3.2165 15,-3.2165 7.4444,0 9.2451,0.3725 14.49998,3 11.589,5.7945 13.2364,13.5553 5.9897,28.218 -7.9385,16.0625 -23.34098,25.7 -49.98968,31.2791 -19.4359,4.0691 -44.2359,5.1899 -56.644,2.5599 -16.4245,-3.4813 -26.9187,-13.8739 -31.3258,-31.0228 -2.5403,-9.8847 -4.8807,-10.5554 -12.7431,-3.6521 -5.9474,5.2219 -8.8275,10.3973 -10.7942,19.3967 -4.4389,20.313 -19.2198,42.6946 -32.756,49.6003 -9.2644,4.7264 -20.5075,5.9143 -37.54423,3.9668 z m 192.95203,-61.9625 c 9.596,-2.9626 23.7126,-10.2535 25.6868,-13.2666 1.6161,-2.4664 1.5776,-2.5844 -1.6434,-5.0412 -11.9835,-9.1402 -20.5393,-8.1099 -37.3452,4.4972 -9.7777,7.3348 -13.3429,10.9749 -13.3429,13.6233 0,2.2499 0.2317,2.3039 9.8947,2.3039 7.2502,0 11.7268,-0.5657 16.75,-2.1166 z m -487.68184,30.625 c -13.58166,-2.7086 -18.86626,-6.563 -23.79289,-17.3537 -3.52761,-7.7264 -5.30795,-21.8991 -7.24244,-57.6547 -0.65177,-12.0468 -2.15755,-27.0935 -3.53185,-35.2923 -1.31762,-7.8608 -2.39568,-15.31 -2.39568,-16.5537 0,-3.81 4.93877,-12.654 7.06639,-12.654 4.80318,0 6.18112,8.4602 8.42929,51.7538 0.80695,15.5397 1.93427,31.1778 2.50516,34.7514 1.68407,10.5419 6.79641,23.455 10.94272,27.64 6.0762,6.1328 10.8614,7.0568 39.38001,7.6041 43.21836,0.8295 74.22926,-3.1271 99.95815,-12.7535 5.45837,-2.0423 5.71828,-2.2983 5.71828,-5.6334 0,-3.9993 -0.8604,-5.8522 -5.60223,-12.0643 -3.99277,-5.2308 -4.37591,-9.5465 -1.4247,-16.0481 2.64074,-5.8177 5.6271,-5.7949 10.44086,0.08 8.15634,9.9537 10.45601,21.6348 6.61253,33.588 -3.2056,9.9694 -7.20411,14.2342 -16.82384,17.9439 -15.31279,5.9053 -39.68106,10.8742 -64.20262,13.0917 -16.17719,1.4628 -57.87975,1.1819 -66.03714,-0.4449 z m 188.6493,-14.7584 c -1.40581,-2.2059 -10.17854,-71.1746 -12.77348,-100.4214 l -1.16863,-13.1714 3.28851,-9.1932 c 2.62156,-7.3287 3.0195,-9.3596 1.96208,-10.0131 -1.80527,-1.1157 -6.39557,-0.1797 -12.5794,2.5651 l -5.15876,2.2898 -0.57758,-2.1529 c -0.31768,-1.1841 -0.58374,-3.7887 -0.59125,-5.7879 -0.0104,-2.7569 -0.61255,-4.0274 -2.49284,-5.2594 -1.36355,-0.8935 -3.1468,-2.9155 -3.96278,-4.4934 -1.3757,-2.6603 -1.30173,-3.2339 1.01729,-7.8875 2.88997,-5.7995 13.35759,-17.6216 17.49867,-19.763 5.12929,-2.6524 9.04015,-1.8143 15.41303,3.3031 2.47444,1.987 2.68451,2.5633 1.71226,4.6971 -1.50049,3.2933 -4.58317,5.1459 -11.60065,6.9719 -3.24575,0.8446 -6.08416,1.7184 -6.30757,1.9418 -0.22342,0.2234 1.0822,1.4678 2.90136,2.7653 3.12851,2.2313 3.99786,2.3417 16.05758,2.0392 10.78278,-0.2705 12.75,-0.09 12.75,1.1731 0,2.4706 -5.49671,7.1839 -10.65465,9.136 -6.59927,2.4976 -9.27592,4.3638 -9.87267,6.8835 -0.27711,1.17 2.81902,28.0023 6.8803,59.6273 7.82649,60.9446 8.1362,66.2859 4.27632,73.75 -1.96752,3.8047 -4.01302,4.1446 -6.01714,1 z m 1223.96942,-8.9063 c -0.277,-1.2891 -3.2057,-25.5187 -6.5084,-53.8437 -6.3177,-54.1836 -6.4509,-57.5333 -2.5845,-64.9617 1.4654,-2.8153 6.2605,-7.6224 6.9328,-6.9502 0.2362,0.2362 3.5161,22.0255 7.2887,48.4207 l 6.8593,47.9912 -1.311,10 c -1.3981,10.6657 -4.1715,17.7065 -7.9659,20.2232 -2.0493,1.3593 -2.2435,1.2963 -2.711,-0.8795 z M 771.51806,537.4033 c -7.35962,-57.8727 -7.62099,-60.6245 -6.20977,-65.3766 1.57141,-5.2915 4.85928,-10.2359 6.80652,-10.2359 0.81923,0 3.32414,18.0184 8.13168,58.4933 6.36716,53.6053 6.85199,59.0523 5.80178,65.1834 -1.06211,6.2006 -3.52195,11.2431 -5.86572,12.0243 -0.58083,0.1936 -4.11779,-24.3353 -8.66449,-60.0885 z m 483.94284,-17.1676 c -2.5748,-1.4467 -2.7023,-1.7715 -1.4416,-3.6702 0.7607,-1.1456 4.5068,-3.8428 8.3247,-5.9937 3.8179,-2.1509 8.0667,-5.0255 9.4417,-6.3879 l 2.5,-2.4771 -2.5,-1.9358 c -3.6228,-2.8052 -6.0814,-2.4644 -15.1626,2.1015 -6.3784,3.207 -8.2992,3.7964 -8.9625,2.75 -1.1386,-1.796 -1.0934,-2.3731 0.4814,-6.1419 1.5803,-3.7823 10.3724,-12.0006 15.8016,-14.7704 2.0693,-1.0557 5.0179,-1.9166 6.5523,-1.913 4.6818,0.011 30.2898,7.1155 30.2898,8.4037 0,3.756 -7.8836,13.066 -17,20.0757 -12.7487,9.8028 -22.5005,13.2316 -28.3248,9.9591 z M 844.94352,493.977 c -2.382,-1.6296 0.742,-4.8265 9.1262,-9.3391 8.7805,-4.7259 11.0619,-7.3898 8.1515,-9.518 -2.5534,-1.8671 -6.5556,-1.6554 -12.6748,0.6704 -8.9111,3.3869 -10.4626,2.3893 -7.1479,-4.5961 1.8136,-3.8217 8.8931,-9.4126 15.772,-12.4555 l 4.5832,-2.0273 8.7848,2.9432 c 12.4236,4.1622 20.2472,8.0344 20.2472,10.0211 0,5.41 -9.4349,13.1683 -24.7311,20.3364 -8.821,4.1336 -19.1556,5.9868 -22.1111,3.9649 z m 947.90048,-5.616 c -0.7388,-0.8902 -1.1667,-1.7464 -0.9508,-1.9027 0.2159,-0.1563 5.1175,-3.2687 10.8925,-6.9165 15.7757,-9.9648 15.0048,-9.1801 11.0357,-11.2326 -4.3421,-2.2454 -8.8264,-1.5079 -14.7699,2.4289 -5.2073,3.4491 -7.05,3.7786 -7.9543,1.4221 -0.966,-2.5174 2.5148,-7.9932 8.7513,-13.7671 7.8183,-7.2384 11.8413,-9.0024 18.8522,-8.2666 4.5736,0.48 19.608,3.9279 27.335,6.2689 2.7189,0.8237 2.0861,4.423 -1.7892,10.1774 -4.3607,6.4753 -9.9004,10.5978 -23.4238,17.4311 -9.6422,4.8721 -11.0973,5.3139 -18.5492,5.6312 -6.5234,0.2779 -8.3459,0.032 -9.4295,-1.2741 z m -661.9572,-3.5571 c -2.4194,-1.1268 -4.0704,-2.3772 -3.6689,-2.7786 0.4015,-0.4015 5.981,-3.7043 12.3989,-7.3396 13.1024,-7.4216 14.2211,-9.1478 7.9231,-12.2253 -4.6442,-2.2693 -7.6633,-1.6985 -15.2821,2.8894 -3.1429,1.8925 -6.7849,3.441 -8.0933,3.441 -2.0746,0 -2.3788,-0.4711 -2.3788,-3.6839 0,-3.0969 0.7632,-4.4113 4.79,-8.25 2.6345,-2.5114 7.9204,-6.1411 11.7464,-8.0661 8.5707,-4.3122 12.5711,-4.3271 30.4136,-0.1136 12.9879,3.0671 15.6215,4.6278 14.446,8.5611 -1.616,5.4073 -17.4369,17.5096 -32.8441,25.1243 -9.215,4.5543 -13.7042,5.1177 -19.4508,2.4413 z m 793.3095,-9.5131 c -1.7454,-6.9544 3.9348,-13.1673 20.1075,-21.9931 12.816,-6.994 26.3562,-15.7058 35.3567,-22.7486 5.7818,-4.5242 6.7429,-4.9388 10.3326,-4.4573 2.1768,0.2919 4.1915,0.7645 4.4771,1.0501 0.2856,0.2856 -0.2515,2.8398 -1.1935,5.676 -1.5529,4.6752 -2.3794,5.5823 -8.8519,9.7147 -3.9265,2.5069 -14.1141,9.1824 -22.6391,14.8345 -12.7128,8.4286 -34.0952,20.4237 -36.4071,20.4237 -0.3051,0 -0.8372,-1.125 -1.1823,-2.5 z M 224.78572,468.2411 c 0,-6.4644 2.16227,-8.8129 15.23417,-16.5465 6.7462,-3.9912 20.02013,-12.114 29.4976,-18.0507 25.74974,-16.1295 27.26823,-16.739 27.26823,-10.9453 0,3.901 -6.84515,10.418 -21,19.9933 -20.40865,13.8057 -46.67353,29.0989 -49.97504,29.0989 -0.56373,0 -1.02496,-1.5974 -1.02496,-3.5497 z m 1433.34488,1.006 c -0.8251,-2.15 0.2953,-8.3144 1.8567,-10.2162 2.1611,-2.6321 24.1227,-16.7696 35.5601,-22.8914 5.9061,-3.1611 16.8921,-9.8867 24.4133,-14.9458 18.3424,-12.3378 23.825,-14.0434 23.825,-7.412 0,6.5398 -11.5539,15.9462 -40,32.5654 -10.175,5.9446 -23.2687,13.8763 -29.0972,17.626 -10.6469,6.8497 -15.3753,8.3558 -16.5579,5.274 z m 214.9121,-5.7063 c 0.4876,-5.0059 0.3307,-5.4466 -3.3728,-9.4777 -2.2279,-2.4248 -3.8842,-5.2371 -3.8842,-6.595 0,-3.6961 6.9668,-13.5159 14.8334,-20.9078 7.4597,-7.0095 10.3579,-8.4403 14.8255,-7.319 3.0132,0.7563 9.343,6.6537 9.3374,8.6995 -0.01,2.2329 -3.725,7.6261 -6.5224,9.459 -2.512,1.646 -2.813,1.6248 -7.2008,-0.507 -3.6521,-1.7743 -4.7504,-1.9593 -5.4249,-0.9134 -1.4024,2.1747 -0.4851,4.2188 2.5451,5.6711 2.4099,1.1551 5.1647,1.1704 17.2233,0.096 7.895,-0.7035 14.6986,-1.3188 15.119,-1.3673 0.4204,-0.048 0.9049,1.3676 1.0767,3.147 l 0.3122,3.2353 -22.1398,11.0147 c -12.1769,6.0581 -23.2872,11.0148 -24.6895,11.0148 -2.4741,0 -2.5345,-0.1557 -2.0382,-5.25 z m -503.5902,2.5834 c -3.1564,-3.1564 4.1845,-12.4272 18.8332,-23.7844 4.4,-3.4113 15.9689,-11.6804 25.7086,-18.3757 17.9634,-12.3484 22.7122,-14.4281 24.1844,-10.5915 1.0696,2.7872 0.7093,3.4594 -5.1408,9.5926 -11.4015,11.9533 -61.075,45.6695 -63.5854,43.159 z m 166.4107,-2.74 c -0.8062,-0.9715 -1.0437,-2.5921 -0.6245,-4.2622 1.0607,-4.2261 12.08,-14.233 24.0733,-21.8617 6.0264,-3.8332 20.3565,-13.1912 31.8447,-20.7955 16.6099,-10.9944 21.3732,-13.7041 23.2583,-13.2309 4.5904,1.1521 2.3107,6.461 -6.2761,14.6153 -6.2164,5.9032 -65.4259,46.0307 -68.914,46.7044 -1.1335,0.2189 -2.6462,-0.3073 -3.3617,-1.1694 z M 491.38106,461.0528 c -0.32744,-0.3275 -0.59534,-1.807 -0.59534,-3.2879 0,-3.6769 5.90467,-10.1562 15.61911,-17.139 14.66058,-10.5382 80.68891,-48.3808 82.48195,-47.2727 0.49442,0.3056 0.89894,2.0663 0.89894,3.9127 0,2.8321 -0.93566,4.2038 -5.98287,8.7713 -3.29057,2.9778 -13.07807,9.6064 -21.75,14.7303 -8.67192,5.1239 -24.99213,14.7946 -36.26713,21.4905 -25.15747,14.9402 -33.63049,19.5689 -34.40466,18.7948 z m 298.40466,-5.5805 c 0,-0.1752 0.66876,-2.5705 1.48614,-5.3229 1.37251,-4.6218 2.21326,-5.534 10.99706,-11.9315 11.113,-8.094 26.995,-18.1615 40.1279,-25.4369 10.3744,-5.7472 13.3889,-5.973 13.3889,-1.0028 0,3.5395 -7.1965,10.2411 -19.2725,17.9469 -34.4708,21.9963 -41.3288,26.0657 -43.92772,26.0657 -1.53988,0 -2.79978,-0.1434 -2.79978,-0.3185 z m 498.99998,-11.3749 c 0,-6.7927 10.8268,-15.2439 52.0651,-40.6412 11.3109,-6.966 21.5484,-12.6654 22.75,-12.6654 1.922,0 2.1849,0.5401 2.1849,4.4879 0,4.3822 -0.174,4.6263 -7.3813,10.3536 -8.8411,7.0258 -35.567,25.0564 -51.8708,34.9947 -7.6751,4.6785 -12.7921,7.1638 -14.75,7.1638 -2.7894,0 -2.9979,-0.2569 -2.9979,-3.6934 z m -401.59488,-9.8285 c -1.4784,-5.8904 6.1286,-12.4098 34.0949,-29.22 11,-6.612 22.3147,-13.4625 25.1438,-15.2234 6.501,-4.0464 9.7297,-3.8407 10.1645,0.6478 0.2406,2.4836 -0.4572,4.021 -3.1772,7 -3.9962,4.3768 -6.8778,6.3197 -37.6311,25.3725 -23.7628,14.722 -27.402,16.1757 -28.5949,11.4231 z m -101.4051,-2.3992 c 0,-3.337 0.69812,-4.6192 4.68666,-8.6077 6.49014,-6.4901 15.10164,-13.2725 34.08014,-26.8412 13.2886,-9.5007 16.9045,-11.63 19.75,-11.63 3.2722,0 3.4832,0.1994 3.4832,3.2918 0,2.5694 -0.9326,4.1823 -4.25,7.3499 -10.1073,9.6511 -52.4457,40.3583 -55.6451,40.3583 -1.78199,0 -2.1049,-0.6016 -2.1049,-3.9211 z M 617.8621,429.9335 c -0.64757,-1.21 -0.65824,-3.0732 -0.0306,-5.3463 0.87388,-3.1649 3.69654,-5.3146 30.38806,-23.1427 24.09252,-16.0922 30.05235,-19.6537 32.88843,-19.6537 3.50869,0 4.67773,1.2385 4.67773,4.9558 0,4.0465 -16.08449,16.8292 -39.35806,31.2788 -23.05148,14.3118 -26.508,15.7527 -28.56556,11.9081 z m 1234.7622,-15.5977 c -2.49,-5.465 2.9805,-12.1215 16.9502,-20.625 4.7911,-2.9164 14.5612,-9.1729 21.7112,-13.9034 20.8035,-13.7637 23.1116,-15.1029 24.8677,-14.429 1.9255,0.7389 2.2232,6.3915 0.5123,9.7281 -2.3016,4.4887 -7.6818,9.0433 -17.88,15.1363 -5.775,3.4503 -14.1,8.754 -18.5,11.7861 -7.4702,5.1478 -24.3082,14.7619 -25.8536,14.7619 -0.3791,0 -1.1926,-1.1047 -1.8078,-2.455 z"
       style="fill:#000000" />
    <g
       id="g4480"
       style="fill:#d40000"
       transform="translate(0,-440)">
      <path
         id="path4404"
         d="m 789.78572,895.4723 c 0,-0.1752 0.66876,-2.5705 1.48614,-5.3229 1.37251,-4.6218 2.21326,-5.534 10.99706,-11.9315 11.113,-8.094 26.995,-18.1615 40.1279,-25.4369 10.3744,-5.7472 13.3889,-5.973 13.3889,-1.0028 0,3.5395 -7.1965,10.2411 -19.2725,17.9469 -34.4708,21.9963 -41.3288,26.0657 -43.92772,26.0657 -1.53988,0 -2.79978,-0.1434 -2.79978,-0.3185 z"
         style="fill:#d40000"
         inkscape:connector-curvature="0" />
      <path
         id="path4398"
         d="m 785.78572,871.8697 c 0,-3.337 0.69812,-4.6192 4.68666,-8.6077 6.49014,-6.4901 15.10164,-13.2725 34.08014,-26.8412 13.2886,-9.5007 16.9045,-11.63 19.75,-11.63 3.2722,0 3.4832,0.1994 3.4832,3.2918 0,2.5694 -0.9326,4.1823 -4.25,7.3499 -10.1073,9.6511 -52.4457,40.3583 -55.6451,40.3583 -1.78199,0 -2.1049,-0.6016 -2.1049,-3.9211 z"
         style="fill:#d40000"
         inkscape:connector-curvature="0" />
    </g>
  </g>
</svg>
