<?xml version="1.0" encoding="UTF-8" standalone="no"?>
<!-- Created with Inkscape (http://www.inkscape.org/) -->

<svg
   xmlns:dc="http://purl.org/dc/elements/1.1/"
   xmlns:cc="http://creativecommons.org/ns#"
   xmlns:rdf="http://www.w3.org/1999/02/22-rdf-syntax-ns#"
   xmlns:svg="http://www.w3.org/2000/svg"
   xmlns="http://www.w3.org/2000/svg"
   xmlns:sodipodi="http://sodipodi.sourceforge.net/DTD/sodipodi-0.dtd"
   xmlns:inkscape="http://www.inkscape.org/namespaces/inkscape"
   width="272px"
   height="49px"
   viewBox="0 0 1929 348"
   id="svg4260"
   version="1.1"
   inkscape:version="0.91 r13725"
   sodipodi:docname="93_6.svg">
  <defs
     id="defs4262" />
  <sodipodi:namedview
     id="base"
     pagecolor="#ffffff"
     bordercolor="#666666"
     borderopacity="1.0"
     inkscape:pageopacity="0.0"
     inkscape:pageshadow="2"
     inkscape:zoom="1.4"
     inkscape:cx="1032.3472"
     inkscape:cy="185.02406"
     inkscape:document-units="px"
     inkscape:current-layer="layer1"
     showgrid="false"
     fit-margin-top="0"
     fit-margin-left="0"
     fit-margin-right="0"
     fit-margin-bottom="0"
     inkscape:window-width="1920"
     inkscape:window-height="1001"
     inkscape:window-x="-9"
     inkscape:window-y="-9"
     inkscape:window-maximized="1" />
  <metadata
     id="metadata4265">
    <rdf:RDF>
      <cc:Work
         rdf:about="">
        <dc:format>image/svg+xml</dc:format>
        <dc:type
           rdf:resource="http://purl.org/dc/dcmitype/StillImage" />
        <dc:title></dc:title>
      </cc:Work>
    </rdf:RDF>
  </metadata>
  <g
     inkscape:label="Layer 1"
     inkscape:groupmode="layer"
     id="layer1"
     transform="translate(589.5,-358.36221)">
    <path
       style="fill:#000000"
       d="m 979.25,705.32329 c -4.7843,-2.89915 0.5841,-9.90652 12.9169,-16.86054 8.9819,-5.06453 31.1299,-14.54272 46.7248,-19.99581 11.1777,-3.90849 12.0024,-4.05803 13.7347,-2.49034 1.7865,1.61672 1.7745,1.78971 -0.3916,5.64369 -2.5937,4.6149 -9.2172,8.19951 -44.8248,24.25912 -22.5995,10.19271 -25.3835,11.12637 -28.16,9.44388 z m 168.25,-0.81141 c 0,-0.46768 -2.7371,-20.38018 -6.0824,-44.25 -4.8559,-34.64771 -5.9521,-44.76763 -5.4362,-50.18319 1.7616,-18.49009 10.2352,-32.7976 23.0186,-38.86644 3.3,-1.56665 6.9308,-2.84882 8.0685,-2.84925 3.9437,-0.002 12.8966,-3.22468 17.2206,-6.19966 3.8464,-2.64643 4.5383,-2.82459 6.028,-1.55214 15.8564,13.54407 16.6708,13.96537 33.6443,17.40463 6.4802,1.31306 9.0888,1.40637 14.0013,0.50085 8.9245,-1.64506 16.0728,-3.9457 18.3743,-5.91369 1.8313,-1.56589 1.9421,-2.29334 1.1024,-7.24078 -2.0794,-12.2524 -6.1961,-42.34567 -8.3305,-60.89653 -2.024,-17.59029 -2.6237,-20.47617 -5.5959,-26.9243 l -3.3289,-7.22224 1.6877,-6.07047 c 2.011,-7.23317 5.6582,-14.70536 8.3767,-17.16169 2.6395,-2.38488 3.8102,-0.84348 4.7662,6.27523 0.5944,4.42597 1.3485,6.02451 3.862,8.18596 1.7178,1.47728 4.3391,3.72728 5.8251,5 l 2.7018,2.31404 -3.3395,11.5 -3.3395,11.5 4.9226,37 c 3.267,24.55593 4.7095,38.51302 4.2891,41.49867 -1.3873,9.85236 -6.6232,19.29949 -12.8021,23.09872 -4.8393,2.97555 -8.9161,3.75559 -25.3865,4.85738 -8.3888,0.56117 -16.7233,1.63492 -18.5211,2.38611 -2.9499,1.23256 -3.4985,2.1608 -5.6237,9.51526 -1.2951,4.48221 -3.6382,10.17321 -5.2068,12.64667 -2.51,3.95783 -3.2804,4.49719 -6.4237,4.49719 -10.3486,0 -16.6653,-10.40077 -18.125,-29.84342 -0.3574,-4.76112 -1.1443,-8.98719 -1.7486,-9.39127 -1.7223,-1.15157 -10.4514,-0.88975 -14.9142,0.44734 -5.6523,1.69346 -11.1962,7.26834 -12.7162,12.78735 -1.0755,3.90502 -0.6854,10.11921 2.9506,47 4.3356,43.97671 4.5447,53.1478 1.2712,55.75 -1.786,1.41977 -5.1902,1.68191 -5.1902,0.39967 z m -558.3333,-0.81634 c -1.3621,-1.36209 -0.6025,-6.02511 1.3171,-8.08561 5.5735,-5.98238 16.6628,-11.77993 44.3135,-23.16741 16.4896,-6.79095 20.3742,-8.04496 23.25,-7.50545 1.899,0.35625 3.4527,1.06209 3.4527,1.56855 0,1.93941 -2.8069,7.42973 -4.612,9.02095 -1.0384,0.91539 -15.2044,7.77789 -31.4799,15.25 -27.0871,12.43566 -34.192,14.96837 -36.2414,12.91897 z M -435.5,678.3172 c -43.55123,-3.86773 -82.91291,-27.87991 -107.72278,-65.71513 C -556.64365,592.13515 -565.5,564.12913 -565.5,542.15585 c 0,-6.28239 -0.18111,-6.93287 -1.75,-6.28538 -6.5424,2.70011 -10.805,2.18662 -15.0945,-1.81833 -5.98195,-5.58512 -6.24815,-9.63847 -1.6701,-25.42974 4.234,-14.60451 3.11681,-35.27895 -2.50146,-46.29167 l -2.02459,-3.96852 3.55187,0 c 1.95353,0 6.25714,0.91134 9.56358,2.0252 l 6.01171,2.0252 5.7087,-5.7752 c 3.13978,-3.17636 9.13442,-9.02298 13.32142,-12.99248 5.76001,-5.4608 8.48118,-8.98969 11.18114,-14.5 3.22066,-6.57301 6.70223,-19.43541 6.70223,-24.76089 l 0,-2.06248 3.84468,1.96141 c 4.98949,2.54545 9.85634,8.15433 12.74688,14.69036 l 2.3078,5.21834 8.21814,-5.40676 c 8.8559,-5.82635 19.09915,-10.14075 30.6325,-12.90224 3.9875,-0.95474 7.25,-2.08247 7.25,-2.50605 0,-0.42359 -0.675,-2.38566 -1.5,-4.36017 -3.09055,-7.39672 -1.28259,-17.07327 4.30305,-23.03072 6.01445,-6.41481 18.89762,-9.56236 26.88185,-6.56763 7.28558,2.73267 13.39921,9.02751 15.25599,15.70816 l 0.76042,2.73595 1.68028,-3.94617 c 2.68943,-6.31617 6.18854,-10.16072 11.78679,-12.95045 12.2824,-6.12057 27.81758,-1.26318 33.9232,10.60678 2.33695,4.54328 2.52594,13.37615 0.39529,18.4755 -0.83222,1.99178 -1.39472,3.72565 -1.25,3.85305 0.14472,0.1274 4.05732,1.20757 8.69466,2.40039 11.18846,2.87788 20.52919,6.94484 29.33605,12.77292 8.6726,5.73923 8.73242,5.76846 8.73242,4.26654 0,-2.27554 5.15974,-11.50047 8.20062,-14.66162 2.80859,-2.91968 8.44446,-6.11768 9.16672,-5.20154 0.16677,0.21153 1.02496,4.14466 1.9071,8.74028 0.88214,4.59562 3.22922,11.79562 5.21574,16 3.18636,6.74376 5.21887,9.20637 17.25287,20.90369 l 13.64101,13.25937 4.05797,-1.53938 c 4.01547,-1.52327 14.55797,-3.54384 14.55797,-2.79018 0,0.21477 -0.90425,2.16297 -2.00945,4.32934 -5.75876,11.2881 -6.87704,30.92082 -2.60672,45.76417 4.83641,16.81107 4.55801,20.14006 -2.22334,26.58618 -2.3296,2.21443 -3.93475,2.85621 -7.03654,2.8134 -2.21016,-0.0305 -4.91262,-0.53399 -6.00547,-1.11886 -1.09285,-0.58488 -2.17378,-1.06341 -2.40207,-1.06341 -0.22829,0 -0.67845,4.6125 -1.00036,10.25 -2.50543,43.87667 -26.41311,84.36578 -65.21605,110.44737 -25.2307,16.95894 -59.4496,25.19279 -92.5,22.25762 z m 39.69212,-8.51341 c 53.66204,-9.33931 98.74007,-52.83458 110.83312,-106.94158 0.86086,-3.85167 1.83152,-14.53739 2.15817,-23.75862 l 0.59366,-16.75863 2.88106,3.91763 c 3.40728,4.63318 7.45776,6.35696 11.92613,5.07545 6.83595,-1.96052 7.43165,-6.96549 2.77496,-23.31455 -2.91957,-10.25023 -3.09628,-11.75418 -2.50897,-21.35304 0.35641,-5.82502 1.45631,-12.7684 2.52331,-15.92898 l 1.8915,-5.60282 -3.5227,0.57166 c -7.70489,1.25033 -15.783,9.6242 -19.44015,20.1519 l -1.73692,5 -0.0289,-6.5 c -0.0307,-6.90839 1.54691,-10.7118 6.73102,-16.22741 l 2.5635,-2.72741 -4.96848,-4.77259 c -2.73267,-2.62492 -8.60339,-8.14759 -13.04605,-12.27259 -9.21997,-8.56072 -14.30254,-17.26527 -16.96488,-29.05447 -0.86268,-3.82004 -1.90899,-6.94553 -2.32514,-6.94553 -2.07766,0 -6.07111,4.54491 -7.69776,8.76075 -1.40659,3.6455 -1.8286,7.50867 -1.8286,16.73925 0,6.6 0.34297,13.54608 0.76214,15.43572 l 0.76215,3.43573 -2.66164,-2.43573 c -1.58939,-1.45447 -0.37682,0.85268 3.00992,5.72698 7.4066,10.65981 14.07742,24.8825 17.3821,37.05995 2.46689,9.09024 2.65335,11.21801 2.65335,30.27735 0,19.00748 -0.19118,21.204 -2.626,30.16954 -5.87123,21.61921 -15.17712,37.48285 -31.65338,53.9591 -16.49074,16.49075 -32.40376,25.82056 -53.9591,31.63625 -8.92272,2.40738 -11.25284,2.61063 -30.16954,2.63165 -19.06346,0.0212 -21.17759,-0.16163 -30.16954,-2.60887 -22.3554,-6.08422 -37.65298,-15.20628 -54.83046,-32.69584 -21.21958,-21.60509 -31.79858,-44.21451 -33.8777,-72.40336 -2.08377,-28.25203 4.75586,-55.42115 19.13249,-76.00011 5.90651,-8.45468 6.47791,-9.52991 3.8275,-7.20229 l -2.26149,1.98608 0.8396,-3.98608 c 1.60006,-7.59644 1.00811,-26.53515 -0.99161,-31.72532 -1.61686,-4.19645 -5.61473,-8.76075 -7.67354,-8.76075 -0.40427,0 -1.27827,2.8125 -1.94221,6.25 -0.66395,3.4375 -2.79671,9.57965 -4.73946,13.64922 -3.6629,7.67283 -7.26112,11.74381 -22.77354,25.76567 l -7.92654,7.1649 3.63668,4.02537 c 5.53549,6.12712 6.56749,8.79543 5.99042,15.4887 l -0.50383,5.84385 -1.76609,-5.01501 c -3.72161,-10.56786 -11.52496,-18.577 -19.33441,-19.8443 l -3.64409,-0.59135 1.56836,3.75361 c 0.8626,2.06448 2.07784,8.85131 2.70054,15.08183 1.12122,11.21864 1.10104,11.45205 -2.08615,24.12787 -3.73986,14.87381 -3.87215,17.14355 -1.19743,20.5439 4.00359,5.08974 10.36271,4.17029 16.0225,-2.31667 l 3.5,-4.01152 0.0487,14.79196 c 0.0926,28.13317 6.50313,49.16057 22.15512,72.67169 7.33197,11.01349 23.76168,28.20937 34.03319,35.62028 19.99137,14.42379 42.65002,23.31503 66.00454,25.90011 11.01033,1.21873 30.45127,0.54281 41.95059,-1.45853 z m -2.28223,-31.08656 c 22.02716,-4.15692 41.37164,-15.05844 58.67546,-33.06636 18.76106,-19.52445 28.97751,-42.10205 30.74762,-67.94998 1.94038,-28.33442 -3.82211,-52.09757 -17.56311,-72.42609 -19.57928,-28.96571 -52.36974,-48.63814 -84.57783,-50.74192 -23.86581,-1.55888 -41.35658,1.58307 -60.19203,10.81258 -30.32905,14.86146 -51.96169,41.22746 -60.70362,73.98595 -2.90616,10.89022 -3.62324,36.29263 -1.36996,48.5308 4.23187,22.98453 13.36635,40.9315 29.34556,57.65676 20.17623,21.11822 43.69075,32.57767 72.22802,35.19925 7.25652,0.66662 24.8617,-0.38779 33.40989,-2.00099 z m -18.92993,-65.54944 c -5.03965,-3.96419 -9.17736,-14.9322 -11.47596,-30.41986 -2.08122,-14.023 -3.94565,-20.16948 -6.89251,-22.72264 -0.9046,-0.78375 -5.01885,-1.66912 -9.37928,-2.01839 -15.58362,-1.24823 -23.60315,-9.581 -19.23832,-19.98976 1.47306,-3.51279 1.84545,-3.77537 4.30925,-3.03853 1.48327,0.4436 8.79952,0.82903 16.25832,0.85653 11.61233,0.0428 13.98381,0.32499 16.5,1.96339 4.45482,2.90071 5.18395,4.38616 6.4124,13.06368 2.92186,20.63959 4.04699,24.79773 10.22804,37.79969 5.95118,12.51842 6.05779,12.89018 4.85128,16.91715 -1.18098,3.94177 -5.86297,9.78316 -7.8414,9.78316 -0.51813,0 -2.19745,-0.98749 -3.73182,-2.19442 z M -492,431.28457 c 13.67587,-10.38764 26.06265,-16.15729 42.69644,-19.8876 15.08084,-3.38205 21.79226,-9.40093 21.79982,-19.55036 0.005,-6.07482 -2.35716,-10.84194 -7.38872,-14.91432 -3.01386,-2.43932 -4.82619,-3.05289 -9.98837,-3.38159 -6.44373,-0.41031 -10.68421,0.91547 -14.97558,4.6821 -6.88666,6.04457 -7.5709,20.79522 -1.20953,26.07469 2.56945,2.13245 1.87157,2.73438 -4.66011,4.01941 -14.65647,2.88348 -32.63065,10.38606 -41.77378,17.43675 l -4.49983,3.47002 -0.14297,10.31846 -0.14297,10.31846 7.1428,-7.01433 c 3.92854,-3.85788 9.8428,-9.06514 13.1428,-11.57169 z m 161.68534,8.56332 -0.31467,-10.51853 -5.24734,-3.96179 c -9.09463,-6.86651 -27.99813,-14.55072 -42.26009,-17.17859 l -6.39977,-1.17921 2.45465,-2.57378 c 10.85931,-11.38637 1.7489,-31.07378 -14.3795,-31.07378 -6.66594,0 -11.26376,2.19731 -15.46854,7.39246 -2.44843,3.02511 -3.04234,4.79022 -3.32935,9.89473 -0.65768,11.6973 4.79032,16.55611 23.96767,21.37559 21.27814,5.34744 37.49931,14.73729 53.26739,30.83461 3.86332,3.94397 7.24921,7.24646 7.52421,7.33885 0.275,0.0924 0.3584,-4.56536 0.18534,-10.35056 z m -85.59647,-33.73568 c -0.91029,-1.2375 -2.5947,-4.23813 -3.74311,-6.66807 l -2.08804,-4.41807 -1.28378,3.73427 c -0.70608,2.05384 -1.93312,4.49197 -2.72675,5.41807 -3.39155,3.95758 -3.1582,4.1838 4.31577,4.1838 l 7.18098,0 -1.65507,-2.25 z M 1010,660.19523 c -8.8485,-4.89392 -8.6187,-11.11252 0.659,-17.83324 4.8325,-3.50065 7.5975,-2.8817 13.3238,2.98258 3.6736,3.76214 3.7616,4.01331 2.4859,7.09317 -1.4487,3.49744 -9.0509,8.94385 -12.4145,8.89406 -1.1298,-0.0167 -2.9542,-0.52818 -4.0542,-1.13657 z m 60.5,-0.42732 c -5.3365,-2.3115 -9,-6.29113 -9,-9.77663 0,-2.28658 1.1841,-4.13807 4.9967,-7.81291 2.7482,-2.64889 5.6881,-4.81616 6.5332,-4.81616 0.8451,0 3.7567,1.125 6.4701,2.5 2.7134,1.375 5.6083,2.5 6.433,2.5 0.8247,0 4.2845,-1.8 7.6883,-4 3.4038,-2.2 6.9515,-4 7.8837,-4 2.4672,0 9.7116,5.53187 10.5009,8.01847 1.0188,3.2101 -1.2407,7.52576 -5.4775,10.46184 -4.1861,2.90096 -5.6512,3.1734 -11.5284,2.14373 -3.386,-0.59321 -5.0998,-0.15763 -11.1645,2.83759 -8.0702,3.98565 -8.4832,4.04585 -13.3355,1.94407 z M 552.8045,648.86296 c -2.9795,-2.08695 -6.3045,-7.748 -6.3045,-10.73393 0,-3.33962 3.5597,-7.6849 7.7193,-9.4229 2.9924,-1.2503 4.025,-1.21151 8.9329,0.33559 l 5.5495,1.7493 6.8523,-3.7474 c 6.5433,-3.57841 7.0031,-3.6844 10.1958,-2.35038 4.4003,1.83853 8.7502,7.10592 8.7502,10.59566 0,3.14234 -4.7115,10.18295 -8.4563,12.63665 -2.3995,1.57217 -2.7476,1.49475 -8.9983,-2.0008 -7.217,-4.036 -7.1054,-4.0503 -15.4433,1.97998 -3.928,2.84088 -5.8161,3.04653 -8.7976,0.95823 z M 660,644.82605 c -7.1684,-3.64114 -8.4286,-9.44741 -3.5039,-16.1439 4.6177,-6.27909 7.6411,-7.09648 15.8774,-4.29247 l 6.7807,2.3085 6.098,-3.76389 c 7.0635,-4.35982 10.2117,-4.27654 15.2207,0.40264 4.6261,4.32137 4.2302,8.73458 -1.3015,14.50772 -4.8041,5.01382 -6.7873,5.44642 -13.7334,2.99569 -4.2602,-1.50308 -4.4051,-1.47837 -11.7295,2 -8.351,3.96587 -9.4864,4.13033 -13.7085,1.98571 z m -709.5844,-2.33282 c -16.10075,-1.81727 -18.4338,-2.61557 -23.26356,-7.96008 -3.28012,-3.6297 -1.36649,-4.17094 14.74701,-4.17094 11.83543,0 16.98659,-0.43621 22.8451,-1.93456 14.08814,-3.60314 25.80533,-11.15435 39.59302,-25.51593 7.47471,-7.78583 8.16283,-8.84411 8.16283,-12.5539 l 0,-4.05131 -6.34198,0.64976 c -8.00204,0.81983 -12.54957,-1.12263 -16.67881,-7.12428 -6.28014,-9.12786 -6.24588,-17.69868 0.13214,-33.06264 3.95166,-9.51913 7.6019,-14.93777 11.46374,-17.01751 4.32627,-2.32985 7.99963,-0.76874 14.06494,5.97734 7.01364,7.80085 9.99802,13.82 11.91928,24.03979 4.23863,22.54656 0.10818,39.88664 -13.83796,58.09324 -5.83581,7.61861 -21.16036,21.48513 -26.65968,24.12319 -4.96576,2.3821 -17.92693,2.5642 -36.14607,0.50783 z M 8.0401,562.29732 c 0.36198,-0.58568 0.36814,-2.61068 0.0137,-4.5 -0.61914,-3.30033 -0.81846,-3.43511 -5.08006,-3.43511 -3.97214,0 -4.50563,0.27887 -5.10544,2.66872 -0.5185,2.06585 -0.15893,3.0824 1.59173,4.5 2.47504,2.00417 7.53571,2.4562 8.58007,0.76639 z M -171,627.77573 c -16.42584,-3.63169 -28.97313,-13.04393 -33.49307,-25.12453 -3.06296,-8.1865 -2.92027,-19.47148 0.36681,-29.01177 4.46523,-12.95966 13.10497,-27.27722 16.46008,-27.27722 2.64012,0 1.98539,4.21944 -1.8808,12.12096 -3.9495,8.07178 -4.08507,8.6724 -3.69713,16.37904 0.80791,16.04987 9.40579,25.49878 28.28682,31.08669 8.68487,2.57032 26.27426,2.37077 37.75864,-0.42838 14.02643,-3.41873 32.15303,-12.56041 31.51142,-15.89198 -0.24246,-1.25901 -3.63192,-2.24873 -14.93123,-4.35988 -17.96772,-3.35707 -23.48562,-5.92684 -27.75122,-12.92413 -5.97196,-9.79642 -0.23098,-24.81636 19.50341,-51.02613 20.39889,-27.09229 37.98092,-34.94826 47.41198,-21.18453 2.05478,2.99876 2.45429,4.77075 2.45429,10.88584 0,6.81431 -0.2052,7.50924 -3.06043,10.36447 l -3.06043,3.06043 -5.88074,-3.5412 c -3.23441,-1.94766 -6.58222,-3.53132 -7.43957,-3.51924 -6.6587,0.0938 -25.59888,16.05326 -34.30224,28.90387 -2.6096,3.85311 -2.25924,8.70382 0.83584,11.57225 3.67534,3.40619 9.81414,5.16909 26.39645,7.58037 7.96889,1.15878 15.32371,2.55366 16.34406,3.09974 1.02035,0.54607 2.76623,3.05242 3.87972,5.56967 3.54407,8.01195 0.84836,19.14775 -6.79754,28.08027 -7.60323,8.88266 -26.75312,18.75615 -46.30059,23.87212 -12.40356,3.24625 -32.09948,4.03811 -42.61453,1.71327 z M 971.8325,614.57236 c -7.8732,-2.81405 -11.5688,-6.18456 -15.2121,-13.87398 -5.0465,-10.65101 -5.7929,-11.77379 -8.4816,-12.75803 -2.1696,-0.79421 -3.8328,-0.0551 -12.0114,5.33786 -10.171,6.70669 -18.4699,9.8418 -33.6274,12.70354 -10.3542,1.95488 -18.6908,1.42943 -25.7926,-1.62569 -8.3412,-3.58827 -10.1909,-8.22647 -6.2945,-15.78369 2.0656,-4.00632 5.6514,-8.21016 7.0031,-8.21016 0.4609,0 5.0559,1.2869 10.211,2.85978 8.5201,2.59954 10.0741,2.78253 17.0771,2.01087 9.6345,-1.06161 25.1402,-5.9608 30.7144,-9.70451 4.9909,-3.35192 8.0658,-7.64717 8.0749,-11.27991 0,-1.43758 -2.0184,-12.587 -4.4934,-24.77651 -2.475,-12.1895 -4.4956,-23.3883 -4.4902,-24.88623 0.012,-3.27328 4.4739,-13.22349 5.93,-13.22349 0.5675,0 2.1434,1.6875 3.502,3.75 1.9161,2.90871 3.2606,8.12472 5.9932,23.25 4.6548,25.76476 6.8031,33.70394 12.0702,44.60602 10.2089,21.13101 25.2861,26.79758 50.2872,18.89974 4.5052,-1.42318 9.4324,-3.6952 10.9494,-5.04893 2.6913,-2.40161 2.7111,-2.49766 0.818,-3.95839 -5.3107,-4.09777 -12.782,-5.78182 -27.8098,-6.26838 l -14.75,-0.47756 0,-3.78645 c 0,-2.90065 0.9258,-4.95763 3.9573,-8.79276 5.5379,-7.00606 8.7296,-9.05874 23.5427,-15.14125 26.1664,-10.74436 30.6728,-13.73332 48.0474,-31.86865 13.1352,-13.71023 18.7353,-17.69949 23.4062,-16.67357 6.2513,1.37301 10.0308,9.01128 10.0408,20.2923 0.01,6.92031 -1.5854,11.70835 -4.8625,14.62842 -2.5054,2.23241 -2.29,2.40426 -4.5151,-3.60279 -3.6897,-9.96099 -7.7554,-12.04298 -13.7901,-7.06177 -9.4605,7.80902 -34.3682,31.79296 -34.6398,33.35516 -0.4124,2.37154 7.423,6.36939 17.5689,8.9643 6.4184,1.64152 11.1374,1.93686 31.1542,1.94974 24.3554,0.0157 32.2572,1.01801 32.88,4.17079 0.5251,2.65798 -6.0862,11.21211 -10.29,13.31403 -3.5479,1.77393 -6.0912,2.00841 -22.5,2.07437 -21.437,0.0862 -18.5711,-0.71576 -48,13.43156 -24.909,11.97448 -31.6058,14.12985 -45.5,14.64409 -8.9077,0.32968 -11.9829,0.0558 -16.1675,-1.43987 z m -858.90909,-7.24608 c -26.18111,-1.17899 -30.2481,-2.60796 -43.17675,-15.17055 -3.32831,-3.23407 -5.59154,-6.42174 -6.17629,-8.69905 -0.92161,-3.58922 -6.14481,-54.99727 -8.08702,-79.59447 -0.56457,-7.15 -2.19556,-18.10458 -3.62443,-24.34352 -2.88849,-12.61216 -2.78498,-18.76786 0.3871,-23.02072 3.12926,-4.19544 4.86576,-3.84004 7.57526,1.55039 4.52837,9.00898 6.01519,17.59388 7.67474,44.31385 3.01153,48.48803 3.83014,55.076 8.06758,64.92621 3.98537,9.26424 12.58765,14.34854 28.9364,17.1026 10.59808,1.78532 44.97465,2.37115 61.51959,1.04839 26.17255,-2.09249 73.61214,-8.97315 79.79952,-11.57417 5.17817,-2.17677 11.68089,-7.37651 11.68089,-9.34032 0,-1.00361 -1.11236,-2.42007 -2.4719,-3.14767 -2.19374,-1.17406 -3.41364,-0.95884 -10.84062,1.91248 -7.68458,2.97091 -8.72179,3.14033 -12.6877,2.07242 -6.17922,-1.66389 -8.608,-3.55918 -11.0649,-8.63447 -1.88458,-3.89302 -2.10722,-5.71854 -1.7278,-14.16716 0.37057,-8.25159 0.9126,-10.73222 3.63357,-16.62927 7.07377,-15.33074 13.51242,-19.31714 23.71516,-14.68291 12.70389,5.77028 23.14336,31.43114 23.64216,58.11387 0.19305,10.32725 -3.9937,17.81449 -12.34362,22.07431 -7.06974,3.60671 -43.76517,11.3744 -65.72592,13.91287 -9.32421,1.07779 -50.99927,3.0937 -58.62843,2.83598 -2.2,-0.0743 -11.23447,-0.46091 -20.07659,-0.85909 z m 128.53651,-66.84937 2.45992,-0.68595 -3.52628,-3.84784 c -3.08261,-3.3637 -3.79251,-3.70536 -5.6422,-2.71543 -2.6725,1.43027 -3.78375,4.7881 -2.21153,6.68251 1.25755,1.51526 4.72776,1.73573 8.92009,0.56671 z M 726,607.75877 c -1.1,-0.27515 -5.0908,-1.40608 -8.8685,-2.51318 l -6.8684,-2.01291 0.4447,-5.3631 c 0.528,-6.36633 4.2795,-12.04112 8.5305,-12.90372 1.519,-0.30821 9.5117,-0.20604 17.7617,0.22704 33.56,1.76173 78.5425,-2.75742 89.4491,-8.98647 l 5.2613,-3.00483 -0.6751,-5.66969 c -2.6203,-22.0083 -6.0347,-44.82711 -8.5652,-57.24213 -1.6335,-8.01483 -2.9701,-17.53729 -2.9701,-21.16101 0,-4.32519 -0.7358,-8.51128 -2.1418,-12.18538 -2.085,-5.44842 -2.0976,-5.77543 -0.4787,-12.33583 1.7761,-7.1974 6.9878,-19.25066 8.318,-19.23727 0.4414,0.004 2.2971,2.81694 4.1238,6.25 1.8267,3.43306 4.6502,8.71935 6.2745,11.74731 l 2.9533,5.50539 -2.8689,9.55548 -2.8689,9.55549 5.3854,35.93912 c 5.2689,35.16206 5.361,36.15535 4.2604,45.93913 -0.6188,5.5 -2.0382,12.12717 -3.1543,14.72705 -2.7747,6.46319 -9.3293,12.29214 -15.9759,14.20714 -10.9782,3.16301 -58.3249,8.7424 -77.3269,9.11227 -9.9,0.19271 -18.9,0.12525 -20,-0.1499 z m -390.57955,-2.4069 c -5.95578,-1.00803 -11.64375,-3.9883 -15.5585,-8.15203 -6.47382,-6.88557 -8.61449,-14.14058 -11.31189,-38.33763 -2.91272,-26.1284 -9.05006,-93.57236 -9.05006,-99.45206 0,-3.09534 1.00979,-7.54931 2.62799,-11.59149 l 2.62799,-6.5646 2.2244,2.08972 c 3.96104,3.72121 4.46288,6.54559 6.57748,37.01843 2.36516,34.08363 8.22277,83.29417 10.59382,89 5.72032,13.76573 26.92413,18.22008 44.99379,9.45197 3.85424,-1.87023 7.43628,-5.12428 14.2742,-12.96718 9.90179,-11.35708 12.22437,-13.27682 17.50318,-14.46739 3.9673,-0.89477 4.91076,-0.39397 14.07715,7.47234 11.8371,10.15825 17.2521,13.6017 26.6742,16.9625 17.1075,6.10215 23.769,7.05961 48.3258,6.94581 24.0718,-0.11154 39.7171,-1.74247 55.7637,-5.81303 12.9856,-3.29407 17.154,-5.33707 24.3936,-11.9558 7.8095,-7.1398 9.8922,-7.31878 10.6143,-0.91222 0.6753,5.99117 3.6642,8.71267 11.3125,10.30047 12.3575,2.5654 24.3622,-2.71213 26.6437,-11.71312 0.3061,-1.20761 -0.7441,-7.95761 -2.3339,-15 -3.3261,-14.73471 -3.1797,-21.45126 0.6552,-30.05435 3.9937,-8.95936 5.8354,-6.93992 8.8915,9.75 2.1668,11.83258 6.8646,28.71784 9.34,33.56992 2.4469,4.79642 9.1221,11.11658 12.6857,12.01097 4.1023,1.02962 18.0758,0.044 19.8126,-1.39742 1.4236,-1.18149 1.1844,-2.14458 -2.3468,-9.44664 -4.3131,-8.91889 -4.7986,-12.85196 -2.2469,-18.2029 1.4717,-3.08611 2.1449,-3.53393 5.3129,-3.53393 3.7319,0 6.7855,2.37022 10.3066,8 3.6652,5.86015 2.8696,25.1286 -1.445,35 -4.2988,9.83508 -11.915,13.61283 -25.7747,12.7846 -8.8668,-0.52986 -13.1595,-2.4364 -21.9418,-9.74506 l -5.9988,-4.99231 -7.6845,5.51333 c -9.4923,6.81039 -14.5493,9.43845 -18.1701,9.44275 -1.5344,0.002 -8.0036,-1.83347 -14.376,-4.07843 l -11.5863,-4.08175 -10.9137,4.02312 c -18.4005,6.78296 -46.0257,10.92045 -78.9608,11.82612 -20.2765,0.55758 -21.5159,0.4788 -33.8559,-2.15211 l -12.809,-2.73087 -7.4104,2.70271 c -6.7861,2.47503 -8.3567,2.66793 -18.64402,2.28983 -10.58413,-0.38902 -11.80684,-0.66068 -21.14631,-4.69833 l -9.91263,-4.28544 -9.08737,4.6013 c -7.70329,3.90049 -10.45814,4.75078 -18.08737,5.58272 -4.95,0.53977 -9.45,0.93217 -10,0.872 -0.55,-0.0602 -3.0608,-0.45821 -5.57955,-0.88452 z M 402.5,574.57782 c 0,-2.03372 -0.80936,-3.26249 -3.00205,-4.55775 -3.48132,-2.05647 -4.57143,-1.66938 -5.24669,1.86301 -0.55901,2.92427 2.22532,5.47913 5.97125,5.47913 1.82469,0 2.27749,-0.55358 2.27749,-2.78439 z m 916.1257,23.03439 c -0.855,-2.10506 -0.7871,-3.9827 0.2898,-8.00619 1.3319,-4.97652 1.0445,-8.16846 -5.4006,-59.98814 l -6.8072,-54.73194 2.2911,-4.52141 c 2.5201,-4.97314 6.1101,-9.78578 6.7153,-9.00232 0.2124,0.275 4.6704,26.59097 9.9065,58.47992 l 9.5204,57.97993 -2.2267,7.21708 c -1.2247,3.9694 -3.2518,9.04093 -4.5047,11.27008 -1.9199,3.41613 -2.7799,4.05299 -5.4724,4.05299 -2.5475,0 -3.4208,-0.55699 -4.3115,-2.75 z M 760.6452,560.29226 c -4.9885,-1.998 -8.1452,-5.01142 -8.1452,-7.77548 0,-2.6086 0.3715,-2.79641 10,-5.0558 5.5,-1.2906 10,-2.67332 10,-3.07269 0,-0.39938 -2.7,-3.07453 -6,-5.94479 -7.6547,-6.65785 -7.7639,-8.5094 -1.253,-21.2478 5.8641,-11.47288 13.9936,-20.31899 19.6477,-21.37972 11.3439,-2.12812 13.8994,9.54184 3.7776,17.25035 -2.3803,1.81273 -5.4553,3.29588 -6.8334,3.29588 -3.5618,0 -2.7166,1.21489 4.6611,6.69958 6.3129,4.69313 6.509,4.97395 6.8126,9.75807 0.43,6.77473 -2.0424,12.6183 -7.8701,18.60141 -7.8408,8.04982 -17.8804,11.6414 -24.7973,8.87099 z M 128.03688,549.91333 c 0.65176,-5.21649 0.52688,-5.63672 -2.92804,-9.85299 -2.21662,-2.7051 -3.60884,-5.47273 -3.60884,-7.17413 0,-3.45731 6.85276,-13.21788 15.8589,-22.58828 7.78016,-8.09482 9.88434,-8.58449 16.70962,-3.88857 4.95665,3.41026 7.85441,8.04495 6.9034,11.04132 -0.34712,1.09368 -2.41668,3.17014 -4.59903,4.61434 l -3.9679,2.62584 -5.47406,-2.26887 c -4.40187,-1.82448 -5.76364,-2.02855 -6.9525,-1.04188 -2.12001,1.75945 -1.82459,4.31818 0.77157,6.68282 4.58713,4.17806 6.38593,4.54216 18.76553,3.79835 13.69242,-0.8227 18.21688,-0.21019 17.17748,2.32542 -3.06636,7.48039 -3.42955,7.69469 -24.77484,14.61778 -11.12036,3.60675 -21.19606,6.55773 -22.39046,6.55773 -2.04643,0 -2.13238,-0.31413 -1.49083,-5.44888 z m -288.96076,-30.7877 c -0.2578,-1.24488 -0.64598,-5.68348 -0.86262,-9.86356 -0.37092,-7.15692 -0.80617,-8.38161 -7.46323,-21 l -7.06933,-13.39986 1.39447,-4 c 0.76696,-2.2 1.40125,-4.1125 1.40953,-4.25 0.008,-0.1375 1.5796,-0.25 3.49181,-0.25 2.99739,0 4.05231,0.72384 7.65136,5.25 5.29564,6.6598 8.93533,14.52726 9.76459,21.1069 0.47835,3.79543 -1.41368,26.41985 -2.27907,27.25242 -0.0625,0.0601 -1.34104,0.40367 -2.84121,0.76343 -2.28829,0.54875 -2.80307,0.28957 -3.1963,-1.60933 z M 1158.5,501.424 c -2.4658,-0.72872 -2.7861,-2.40962 -0.8939,-4.68969 0.518,-0.62411 5.158,-3.21344 10.3111,-5.75406 9.7505,-4.80723 11.9732,-7.1282 8.9461,-9.34166 -2.4494,-1.79104 -4.1523,-1.62631 -13.4053,1.29669 -4.4798,1.41519 -8.4271,2.2912 -8.7716,1.94668 -0.3445,-0.34452 0.4707,-2.69451 1.8117,-5.2222 3.7621,-7.09173 15.2489,-15.29755 21.4139,-15.29755 4.2705,0 14.0368,3.12385 22.1341,7.07979 9.7824,4.7792 9.9082,5.61557 2.0229,13.44699 -6.2115,6.16899 -18.7702,12.83923 -29.1922,15.50474 -8.108,2.07367 -10.3119,2.23161 -14.3768,1.03027 z M 359.53518,488.42795 c -3.19825,-5.97599 0.22627,-10.2507 16.12387,-20.12684 7.32461,-4.55031 18.04776,-10.91166 23.82922,-14.13634 9.43344,-5.26162 11.02463,-5.8343 15.51173,-5.5828 4.5979,0.2577 5.0249,0.49608 5.31,2.96384 0.7038,6.09218 -4.6784,11.38158 -17.81,17.50296 -3.575,1.66651 -13.66187,7.14379 -22.41526,12.17173 -8.7534,5.02794 -16.72506,9.14171 -17.71482,9.14171 -0.98975,0 -2.26539,-0.87042 -2.83474,-1.93426 z m 234.76882,0.8932 c -1.4828,-0.4164 -4.7811,-2.25452 -7.3296,-4.08473 -4.1685,-2.99356 -4.5733,-3.62956 -4.0323,-6.33457 0.9314,-4.65716 5.3383,-10.54992 9.0492,-12.10046 2.9054,-1.21393 3.9258,-1.2033 7.5595,0.0787 5.9378,2.09499 7.1638,1.92192 14.8284,-2.09315 6.7922,-3.55809 6.8435,-3.56745 10.7092,-1.95227 9.9641,4.16329 11.0287,9.37267 3.4149,16.71135 -5.486,5.28779 -7.2515,5.69834 -14.1056,3.28008 l -4.3537,-1.53608 -5.522,3.85696 c -7.3393,5.12629 -7.1307,5.04108 -10.218,4.17414 z m -374.35358,-5.36554 c -3.73463,-1.6267 -8.45042,-7.04538 -8.45042,-9.70996 0,-2.88823 3.63556,-9.51477 6.20912,-11.31736 4.80273,-3.36396 11.60705,-1.39347 17.00761,4.92531 3.70666,4.33687 0.52765,12.52096 -6.21876,16.00966 -3.4908,1.80516 -4.58801,1.81702 -8.54755,0.0923 z M 1296.6217,455.4374 c -0.5653,-0.34932 -1.339,-2.58208 -1.7195,-4.96169 -0.4736,-2.96124 -1.9312,-5.75853 -4.6192,-8.86428 -5.4527,-6.30007 -4.7779,-8.41029 7.0668,-22.09892 9.8778,-11.41553 16.5629,-14.00326 22.2068,-8.59603 4.576,4.38402 5.5204,7.77296 3.2497,11.66091 -2.6667,4.56609 -6.1603,5.60536 -11.2012,3.3322 -4.577,-2.06391 -7.1051,-1.53819 -7.1051,1.47747 0,1.52242 1.2581,2.64412 4.647,4.14318 4.2161,1.86502 5.7921,1.98953 17,1.34308 7.9201,-0.45682 12.353,-0.35927 12.353,0.27183 0,1.79113 -7.9792,8.23042 -13.2826,10.71918 -14.5162,6.81209 -27.6794,12.13942 -28.5957,11.57307 z M -40.37371,452.59818 c -2.87767,-5.37696 10.98568,-18.20933 34.3551,-31.80021 2.73977,-1.59336 8.78582,-5.96541 13.43567,-9.71568 7.37872,-5.95119 8.90774,-6.7806 12.01861,-6.51938 3.33316,0.27989 3.58444,0.54227 3.87447,4.04557 0.47419,5.72775 -6.46124,12.42819 -23.02341,22.24336 -7.3077,4.33073 -18.28178,11.39222 -24.38685,15.69221 -11.31215,7.9675 -14.59581,9.18909 -16.27359,6.05413 z m 132.54038,-3.90264 c -1.16613,-1.16612 -0.71877,-6.33191 0.80323,-9.27512 1.86847,-3.61322 6.81495,-7.43692 17.52792,-13.54932 4.6738,-2.66669 16.69907,-10.1721 26.72281,-16.67871 19.1139,-12.40718 23.42334,-14.10265 24.80228,-9.75801 1.19806,3.77477 -0.43897,6.66327 -7.41231,13.07883 -8.60647,7.91806 -56.43247,36.849 -60.91542,36.849 -0.47401,0 -1.16185,-0.3 -1.52851,-0.66667 z M 388.7,446.16221 c -1.48922,-1.48923 -1.51815,-3.58889 -0.10529,-7.64183 0.91169,-2.61528 5.7687,-6.23467 29.05199,-21.64923 15.4548,-10.23173 28.9626,-18.50894 30.2053,-18.50894 2.9399,0 4.648,1.79825 4.648,4.8934 0,1.70301 -1.7045,4.14434 -5.3771,7.70151 -8.3306,8.06884 -51.96143,36.33461 -56.1729,36.39102 -0.5775,0.008 -1.59,-0.52593 -2.25,-1.18593 z m 528.4431,-2.28763 c -1.392,-3.62751 -0.3249,-4.65527 10.4385,-10.05328 9.658,-4.84367 10.9158,-5.75735 9.7911,-7.11253 -2.7404,-3.30198 -5.446,-3.36257 -13.8122,-0.3093 l -8.0605,2.94172 0,-3.59294 c 0,-3.10401 0.9185,-4.50923 6.75,-10.32651 7.5049,-7.48662 10.7505,-8.68722 19.1051,-7.06723 10.2143,1.98061 25.3148,8.55791 26.9908,11.75635 2.3898,4.56042 -3.8201,9.97031 -21.8079,18.9985 -10.9096,5.47561 -11.8786,5.76944 -20.1069,6.09701 -7.3656,0.29323 -8.74,0.0962 -9.288,-1.33179 z m -739.28233,-2.01461 c -1.87967,-4.89834 4.06955,-12.02535 15.7829,-18.90751 4.59598,-2.70036 18.32886,-11.13786 30.51751,-18.75 23.39115,-14.6084 26.60906,-15.88985 28.35701,-11.29242 2.71428,7.1391 -5.57286,14.69493 -29.01146,26.45132 -5.7713,2.89479 -17.11709,9.47921 -25.21286,14.63205 -14.50955,9.23512 -19.21306,11.04593 -20.4331,7.86656 z M 754.25,437.28562 c -6.1964,-3.62149 3.2572,-12.55058 31.4835,-29.73685 32.3678,-19.7079 46.2263,-26.99158 49.1915,-25.85373 1.041,0.39947 1.575,1.8599 1.575,4.3072 0,3.06309 -0.7423,4.40744 -4.2968,7.78139 -2.3633,2.24322 -7.8758,6.05774 -12.25,8.47671 -4.3743,2.41897 -19.9052,11.28778 -34.5132,19.70848 -14.608,8.42069 -27.208,15.54193 -28,15.82497 -0.792,0.28304 -2.2275,0.0544 -3.19,-0.50817 z M 637.3184,433.8629 c -0.9686,-2.1257 -0.7785,-3.00411 1.2714,-5.8762 4.3653,-6.11621 17.9364,-16.13293 37.2516,-27.49524 10.0274,-5.89866 26.1164,-14.12925 27.6196,-14.12925 1.8935,0 2.349,5.12673 0.7529,8.47387 -2.1021,4.40797 -7.8602,8.86583 -22.6404,17.52799 -6.8346,4.0055 -18.2694,11.04369 -25.4106,15.64043 -7.1412,4.59674 -14.0465,8.35771 -15.3449,8.35771 -1.5477,0 -2.7531,-0.8609 -3.4996,-2.49931 z m 404.463,-5.75069 c 0.2987,-1.7875 0.9884,-4.40054 1.5326,-5.80677 1.1125,-2.87429 14.5553,-12.17644 42.1673,-29.17889 14.1114,-8.68924 18.2078,-10.76434 21.25,-10.76434 4.2999,0 4.6349,0.99106 2.2581,6.67963 -1.8051,4.32022 -1.0844,3.73182 -20.4894,16.72747 -26.1156,17.48974 -39.9992,25.5929 -43.8499,25.5929 -3.2939,0 -3.393,-0.11227 -2.8687,-3.25 z M 1205,413.64914 c -3.3248,-0.79972 -3.6735,-1.81498 -2.0227,-5.8883 1.3263,-3.27246 4.1051,-5.69012 17.3014,-15.05268 38.2433,-27.1331 45.2239,-31.1086 46.9098,-26.71539 1.3819,3.60123 -3.7846,9.61487 -17.2594,20.08936 -7.7192,6.00043 -40.8588,28.27982 -41.8928,28.16408 -0.57,-0.0638 -1.9363,-0.33248 -3.0363,-0.59707 z m 70.1667,-10.9536 c -2.6359,-2.63591 2.4256,-9.24709 13.1877,-17.22538 3.6671,-2.71858 14.2171,-9.70502 23.4442,-15.52542 12.7949,-8.07084 17.5825,-10.58253 20.1717,-10.58253 4.1604,0 5.5192,2.84082 3.1145,6.51098 -3.4822,5.31444 -24.9423,20.81266 -46.143,33.32378 -6.5063,3.8396 -12.031,5.24273 -13.7751,3.49857 z"
       id="path4279"
       inkscape:connector-curvature="0" />
    <g
       id="g4367"
       style="fill:#d40000"
       transform="translate(0,-420)">
      <path
         id="path4309"
         d="m 359.53518,908.42795 c -3.19825,-5.97599 0.22627,-10.2507 16.12387,-20.12684 7.32461,-4.55031 18.04776,-10.91166 23.82922,-14.13634 9.43344,-5.26162 11.02463,-5.8343 15.51173,-5.5828 4.5979,0.2577 5.0249,0.49608 5.31,2.96384 0.7038,6.09218 -4.6784,11.38158 -17.81,17.50296 -3.575,1.66651 -13.66187,7.14379 -22.41526,12.17173 -8.7534,5.02794 -16.72506,9.14171 -17.71482,9.14171 -0.98975,0 -2.26539,-0.87042 -2.83474,-1.93426 z"
         style="fill:#d40000"
         inkscape:connector-curvature="0" />
      <path
         id="path4297"
         d="m 388.7,866.16221 c -1.48922,-1.48923 -1.51815,-3.58889 -0.10529,-7.64183 0.91169,-2.61528 5.7687,-6.23467 29.05199,-21.64923 15.4548,-10.23173 28.9626,-18.50894 30.2053,-18.50894 2.9399,0 4.648,1.79825 4.648,4.8934 0,1.70301 -1.7045,4.14434 -5.3771,7.70151 -8.3306,8.06884 -51.96143,36.33461 -56.1729,36.39102 -0.5775,0.008 -1.59,-0.52593 -2.25,-1.18593 z"
         style="fill:#d40000"
         inkscape:connector-curvature="0" />
    </g>
  </g>
</svg>
