<?xml version="1.0" encoding="UTF-8" standalone="no"?>
<!-- Created with Inkscape (http://www.inkscape.org/) -->

<svg
   xmlns:dc="http://purl.org/dc/elements/1.1/"
   xmlns:cc="http://creativecommons.org/ns#"
   xmlns:rdf="http://www.w3.org/1999/02/22-rdf-syntax-ns#"
   xmlns:svg="http://www.w3.org/2000/svg"
   xmlns="http://www.w3.org/2000/svg"
   xmlns:sodipodi="http://sodipodi.sourceforge.net/DTD/sodipodi-0.dtd"
   xmlns:inkscape="http://www.inkscape.org/namespaces/inkscape"
   width="193px"
   height="50px"
   viewBox="0 0 1371 352.99999"
   id="svg4631"
   version="1.1"
   inkscape:version="0.91 r13725"
   sodipodi:docname="98_3.svg">
  <defs
     id="defs4633">
    <clipPath
       clipPathUnits="userSpaceOnUse"
       id="clipPath4750">
      <path
         style="opacity:1;fill:#000000;fill-opacity:1;stroke:none;stroke-width:0.30000001;stroke-linecap:butt;stroke-linejoin:round;stroke-miterlimit:4;stroke-dasharray:none;stroke-opacity:1"
         d="m 545.41827,746.00452 c -0.50919,0 -0.91797,0.41073 -0.91797,0.91992 l 0,458.16216 c 0,0.5091 0.40878,0.9179 0.91797,0.9179 l 1441.01953,0 c 0.5092,0 0.9199,-0.4088 0.9199,-0.9179 l 0,-458.16216 c 0,-0.50919 -0.4107,-0.91992 -0.9199,-0.91992 l -526.2226,0 0,188.36718 c 0,0.50919 -0.4108,0.91993 -0.92,0.91993 l -145.3047,0 c -0.5091,0 -0.9199,-0.41074 -0.9199,-0.91993 l 0,-188.36718 -767.65233,0 z"
         id="path4752"
         inkscape:connector-curvature="0" />
    </clipPath>
  </defs>
  <sodipodi:namedview
     id="base"
     pagecolor="#ffffff"
     bordercolor="#666666"
     borderopacity="1.0"
     inkscape:pageopacity="0.0"
     inkscape:pageshadow="2"
     inkscape:zoom="0.7"
     inkscape:cx="484.81329"
     inkscape:cy="205.18524"
     inkscape:document-units="px"
     inkscape:current-layer="layer1"
     showgrid="false"
     fit-margin-top="0"
     fit-margin-left="0"
     fit-margin-right="0"
     fit-margin-bottom="0"
     inkscape:window-width="1920"
     inkscape:window-height="1001"
     inkscape:window-x="-9"
     inkscape:window-y="-9"
     inkscape:window-maximized="1" />
  <metadata
     id="metadata4636">
    <rdf:RDF>
      <cc:Work
         rdf:about="">
        <dc:format>image/svg+xml</dc:format>
        <dc:type
           rdf:resource="http://purl.org/dc/dcmitype/StillImage" />
        <dc:title></dc:title>
      </cc:Work>
    </rdf:RDF>
  </metadata>
  <g
     inkscape:label="Layer 1"
     inkscape:groupmode="layer"
     id="layer1"
     transform="translate(-571.64288,-778.71936)">
    <path
       style="fill:#000000"
       d="m 1136.7484,1127.1964 c 0,-3.126 0.6033,-3.8243 6.9483,-8.0425 11.9924,-7.9725 55.0692,-27.5343 60.6329,-27.5343 4.5054,0 5.1813,6.9956 1.0507,10.876 -1.1902,1.1182 -10.9139,6.1421 -21.6081,11.1643 -30.1828,14.1745 -37.1452,16.9597 -42.3953,16.9597 -4.6033,0 -4.6285,-0.019 -4.6285,-3.4232 z m 745.6667,-1.2435 c -0.3667,-0.3667 -0.6667,-2.1201 -0.6667,-3.8964 0,-5.7531 8.2637,-11.4943 27.1724,-18.8781 6.4198,-2.5069 15.0679,-6.3895 19.2179,-8.6279 8.8607,-4.7794 12.9261,-5.017 13.4162,-0.7839 0.641,5.5363 -12.0155,14.1096 -38.1652,25.8525 -14.5404,6.5296 -19.3319,7.9765 -20.9746,6.3338 z M 725.74836,1113.5746 c -43.55123,-3.8678 -82.91291,-27.88 -107.72278,-65.7152 -13.42087,-20.4669 -22.27722,-48.47286 -22.27722,-70.44616 0,-6.2824 -0.18111,-6.9329 -1.75,-6.2854 -6.5424,2.7001 -10.805,2.1866 -15.0945,-1.8183 -5.98195,-5.5851 -6.24815,-9.6385 -1.6701,-25.4297 4.234,-14.6046 3.11681,-35.279 -2.50146,-46.2917 l -2.02459,-3.9685 3.55187,0 c 1.95353,0 6.25714,0.9113 9.56358,2.0252 l 6.01171,2.0252 5.7087,-5.7752 c 3.13978,-3.1764 9.13442,-9.023 13.32142,-12.9925 5.76001,-5.4608 8.48118,-8.9897 11.18114,-14.5 3.22066,-6.573 6.70223,-19.4354 6.70223,-24.7609 l 0,-2.0625 3.84468,1.9614 c 4.98949,2.5455 9.85634,8.1544 12.74688,14.6904 l 2.3078,5.2183 8.21814,-5.4067 c 8.8559,-5.8264 19.09915,-10.1408 30.6325,-12.9023 3.9875,-0.9547 7.25,-2.0824 7.25,-2.506 0,-0.4236 -0.675,-2.3857 -1.5,-4.3602 -3.09055,-7.3967 -1.28259,-17.0733 4.30305,-23.0307 6.01445,-6.4148 18.89762,-9.5624 26.88185,-6.5676 7.28558,2.7326 13.39921,9.0275 15.25599,15.7081 l 0.76042,2.736 1.68028,-3.9462 c 2.68943,-6.3162 6.18854,-10.1607 11.78679,-12.9505 12.2824,-6.1205 27.81758,-1.2631 33.9232,10.6068 2.33695,4.5433 2.52594,13.3762 0.39529,18.4755 -0.83222,1.9918 -1.39472,3.7257 -1.25,3.8531 0.14472,0.1274 4.05732,1.2075 8.69466,2.4004 11.18846,2.8778 20.52919,6.9448 29.33605,12.7729 8.6726,5.7392 8.73242,5.7684 8.73242,4.2665 0,-2.2755 5.15974,-11.5004 8.20062,-14.6616 2.80859,-2.9197 8.44446,-6.1177 9.16672,-5.2015 0.16677,0.2115 1.02496,4.1446 1.9071,8.7402 0.88214,4.5957 3.22922,11.7957 5.21574,16 3.18636,6.7438 5.21887,9.2064 17.25287,20.9037 l 13.64101,13.2594 4.05797,-1.5394 c 4.01547,-1.5232 14.55797,-3.5438 14.55797,-2.7902 0,0.2148 -0.90425,2.163 -2.00945,4.3294 -5.75876,11.2881 -6.87704,30.9208 -2.60672,45.7642 4.83641,16.811 4.55801,20.14 -2.22334,26.5861 -2.3296,2.2145 -3.93475,2.8562 -7.03654,2.8134 -2.21016,-0.031 -4.91262,-0.534 -6.00547,-1.1188 -1.09285,-0.5849 -2.17378,-1.0634 -2.40207,-1.0634 -0.22829,0 -0.67845,4.6125 -1.00036,10.25 -2.50543,43.87656 -26.41311,84.36566 -65.21605,110.44726 -25.2307,16.959 -59.4496,25.1928 -92.5,22.2577 z m 39.69212,-8.5135 c 53.66204,-9.3393 98.74007,-52.8345 110.83312,-106.94146 0.86086,-3.8517 1.83152,-14.5374 2.15817,-23.7587 l 0.59366,-16.7586 2.88106,3.9176 c 3.40728,4.6332 7.45776,6.357 11.92613,5.0755 6.83595,-1.9605 7.43165,-6.9655 2.77496,-23.3146 -2.91957,-10.2502 -3.09628,-11.7541 -2.50897,-21.353 0.35641,-5.825 1.45631,-12.7684 2.52331,-15.929 l 1.8915,-5.6028 -3.5227,0.5717 c -7.70489,1.2503 -15.783,9.6242 -19.44015,20.1519 l -1.73692,5 -0.0289,-6.5 c -0.0307,-6.9084 1.54691,-10.7118 6.73102,-16.2275 l 2.5635,-2.7274 -4.96848,-4.7726 c -2.73267,-2.6249 -8.60339,-8.1475 -13.04605,-12.2725 -9.21997,-8.5608 -14.30254,-17.2653 -16.96488,-29.0545 -0.86268,-3.8201 -1.90899,-6.9455 -2.32514,-6.9455 -2.07766,0 -6.07111,4.5449 -7.69776,8.7607 -1.40659,3.6455 -1.8286,7.5087 -1.8286,16.7393 0,6.6 0.34297,13.546 0.76214,15.4357 l 0.76215,3.4357 -2.66164,-2.4357 c -1.58939,-1.4545 -0.37682,0.8527 3.00992,5.727 7.4066,10.6598 14.07742,24.8825 17.3821,37.0599 2.46689,9.0903 2.65335,11.218 2.65335,30.2774 0,19.0074 -0.19118,21.204 -2.626,30.1695 -5.87123,21.61916 -15.17712,37.48286 -31.65338,53.95906 -16.49074,16.4908 -32.40376,25.8206 -53.9591,31.6363 -8.92272,2.4073 -11.25284,2.6106 -30.16954,2.6316 -19.06346,0.021 -21.17759,-0.1616 -30.16954,-2.6089 -22.3554,-6.0842 -37.65298,-15.2062 -54.83046,-32.6958 -21.21958,-21.6051 -31.79858,-44.2145 -33.8777,-72.40336 -2.08377,-28.252 4.75586,-55.4211 19.13249,-76.0001 5.90651,-8.4547 6.47791,-9.5299 3.8275,-7.2023 l -2.26149,1.9861 0.8396,-3.9861 c 1.60006,-7.5964 1.00811,-26.5351 -0.99161,-31.7253 -1.61686,-4.1964 -5.61473,-8.7607 -7.67354,-8.7607 -0.40427,0 -1.27827,2.8125 -1.94221,6.25 -0.66395,3.4375 -2.79671,9.5796 -4.73946,13.6492 -3.6629,7.6728 -7.26112,11.7438 -22.77354,25.7656 l -7.92654,7.1649 3.63668,4.0254 c 5.53549,6.1271 6.56749,8.7954 5.99042,15.4887 l -0.50383,5.8439 -1.76609,-5.015 c -3.72161,-10.5679 -11.52496,-18.577 -19.33441,-19.8443 l -3.64409,-0.5914 1.56836,3.7536 c 0.8626,2.0645 2.07784,8.8513 2.70054,15.0818 1.12122,11.2187 1.10104,11.4521 -2.08615,24.1279 -3.73986,14.8738 -3.87215,17.1436 -1.19743,20.5439 4.00359,5.0898 10.36271,4.1703 16.0225,-2.3167 l 3.5,-4.0115 0.0487,14.792 c 0.0926,28.13316 6.50313,49.16056 22.15512,72.67166 7.33197,11.0135 23.76168,28.2094 34.03319,35.6203 19.99137,14.4238 42.65002,23.315 66.00454,25.9001 11.01033,1.2187 30.45127,0.5428 41.95059,-1.4586 z m -2.28223,-31.0865 c 22.02716,-4.1569 41.37164,-15.0585 58.67546,-33.0664 18.76106,-19.5244 28.97751,-42.10196 30.74762,-67.94996 1.94038,-28.3344 -3.82211,-52.0975 -17.56311,-72.4261 -19.57928,-28.9657 -52.36974,-48.6381 -84.57783,-50.7419 -23.86581,-1.5588 -41.35658,1.5831 -60.19203,10.8126 -30.32905,14.8615 -51.96169,41.2275 -60.70362,73.986 -2.90616,10.8902 -3.62324,36.2926 -1.36997,48.5308 4.23188,22.98446 13.36636,40.93146 29.34557,57.65666 20.17623,21.1182 43.69075,32.5777 72.22802,35.1993 7.25652,0.6666 24.8617,-0.3878 33.40989,-2.001 z m -32.40989,-80.08366 c -3.88171,-10.559 -8.63424,-21.3248 -11.79832,-26.7263 -10.0007,-17.0727 -12.01043,-24.2803 -8.86756,-31.8023 2.35823,-5.644 5.16932,-5.182 15.40421,2.5319 6.39345,4.8186 8.40134,4.5407 13.16406,-1.822 4.9829,-6.6569 5.95453,-6.9106 11.04346,-2.8835 2.38459,1.887 4.96774,3.4309 5.74034,3.4309 1.51226,0 4.87806,-3.0687 7.49821,-6.8363 1.32585,-1.9065 1.98498,-2.1435 3.58302,-1.2882 1.07705,0.5764 2.52562,2.4177 3.21905,4.0918 1.09162,2.6354 0.95169,4.005 -1.04306,10.2086 -3.38599,10.5305 -6.04424,13.0753 -15.86166,15.185 -9.72435,2.0897 -14.08667,5.1828 -14.07224,9.9779 0.005,1.7387 1.13023,9.1931 2.5,16.5656 2.56963,13.8303 2.94048,18.59556 1.86549,23.97056 -0.51131,2.5565 -1.1025,3.1207 -3.25,3.1013 -2.48502,-0.022 -2.97163,-0.9666 -9.125,-17.70496 z m -61.5,-127.349 c 13.67587,-10.3876 26.06265,-16.1573 42.69644,-19.8876 15.08084,-3.382 21.79226,-9.4009 21.79982,-19.5503 0.005,-6.0749 -2.35716,-10.842 -7.38872,-14.9144 -3.01386,-2.4393 -4.82619,-3.0528 -9.98837,-3.3815 -6.44373,-0.4104 -10.68421,0.9154 -14.97558,4.6821 -6.88666,6.0445 -7.5709,20.7952 -1.20953,26.0746 2.56945,2.1325 1.87157,2.7344 -4.66011,4.0195 -14.65647,2.8834 -32.63065,10.386 -41.77378,17.4367 l -4.49984,3.47 -0.14296,10.3185 -0.14297,10.3184 7.1428,-7.0143 c 3.92854,-3.8579 9.8428,-9.0651 13.1428,-11.5717 z m 161.68534,8.5633 -0.31467,-10.5185 -5.24734,-3.9618 c -9.09463,-6.8665 -27.99813,-14.5507 -42.26009,-17.1786 l -6.39977,-1.1792 2.45465,-2.5738 c 10.85931,-11.3863 1.7489,-31.0737 -14.3795,-31.0737 -6.66594,0 -11.26376,2.1973 -15.46854,7.3924 -2.44843,3.0251 -3.04234,4.7902 -3.32935,9.8948 -0.65768,11.6973 4.79032,16.5561 23.96767,21.3755 21.27814,5.3475 37.49931,14.7373 53.26739,30.8347 3.86332,3.9439 7.24921,7.2464 7.52421,7.3388 0.275,0.092 0.3584,-4.5654 0.18534,-10.3506 z m -85.59647,-33.7356 c -0.91029,-1.2375 -2.5947,-4.2382 -3.74311,-6.6681 l -2.08804,-4.4181 -1.28378,3.7343 c -0.70608,2.0538 -1.93312,4.492 -2.72675,5.4181 -3.39155,3.9575 -3.1582,4.1838 4.31577,4.1838 l 7.18098,0 -1.65507,-2.25 z M 1783.1858,1104.3696 c -3.6426,-4.3199 -5.0107,-7.8014 -8.0722,-20.5415 -2.3532,-9.7926 -2.5239,-11.932 -1.9963,-25.0129 l 0.577,-14.3043 -15.7656,0.6929 c -14.8681,0.6534 -16.0478,0.5681 -20.7229,-1.4969 -6.2904,-2.7786 -10.9419,-7.2311 -14.1947,-13.5873 -2.8739,-5.6158 -3.1438,-8.3421 -5.7538,-58.10226 -0.8495,-16.1962 -2.5719,-36.1087 -4.0654,-47 -3.0726,-22.4065 -2.9073,-27.3611 1.1273,-33.7864 4.1713,-6.6427 6.5374,-6.0921 8.116,1.8887 1.3344,6.746 6.8667,72.7653 7.8351,93.5 0.7039,15.07036 2.4335,23.72426 5.6423,28.23046 1.2513,1.7574 4.9115,4.3301 8.744,6.146 5.6735,2.6883 7.7063,3.1235 14.5918,3.1235 6.8935,0 8.9161,-0.4341 14.6234,-3.1382 7.5529,-3.5787 13.6638,-8.6945 16.3552,-13.6922 1.9657,-3.6501 6.8632,-7.1944 8.5235,-6.1684 2.2167,1.3701 0.6999,8.2952 -5.0021,22.8374 -3.3,8.4162 -6,16.508 -6,17.9818 0,4.8939 2.7339,2.8622 8.1687,-6.0704 7.5705,-12.443 13.52,-18.1116 23.2575,-22.1596 8.2655,-3.4361 25.0837,-8.0904 29.2341,-8.0904 4.1932,0 8.9824,2.6555 15.355,8.5141 9.263,8.5157 13.1757,9.9889 26.4847,9.9716 12.9191,-0.017 23.5241,-2.7485 28.7309,-7.4007 2.9804,-2.663 3.1208,-3.0866 2.2251,-6.7137 -1.22,-4.9404 -4.1188,-5.4556 -10.7771,-1.9154 -8.0386,4.2742 -14.362,3.0859 -20.4447,-3.8419 -4.5972,-5.23596 -5.8886,-12.34146 -3.7466,-20.61396 2.3892,-9.2272 9.8164,-24.2366 13.5461,-27.375 8.6025,-7.2384 17.2919,-0.015 25.3929,21.108 14.2738,37.21846 8.4626,55.96026 -20.4266,65.87866 -4.4076,1.5132 -8.3801,1.8868 -20,1.8807 -17.2124,-0.01 -18.5735,-0.4619 -29.9813,-9.9768 -6.7789,-5.6542 -8.3454,-6.5156 -11.8477,-6.5156 -5.2021,0 -26.1469,5.3917 -32.8499,8.4564 -8.0652,3.6875 -8.3211,4.618 -8.3211,30.2598 l 0,21.8155 -4.0727,6.9841 c -7.2022,12.3511 -9.7823,13.8172 -14.4899,8.2342 z m 127.6408,-120.60226 c -1.7372,-3.2425 -6.0154,-7.1477 -7.8305,-7.1477 -4.7508,0 -5.7421,5.8174 -1.4977,8.7893 4.002,2.8021 5.4847,3.0721 7.9805,1.4531 1.6402,-1.064 1.9968,-1.883 1.3477,-3.0947 z m -83.5782,114.18706 c -7.7698,-4.1054 -8.2631,-6.9247 -2.4898,-14.2286 4.9525,-6.2653 7.4637,-7.009 14.0703,-4.1669 l 5.0373,2.1669 6.4803,-3.624 c 7.4022,-4.1395 10.9982,-4.0822 14.3897,0.2294 3.8271,4.8654 1.5823,12.5906 -5.0955,17.5354 -2.5899,1.9178 -2.644,1.9154 -7.914,-0.3517 l -5.3063,-2.2827 -5.7653,3.1937 c -6.4252,3.5593 -9.0062,3.8536 -13.4067,1.5285 z m -430.1904,-5.8123 c -2.84,-1.9125 -5.4046,-3.8673 -5.6992,-4.3438 -1.9243,-3.1137 5.2657,-14.6076 9.859,-15.7604 2.9657,-0.7444 8.302,1.5641 12.8533,5.5602 4.0991,3.599 4.3727,4.7759 2.1221,9.1281 -1.6142,3.1217 -9.6643,8.8934 -12.4039,8.8934 -0.8622,0 -3.8913,-1.5649 -6.7313,-3.4775 z m -260.0596,-6.0887 c -4.7786,-2.864 -4.8387,-3.0886 -2.7276,-10.1974 2.6528,-8.9328 8.24,-11.2692 16.8943,-7.0646 l 4.4702,2.1718 6.2128,-4.1718 c 7.9611,-5.3458 10.5808,-5.3747 15.2839,-0.169 2.7414,3.0344 3.6164,4.8722 3.6164,7.5957 0,4.5086 -3.2355,9.1841 -7.6246,11.018 -2.898,1.2108 -3.8788,1.184 -7.6014,-0.2082 -7.8163,-2.923 -9.3768,-2.8717 -14.5998,0.4799 -5.8732,3.7688 -8.3823,3.8671 -13.9242,0.5456 z m 226.9393,-35.0313 c -22.018,-3.6928 -37.4558,-12.4103 -44.0288,-24.8624 -2.3426,-4.4378 -2.6596,-6.1755 -2.6532,-14.5401 0.01,-8.6237 0.3058,-10.1316 3.2429,-16.34716 4.643,-9.8254 8.7064,-14.6528 12.3338,-14.6528 2.4604,0 2.916,0.3991 2.916,2.5548 0,1.4051 -1.3785,5.7926 -3.0632,9.75 -3.3543,7.87896 -3.3388,11.02676 0.088,17.74326 4.0294,7.8983 15.8633,14.8655 31.9754,18.8257 15.954,3.9213 18.9501,3.899 55.5,-0.4127 15.149,-1.7871 25.755,-4.5595 36.2743,-9.4821 10.4932,-4.9104 13.8121,-7.5339 17.0922,-13.511 3.0606,-5.5771 5.7339,-7.69986 7.0467,-5.5956 0.4709,0.7548 1.1482,3.953 1.505,7.1071 0.794,7.0182 2.6652,9.0123 11.6192,12.3825 8.8734,3.34 14.2279,3.9719 22.4461,2.6491 10.2297,-1.6467 14.7114,-4.0469 22.3326,-11.9607 4.4241,-4.594 7.5662,-7.0504 9.0184,-7.0504 1.2258,0 5.4904,2.4549 9.4768,5.4553 9.9424,7.4832 14.4679,8.5447 36.4303,8.5447 18.7963,0 24.5524,-1.1278 34.1252,-6.6859 4.2215,-2.451 4.349,-2.6687 3.8294,-6.5424 -1.2105,-9.02496 -13.9553,-28.61656 -28.7428,-44.18396 -8.5115,-8.9603 -14.6,-12.391 -18.8595,-10.6267 -2.2521,0.9329 -3.529,0.8824 -6.2142,-0.2458 -4.0919,-1.7192 -11.499,-9.5599 -13.4559,-14.2435 -2.3431,-5.6077 -1.7801,-14.6131 1.5314,-24.4973 5.2309,-15.6134 8.1964,-21.0976 14.1352,-26.1415 14.8502,-12.6123 43.3799,-27.5137 105.4096,-55.0565 39.8029,-17.6736 42.6484,-18.7764 48.4434,-18.7764 l 5.0566,0 0,3.9222 c 0,2.8883 -0.8568,5.0406 -3.25,8.1644 -2.9997,3.9154 -5.6762,5.3525 -34.75,18.6595 -96.1037,43.9861 -109.2838,50.8405 -118.9676,61.8698 -4.8373,5.5093 -4.1992,8.0204 3.4827,13.7061 9.2078,6.8151 28.3775,25.4926 36.5494,35.6108 9.8426,12.1872 20.4536,35.0025 22.4403,48.25026 0.8586,5.7259 -2.5414,18.9062 -6.4787,25.1146 -2.3708,3.7384 -3.7808,4.7493 -9.6513,6.9193 -15.8572,5.8616 -23.7791,7.285 -40.3748,7.2543 -20.0617,-0.037 -25.4706,-1.2132 -34.6742,-7.5398 -3.9458,-2.7123 -7.9523,-4.9315 -8.9034,-4.9315 -0.951,0 -4.1281,2.2688 -7.0602,5.0419 -3.0732,2.9065 -8.5264,6.5593 -12.8755,8.6247 l -7.5444,3.5828 -11.2212,-0.4761 c -12.5834,-0.5339 -14.4691,-1.164 -23.8434,-7.9673 -3.6423,-2.6433 -7.3942,-4.806 -8.3375,-4.806 -0.9434,0 -4.5989,1.6126 -8.1233,3.5835 -9.7312,5.4421 -37.0525,12.8493 -58.7972,15.941 -12.5195,1.78 -31.4139,1.7257 -42.4304,-0.122 z m -370.68934,-6.279 c -9.43097,-2.5007 -14.34058,-7.1242 -19.29803,-18.1734 -5.21884,-11.6318 -7.43683,-12.3242 -16.17738,-5.0503 -7.78971,6.4827 -11.3221,7.6002 -24.02459,7.6002 -8.98713,0 -11.18439,-0.3371 -15.25,-2.3392 -4.21295,-2.0748 -4.75,-2.7068 -4.75,-5.5903 0,-6.7568 12.3985,-26.14356 20.03845,-31.33276 2.21683,-1.5058 8.85257,-6.3396 14.74608,-10.7418 l 10.71547,-8.004 0.62886,-7.029 c 0.57279,-6.4023 4.22148,-17.4848 5.74428,-17.4476 2.76742,0.068 3.76196,3.3968 7.16498,23.9847 3.62922,21.9563 6.86795,32.29866 12.83906,40.99996 6.87463,10.0178 18.31556,14.6256 30.06056,12.1067 10.0503,-2.1554 13.1647,-4.476 27.5112,-20.4998 4.3718,-4.88296 9.3218,-9.71546 11,-10.73876 5.4308,-3.3118 7.4691,-2.5618 17.9218,6.5947 18.2216,15.96196 25.691,19.48036 41.4319,19.51606 14.5265,0.033 21.5793,-2.0202 32.8694,-9.5687 5.2733,-3.5256 9.9199,-6.4102 10.3258,-6.4102 0.4059,0 4.1974,2.6733 8.4255,5.9407 4.2281,3.2674 9.1251,6.4018 10.8821,6.9653 6.9908,2.2423 17.1321,3.0783 37.1946,3.0663 19.1843,-0.011 22.2847,-0.2672 35.8589,-2.9569 16.9794,-3.3644 21.6411,-5.7551 21.6411,-11.0985 0,-3.3053 -2.4554,-9.91686 -3.683,-9.91686 -0.4317,0 -4.6927,1.857 -9.4687,4.1267 -7.2234,3.43266 -9.2962,4.01176 -12.3257,3.44346 -7.4682,-1.4011 -16.5226,-13.11746 -16.5226,-21.38046 0,-7.7548 8.6352,-27.0221 14.215,-31.7172 6.0319,-5.0755 15.1009,-2.3086 21.9714,6.7036 6.6539,8.7279 14.801,26.8946 16.7223,37.2881 2.1883,11.83736 -1.8308,24.52216 -10.2198,32.25486 -7.7456,7.1396 -16.1013,10.3356 -32.1889,12.3122 -4.95,0.6082 -12.5372,1.7499 -16.8605,2.5372 -9.2133,1.6778 -23.4861,1.8315 -36.1395,0.3891 -12.8119,-1.4604 -15.0305,-2.2318 -25.7471,-8.9516 -5.2681,-3.3033 -10.0052,-6.006 -10.527,-6.006 -0.5219,0 -4.3839,2.2648 -8.5823,5.0329 -11.056,7.2895 -23.9177,10.1704 -40.2887,9.0244 -2.4641,-0.1725 -6.9251,0.6695 -11,2.0762 -5.6107,1.9369 -8.7607,2.3511 -17.3549,2.2818 -14.5483,-0.1172 -25.1882,-3.0979 -32.3268,-9.056 -3.8728,-3.2325 -5.7009,-2.986 -11.4279,1.541 -8.7651,6.9284 -12.6314,8.3781 -23.2453,8.7162 -5.225,0.1664 -10.85004,-0.055 -12.50004,-0.493 z m 65.50004,-29.401 c 0,-0.7027 -0.7205,-2.3062 -1.6012,-3.5635 -1.5251,-2.1774 -1.6916,-2.204 -3.5081,-0.5602 -1.7832,1.6139 -1.7991,1.845 -0.2438,3.5635 1.9034,2.1032 5.3531,2.4642 5.3531,0.5602 z M 956.71182,1005.48 c 5.81944,-2.5252 8.03654,-4.6167 8.03654,-7.58116 0,-9.2888 -10.77111,-8.2897 -22.5,2.0871 -2.75,2.43286 -4.69598,4.73726 -4.32441,5.12086 1.57935,1.6301 8.55687,3.404 11.32441,2.879 1.65,-0.3129 5.00856,-1.4406 7.46346,-2.5058 z m 297.03658,-30.29526 c 0,-0.7892 -0.4389,-2.5892 -0.9753,-4 -0.7864,-2.0685 -1.6423,-2.5651 -4.4205,-2.5651 -3.0087,0 -3.5281,0.377 -4.0989,2.9756 -0.9129,4.1567 -0.04,5.0244 5.0537,5.0244 3.1913,0 4.441,-0.4038 4.441,-1.4349 z m 268.3848,2.2083 c -6.3733,-4.9188 -6.7596,-7.3678 -2.3848,-15.1195 1.65,-2.9236 3,-6.0937 3,-7.0447 0,-0.9509 -2.25,-4.108 -5,-7.0157 -2.7595,-2.9177 -5,-6.2351 -5,-7.403 0,-2.4531 6.9632,-9.5184 11.0484,-11.2106 3.8386,-1.59 9.3084,1.091 12.7085,6.229 l 2.5785,3.8963 -3.25,6.7181 -3.25,6.7181 4.1369,7.6695 c 3.886,7.2043 4.0712,7.9136 3.0536,11.6927 -0.5958,2.2127 -2.0705,4.7146 -3.2771,5.5597 -3.3459,2.3436 -10.9039,1.9806 -14.364,-0.6899 z m 367.0761,-55.9163 c -2.472,-2.2786 -4.7486,-5.1551 -5.0591,-6.3923 -1.1315,-4.5084 6.4156,-14.4648 10.9646,-14.4648 3.0962,0 8.9315,4.8907 10.578,8.8657 0.9656,2.3313 0.8995,3.5722 -0.35,6.5626 -4.5103,10.7946 -8.7607,12.2248 -16.1335,5.4288 z m -666.4712,-2.4854 c -6.3087,-5.6995 -6.2707,-8.3166 0.241,-16.6243 3.9338,-5.0187 6.5502,-5.5421 11.6408,-2.3286 5.1711,3.2644 6.493,3.2206 12.6285,-0.4188 5.7437,-3.4071 8.5034,-3.6991 12.1818,-1.289 2.9888,1.9584 8.3182,8.9446 8.3182,10.9042 0,2.1508 -6.2192,8.5784 -9.7125,10.038 -2.8725,1.2002 -3.8469,1.126 -8.5156,-0.6485 -6.8986,-2.622 -7.839,-2.5524 -13.433,0.9953 -6.1364,3.8916 -8.4677,3.7819 -13.3492,-0.6283 z m 543.6805,0.475 c -1.7198,-6.5766 8.4886,-15.1868 44.2472,-37.3202 11.5247,-7.1333 21.2944,-12.5265 22.6917,-12.5265 6.2218,0 3.1048,7.6683 -6.0915,14.9859 -3.3515,2.6669 -14.4015,10.12 -24.5556,16.5625 -10.1541,6.4425 -21.2191,13.6796 -24.589,16.0826 -6.8248,4.8666 -10.8122,5.6215 -11.7028,2.2157 z m -826.74917,-0.3291 c -1.41842,-0.7712 -3.82946,-3.2919 -5.35787,-5.6015 -3.57972,-5.4093 -3.06998,-10.1209 1.54488,-14.2797 3.36274,-3.0303 3.69872,-3.0518 16.11587,-1.0301 3.2944,0.5364 4.46856,0.075 10.1792,-4 3.55038,-2.5335 7.57757,-4.6063 8.94932,-4.6063 3.37497,0 8.26265,4.3037 9.64519,8.4929 1.62864,4.9348 -1.4978,11.8242 -6.43412,14.1781 -3.42552,1.6336 -3.76116,1.6151 -8.83152,-0.4865 -2.89887,-1.2015 -5.97049,-2.1845 -6.82583,-2.1845 -0.85534,0 -4.41312,2.475 -7.90619,5.5 -3.49307,3.025 -6.83455,5.4819 -7.42552,5.4599 -0.59096,-0.022 -2.235,-0.671 -3.65341,-1.4423 z m 433.57897,-7.2307 c -1.1,-0.2646 -2.3903,-0.8502 -2.8674,-1.3014 -1.3214,-1.2497 7.5715,-10.1998 20.3674,-20.4983 12.607,-10.1465 16.4536,-14.4825 15.5035,-17.4761 -0.3348,-1.0549 -2.8428,-3.558 -5.5733,-5.5623 -2.7304,-2.0044 -5.4068,-4.4708 -5.9473,-5.4808 -4.2294,-7.9028 6.9326,-29.076 16.8919,-32.0423 8.8164,-2.6259 13.1542,3.834 13.9191,20.7289 l 0.4598,10.1546 6.3731,6.3165 c 7.2368,7.1724 8.2325,10.7789 4.0587,14.6999 -2.9621,2.7828 -4.9584,2.7261 -11.5168,-0.3271 -6.5097,-3.0304 -6.8475,-2.8844 -15.2468,6.5896 -4.5605,5.144 -10.0898,9.666 -19.6102,16.0379 -7.2924,4.8807 -13.6083,8.8218 -14.0353,8.758 -0.427,-0.064 -1.6764,-0.3325 -2.7764,-0.5971 z m -41.5,-3.0999 c 0,-2.299 2.6687,-4.7315 17.5,-15.9511 6.6,-4.9927 13.4788,-10.6141 15.2863,-12.4919 l 3.2863,-3.4141 -6.6402,-7.4053 -6.6402,-7.4053 0.433,-5.2216 c 0.555,-6.6928 6.5768,-19.0387 11.3156,-23.1995 5.0697,-4.4512 9.3046,-4.2475 14.6119,0.7031 4.0507,3.7785 4.081,3.8611 5.0332,13.75 0.876,9.0968 1.2943,10.4684 4.886,16.0184 4.5912,7.0943 4.8813,10.144 1.3628,14.3255 -2.3214,2.7588 -2.9689,2.9933 -6.8119,2.4665 -3.9151,-0.5366 -4.6222,-0.257 -9.057,3.5813 -2.6456,2.2898 -7.0823,6.6492 -9.8592,9.6876 -6.2773,6.8683 -24.0902,16.3694 -30.69,16.3694 -3.2118,0 -4.0166,-0.3633 -4.0166,-1.813 z m 43,-56.0704 c 0,-1.1078 -0.9266,-2.1317 -2.25,-2.4864 -3.8887,-1.0421 -4.75,-0.703 -4.75,1.8698 0,2.1904 0.4333,2.5 3.5,2.5 2.7611,0 3.5,-0.3977 3.5,-1.8834 z m -256.112,49.3837 c -3.3,-1.7935 -5.2194,-6.2975 -4.3026,-10.0966 1.4849,-6.1537 7.4646,-16.4037 9.5696,-16.4037 0.4647,0 0.845,2.2018 0.845,4.893 0,4.9506 1.3439,6.6797 4.308,5.5423 0.7193,-0.2761 3.4786,-3.8737 6.1316,-7.9948 l 4.8237,-7.4929 3.4463,4.0262 c 4.9614,5.7963 6.5243,5.3477 10.36,-2.9738 1.7745,-3.85 3.7651,-7 4.4234,-7 0.6584,0 2.0543,0.9484 3.102,2.1076 2.7172,3.0064 2.5487,12.9673 -0.3112,18.3924 -3.9803,7.5507 -7.6403,9.9685 -21.8179,14.4135 -14.135,4.4316 -16.6108,4.7428 -20.5779,2.5868 z m -106.888,-22.5355 c 0,-6.4212 6.256,-11.8053 29,-24.9583 7.975,-4.612 19,-10.9914 24.5,-14.1766 5.5,-3.1852 10.5539,-5.7999 11.2309,-5.8106 1.8863,-0.03 2.5923,4.4712 1.3106,8.355 -1.3463,4.0792 -11.0673,11.131 -30.5415,22.1552 -6.6,3.7362 -15.7282,9.1955 -20.2848,12.1318 -5.9445,3.8305 -9.2638,5.3387 -11.75,5.3387 -3.1925,0 -3.4652,-0.2389 -3.4652,-3.0352 z m 461,1.251 c 0,-1.2868 9.8221,-10.3687 20.5,-18.955 5.5,-4.4227 11.4757,-9.5882 13.2793,-11.4789 l 3.2793,-3.4377 -2.2793,-2.9123 c -1.2536,-1.6017 -3.8073,-4.2583 -5.6749,-5.9035 -4.2987,-3.7868 -6.1222,-7.9795 -5.0686,-11.6535 2.8191,-9.8294 13.0835,-23.0833 18.8592,-24.3519 7.3818,-1.6213 11.5235,5.3609 12.6187,21.273 l 0.7086,10.2961 3.5857,2.7039 c 8.4532,6.3746 10.192,8.6955 10.192,13.604 0,3.2731 -0.5794,5.1793 -2.0086,6.6085 l -2.0085,2.0085 -3.7415,-2.429 c -2.0578,-1.336 -5.6212,-2.9763 -7.9188,-3.6451 l -4.1773,-1.216 -10.3227,8.9715 c -11.2597,9.7859 -17.4235,14.1934 -22.8226,16.3194 -1.925,0.7581 -4.85,2.1875 -6.5,3.1765 -2.9829,1.7879 -10.5,2.5192 -10.5,1.0215 z m -533.45612,-15.962 c -0.47816,-1.2461 0.43177,-2.7495 3.17735,-5.25 2.11606,-1.9271 10.46944,-9.483 18.56306,-16.7907 8.09362,-7.3078 14.71567,-13.669 14.71567,-14.136 0,-0.9131 -7.09205,-8.0868 -7.97084,-8.0626 -0.29104,0.01 -1.42916,2.8205 -2.52916,6.25 -2.31232,7.2092 -5.30508,9.5205 -10.01085,7.7313 -2.48617,-0.9452 -3.67721,-0.2822 -15.34228,8.5403 -15.43519,11.6739 -25.03896,16.6838 -33.10014,17.2669 -11.32056,0.8188 -8.54488,-3.3185 9.95327,-14.8359 12.12889,-7.5517 20,-14.2649 20,-17.0576 0,-0.9208 -2.24106,-4.5396 -4.98014,-8.0418 -6.01006,-7.6846 -6.29162,-10.4054 -1.96396,-18.9785 4.0251,-7.9737 10.61855,-14.5499 15.50752,-15.4671 4.98579,-0.9354 8.12789,0.3336 11.66209,4.7098 3.78629,4.6884 4.60263,10.4111 2.33291,16.3543 -0.93891,2.4585 -1.45368,5.2684 -1.14393,6.2443 0.56143,1.769 4.42455,4.7638 5.17583,4.0125 0.21755,-0.2176 0.85544,-2.8205 1.41752,-5.7844 1.45397,-7.6667 4.62679,-13.6262 10.44106,-19.6114 5.56251,-5.726 8.98683,-7.0873 14.43831,-5.7401 5.54151,1.3695 7.10932,5.4306 7.11124,18.4204 0.002,11.3712 0.18152,11.8889 6.67829,19.2253 4.1633,4.7015 4.5566,10.2018 1.0232,14.3096 l -2.3,2.6739 -5.16672,-2.6182 c -8.37935,-4.2461 -9.54486,-3.872 -19.23322,6.1727 -6.48437,6.723 -11.13669,10.4011 -19.61903,15.511 -11.81814,7.1193 -17.43841,8.5968 -18.83705,4.952 z m 6.45608,-59.6948 c 0,-0.7926 -0.35899,-1.6629 -0.79775,-1.934 -1.27929,-0.7907 -3.52519,1.0434 -2.77135,2.2632 0.9922,1.6054 3.5691,1.3677 3.5691,-0.3292 z m 252.00004,54.4011 c 0,-2.3437 4.0646,-8.7291 8.1474,-12.7994 2.3939,-2.3865 8.6276,-6.8548 13.8526,-9.9295 5.225,-3.0747 16.5849,-10.0095 25.2442,-15.4108 13.1024,-8.1726 16.4164,-9.8204 19.75,-9.8204 3.6173,0 4.0058,0.245 4.0058,2.5263 0,5.2265 -9.6434,12.6359 -46.565,35.7776 -13.6768,8.5724 -17.7967,10.6961 -20.75,10.6961 -2.0268,0 -3.685,-0.468 -3.685,-1.0399 z m 372.0041,-3.4551 c -0.9977,-1.2022 -0.9362,-1.9597 0.3139,-3.8676 1.3475,-2.0567 13.3682,-13.4978 26.1234,-24.8642 l 3.9414,-3.5122 -5.1914,-7.0028 c -6.157,-8.3054 -6.4589,-10.8198 -2.2854,-19.0368 6.7738,-13.3367 12.4765,-18.456 20.0441,-17.9934 3.8909,0.2378 4.7018,0.7043 6.4532,3.7122 1.66,2.851 2.0111,5.3026 2.0499,14.3129 l 0.047,10.8726 5.2648,5.0222 c 4.0569,3.8699 5.4979,6.0619 6.2804,9.5537 1.9882,8.8719 -1.0499,10.791 -11.5508,7.2965 l -6.5977,-2.1956 -3.6983,2.4625 c -2.0341,1.3544 -10.6734,7.9221 -19.1984,14.5948 -15.7957,12.3638 -19.2015,14.0121 -21.9959,10.6452 z"
       id="path4650"
       inkscape:connector-curvature="0"
       clip-path="url(#clipPath4750)" />
    <path
       style="fill:#d40000"
       d="m 1415.2396,829.17597 c -1.1624,-0.0385 -2.4311,0.15025 -3.8086,0.56055 -9.9593,2.9663 -21.1201,24.14017 -16.8907,32.04297 0.5405,1.01 3.2169,3.47607 5.9473,5.48047 2.7305,2.0043 5.2375,4.5076 5.5723,5.5625 0.9501,2.9936 -2.895,7.33006 -15.502,17.47656 -12.7959,10.2985 -21.6905,19.24835 -20.3691,20.49805 0.4771,0.4512 1.7691,1.03618 2.8691,1.30078 1.1,0.2646 2.3484,0.53365 2.7754,0.59765 0.427,0.0638 6.7428,-3.87711 14.0352,-8.75781 9.5204,-6.3719 15.0508,-10.89506 19.6113,-16.03906 8.3993,-9.474 8.7364,-9.62024 15.2461,-6.58984 6.5584,3.0532 8.5555,3.11092 11.5176,0.32812 4.1738,-3.921 3.1782,-7.52877 -4.0586,-14.70117 l -6.375,-6.31641 -0.459,-10.15429 c -0.6454,-14.25508 -3.8347,-21.08121 -10.1113,-21.28907 z m -41.9258,1.5586 c -2.3559,-0.11335 -4.682,0.94824 -7.2168,3.17382 -4.7388,4.1608 -10.7595,16.50838 -11.3145,23.20118 l -0.4336,5.2207 6.6407,7.4043 6.6406,7.40625 -3.2871,3.41406 c -1.8075,1.8778 -8.6852,7.49949 -15.2852,12.49219 -14.8313,11.2196 -17.5,13.65217 -17.5,15.95117 0,1.4497 0.8038,1.8125 4.0156,1.8125 6.5998,0 24.4122,-9.50084 30.6895,-16.36914 2.7769,-3.0384 7.2138,-7.3977 9.8594,-9.6875 4.4348,-3.8383 5.1415,-4.11863 9.0566,-3.58203 3.843,0.5268 4.4911,0.292 6.8125,-2.4668 3.5185,-4.1815 3.2279,-7.22992 -1.3633,-14.32422 -3.5917,-5.55 -4.0087,-6.92273 -4.8847,-16.01953 -0.9522,-9.8889 -0.9825,-9.9715 -5.0332,-13.75 -2.6537,-2.4753 -5.0407,-3.7636 -7.3965,-3.87695 z m 37.8691,13.67578 a 6.8750005,6.8750005 0 0 1 6.875,6.875 6.8750005,6.8750005 0 0 1 -6.875,6.875 6.8750005,6.8750005 0 0 1 -6.875,-6.875 6.8750005,6.8750005 0 0 1 6.875,-6.875 z m -38.8945,3.92383 a 7.5964012,7.5964012 0 0 1 7.5957,7.5957 7.5964012,7.5964012 0 0 1 -7.5957,7.59766 7.5964012,7.5964012 0 0 1 -7.5977,-7.59766 7.5964012,7.5964012 0 0 1 7.5977,-7.5957 z"
       id="path4672"
       inkscape:connector-curvature="0" />
  </g>
</svg>
