<?xml version="1.0" encoding="UTF-8" standalone="no"?>
<!-- Created with Inkscape (http://www.inkscape.org/) -->

<svg
   xmlns:dc="http://purl.org/dc/elements/1.1/"
   xmlns:cc="http://creativecommons.org/ns#"
   xmlns:rdf="http://www.w3.org/1999/02/22-rdf-syntax-ns#"
   xmlns:svg="http://www.w3.org/2000/svg"
   xmlns="http://www.w3.org/2000/svg"
   xmlns:sodipodi="http://sodipodi.sourceforge.net/DTD/sodipodi-0.dtd"
   xmlns:inkscape="http://www.inkscape.org/namespaces/inkscape"
   width="446px"
   height="44px"
   viewBox="0 0 3151.8681 310.62404"
   id="svg4182"
   version="1.1"
   inkscape:version="0.91 r13725"
   sodipodi:docname="99_7.svg">
  <defs
     id="defs4184" />
  <sodipodi:namedview
     id="base"
     pagecolor="#ffffff"
     bordercolor="#666666"
     borderopacity="1.0"
     inkscape:pageopacity="0.0"
     inkscape:pageshadow="2"
     inkscape:zoom="1.979899"
     inkscape:cx="225.89777"
     inkscape:cy="-144.47607"
     inkscape:document-units="px"
     inkscape:current-layer="layer1"
     showgrid="false"
     inkscape:window-width="1920"
     inkscape:window-height="1001"
     inkscape:window-x="-9"
     inkscape:window-y="-9"
     inkscape:window-maximized="1"
     fit-margin-top="0"
     fit-margin-left="0"
     fit-margin-right="0"
     fit-margin-bottom="0" />
  <metadata
     id="metadata4187">
    <rdf:RDF>
      <cc:Work
         rdf:about="">
        <dc:format>image/svg+xml</dc:format>
        <dc:type
           rdf:resource="http://purl.org/dc/dcmitype/StillImage" />
        <dc:title />
      </cc:Work>
    </rdf:RDF>
  </metadata>
  <g
     inkscape:label="Layer 1"
     inkscape:groupmode="layer"
     id="layer1"
     transform="translate(-666.15872,-352.59431)">
    <path
       style="fill:#000000"
       d="m 819.19932,662.63417 c -43.5512,-3.8677 -82.9129,-27.8799 -107.7228,-65.7151 -13.4209,-20.467 -22.2772,-48.473 -22.2772,-70.4463 0,-6.2823 -0.1811,-6.9328 -1.75,-6.2853 -6.5424,2.7001 -10.805,2.1866 -15.0945,-1.8184 -5.9819,-5.5851 -6.2482,-9.6384 -1.6701,-25.4297 4.234,-14.6045 3.1168,-35.279 -2.5015,-46.2917 l -2.0245,-3.9685 3.5518,0 c 1.9535,0 6.2572,0.9113 9.5636,2.0252 l 6.0117,2.0252 5.7087,-5.7752 c 3.1398,-3.1764 9.1344,-9.023 13.3214,-12.9925 5.76,-5.4608 8.4812,-8.9897 11.1812,-14.5 3.2206,-6.573 6.7022,-19.4354 6.7022,-24.7609 l 0,-2.0624 3.8447,1.9614 c 4.9895,2.5454 9.8563,8.1543 12.7469,14.6903 l 2.3078,5.2184 8.2181,-5.4068 c 8.8559,-5.8264 19.0992,-10.1407 30.6325,-12.9022 3.9875,-0.9548 7.25,-2.0825 7.25,-2.5061 0,-0.4236 -0.675,-2.3857 -1.5,-4.3602 -3.0905,-7.3967 -1.2826,-17.0732 4.3031,-23.0307 6.0144,-6.4148 18.8976,-9.5623 26.8818,-6.5676 7.2856,2.7327 13.3992,9.0275 15.256,15.7081 l 0.7604,2.736 1.6803,-3.9462 c 2.6894,-6.3161 6.1885,-10.1607 11.7868,-12.9504 12.2824,-6.1206 27.8176,-1.2632 33.9232,10.6068 2.3369,4.5432 2.5259,13.3761 0.3953,18.4755 -0.8322,1.9917 -1.3947,3.7256 -1.25,3.853 0.1447,0.1274 4.0573,1.2076 8.6946,2.4004 11.1885,2.8779 20.5292,6.9448 29.3361,12.7729 8.6726,5.7393 8.7324,5.7685 8.7324,4.2666 0,-2.2756 5.1597,-11.5005 8.2006,-14.6617 2.8086,-2.9196 8.4445,-6.1176 9.1667,-5.2015 0.1668,0.2115 1.025,4.1447 1.9071,8.7403 0.8822,4.5956 3.2293,11.7956 5.2158,16 3.1863,6.7437 5.2189,9.2064 17.2529,20.9037 l 13.641,13.2593 4.0579,-1.5393 c 4.0155,-1.5233 14.55798,-3.5439 14.55798,-2.7902 0,0.2148 -0.90418,2.163 -2.00938,4.3293 -5.7588,11.2881 -6.8771,30.9208 -2.6068,45.7642 4.83638,16.8111 4.55798,20.14 -2.2233,26.5862 -2.3296,2.2144 -3.9348,2.8562 -7.0365,2.8134 -2.2102,-0.031 -4.9127,-0.534 -6.0055,-1.1189 -1.0929,-0.5849 -2.1738,-1.0634 -2.4021,-1.0634 -0.2283,0 -0.6784,4.6125 -1.0003,10.25 -2.5055,43.8767 -26.4132,84.3658 -65.2161,110.4474 -25.2307,16.9589 -59.4496,25.1928 -92.5,22.2576 z m 39.6921,-8.5134 c 53.6621,-9.3393 98.7401,-52.8346 110.8331,-106.9416 0.8609,-3.8517 1.8316,-14.5374 2.1582,-23.7586 l 0.5937,-16.7587 2.881,3.9177 c 3.4073,4.6332 7.4578,6.3569 11.9262,5.0754 6.8359,-1.9605 7.4316,-6.9655 2.7749,-23.3145 -2.9195,-10.2503 -3.0963,-11.7542 -2.5089,-21.3531 0.3564,-5.825 1.4563,-12.7684 2.5233,-15.9289 l 1.8915,-5.6029 -3.5227,0.5717 c -7.7049,1.2503 -15.783,9.6242 -19.4402,20.1519 l -1.7369,5 -0.029,-6.5 c -0.031,-6.9084 1.5469,-10.7118 6.731,-16.2274 l 2.5635,-2.7274 -4.9685,-4.7726 c -2.7326,-2.6249 -8.6034,-8.1476 -13.046,-12.2726 -9.22,-8.5607 -14.3026,-17.2653 -16.9649,-29.0545 -0.8627,-3.82 -1.909,-6.9455 -2.3251,-6.9455 -2.0777,0 -6.0711,4.5449 -7.6978,8.7608 -1.4066,3.6455 -1.8286,7.5086 -1.8286,16.7392 0,6.6 0.343,13.5461 0.7621,15.4357 l 0.7622,3.4357 -2.6616,-2.4357 c -1.5894,-1.4545 -0.3769,0.8527 3.0099,5.727 7.4066,10.6598 14.0774,24.8825 17.3821,37.0599 2.4669,9.0903 2.6533,11.2181 2.6533,30.2774 0,19.0075 -0.1912,21.204 -2.626,30.1695 -5.8712,21.6192 -15.1771,37.4829 -31.6534,53.9591 -16.4907,16.4908 -32.4037,25.8206 -53.9591,31.6363 -8.9227,2.4074 -11.2528,2.6106 -30.1695,2.6316 -19.0635,0.021 -21.1776,-0.1616 -30.1695,-2.6088 -22.3554,-6.0843 -37.653,-15.2063 -54.8305,-32.6959 -21.2196,-21.6051 -31.7986,-44.2145 -33.8777,-72.4033 -2.0838,-28.2521 4.7559,-55.4212 19.1325,-76.0001 5.9065,-8.4547 6.4779,-9.53 3.8275,-7.2023 l -2.2615,1.9861 0.8396,-3.9861 c 1.6001,-7.5965 1.0081,-26.5352 -0.9916,-31.7253 -1.6169,-4.1965 -5.6147,-8.7608 -7.6736,-8.7608 -0.4042,0 -1.2782,2.8125 -1.9422,6.25 -0.6639,3.4375 -2.7967,9.5796 -4.7394,13.6492 -3.6629,7.6729 -7.2611,11.7438 -22.7736,25.7657 l -7.9265,7.1649 3.6367,4.0254 c 5.5355,6.1271 6.5675,8.7954 5.9904,15.4887 l -0.5038,5.8438 -1.7661,-5.015 c -3.7216,-10.5679 -11.525,-18.577 -19.3344,-19.8443 l -3.6441,-0.5914 1.5683,3.7537 c 0.8626,2.0644 2.0779,8.8513 2.7006,15.0818 1.1212,11.2186 1.101,11.452 -2.0862,24.1279 -3.7398,14.8738 -3.8721,17.1435 -1.1974,20.5439 4.0036,5.0897 10.3627,4.1702 16.0225,-2.3167 l 3.5,-4.0115 0.049,14.7919 c 0.093,28.1332 6.5031,49.1606 22.1551,72.6717 7.332,11.0135 23.7617,28.2094 34.0332,35.6203 19.9914,14.4238 42.65,23.315 66.0045,25.9001 11.0104,1.2187 30.4513,0.5428 41.9506,-1.4585 z m -2.2822,-31.0866 c 22.0272,-4.1569 41.3716,-15.0584 58.6755,-33.0663 18.761,-19.5245 28.9775,-42.1021 30.7476,-67.95 1.9404,-28.3344 -3.8221,-52.0976 -17.5631,-72.4261 -19.5793,-28.9657 -52.3698,-48.6381 -84.5779,-50.7419 -23.8658,-1.5589 -41.3565,1.583 -60.192,10.8126 -30.329,14.8614 -51.9617,41.2274 -60.7036,73.9859 -2.9062,10.8902 -3.6233,36.2926 -1.37,48.5308 4.2319,22.9845 13.3664,40.9315 29.3456,57.6568 20.1762,21.1182 43.6907,32.5776 72.228,35.1992 7.2565,0.6666 24.8617,-0.3878 33.4099,-2.001 z m -19.2533,-61.1351 c -1.1593,-1.6281 -4.3666,-8.7128 -7.1273,-15.7437 -5.5257,-14.0731 -6.9182,-16.6896 -17.7918,-33.4315 l -7.44,-11.4554 0.3842,-6.7999 c 0.3011,-5.3272 0.8569,-7.2724 2.5666,-8.9822 1.9848,-1.9847 2.4196,-2.0553 4.8032,-0.7796 3.7913,2.029 9.1923,9.2166 16.4382,21.8759 3.4933,6.1031 6.9789,11.0965 7.7459,11.0965 1.5455,0 7.4018,-11.9909 9.2673,-18.9748 1.568,-5.8702 6.236,-15.0354 8.869,-17.4132 1.8073,-1.6322 2.3179,-1.7 3.7685,-0.5 2.3507,1.9446 6.3381,10.8365 6.3498,14.1602 0,1.5247 -1.7369,6.2497 -3.8718,10.5 -3.8986,7.7616 -11.9659,31.3773 -16.1334,47.2278 -1.2291,4.675 -3.0191,9.328 -3.9777,10.34 -1.6848,1.7787 -1.8132,1.7413 -3.8507,-1.1201 z m -74.6566,-146.2975 c 13.6759,-10.3877 26.0627,-16.1573 42.6964,-19.8876 15.0809,-3.3821 21.7923,-9.401 21.7999,-19.5504 0,-6.0748 -2.3572,-10.8419 -7.3888,-14.9143 -3.0138,-2.4393 -4.8261,-3.0529 -9.9883,-3.3816 -6.4438,-0.4103 -10.6842,0.9155 -14.9756,4.6821 -6.8867,6.0446 -7.5709,20.7952 -1.2095,26.0747 2.5694,2.1324 1.8715,2.7344 -4.6601,4.0194 -14.6565,2.8835 -32.6307,10.3861 -41.7738,17.4367 l -4.4999,3.4701 -0.1429,10.3184 -0.143,10.3185 7.1428,-7.0143 c 3.9285,-3.8579 9.8428,-9.0652 13.1428,-11.5717 z m 161.6853,8.5633 -0.3146,-10.5186 -5.2474,-3.9617 c -9.0946,-6.8665 -27.9981,-14.5508 -42.2601,-17.1786 l -6.3997,-1.1792 2.4546,-2.5738 c 10.8593,-11.3864 1.7489,-31.0738 -14.3795,-31.0738 -6.6659,0 -11.2637,2.1973 -15.4685,7.3925 -2.4484,3.0251 -3.0424,4.7902 -3.3294,9.8947 -0.6576,11.6973 4.7904,16.5561 23.9677,21.3756 21.2781,5.3474 37.4993,14.7373 53.2674,30.8346 3.8633,3.944 7.2492,7.2464 7.5242,7.3388 0.275,0.092 0.3584,-4.5653 0.1853,-10.3505 z m -85.5964,-33.7357 c -0.9103,-1.2375 -2.5947,-4.2381 -3.7431,-6.6681 l -2.0881,-4.418 -1.2838,3.7342 c -0.706,2.0539 -1.9331,4.492 -2.7267,5.4181 -3.3916,3.9576 -3.1582,4.1838 4.3158,4.1838 l 7.1809,0 -1.655,-2.25 z m 1031.70398,264.1033 c 0.3059,-2.2808 1.3776,-4.9446 2.3816,-5.9197 1.5705,-1.5251 20.67,-10.8277 48.5319,-23.6378 4.2386,-1.9488 8.4011,-3.2767 9.25,-2.9509 1.0318,0.3959 1.5436,1.905 1.5436,4.5509 0,3.3386 -0.5714,4.4296 -3.6482,6.9658 -8.5914,7.0817 -47.7554,25.1384 -54.524,25.1384 l -4.0911,0 0.5562,-4.1467 z m -361.9588,-6.2675 c -9.8012,-1.8694 -19.1474,-5.0949 -23.6725,-8.1697 -7.1664,-4.8698 -2.086,-6.6542 11.2191,-3.9404 6.2732,1.2795 9.1764,1.3938 14.3607,0.5656 18.8618,-3.0132 34.9701,-14.1298 46.1044,-31.8174 8.9745,-14.2567 8.8343,-13.0502 2.433,-20.937 -8.1669,-10.062 -8.7456,-11.8052 -7.1414,-21.5096 0.8953,-5.4158 3.1502,-5.6389 11.1339,-1.1014 9.6368,5.4769 15.625,7.4103 24.7287,7.984 6.7256,0.4239 9.8893,0.02 19.8602,-2.537 14.1502,-3.6284 18.4041,-5.6623 21.3531,-10.2099 6.3833,-9.8431 7.2447,-10.0599 9.6502,-2.4287 1.2125,3.8463 2.7142,6.2359 5.0278,8.0006 4.9298,3.7601 13.9613,6.5151 21.3582,6.5151 10.8289,0 38.5552,-6.5774 43.7555,-10.38 1.8886,-1.3809 1.8965,-1.5189 0.1957,-3.3983 -2.3433,-2.5893 -14.8291,-8.2969 -19.5018,-8.9149 -2.4406,-0.3227 -7.23,0.5625 -14.0789,2.6021 -14.6609,4.3659 -15.9147,4.1409 -14.6449,-2.628 0.8069,-4.3008 9.4846,-13.4338 16.8603,-17.7448 10.3586,-6.0545 17.0208,-5.5259 38.1948,3.0301 26.3959,10.6662 48.2372,15.9587 70.511,17.086 l 12.9588,0.6558 0,4.1235 c 0,6.0883 -4.5092,11.6319 -12.3807,15.2208 -3.7464,1.7081 -4.4904,1.6928 -21.5,-0.4422 -20.4621,-2.5683 -19.8335,-2.6502 -44.6193,5.8082 -22.2,7.5759 -49.214,14.1352 -59,14.3259 -8.9307,0.1739 -12.0971,-1.0285 -22.0285,-8.3653 -2.9624,-2.1884 -5.9417,-3.9789 -6.6208,-3.9789 -0.6791,0 -4.7581,2.3131 -9.0644,5.1403 -9.4382,6.1963 -16.5325,8.3273 -33.0544,9.9286 -10.655,1.0328 -12.569,1.4989 -14.8467,3.6159 -1.4381,1.3366 -5.2353,8.3669 -8.4383,15.6227 -3.2029,7.2559 -7.4953,15.6913 -9.5385,18.7453 -4.4682,6.6785 -14.2182,15.9173 -19.386,18.3696 -5.0077,2.3763 -20.6652,2.9797 -30.1883,1.1634 z m 1256.6477,-3.1336 c -0.6943,-1.8261 -0.5647,-3.5146 0.4573,-5.9607 1.2742,-3.0495 3.2695,-4.3362 18.7434,-12.0861 31.531,-15.7921 42.3529,-20.4054 47.8668,-20.4054 4.7045,0 4.9507,0.1335 4.9507,2.6838 0,3.695 -7.6359,10.8771 -17.0722,16.0576 -12.4889,6.8565 -47.7486,22.2586 -50.9558,22.2586 -2.3179,0 -3.2471,-0.5933 -3.9902,-2.5478 z m -1633.4818,-3.0731 c -9.0569,-1.983 -13.0375,-3.9209 -15.6815,-7.634 -4.6513,-6.5322 1.8606,-8.8873 17.922,-6.4816 22.8375,3.4205 41.6058,-1.9946 56.0797,-16.1804 11.5359,-11.3062 19.2582,-22.5745 20.6482,-30.1296 0.5268,-2.8633 0.01,-4.4789 -3.0462,-9.4535 -8.3885,-13.6711 -7.7546,-11.397 -5.1885,-18.6139 3.0853,-8.6773 4.4168,-8.7481 18.9752,-1.0083 12.4799,6.6346 23.2304,10.1253 41.2911,13.4071 10.807,1.9638 15.4299,2.1822 46.5,2.1978 34.4856,0.017 34.5079,0.016 53.4188,-3.2545 29.8588,-5.1638 44.333,-9.3936 47.2195,-13.7989 1.7872,-2.7276 2.3318,-1.5179 -8.0714,-17.9293 -6.3732,-10.054 -6.5705,-11.874 -2.031,-18.7336 1.977,-2.9875 3.1234,-3.7664 5.5432,-3.7664 4.6578,0 11.8374,7.9928 17.5916,19.584 l 4.7133,9.4944 -1.239,5.9983 c -1.7735,8.5867 -6.8322,21.2888 -9.4277,23.6725 -2.2337,2.0514 -16.5255,7.74 -26.7173,10.6342 -17.0269,4.8352 -49.6108,9.1452 -80.068,10.5909 l -20.432,0.9698 -32.7444,-4.1708 c -38.1243,-4.8561 -33.4389,-5.9818 -39.2833,9.4378 -7.4814,19.7387 -20.5856,36.2708 -33.9819,42.8709 l -6.9375,3.418 -19.0265,0.2059 c -14.0308,0.1518 -20.8643,-0.1966 -26.0264,-1.3268 z m 2226.3589,-2.3913 c -5.2249,-2.7607 -9.8589,-7.7251 -9.8589,-10.5618 0,-3.0111 5.8756,-9.6646 10.4527,-11.8365 3.2021,-1.5195 3.711,-1.4958 8.5135,0.3972 6.9675,2.7463 8.0536,2.6032 15.174,-1.9989 4.2885,-2.7718 6.8494,-3.8232 8.2837,-3.4009 3.3669,0.9914 8.6296,5.6337 10.9331,9.6442 l 2.143,3.7312 -2,3.7688 c -1.304,2.4574 -3.614,4.6214 -6.6382,6.2189 l -4.6381,2.45 -5.2042,-2.7 c -2.8622,-1.485 -6.1295,-2.7 -7.2606,-2.7 -1.131,0 -4.5162,2.025 -7.5226,4.5 -6.1008,5.0226 -7.1724,5.2379 -12.3774,2.4878 z m -419.3589,-0.055 c -33.314,-3.4902 -46.6025,-31.0011 -30.5072,-63.1585 5.4925,-10.9736 7.7647,-13.9507 10.3648,-13.58 3.3209,0.4735 3.1551,3.8793 -0.7693,15.8063 -2.8217,8.5758 -3.4431,11.7796 -2.9634,15.2793 2.1214,15.4774 14.4788,23.1153 37.3751,23.1011 26.2158,-0.016 46.1528,-10.9044 45.9443,-25.0914 -0.031,-2.0844 -3.3187,-30.5648 -7.3068,-63.2898 -7.7307,-63.4354 -7.7722,-64.2803 -3.6155,-73.75 3.6569,-8.3309 7.1621,-4.4884 9.3614,10.2622 2.9326,19.6685 9.571,54.1396 12.111,62.8882 3.4556,11.9024 8.4141,22.3857 12.9773,27.4366 4.498,4.9787 13.8233,9.7528 22.0283,11.2774 6.6289,1.2317 21.4275,0.6388 25.803,-1.0337 4.3838,-1.6758 17.45,-12.1319 25.697,-20.5638 7.5761,-7.7459 13.1562,-11.5169 17.0423,-11.5169 1.3035,0 5.5354,3.2837 10.9715,8.5133 6.9142,6.6515 10.6686,9.3787 17.1678,12.4708 15.7598,7.498 33.7265,11.1165 65.3184,13.1553 22.5816,1.4572 37.4573,0.5998 62,-3.5737 22.2056,-3.776 25.3409,-4.6274 28.0456,-7.6161 1.6024,-1.7707 1.5258,-2.032 -1.4753,-5.0331 -3.1112,-3.1113 -3.2827,-3.154 -9.9973,-2.4923 -6.7179,0.6619 -6.8424,0.6308 -7.4693,-1.8671 -1.512,-6.0244 5.5581,-14.4322 18.2353,-21.6855 6.4455,-3.6879 8.5667,-4.3856 14.3207,-4.7108 11.4501,-0.647 25.9669,4.9356 30.5607,11.7523 3.6564,5.4258 3.1449,11.4381 -1.5976,18.7756 -4.5641,7.0615 -4.2624,8.3203 2.6315,10.9803 3.7744,1.4562 7.5088,1.8256 18.2457,1.8045 11.6942,-0.023 14.137,-0.3171 18.2618,-2.199 2.619,-1.1949 5.0342,-2.8822 5.367,-3.7496 1.1653,-3.0368 -3.7318,-15.2269 -9.3177,-23.1945 -5.3612,-7.6468 -5.4786,-7.9614 -5.01,-13.4182 0.6749,-7.8588 2.9475,-11.9122 6.6788,-11.9122 3.5308,0 8.4222,5.8659 13.1475,15.767 10.4377,21.8701 10.5537,36.698 0.3756,48.0184 -8.8788,9.8754 -26.0421,14.6228 -44.441,12.2923 -6.4463,-0.8165 -10.813,-2.1622 -18.5,-5.7015 -5.5341,-2.548 -11.4976,-4.8461 -13.2521,-5.1069 -1.9957,-0.2966 -6.676,0.6773 -12.5,2.601 -9.9442,3.2848 -29.3765,7.0995 -47.3099,9.2876 -7.4282,0.9063 -22.5272,1.3198 -46.5,1.2735 -32.7963,-0.063 -36.388,-0.2434 -47.1596,-2.3623 l -11.6596,-2.2936 -7.8438,2.6123 c -5.9692,1.9879 -9.8549,2.6122 -16.2585,2.6122 -14.4585,0 -20.2492,-1.5134 -29.1714,-7.6238 -4.3176,-2.9569 -8.4786,-5.3762 -9.2468,-5.3762 -0.7681,0 -4.2684,2.2097 -7.7785,4.9105 -16.3367,12.5701 -43.1537,12.6448 -59.5616,0.1659 l -5.1799,-3.9395 -1.5972,2.4377 c -0.9103,1.3892 -2.1974,7.2758 -2.9927,13.687 -1.8854,15.1984 -4.2742,21.247 -10.8276,27.4166 -16.2222,15.272 -35.4724,21.6382 -58.2228,19.2548 z m 173.8892,-78.7537 c 0.2789,-0.4513 -0.3629,-2.2513 -1.4263,-4 -2.3105,-3.7992 -7.1961,-4.4806 -8.9277,-1.245 -1.7055,3.1866 -1.2353,3.9032 3.2148,4.8998 5.6667,1.269 6.5421,1.3113 7.1392,0.3452 z M 1376.83,634.62437 c -3.0418,-2.78 -5.8003,-5.9044 -6.13,-6.9431 -0.3296,-1.0387 0.2963,-3.6443 1.3911,-5.7901 1.9816,-3.8843 8.2821,-10.2122 10.168,-10.2122 0.5446,0 4.1618,1.5972 8.0382,3.5494 l 7.0482,3.5493 3.1769,-2.0273 c 7.8534,-5.0118 9.3633,-5.4819 13.5639,-4.2234 2.176,0.6519 6.0743,3.1029 8.6629,5.4465 4.2848,3.8793 4.6436,4.5482 4.003,7.4647 -0.4446,2.0243 -2.4184,4.7129 -5.3623,7.3042 -4.1711,3.6716 -5.079,4.0503 -8.6746,3.6192 -2.2088,-0.2649 -5.9333,-1.0711 -8.2766,-1.7916 -4.0598,-1.2481 -4.5672,-1.1586 -10.7689,1.8996 -3.5796,1.7652 -7.5886,3.2094 -8.9088,3.2094 -1.488,0 -4.503,-1.9215 -7.931,-5.0546 z m 2117.5863,3.6702 c -2.9057,-0.7392 -8.6106,-2.9887 -12.6776,-4.9987 -22.0421,-10.8938 -26.3534,-28.2325 -13.4003,-53.8924 2.8743,-5.694 11.1654,-15.7245 12.9977,-15.7245 2.0323,0 0.5712,6.4476 -3.2123,14.1756 -3.6841,7.5252 -4.0293,8.8765 -3.5948,14.0748 0.8773,10.4951 6.8867,17.725 18.3157,22.0356 5.2872,1.9941 7.6961,2.2084 24.8546,2.2111 l 19,0 7,-3.6552 c 15.1008,-7.885 19.2132,-12.6032 18.0054,-20.6574 -1.2345,-8.2325 -4.3876,-16.5605 -9.5362,-25.1874 -4.0531,-6.7914 -4.9761,-9.1435 -4.5918,-11.7011 0.5689,-3.7862 5.3205,-12.2458 7.3062,-13.0077 1.9653,-0.7542 4.9421,2.1905 9.8144,9.7088 8.1573,12.5872 11.8782,14.4901 27.002,13.8089 13.4492,-0.6058 19.1537,-3.7562 34.2144,-18.8957 7.1886,-7.2262 13.2802,-12.4638 15.6174,-13.4278 l 3.8317,-1.5806 12.7504,12.5107 c 20.7166,20.3271 26.2577,22.1076 68.5861,22.0392 23.8355,-0.038 30.1104,-0.3753 42.1893,-2.2638 28.8848,-4.5162 40.2791,-10.3806 36.4591,-18.7647 -1.4171,-3.1101 -3.6678,-3.0747 -11.3991,0.1793 -4.9011,2.0628 -7.3237,2.5116 -11.6309,2.1544 -4.8003,-0.3981 -5.8823,-0.925 -9.1974,-4.479 -3.96,-4.2452 -5.9062,-9.338 -5.9154,-15.4793 -0.012,-7.8767 9.969,-33.6473 13.8322,-35.7148 2.8526,-1.5267 9.7552,-1.3521 12.9619,0.3278 6.3321,3.3174 11.4066,10.7402 16.6838,24.4046 9.3003,24.0817 9.7697,41.1282 1.3949,50.6665 -9.0294,10.2839 -33.753,17.7362 -67.8283,20.445 -20.0675,1.5954 -29.096,1.3265 -48.0501,-1.4307 -9.4521,-1.375 -18.4201,-2.5 -19.9287,-2.5 -1.6466,0 -4.6689,1.4989 -7.5608,3.75 -4.4719,3.4807 -5.2481,3.7335 -10.8114,3.5201 -9.2583,-0.3551 -17.191,-2.7387 -29.4098,-8.8368 l -11.2108,-5.595 -3.2892,2.4823 c -4.4009,3.3212 -15.8592,6.5919 -28.1526,8.0358 l -10.0612,1.1818 -5.0792,13.9239 c -6.3217,17.33 -9.6975,21.5863 -21.8158,27.5059 -12.8298,6.2671 -24.1865,9.1638 -37.6805,9.6108 -7.5455,0.2499 -13.3167,-0.081 -16.783,-0.9632 z m 149.5793,-77.7966 c 0.1757,-0.9119 -0.9864,-3.1194 -2.5822,-4.9054 -3.1279,-3.5007 -5.2921,-3.5049 -7.1603,-0.014 -0.9315,1.7404 -0.5686,2.359 2.6845,4.5762 4.1098,2.801 6.5618,2.9202 7.058,0.3432 z m 147.9369,-36.5912 2.2332,-1.7278 -2.5399,-4.25 c -2.1773,-3.6433 -3.0162,-4.25 -5.8762,-4.25 -3.5269,0 -4.5503,1.2587 -4.5503,5.5965 0,1.6717 1.0169,3.0529 3.25,4.4145 3.9419,2.4034 4.6311,2.4233 7.4832,0.2168 z m -1919.2332,114.0456 c -4.4738,-0.6369 -4.8825,-1.6201 -2.7126,-6.5254 3.0974,-7.0022 7.3744,-9.6306 37.8394,-23.2538 11.6904,-5.2277 16.5732,-6.9616 17.75,-6.303 3.8965,2.1806 0.5534,8.3306 -7.7492,14.2552 -5.561,3.9683 -40.648,22.8072 -41.7268,22.404 -0.2204,-0.082 -1.7508,-0.3421 -3.4008,-0.577 z m -252.1753,-2.8847 c -7.241,-3.571 -7.84,-7.6162 -2.2672,-15.3092 3.8139,-5.2649 6.5139,-5.8574 13.9755,-3.067 l 5.9898,2.2401 6.1449,-4.1262 c 8.1297,-5.459 10.802,-5.4197 16.4639,0.2422 6.6466,6.6466 5.6124,12.2275 -3.2849,17.7264 l -3.6206,2.2376 -6.7104,-2.3269 -6.7104,-2.327 -5.5244,3.1608 c -6.1253,3.5045 -9.712,3.8889 -14.4562,1.5492 z m 336.6753,-10.0436 c -1.375,-0.2789 -5.0562,-1.6431 -8.1805,-3.0314 -5.3175,-2.3629 -5.6128,-2.673 -4.6203,-4.8513 1.5638,-3.4321 4.8924,-4.2599 19.3008,-4.8 14.6336,-0.5485 23.1335,-2.6594 30.5863,-7.596 5.9572,-3.9459 26.9151,-25.422 30.8249,-31.5873 1.6988,-2.6787 3.0888,-6.1503 3.0888,-7.7145 0,-4.7853 -3.8277,-10.8893 -12.0843,-19.271 -6.9394,-7.0443 -7.9624,-8.5552 -8.5129,-12.5714 -0.7272,-5.3054 2.1868,-12.3396 5.5546,-13.4085 3.0314,-0.9621 8.922,2.3472 12.2921,6.9056 4.0031,5.4145 10.307,18.9434 11.4869,24.652 2.0625,9.9786 -1.988,26.8716 -10.2863,42.9002 -7.0362,13.5907 -15.564,22.5792 -24.2663,25.5774 -8.1447,2.8061 -38.9013,6.0709 -45.1838,4.7962 z m 273.5383,-10.3108 c -19.2628,-5.3141 -23.4287,-8.0945 -29.0941,-19.4185 -2.8257,-5.6481 -3.4442,-8.0085 -3.4442,-13.1446 0,-7.5689 2.8249,-17.1712 8.1952,-27.8562 3.6718,-7.3057 4.0835,-7.7647 5.6018,-6.2464 1.4483,1.4483 1.4766,2.0162 0.2439,4.8852 -2.2058,5.1339 -2.5051,17.2423 -0.5526,22.3549 4.4567,11.6697 26.1105,22.7718 41.0013,21.0217 11.5476,-1.3572 30.2765,-9.3963 36.5828,-15.7026 4.5111,-4.5111 4.9652,-7.903 2.473,-18.4694 -0.7838,-3.323 -2.1453,-11.648 -3.0257,-18.5 -3.639,-28.3235 -7.8858,-52.4461 -12.0745,-68.5856 -2.4449,-9.4201 -4.4452,-17.9828 -4.4452,-19.0282 0,-3.8948 9.9812,-22.3444 12.0883,-22.3444 0.3917,0 1.2575,2.3625 1.924,5.25 1.4883,6.448 5.0877,12.9276 8.6042,15.4892 l 2.6401,1.9231 -2.6866,12.6009 -2.6865,12.601 5.5286,35.833 c 3.0407,19.7082 5.98,39.0166 6.5319,42.9076 2.0026,14.1203 -1.9853,25.7754 -12.2361,35.7616 -16.3789,15.9561 -42.3114,23.8702 -61.1696,18.6677 z m -1198.8542,-12.8306 c -1.7442,-1.9274 -1.7142,-2.0446 1.0091,-3.9408 1.5438,-1.0749 5.6613,-3.4588 9.1501,-5.2976 5.4058,-2.8491 11.1567,-8.1441 11.1567,-10.2722 0,-0.3401 -2.7226,-2.4673 -6.0502,-4.727 -7.6462,-5.1925 -9.8055,-9.1663 -8.0907,-14.8899 1.4183,-4.7338 7.0383,-12.4325 9.4088,-12.8891 1.9188,-0.3695 11.2663,7.9826 13.1858,11.7816 3.6142,7.1534 2.6084,16.8256 -2.967,28.5315 -1.8337,3.85 -4.7457,8.3479 -6.4711,9.9953 -2.8325,2.7045 -3.8848,3.0293 -10.8355,3.345 -6.6756,0.3032 -7.9371,0.086 -9.496,-1.6368 z m 1368.3307,-5.3547 c -18.0678,-1.8855 -33.1272,-7.0279 -39.6328,-13.5335 -4.2823,-4.2823 -6.1677,-10.6411 -7.9506,-26.8153 -0.7881,-7.15 -3.0178,-27.625 -4.9549,-45.5 -2.3866,-22.0236 -4.4778,-36.5294 -6.4873,-45 -1.6309,-6.875 -2.9707,-13.4242 -2.9772,-14.5537 -0.01,-1.1295 1.1656,-4.4168 2.6049,-7.3051 2.273,-4.5613 2.963,-5.2114 5.25,-4.9463 2.2057,0.2556 2.9203,1.1711 4.4026,5.6402 0.9733,2.9343 2.433,11.0343 3.2439,18 0.8109,6.9657 2.363,17.6149 3.4491,23.6649 1.2643,7.0432 1.9952,15.6762 2.0319,24 0.1025,23.2825 2.4018,38.4669 7.3176,48.3242 1.7932,3.5959 3.517,5.2255 8.3092,7.8551 6.5457,3.5919 11.3562,4.8702 33.0147,8.7733 15.6687,2.8236 38.2603,3.458 56.3641,1.5826 5.225,-0.5413 18.5497,-1.4539 29.6104,-2.028 21.0587,-1.0931 44.6275,-3.5434 71.5129,-7.4347 19.1549,-2.7723 20.8606,-3.7513 20.9025,-11.9968 0.055,-10.8334 8.426,-28.1628 18.4711,-38.2388 9.3063,-9.335 16.7577,-10.5643 24.2358,-3.9984 10.2896,9.0343 11.161,27.0381 2.1708,44.8514 l -2.8717,5.69 2.4957,1.9631 c 4.6723,3.6752 11.4159,4.4787 32.3914,3.8593 10.7696,-0.3179 21.3811,-1.0932 23.5811,-1.7228 2.2,-0.6297 8.5486,-3.818 14.1079,-7.0853 7.0895,-4.1665 10.673,-5.7349 12,-5.2519 1.0407,0.3787 5.4921,2.7516 9.8921,5.2731 l 8,4.5846 13,-0.031 c 13.2661,-0.031 19.161,-1.1501 22.8995,-4.3456 1.0447,-0.8929 6.5252,-8.6298 12.1789,-17.193 10.0955,-15.2907 16.0528,-22.0794 21.039,-23.9752 3.5103,-1.3346 8.6956,-1.1907 10.6188,0.2947 0.8901,0.6875 4.3837,8.5591 7.7635,17.4926 l 6.1452,16.2426 -1.1734,5.7574 c -2.178,10.6874 -7.8524,18.2574 -13.6856,18.2574 -0.9974,0 -8.326,-1.8001 -16.2859,-4 -7.9599,-2.2 -14.9958,-4 -15.6354,-4 -0.6396,0 -4.2054,2.7571 -7.9239,6.127 -8.6011,7.7947 -12.8483,9.6245 -26.9352,11.6045 -12.8752,1.8097 -11.0345,2.1891 -28.298,-5.8329 l -9.2925,-4.3181 -9.2075,4.5891 c -15.4405,7.6956 -22.1462,8.9525 -47.8995,8.9784 -20.8657,0.021 -26.3448,-0.9005 -38.1134,-6.41 l -8.8053,-4.1223 -9.1947,2.2718 c -31.3465,7.7452 -31.0149,7.6996 -88.1147,12.1078 -31.6468,2.4431 -44.1677,2.9798 -67,2.8718 -15.444,-0.073 -31.8982,-0.5314 -36.5651,-1.0184 z m 217.0471,-45.5236 c 7.1041,-6.4182 8.8195,-12.6637 4.8605,-17.6967 -4.6991,-5.9739 -8.7459,-5.2875 -17.3324,2.9399 -7.631,7.3117 -7.9214,11.9376 -1.0346,16.4773 4.6514,3.0662 8.7919,2.5388 13.5065,-1.7205 z m 185.2491,-1.4435 c 0.7561,-1.2083 0.4476,-2.4119 -1.2173,-4.75 -2.7213,-3.8218 -4.3899,-3.9264 -7.8257,-0.4906 l -2.6412,2.6412 2.8062,2.4137 c 3.1338,2.6956 7.2534,2.7818 8.878,0.1857 z m -1714.2323,41.9026 c -2.4318,-1.2993 -5.7989,-4.0643 -7.4825,-6.1445 -2.6734,-3.3031 -3.0426,-4.5014 -2.915,-9.4609 0.1531,-5.9492 3.0969,-15.1924 8.8798,-27.8823 1.8185,-3.9903 4.2609,-10.7347 5.4277,-14.9876 2.7377,-9.9789 5.7031,-15.309 8.5173,-15.309 6.1671,0 12.0473,3.3525 19.994,11.3993 11.0203,11.159 14.0018,17.2523 13.9947,28.6007 -0.01,10.6567 -2.9285,17.5716 -10.6977,25.3177 -7.4407,7.4186 -13.35,10.0807 -23.297,10.4954 -6.8839,0.287 -8.6168,0 -12.4213,-2.0288 z m 24.5499,-22.4592 c 1.7208,-0.7908 4.1769,-2.5536 5.4581,-3.9174 l 2.3294,-2.4795 -1.958,-3.6497 c -2.864,-5.3381 -12.517,-15.0432 -15.7484,-15.8333 -3.5912,-0.8781 -6.2041,1.3748 -9.3417,8.0548 -2.5531,5.4357 -3.0148,10.9862 -1.2383,14.8854 2.3748,5.2119 12.4197,6.6525 20.4989,2.9397 z m 963.6106,21.6581 c -6.4943,-0.9473 -10.2392,-3.2605 -10.2392,-6.3248 0,-1.2624 0.687,-4.6089 1.5268,-7.4366 1.7848,-6.0101 -0.016,-5.4343 24.0962,-7.7036 15.6236,-1.4703 22.3932,-2.9884 27.1106,-6.0793 1.7086,-1.1195 2.2664,-2.437 2.2664,-5.3528 0,-7.3695 -6.7241,-14.4201 -28.6928,-30.0861 -1.9208,-1.3697 -2.0343,-2.0478 -1.3074,-7.8084 0.4603,-3.6483 1.5369,-7.1271 2.5531,-8.25 2.2343,-2.469 8.3123,-2.5697 13.296,-0.2205 8.4709,3.9931 18.8731,18.1523 23.8504,32.4644 2.2586,6.4945 2.4887,8.4532 2.0919,17.8059 -0.5974,14.0815 -2.7699,19.2133 -9.3234,22.0224 -6.4705,2.7736 -18.4347,5.6902 -28.4416,6.9334 -9.3259,1.1587 -11.0669,1.162 -18.787,0.036 z m -184.1681,-6.6726 c -6.0588,-3.1993 -7.5772,-6.3538 -7.5265,-15.6374 0.04,-7.3623 0.7106,-10.1657 6.7567,-28.2551 7.5023,-22.4465 9.0162,-24.8837 14.7738,-23.7837 5.7555,1.0996 10.1625,3.8795 16.2159,10.2289 8.0994,8.4954 11.172,15.4978 11.0301,25.1367 -0.195,13.2435 -6.4385,24.4683 -17.0779,30.7034 -6.0782,3.562 -18.8604,4.4119 -24.1721,1.6072 z m 22.83,-21.9486 c 5.0204,-2.5018 5.2617,-2.7979 4.6744,-5.7344 -0.67,-3.3502 -7.4144,-10.9146 -11.7758,-13.2078 -6.5641,-3.4513 -10.8876,-0.516 -11.5565,7.8457 -0.5471,6.8399 0.9376,10.4752 4.9992,12.2404 4.7495,2.0642 7.7201,1.8154 13.6587,-1.1439 z m -407.3411,20.4514 c -0.9068,-2.7963 -14.5986,-117.5848 -14.5798,-122.2336 0.021,-5.2375 5.5067,-19.0149 7.1633,-17.9911 3.4136,2.1097 5.7417,17.5139 11.9259,78.9113 3.5841,35.5837 3.6353,48.95 0.2166,56.621 -2.2197,4.9807 -4.0449,6.7929 -4.726,4.6924 z m 1990.8972,-61.6764 c -3.6917,-2.2513 -6.4585,-6.2607 -6.4535,-9.3518 0.01,-5.331 7.459,-12.7728 12.796,-12.7815 5.0389,-0.01 12.2003,5.9678 12.2003,10.1808 0,3.3327 -2.932,7.7537 -7.1859,10.8352 -4.7699,3.4553 -7.1405,3.6885 -11.3569,1.1173 z m -814.2056,-10.2415 c -2.3365,-1.1566 -5.349,-3.411 -6.6943,-5.0097 -2.1125,-2.5106 -2.3035,-3.3155 -1.4009,-5.9046 1.1771,-3.3768 8.1178,-9.7609 11.5475,-10.6217 1.283,-0.322 4.6156,0.4107 7.7193,1.6971 4.792,1.9861 5.696,2.0908 7.3724,0.8536 1.0508,-0.7756 3.8442,-2.8727 6.2075,-4.6602 2.4483,-1.8518 5.4897,-3.25 7.0692,-3.25 3.3425,0 10.6218,5.3121 13.1045,9.563 1.7139,2.9346 1.7042,3.1703 -0.2949,7.2109 -2.1536,4.3529 -7.1638,8.2261 -10.6407,8.2261 -1.1125,0 -3.9844,-0.8901 -6.382,-1.978 -2.3976,-1.088 -4.8519,-1.988 -5.4542,-2 -0.6022,-0.012 -3.8799,1.778 -7.2837,3.978 -7.0787,4.5752 -8.9692,4.8162 -14.8697,1.8955 z m -292.5849,-6.5622 c -2.2535,-2.2534 0.2042,-11.1703 3.9809,-14.4434 3.0256,-2.6222 107.0888,-53.1086 155.8524,-75.6121 46.4321,-21.4275 76.6006,-34.3806 78.5978,-33.7468 1.4354,0.4556 1.9022,1.548 1.9022,4.4514 0,3.3246 -0.6316,4.4036 -4.6463,7.9375 -5.3384,4.699 -25.1084,14.9712 -46.8537,24.3445 -8.25,3.5562 -28.05,12.31 -44,19.4531 -15.95,7.143 -35.975,16.0789 -44.5,19.8575 -8.525,3.7786 -34.3217,16.22 -57.3261,27.6476 -23.0043,11.4276 -41.9418,20.7774 -42.0833,20.7774 -0.1415,0 -0.5573,-0.3 -0.9239,-0.6667 z m -1320,-19 c -1.5019,-1.5019 -0.4986,-5.1145 2.0833,-7.5011 1.5125,-1.3981 8.15,-6.1793 14.75,-10.6248 6.6,-4.4454 14.4596,-10.5857 17.4658,-13.645 l 5.4659,-5.5624 -5.1013,-5.25 c -8.2393,-8.4796 -9.0009,-11.6204 -4.9351,-20.3522 5.8424,-12.5471 18.6821,-19.0578 26.091,-13.2299 4.0151,3.1583 5.5137,7.6927 5.5137,16.6836 l 0,7.9158 3.8533,3.3663 c 2.1193,1.8515 5.4393,4.5792 7.3778,6.0615 4.3965,3.3619 5.3533,6.7711 3.1837,11.3433 -1.4626,3.082 -2.0732,3.4616 -5.5686,3.4616 -2.1592,0 -5.69,-0.9 -7.8462,-2 -2.1562,-1.1 -4.5176,-2 -5.2475,-2 -0.7299,0 -9.0143,5.7856 -18.4097,12.8569 -19.1402,14.4057 -27.5138,19.1431 -33.8359,19.1431 -2.2954,0 -4.4736,-0.3 -4.8402,-0.6667 z m 1512.6884,-1.3256 c -2.9858,-1.2048 -7.3559,-7.21 -7.3514,-10.1021 0.01,-3.1661 3.2349,-8.3606 6.5487,-10.5319 2.3606,-1.5467 3.1524,-1.5898 7.2977,-0.3969 6.5457,1.8836 7.9759,1.6793 13.8527,-1.9786 6.669,-4.1511 10.7675,-3.6773 15.2519,1.7631 5.26,6.3812 5.0469,11.2584 -0.764,17.4887 -3.202,3.4331 -5.71,3.4545 -12.5358,0.1068 l -5.3894,-2.6432 -5.9025,3.6432 c -6.1345,3.7864 -7.4242,4.097 -11.0079,2.6509 z m -1411.3621,-1.5162 c -1.8911,-2.2786 -0.4856,-8.3679 2.6986,-11.6915 2.6665,-2.7832 40.8239,-25.8215 58.3084,-35.2049 11.911,-6.3923 17,-6.0571 17,1.1196 0,2.368 -0.9282,4.2961 -3.25,6.7513 -3.4154,3.6115 -68.8809,40.5274 -71.8776,40.5317 -0.8951,10e-4 -2.1909,-0.6765 -2.8794,-1.5062 z m 1514.5418,-2.5951 c -5.1734,-4.5423 -4.8614,-7.8555 1.3223,-14.0393 6.0096,-6.0095 8.6012,-6.2447 14.0973,-1.2793 4.8542,4.3854 5.5914,6.4661 3.633,10.2531 -4.3398,8.3924 -12.7246,10.6216 -19.0526,5.0655 z m -996.4379,-0.9412 c -4.9377,-3.5769 -4.8818,-4.555 0.7407,-12.9552 2.7616,-4.126 4.3712,-5.5796 6.443,-5.8185 6.1499,-0.7091 13.7619,7.5286 12.3084,13.3201 -0.387,1.5416 -2.0754,4.0844 -3.752,5.6507 -4.3015,4.0182 -10.0199,3.9466 -15.7401,-0.1971 z m -356.4302,1.3781 c -1.2886,-1.2886 -0.639,-5.8664 1.2787,-9.0116 2.0974,-3.4397 14.6832,-11.2902 46.5546,-29.0387 27.9133,-15.5443 31.6833,-17.283 37.475,-17.283 l 5.025,0 0,3.5497 c 0,6.897 -1.5017,8.1921 -25.658,22.1277 -28.5993,16.4988 -45.3219,25.5578 -52.129,28.2397 -5.1956,2.0469 -11.234,2.7285 -12.5463,1.4162 z m 544.7158,-2.247 c -7.5289,-3.4191 -9.4447,-9.5873 -5.0063,-16.1189 3.7307,-5.4902 6.5165,-6.5525 13.0644,-4.9816 l 5.4646,1.3109 6.5374,-4.2593 c 4.8852,-3.1828 7.1522,-4.1049 8.9703,-3.6486 3.4553,0.8672 8.1105,5.0464 9.5842,8.6042 1.1435,2.7607 1.0045,3.3972 -1.5456,7.077 -1.5412,2.2239 -4.1373,4.9942 -5.7691,6.1561 -2.6665,1.8988 -3.4094,1.9943 -7.339,0.9433 -6.5027,-1.7392 -7.444,-1.5298 -12.7206,2.8306 -2.6623,2.2 -5.3541,3.9901 -5.9817,3.978 -0.6276,-0.012 -2.994,-0.8633 -5.2586,-1.8917 z m 197.7971,-3.7443 c -3.8585,-1.929 -8.1818,-7.1841 -8.1746,-9.9364 0,-1.0481 1.7055,-4.1556 3.7837,-6.9056 3.1577,-4.1784 4.3768,-5.0502 7.4191,-5.3058 3.1352,-0.2634 4.2756,0.3027 8.2164,4.0785 4.9972,4.7882 5.5203,6.9347 2.9896,12.2676 -2.8571,6.0211 -8.8828,8.4771 -14.2342,5.8017 z m 1688.172,-7.4853 c -3.539,-0.9681 -9.3516,-6.9946 -9.3516,-9.6957 0,-2.5412 5.428,-10.7401 8.3993,-12.687 3.592,-2.3535 8.3529,-0.5513 13.61,5.1519 3.4456,3.7381 4.0571,4.9885 3.5202,7.199 -1.4765,6.0794 -10.3994,11.6125 -16.1779,10.0318 z m -714.6849,-9.5234 c -1.3122,-1.3121 -0.59,-7.8745 1.1055,-10.0463 1.9489,-2.4963 37.6688,-23.1985 66.376,-38.4697 14.5232,-7.7258 20.193,-10.2398 23.8966,-10.5956 4.5734,-0.4395 4.894,-0.3137 5.5157,2.1631 1.0022,3.9935 -1.4296,6.7565 -12.2885,13.9616 -13.1773,8.7435 -27.0696,16.4104 -56.5559,31.2123 -24.1078,12.1019 -26.6535,13.1706 -28.0494,11.7746 z m -1077.11,-4.5558 c -3.4048,-4.8611 -0.7036,-20.7775 3.5262,-20.7775 1.0616,0 2.5344,1.293 3.4171,3 2.562,4.9543 5.6835,4.0877 9.9058,-2.75 5.9471,-9.6309 5.1895,-9.221 8.9244,-4.8287 2.3395,2.7512 3.8367,3.7286 5.0172,3.2756 1.8879,-0.7244 3.6526,-4.6509 3.6526,-8.1271 0,-2.9257 3.6536,-7.6399 5.4013,-6.9693 2.1071,0.8085 3.5987,5.0865 3.5987,10.3208 0,13.0129 -8.2332,22.3329 -22.217,25.1499 -2.9056,0.5853 -6.9796,1.7088 -9.0532,2.4965 -5.68,2.1578 -10.3192,1.8566 -12.1731,-0.7902 z m -459.89,-4.4442 c -2.8341,-2.8341 2.0734,-9.9403 12.2918,-17.7991 7.5309,-5.7919 26.6584,-17.5342 28.5621,-17.5342 1.9983,0 2.862,2.3393 2.0534,5.5613 -1.1599,4.6212 -8.2692,10.9287 -23.3946,20.7562 -13.7499,8.9337 -17.7477,10.7809 -19.5127,9.0158 z m 2076.6941,-0.8355 c -1.8469,-4.813 4.8683,-12.5774 19.1651,-22.1595 11.3148,-7.5835 62.945,-37.3383 64.789,-37.3383 1.9707,0 4.6851,3.3032 4.6851,5.7014 0,4.8488 -16.0232,16.0664 -57.4123,40.1935 -14.2517,8.3078 -26.9783,15.1051 -28.2814,15.1051 -1.303,0 -2.6285,-0.676 -2.9455,-1.5022 z m -317.8955,-3.3963 c -5.6099,-2.42 -4.9387,-3.3732 8.3205,-11.8158 10.3696,-6.6027 12.7142,-8.5281 12.7142,-10.4407 0,-3.6271 -4.2117,-3.4764 -13.9647,0.4998 -10.3863,4.2345 -13.0126,3.9837 -12.1774,-1.1626 1.181,-7.2781 10.4456,-15.4222 19.7547,-17.3657 4.7069,-0.9826 6.7239,-0.8995 12.5,0.5155 7.9699,1.9525 23.3874,9.0303 23.3874,10.7366 0,0.6384 -1.214,3.3913 -2.6978,6.1175 -3.0223,5.553 -8.4341,9.1782 -26.7945,17.9487 -10.2768,4.9092 -17.3213,6.5719 -21.0424,4.9667 z m -1665.2858,-3.5756 c -1.8263,-0.8188 -3.0468,-1.9316 -2.7122,-2.473 0.3346,-0.5414 5.0909,-4.0896 10.5696,-7.885 l 9.9612,-6.9006 -2.0716,-2.6337 c -2.6314,-3.3452 -5.9114,-3.3849 -16.1765,-0.196 l -7.75,2.4076 0,-2.945 c 0,-5.9532 15.1089,-17.9002 22.6377,-17.9002 1.5718,0 8.5963,2.0999 15.61,4.6665 l 12.7523,4.6666 0,4.6591 c 0,3.5501 -0.5356,5.1532 -2.25,6.7345 -2.0008,1.8455 -14.0442,9.411 -25.2561,15.8654 -5.3527,3.0815 -11.1278,3.8107 -15.3144,1.9338 z m 1732.4872,-0.1926 c -1.3749,-1.3748 -0.593,-6.1572 1.4262,-8.7243 2.8523,-3.626 11.2664,-9.1907 24.4071,-16.1415 6.05,-3.2002 17.8946,-9.8166 26.3213,-14.7032 9.2584,-5.3689 16.1703,-8.762 17.4666,-8.5745 1.1799,0.1706 2.803,1.4859 3.6068,2.923 3.4516,6.1701 -2.1985,11.124 -32.3947,28.4027 -21.8758,12.5178 -32.1964,17.4845 -36.3316,17.4845 -2.1093,0 -4.1351,-0.3 -4.5017,-0.6667 z m 357.3333,-4.3596 c 0,-6.846 11.7196,-15.2245 53.1146,-37.9724 30.2046,-16.5984 33.0923,-17.5563 33.704,-11.1805 0.6258,6.5217 -0.2366,7.2117 -30.8186,24.6574 -34.9605,19.9435 -49.5149,27.5218 -52.8566,27.5218 -2.8321,0 -3.1434,-0.2997 -3.1434,-3.0263 z m -730.25,-1.9956 c -1.007,-0.62 -1.75,-2.2907 -1.75,-3.9349 0,-2.5655 1.0132,-3.4435 9.9183,-8.5946 8.9732,-5.1905 9.8071,-5.9176 8.75,-7.6301 -2.046,-3.3148 -5.0121,-3.1741 -12.4918,0.5926 -3.8926,1.9603 -7.7747,3.2966 -8.627,2.9695 -2.5886,-0.9933 -1.9846,-7.71 1.0138,-11.2735 3.1306,-3.7204 17.5422,-11.1071 21.6703,-11.1071 3.3609,0 26.7137,7.5098 29.3521,9.439 1.3038,0.9533 1.5418,2.0678 1.0274,4.8099 -1.1977,6.3843 -9.1306,12.3346 -27.7033,20.7797 -9.7686,4.4417 -17.8965,5.9589 -21.1598,3.9495 z m -925.633,-4.1908 c -1.264,-3.417 -0.3278,-5.3001 5.2376,-10.534 7.1789,-6.7514 15.3238,-12.372 38.7974,-26.7732 21.4538,-13.1621 25.1114,-14.5509 26.2608,-9.9715 1.4776,5.8873 -5.1516,12.038 -26.4128,24.5062 -6.875,4.0317 -17.225,10.3412 -23,14.0211 -9.8418,6.2713 -18.1849,10.9641 -19.4924,10.9641 -0.3146,0 -0.9404,-0.9957 -1.3906,-2.2127 z m 180.883,-0.6394 c 0,-4.4009 3.8812,-9.2036 11.5263,-14.2631 15.4467,-10.2225 61.6029,-37.0066 63.2319,-36.6928 1.3441,0.2588 1.7418,1.3501 1.7418,4.7797 0,4.1239 -0.3382,4.6998 -4.6899,7.9863 -2.5795,1.9481 -18.1814,11.9795 -34.671,22.292 -24.3946,15.2563 -30.6478,18.75 -33.56,18.75 -3.2689,0 -3.5791,-0.2472 -3.5791,-2.8521 z m -551,-6.2634 c 0,-3.5626 0.5682,-4.635 4.2292,-7.9815 2.3261,-2.1262 9.3135,-6.6867 15.5275,-10.1344 6.214,-3.4477 18.2733,-10.3981 26.7985,-15.4453 8.5252,-5.0471 16.8941,-9.4827 18.5975,-9.8568 3.6603,-0.804 5.1573,0.7782 4.2895,4.5335 -1.0501,4.5447 -3.4052,6.9533 -11.0005,11.2502 -4.1315,2.3374 -17.6439,10.4373 -30.0275,17.9998 -15.5055,9.469 -23.4339,13.75 -25.4649,13.75 -2.788,0 -2.9493,-0.2251 -2.9493,-4.1155 z m 1030.0457,2.5387 c -1.8999,-0.8241 -3.6641,-1.7083 -3.9206,-1.9648 -1.0433,-1.0432 4.8118,-5.8982 11.6575,-9.6664 5.9196,-3.2583 7.0664,-4.269 6.1275,-5.4003 -1.4517,-1.7492 -4.7767,-1.7149 -12.4101,0.1283 -8.8877,2.146 -9.5,2.0302 -9.5,-1.7975 0,-5.3721 3.1121,-8.9958 11.4995,-13.3899 6.4237,-3.3653 13.8155,-3.3447 25.5005,0.071 15.2893,4.4693 16.4685,5.0217 16.81,7.8742 0.4184,3.4949 -2.1003,8.0791 -6.126,11.1496 -6.2624,4.7766 -29.6075,14.6388 -34.4025,14.5335 -0.9798,-0.022 -3.3359,-0.7135 -5.2358,-1.5377 z m -1171.379,-11.0899 c -4.6547,-4.6546 11.6031,-19.7711 41.4965,-38.5833 5.0253,-3.1625 9.6957,-5.75 10.3785,-5.75 0.6828,0 1.5349,1.1692 1.8936,2.5983 0.4856,1.9347 -0.021,3.4807 -1.9836,6.0539 -5.2568,6.8921 -25.1425,21.73 -43.1262,32.1792 -7.7781,4.5193 -7.6808,4.48 -8.6588,3.5019 z m 426.3826,-13.7738 c -0.9427,-1.136 -0.7844,-2.3517 0.7488,-5.75 1.8046,-3.9998 3.9892,-5.6212 30.3952,-22.5595 29.5375,-18.947 33.8225,-20.9262 35.2908,-16.3 1.4572,4.5912 -4.0244,10.3178 -17.5589,18.3436 -4.0839,2.4217 -15.8654,9.6463 -26.1812,16.0547 -10.3158,6.4085 -19.3732,11.6517 -20.1275,11.6517 -0.7544,0 -1.9096,-0.6482 -2.5672,-1.4405 z"
       id="path4267"
       inkscape:connector-curvature="0" />
    <g
       id="g4490"
       transform="translate(0,-565.35752)">
      <path
         id="path4474"
         d="m 1870.4922,1219.89 c 0.3059,-2.2808 1.3776,-4.9446 2.3816,-5.9197 1.5705,-1.5251 20.67,-10.8277 48.5319,-23.6378 4.2386,-1.9488 8.4011,-3.2767 9.25,-2.9509 1.0318,0.3959 1.5436,1.905 1.5436,4.5509 0,3.3386 -0.5714,4.4296 -3.6482,6.9658 -8.5914,7.0817 -47.7554,25.1384 -54.524,25.1384 l -4.0911,0 0.5562,-4.1467 z"
         style="fill:#d40000"
         inkscape:connector-curvature="0" />
      <path
         id="path4452"
         d="m 1872.6993,1203.3099 c -4.4738,-0.6369 -4.8825,-1.6201 -2.7126,-6.5254 3.0974,-7.0022 7.3744,-9.6306 37.8394,-23.2538 11.6904,-5.2277 16.5732,-6.9616 17.75,-6.303 3.8965,2.1806 0.5534,8.3306 -7.7492,14.2552 -5.561,3.9683 -40.648,22.8072 -41.7268,22.404 -0.2204,-0.082 -1.7508,-0.3421 -3.4008,-0.577 z"
         style="fill:#d40000"
         inkscape:connector-curvature="0" />
    </g>
  </g>
</svg>
