<?xml version="1.0" encoding="UTF-8" standalone="no"?>
<!-- Created with Inkscape (http://www.inkscape.org/) -->

<svg
   xmlns:dc="http://purl.org/dc/elements/1.1/"
   xmlns:cc="http://creativecommons.org/ns#"
   xmlns:rdf="http://www.w3.org/1999/02/22-rdf-syntax-ns#"
   xmlns:svg="http://www.w3.org/2000/svg"
   xmlns="http://www.w3.org/2000/svg"
   xmlns:sodipodi="http://sodipodi.sourceforge.net/DTD/sodipodi-0.dtd"
   xmlns:inkscape="http://www.inkscape.org/namespaces/inkscape"
   width="432px"
   height="46px"
   viewBox="0 0 3060.0406 322.44443"
   id="svg4269"
   version="1.1"
   inkscape:version="0.91 r13725"
   sodipodi:docname="99_8.svg">
  <defs
     id="defs4271" />
  <sodipodi:namedview
     id="base"
     pagecolor="#ffffff"
     bordercolor="#666666"
     borderopacity="1.0"
     inkscape:pageopacity="0.0"
     inkscape:pageshadow="2"
     inkscape:zoom="1.979899"
     inkscape:cx="256.59838"
     inkscape:cy="-101.48004"
     inkscape:document-units="px"
     inkscape:current-layer="layer1"
     showgrid="false"
     fit-margin-top="0"
     fit-margin-left="0"
     fit-margin-right="0"
     fit-margin-bottom="0"
     inkscape:window-width="1920"
     inkscape:window-height="1001"
     inkscape:window-x="-9"
     inkscape:window-y="-9"
     inkscape:window-maximized="1" />
  <metadata
     id="metadata4274">
    <rdf:RDF>
      <cc:Work
         rdf:about="">
        <dc:format>image/svg+xml</dc:format>
        <dc:type
           rdf:resource="http://purl.org/dc/dcmitype/StillImage" />
        <dc:title />
      </cc:Work>
    </rdf:RDF>
  </metadata>
  <g
     inkscape:label="Layer 1"
     inkscape:groupmode="layer"
     id="layer1"
     transform="translate(495.75493,-408.43279)">
    <path
       style="fill:#000000"
       d="m 596.84652,729.19669 c -0.7743,-2.4397 1.4125,-8.0298 4.0512,-10.3562 1.0384,-0.9155 12.8413,-6.951 26.2287,-13.4123 25.8214,-12.4624 26.9088,-12.7201 25.6946,-6.089 -1.3332,7.2807 -10.8223,14.3673 -32.5353,24.2976 -16.2079,7.4126 -22.386,8.8781 -23.4392,5.5599 z m -939.5608,-8.2366 c -43.55123,-3.8678 -82.91291,-27.8799 -107.72278,-65.7152 -13.42087,-20.4669 -22.27722,-48.4729 -22.27722,-70.44619 0,-6.28239 -0.18111,-6.93287 -1.75,-6.28538 -6.5424,2.70011 -10.805,2.18662 -15.0945,-1.81833 -5.98195,-5.58512 -6.24815,-9.63847 -1.6701,-25.42974 4.234,-14.60451 3.11681,-35.27895 -2.50146,-46.29167 l -2.02459,-3.96852 3.55187,0 c 1.95353,0 6.25714,0.91134 9.56358,2.0252 l 6.01171,2.0252 5.7087,-5.7752 c 3.13978,-3.17636 9.13442,-9.02298 13.32142,-12.99248 5.76001,-5.4608 8.48118,-8.98969 11.18114,-14.5 3.22066,-6.57301 6.70223,-19.43541 6.70223,-24.76089 l 0,-2.06248 3.84468,1.96141 c 4.9895,2.54545 9.85634,8.15433 12.74688,14.69036 l 2.3078,5.21834 8.21814,-5.40676 c 8.8559,-5.82635 19.09915,-10.14075 30.6325,-12.90224 3.9875,-0.95474 7.25,-2.08247 7.25,-2.50606 0,-0.42358 -0.675,-2.38565 -1.5,-4.36016 -3.09055,-7.39672 -1.28259,-17.07327 4.30305,-23.03072 6.01445,-6.41481 18.89762,-9.56236 26.88185,-6.56763 7.28558,2.73267 13.39921,9.02751 15.25599,15.70815 l 0.76042,2.73596 1.68028,-3.94617 c 2.68943,-6.31617 6.18854,-10.16072 11.78679,-12.95045 12.2824,-6.12057 27.81758,-1.26318 33.9232,10.60678 2.33695,4.54328 2.52594,13.37615 0.39529,18.4755 -0.83222,1.99178 -1.39472,3.72565 -1.25,3.85305 0.14472,0.1274 4.05732,1.20757 8.69466,2.40038 11.18846,2.87789 20.52919,6.94485 29.33605,12.77293 8.6726,5.73923 8.73242,5.76846 8.73242,4.26654 0,-2.27554 5.15974,-11.50047 8.20062,-14.66162 2.80859,-2.91968 8.44446,-6.11768 9.16672,-5.20154 0.16677,0.21153 1.02496,4.14465 1.9071,8.74028 0.88214,4.59562 3.22922,11.79562 5.21574,16 3.18636,6.74376 5.21887,9.20637 17.25287,20.90369 l 13.64101,13.25937 4.05797,-1.53938 c 4.01547,-1.52327 14.55797,-3.54384 14.55797,-2.79018 0,0.21477 -0.90425,2.16297 -2.00945,4.32934 -5.75876,11.2881 -6.87704,30.92082 -2.60672,45.76417 4.83641,16.81107 4.55801,20.14006 -2.22334,26.58618 -2.3296,2.21443 -3.93475,2.85621 -7.03654,2.8134 -2.21016,-0.0305 -4.91262,-0.53399 -6.00547,-1.11886 -1.09285,-0.58488 -2.17378,-1.06341 -2.40207,-1.06341 -0.22829,0 -0.67845,4.6125 -1.00036,10.25003 -2.50543,43.8766 -26.41311,84.3658 -65.21605,110.4473 -25.2307,16.959 -59.4496,25.1928 -92.5,22.2577 z m 39.69212,-8.5134 c 53.66204,-9.3394 98.74007,-52.8346 110.83312,-106.9416 0.86086,-3.8517 1.83152,-14.5374 2.15817,-23.75865 l 0.59366,-16.75863 2.88106,3.91763 c 3.40728,4.63318 7.45776,6.35696 11.92613,5.07545 6.83595,-1.96052 7.43165,-6.96549 2.77496,-23.31455 -2.91957,-10.25023 -3.09628,-11.75418 -2.50897,-21.35304 0.35641,-5.82502 1.45631,-12.7684 2.52331,-15.92898 l 1.8915,-5.60282 -3.5227,0.57166 c -7.70489,1.25033 -15.783,9.6242 -19.44015,20.1519 l -1.73692,5 -0.0289,-6.5 c -0.0307,-6.90839 1.54691,-10.7118 6.73102,-16.22741 l 2.5635,-2.72741 -4.96848,-4.77259 c -2.73267,-2.62492 -8.60339,-8.14759 -13.04605,-12.27259 -9.21997,-8.56073 -14.30254,-17.26527 -16.96488,-29.05447 -0.86268,-3.82004 -1.90899,-6.94553 -2.32514,-6.94553 -2.07766,0 -6.07111,4.54491 -7.69776,8.76075 -1.40659,3.6455 -1.8286,7.50867 -1.8286,16.73925 0,6.6 0.34297,13.54608 0.76214,15.43572 l 0.76215,3.43573 -2.66164,-2.43573 c -1.58939,-1.45447 -0.37682,0.85268 3.00992,5.72698 7.4066,10.65981 14.07742,24.8825 17.3821,37.05995 2.46689,9.09024 2.65335,11.21801 2.65335,30.27735 0,19.00743 -0.19118,21.20403 -2.626,30.16953 -5.87123,21.6192 -15.17712,37.4829 -31.65338,53.9591 -16.49074,16.4908 -32.40376,25.8206 -53.9591,31.6363 -8.92272,2.4073 -11.25284,2.6106 -30.16954,2.6316 -19.06346,0.021 -21.17759,-0.1616 -30.16954,-2.6089 -22.3554,-6.0842 -37.65298,-15.2062 -54.83046,-32.6958 -21.21958,-21.6051 -31.79858,-44.2145 -33.8777,-72.40336 -2.08377,-28.25203 4.75586,-55.42115 19.13249,-76.00011 5.90651,-8.45468 6.47791,-9.52991 3.8275,-7.20229 l -2.26149,1.98608 0.8396,-3.98608 c 1.60007,-7.59644 1.00811,-26.53515 -0.99161,-31.72532 -1.61686,-4.19645 -5.61473,-8.76075 -7.67354,-8.76075 -0.40427,0 -1.27827,2.8125 -1.94221,6.25 -0.66395,3.4375 -2.79671,9.57965 -4.73946,13.64922 -3.6629,7.67283 -7.26112,11.74381 -22.77354,25.76567 l -7.92654,7.1649 3.63668,4.02537 c 5.53549,6.12712 6.56749,8.79543 5.99042,15.4887 l -0.50383,5.84385 -1.76609,-5.01501 c -3.72161,-10.56786 -11.52496,-18.577 -19.33441,-19.8443 l -3.64409,-0.59135 1.56836,3.75361 c 0.8626,2.06448 2.07784,8.85131 2.70054,15.08183 1.12122,11.21864 1.10104,11.45205 -2.08615,24.12787 -3.73986,14.87381 -3.87215,17.14355 -1.19743,20.5439 4.00359,5.08974 10.36271,4.17029 16.0225,-2.31667 l 3.5,-4.01152 0.0487,14.79196 c 0.0926,28.1332 6.50313,49.1606 22.15512,72.6717 7.33197,11.0135 23.76168,28.2094 34.03319,35.6203 19.99137,14.4238 42.65002,23.315 66.00454,25.9001 11.01033,1.2187 30.45127,0.5428 41.95059,-1.4585 z m -2.28223,-31.0866 c 22.02716,-4.1569 41.37164,-15.0585 58.67546,-33.0664 18.76106,-19.5244 28.97751,-42.102 30.74762,-67.94995 1.94038,-28.33442 -3.82211,-52.09757 -17.56311,-72.42609 -19.57928,-28.96571 -52.36974,-48.63814 -84.57783,-50.74192 -23.86581,-1.55888 -41.35658,1.58307 -60.19203,10.81258 -30.32905,14.86146 -51.96169,41.22746 -60.70362,73.98595 -2.90616,10.89022 -3.62324,36.29263 -1.36996,48.53083 4.23187,22.9845 13.36635,40.9315 29.34556,57.6567 20.17623,21.1183 43.69075,32.5777 72.22802,35.1993 7.25652,0.6666 24.8617,-0.3878 33.40989,-2.001 z m -46.09847,-62.1414 c -0.65372,-0.4157 -2.59557,-4.2695 -4.31521,-8.5641 l -3.12662,-7.8084 1.87814,-3.6706 c 1.03298,-2.0188 4.18448,-8.0116 7.00334,-13.3173 4.54831,-8.56097 10.21817,-24.41828 15.76934,-44.10323 0.89183,-3.1625 2.18613,-5.75 2.87623,-5.75 2.64108,0 5.73917,5.00008 8.63635,13.93838 4.13574,12.75946 8.41983,21.6469 16.66005,34.56162 3.8602,6.05003 7.80855,12.53703 8.77412,14.41573 3.24106,6.3059 0.2213,17.0843 -4.78645,17.0843 -1.75499,0 -3.99457,-2.4506 -9.82435,-10.75 -4.15314,-5.9125 -9.50573,-14.0708 -11.89465,-18.1295 l -4.34349,-7.37949 -2.3118,2.87948 c -1.27149,1.58371 -4.58776,8.72951 -7.36949,15.87951 -7.40388,19.0305 -10.01933,23.0065 -13.62551,20.7136 z m -47.81142,-145.29127 c 13.67587,-10.38764 26.06265,-16.15729 42.69644,-19.8876 15.08084,-3.38205 21.79226,-9.40093 21.79982,-19.55036 0.005,-6.07482 -2.35716,-10.84194 -7.38872,-14.91432 -3.01386,-2.43932 -4.82619,-3.05289 -9.98837,-3.38159 -6.44373,-0.41031 -10.68421,0.91547 -14.97558,4.6821 -6.88666,6.04457 -7.5709,20.79522 -1.20953,26.07469 2.56945,2.13245 1.87157,2.73438 -4.66011,4.01941 -14.65647,2.88348 -32.63065,10.38606 -41.77378,17.43675 l -4.49983,3.47002 -0.14297,10.31846 -0.14297,10.31846 7.1428,-7.01433 c 3.92854,-3.85788 9.8428,-9.06514 13.1428,-11.57169 z m 161.68534,8.56332 -0.31467,-10.51853 -5.24734,-3.96179 c -9.09463,-6.86651 -27.99813,-14.55072 -42.26009,-17.17859 l -6.39977,-1.17921 2.45465,-2.57378 c 10.85931,-11.38637 1.7489,-31.07378 -14.3795,-31.07378 -6.66594,0 -11.26376,2.19731 -15.46854,7.39246 -2.44843,3.02511 -3.04234,4.79022 -3.32935,9.89473 -0.65768,11.6973 4.79032,16.55611 23.96767,21.37559 21.27814,5.34744 37.49931,14.73729 53.26739,30.83461 3.86332,3.94397 7.24921,7.24645 7.52421,7.33885 0.275,0.0924 0.3584,-4.56536 0.18534,-10.35056 z m -85.59647,-33.73568 c -0.91029,-1.2375 -2.5947,-4.23813 -3.74311,-6.66807 l -2.08804,-4.41807 -1.28378,3.73427 c -0.70608,2.05384 -1.93312,4.49197 -2.72675,5.41807 -3.39155,3.95758 -3.1582,4.1838 4.31577,4.1838 l 7.18098,0 -1.65507,-2.25 z M 1509.4708,703.18309 c -0.8455,-0.5635 -1.2025,-2.4471 -1,-5.2771 0.3631,-5.0741 -0.4563,-4.5448 22.8149,-14.7384 7.425,-3.2524 20.6614,-9.1926 29.4143,-13.2006 10.3588,-4.7432 17.6024,-7.4493 20.75,-7.7517 l 4.8357,-0.4647 0,4.0883 c 0,2.939 -0.6325,4.6898 -2.25,6.228 -3.0929,2.9414 -24.3548,13.0801 -47.8281,22.8068 -20.4867,8.4891 -24.5651,9.7566 -26.7368,8.3094 z m 634.8823,-5.7073 c -3.384,-2.4912 -6.4045,-5.1856 -6.7123,-5.9877 -0.7238,-1.8863 3.8811,-9.737 7.2791,-12.4099 3.4878,-2.7435 7.8886,-2.6163 14.7699,0.4269 3.1091,1.375 6.0286,2.5 6.4877,2.5 0.4592,0 3.8492,-2.2252 7.5335,-4.9449 4.3764,-3.2306 7.2838,-4.7316 8.3867,-4.3297 5.0534,1.8412 12.188,10.2321 12.188,14.3342 0,2.0358 -1.1355,3.7565 -4.2232,6.3994 -5.8534,5.0103 -8.0056,5.3359 -14.4337,2.1832 -2.9631,-1.4532 -6.1896,-2.6422 -7.17,-2.6422 -0.9804,0 -4.6583,2.025 -8.1731,4.5 -3.5148,2.475 -7.1532,4.5 -8.0853,4.5 -0.9321,0 -4.4634,-2.0382 -7.8473,-4.5293 z m -2203.567381,2.0331 c -14.15324,-3.2957 -24.77893,-7.0175 -26.20769,-9.1797 -1.30615,-1.9766 -1.24025,-2.2816 0.71952,-3.3305 2.71761,-1.4544 12.01163,-1.4401 20.12436,0.031 7.43587,1.3484 10.12116,0.9452 23.92479,-3.5924 9.86741,-3.2437 11.14802,-3.9844 19.5,-11.2797 12.0635496,-10.5372 21.57820957,-21.8746 22.9522496,-27.3492 0.49641,-1.9779 -0.38456,-4.2818 -3.80051,-9.9391 -8.6688596,-14.3566 -9.1127896,-16.1831 -5.73965,-23.6143 2.74569,-6.0489 5.57504,-5.8096 13.04133,1.1029 6.5826204,6.0943 14.1809604,9.5538 27.1029404,12.3398 11.61791,2.5049 51.72693,2.4741 69.882661,-0.054 26.28377,-3.6592 40.56661,-7.7746 44.24986,-12.7499 1.91782,-2.5906 1.91606,-2.6437 -0.22663,-6.8437 -1.18769,-2.328 -3.92878,-7.1236 -6.09133,-10.6568 -2.28649,-3.7356 -3.9319,-7.6858 -3.9319,-9.43949 0,-4.04677 4.5867,-12.94914 6.67168,-12.94914 4.53552,0 16.77947,19.48913 18.01064,28.66813 0.36594,2.7284 -0.31032,7.1057 -2.07624,13.4391 -3.23577,11.605 -4.95194,15.0752 -8.4885,17.1642 -5.98515,3.5356 -32.31229,11.65 -44.30981,13.6571 -21.928501,3.6684 -34.592751,4.1002 -58.749531,2.0033 -27.63169,-2.3986 -31.32969,-2.4188 -33.25247,-0.1818 -0.82731,0.9625 -4.5648704,7.375 -8.3057004,14.25 -12.64298,23.2356 -19.1800096,31.0691 -30.2993596,36.3085 -6.10475,2.8766 -7.67905,3.1768 -17.70071,3.375 -6.67117,0.1319 -13.36118,-0.3323 -17,-1.1797 z m 1741.499981,0.4787 c -11.029,-1.9171 -24.3785,-9.5244 -30.2216,-17.2221 -5.0408,-6.6406 -6.9527,-19.6279 -4.3723,-29.7003 3.4409,-13.4313 15.774,-32.3562 20.0234,-30.7256 2.57,0.9862 1.8577,3.7804 -3.89,15.2597 -5.2468,10.479 -5.4207,11.0807 -4.4455,15.3759 1.3661,6.0165 3.9551,9.9601 10.4147,15.8639 9.2311,8.4366 12.808,9.6693 27.9913,9.6462 20.7313,-0.032 35.9687,-4.7222 43.9164,-13.5194 3.2504,-3.5977 3.5803,-4.501 3.5477,-9.7137 -0.02,-3.1609 -3.0755,-33.6113 -6.7906,-67.6675 -7.2877,-66.80511 -7.3916,-69.45665 -3.2093,-81.92087 2.706,-8.0649 3.3652,-9.00637 5.7713,-8.24271 2.9177,0.92605 5.1728,12.25858 10.265,51.58395 4.5106,34.83484 11.2661,60.04903 17.7539,66.26473 4.554,4.3629 15.8642,8.9478 23.4472,9.5048 14.0555,1.0325 21.4644,-2.9761 35.9649,-19.4588 16.477,-18.7293 15.9837,-18.6509 31.153,-4.9526 6.3941,5.774 13.1879,11.6898 15.0974,13.1463 2.0831,1.5889 10.6188,4.9769 21.3413,8.4709 23.197,7.5589 30.5483,8.4035 73.7418,8.4722 29.5063,0.047 34.641,-0.1921 48.5,-2.2576 12.43,-1.8525 39.8977,-7.0156 52.75,-9.9154 2.5964,-0.5858 2.7534,-1.2038 0.9371,-3.6878 -1.0044,-1.3735 -2.826,-1.8298 -7.75,-1.9411 -6.2617,-0.1417 -6.4458,-0.2217 -6.7576,-2.9375 -0.6803,-5.9273 10.17,-19.646 18.4261,-23.2973 8.7976,-3.89067 16.1319,-4.95676 24.1916,-3.5164 13.8445,2.47414 24.2028,9.5338 24.2028,16.4954 0,1.8676 -1.9238,7.0065 -4.5488,12.151 -4.2776,8.3832 -4.4416,8.9931 -2.75,10.2309 4.1683,3.0503 12.7662,4.6351 25.3996,4.6817 12.498,0.046 12.6572,0.018 19.5,-3.4897 6.6588,-3.413 6.8956,-3.6617 6.7949,-7.1401 -0.1095,-3.7829 -3.3166,-10.9695 -10.8547,-24.3236 -5.29,-9.37159 -5.6259,-12.73607 -1.9465,-19.49636 3.0845,-5.66722 4.5198,-5.65406 10.268,0.0942 9.726,9.72596 18.6138,37.86876 15.2134,48.17216 -1.3927,4.2199 -8.1648,15.0424 -11.8974,19.0132 -4.0749,4.3348 -19.1428,8.7801 -32.0331,9.4501 -13.5041,0.7019 -18.7914,-0.5501 -33.56,-7.9466 -8.9628,-4.4888 -12.6789,-5.86 -15,-5.535 -1.6969,0.2377 -11.935,2.7404 -22.7511,5.5616 -15.8642,4.1379 -23.3065,5.5116 -38.5,7.1063 -33.1686,3.4814 -51.5777,4.3908 -75.8343,3.746 -24.7056,-0.6566 -38.6709,-2.1847 -56.2651,-6.1564 -13.7177,-3.0965 -14.3437,-3.0969 -19.2349,-0.01 -3.1661,1.9987 -5.2532,2.5 -10.4078,2.5 -15.5923,0 -25.8949,-2.7386 -37.038,-9.8456 -2.7202,-1.7349 -5.7829,-3.1544 -6.8061,-3.1544 -1.0232,0 -4.5866,2.206 -7.9188,4.9022 -7.3886,5.9784 -12.5743,7.5978 -24.3293,7.5978 -10.3394,0 -16.0769,-1.7673 -23.0722,-7.1069 -2.4448,-1.8662 -5.3412,-3.3931 -6.4365,-3.3931 -1.0952,0 -1.9913,0.126 -1.9913,0.2799 0,0.1539 -0.6869,5.8286 -1.5265,12.6103 -1.6686,13.4776 -4.3871,22.9532 -7.9211,27.6098 -3.4081,4.4908 -21.8631,16.4615 -29.4213,19.0839 -10.8351,3.7594 -26.7014,5.2117 -37.1311,3.3987 z m 162.3065,-85.094 c -2.2293,-3.8398 -4.0012,-4.6224 -5.9817,-2.6419 -2.5035,2.5036 -0.093,5.7534 4.2669,5.7534 l 3.5214,0 -1.8066,-3.1115 z m 439.332,83.526 c -13.725,-3.3222 -26.4296,-12.1574 -31.3575,-21.8069 -4.0628,-7.9555 -4.3527,-18.3147 -0.7936,-28.3605 5.6902,-16.061 10.9446,-24.2471 15.5635,-24.2471 2.6957,0 2.9491,0.2965 2.9491,3.4504 0,1.8977 -1.6031,7.8602 -3.5624,13.25 -2.9276,8.0534 -3.4452,10.5972 -2.9048,14.2761 1.4966,10.1871 7.6304,16.744 18.9672,20.2756 5.665,1.7647 9.2886,2.1627 19,2.0866 19.8206,-0.1552 38.734,-6.321 46.81,-15.2601 3.2921,-3.6439 3.69,-4.6658 3.69,-9.4762 0,-6.9442 -2.7796,-15.8294 -8.9964,-28.7571 -2.7362,-5.6899 -4.9739,-11.6953 -4.9728,-13.3453 0,-3.3104 3.5665,-10.2463 6.0644,-11.8014 3.0955,-1.9272 6.7531,0.069 9.2885,5.0683 3.0445,6.0037 4.7808,7.4837 11.8155,10.0709 8.421,3.0971 17.2721,3.7485 24.0725,1.7716 7.5587,-2.1974 13.6421,-8.0348 24.0835,-23.1094 8.7754,-12.66945 14.1675,-17.75586 20.6827,-19.51023 4.2119,-1.13416 7.1962,-0.23818 9.7373,2.92354 4.7683,5.93265 13.497,28.95349 13.535,35.69659 0.027,4.865 -5.4765,15.6785 -9.5146,18.6933 -2.4201,1.8069 -3.263,1.8637 -12.1353,0.8173 -5.5892,-0.6592 -12.8991,-2.365 -17.6656,-4.1225 -4.4721,-1.6489 -9.1212,-2.998 -10.3312,-2.998 -1.2101,0 -4.4285,1.8414 -7.1521,4.092 -8.1344,6.7219 -13.9959,8.9383 -27.7315,10.4863 -3.146,0.3546 -6.2539,1.2879 -6.9064,2.0741 -0.6525,0.7862 -1.5225,5.4873 -1.9333,10.447 -0.6262,7.5599 -1.3855,10.3416 -4.6975,17.209 -2.1728,4.5054 -5.2538,9.4957 -6.8466,11.0897 -6.6995,6.7041 -21.9251,14.2474 -37.4291,18.5438 -8.7851,2.4345 -22.3766,2.6395 -31.3285,0.4726 z m 150.7964,-91.3898 c 1.7605,-0.6693 2.5651,-1.7208 2.5651,-3.3521 0,-3.0096 -4.0166,-9.0522 -6.3108,-9.494 -2.0909,-0.4026 -7.6892,5.2851 -7.6892,7.8121 0,1.8572 3.1837,4.4269 6.5417,5.2798 1.0771,0.2736 2.0415,0.5497 2.1432,0.6135 0.1017,0.064 1.3392,-0.3229 2.75,-0.8593 z m -2180.93488,90.367 c -9.77448,-1.7458 -17.41191,-4.1356 -19.7581,-6.1825 -1.67746,-1.4635 -1.67746,-1.6233 0,-3.4843 1.55766,-1.7281 2.44214,-1.8534 7.7581,-1.0991 3.3,0.4683 10.275,0.8292 15.5,0.802 8.35172,-0.043 10.38805,-0.4282 16.84707,-3.1824 17.66828,-7.5339 31.72622,-18.7015 37.11396,-29.4833 4.13047,-8.2659 3.91883,-11.6065 -1.64148,-25.9111 l -4.68045,-12.0411 1.26895,-6.1436 c 1.5257,-7.3867 1.67785,-7.6663 4.17157,-7.6663 1.21125,0 3.19689,1.7948 5.19099,4.6921 8.39384,12.1959 15.16248,16.2 36.87619,21.815 23.58339,6.0985 69.08293,3.8659 103.55001,-5.0811 11.32902,-2.9408 17.19188,-6.3355 24.21728,-14.0224 3.79523,-4.1526 5.60774,-5.4036 7.82882,-5.4036 l 2.89022,0 -0.0666,9.75 -0.0666,9.75 10.5,-0.051 c 12.2913,-0.06 25.3642,-2.0886 28.0591,-4.354 1.0434,-0.8771 4.4975,-6.7697 7.6757,-13.0947 5.0484,-10.0465 6.0938,-11.5 8.272,-11.5 2.4455,0 2.4881,0.134 2.2275,7 -0.3929,10.3504 -0.067,11.0448 6.3043,13.4286 6.8549,2.5647 13.4991,2.6956 16.3167,0.3214 2.0164,-1.6991 2.0342,-1.9683 0.6119,-9.25 -1.9219,-9.8399 -1.7973,-16.7236 0.3763,-20.8 l 1.7596,-3.30006 2.5595,2.01332 c 1.4077,1.10734 3.6258,4.39234 4.929,7.30004 2.0122,4.4895 2.3667,6.8699 2.3511,15.7867 -0.031,17.8862 -5.1806,28.2275 -15.4427,31.0142 -4.1582,1.1291 -5.4671,0.9437 -17.2308,-2.4416 -13.8857,-3.9958 -12.8414,-4.0806 -21.4979,1.7448 -3.5688,2.4016 -7.9942,4.1552 -14.1093,5.5909 -12.812,3.0079 -17.53807,2.7566 -28.4497,-1.5127 -5.06676,-1.9825 -10.3373,-3.5893 -11.7123,-3.5708 -1.375,0.018 -6.22389,1.4084 -10.77532,3.0886 -15.11817,5.5811 -47.23805,10.7652 -72.85686,11.7592 -15.44663,0.5993 -17.15818,0.4625 -40.27555,-3.22 -28.20997,-4.4937 -26.16595,-5.0078 -30.01341,7.5474 -6.85474,22.3686 -20.63059,36.5014 -38.96968,39.9793 -7.23999,1.373 -17.90214,1.1461 -27.60918,-0.5876 z m -130.25,-3.1234 c -3.4375,-2.0375 -6.25,-4.3544 -6.25,-5.1486 0,-2.3882 4.74309,-9.7214 7.42383,-11.4779 3.29686,-2.1601 6.41222,-2.0714 12.57617,0.3582 2.79072,1.1 5.45689,2 5.92481,2 0.46792,0 3.14041,-1.575 5.93887,-3.5 5.75207,-3.9568 6.72543,-4.1164 11.90479,-1.9523 8.8532,3.6991 10.52248,8.8395 4.70241,14.4805 -3.83098,3.7131 -7.01491,4.2004 -16.58596,2.5383 -4.27768,-0.7428 -5.00777,-0.5369 -9.98665,2.816 -2.95436,1.9896 -6.27758,3.6114 -7.38492,3.6039 -1.10734,-0.01 -4.82585,-1.6806 -8.26335,-3.7181 z m 507.2213,-1.6756 c -1.9608,-1.4436 -1.9606,-1.4714 0.029,-5.2136 2.7573,-5.1869 9.9333,-10.4722 26.6753,-19.6472 16.4823,-9.0326 19.1385,-9.4939 19.6393,-3.4109 0.2687,3.2632 -0.1839,4.285 -3.1002,7 -2.7826,2.5904 -34.1378,20.0691 -39.7431,22.1544 -0.8408,0.3128 -2.4158,-0.084 -3.5,-0.8827 z m 1838.27868,-2.2736 -5.75,-0.4189 0,-3.3277 c 0,-1.8302 0.5625,-3.7765 1.25,-4.3251 0.6875,-0.5486 8.9,-1.7523 18.25,-2.6747 19.2209,-1.8964 23.238,-2.751 28.4765,-6.0579 14.4503,-9.122 39.0235,-36.936 39.0235,-44.1699 0,-2.9175 -0.2552,-2.9121 -8.4765,0.1825 -4.7664,1.794 -7.6971,2.343 -10.1008,1.8921 -5.0335,-0.9443 -11.8546,-7.5201 -15.5166,-14.9586 -2.773,-5.6328 -3.0836,-7.0651 -2.4949,-11.503 1.498,-11.2926 8.123,-24.37961 14.5259,-28.6945 6.8316,-4.60387 16.2034,-1.80437 22.6172,6.75617 7.2587,9.68823 13.4457,26.41723 13.4457,36.35583 0,22.3381 -21.8259,59.032 -40.5667,68.201 -5.8261,2.8505 -5.8543,2.8536 -27.3827,3.0075 -11.8528,0.085 -24.1381,-0.034 -27.3006,-0.2648 z m 72.7021,-85.7156 c 0.8534,-1.3867 0.252,-2.4493 -3.2394,-5.7241 -2.358,-2.2117 -4.756,-3.865 -5.329,-3.674 -0.5729,0.191 -1.7909,1.582 -2.7066,3.0911 -1.4999,2.472 -1.5154,3.0101 -0.1559,5.4321 2.4525,4.3694 8.9732,4.8685 11.4309,0.8749 z m -1836.95208,80.4673 c -11.4408,-1.1007 -14.4387,-2.283 -14.4847,-5.7122 -0.031,-2.3116 8.1469,-4.3285 21.6944,-5.3507 17.325,-1.3073 21.0503,-1.8716 24.7903,-3.7557 7.0051,-3.5289 21.4424,-14.4744 25.6069,-19.4136 12.75251,-15.1249 18.50411,-24.3381 17.38831,-27.8538 -0.3658,-1.1523 -4.1311,-6.4578 -8.3675,-11.79 -12.39641,-15.6028 -12.49841,-15.8655 -10.00901,-25.75201 1.118,-4.43972 1.1219,-4.44282 5.6549,-4.44282 3.95491,0 5.00121,0.48897 8.16681,3.81665 3.684,3.87278 11.4442,18.65888 14.4698,27.57068 1.4834,4.3693 1.5057,5.3762 0.2104,9.5 -0.797,2.537 -1.7429,7.0866 -2.1021,10.1103 -1.3948,11.7408 -9.0975,26.3949 -19.79221,37.6537 -5.5259,5.8173 -8.7677,8.2481 -15.1296,11.3446 l -8.0967,3.9408 -16,0.4519 c -8.8,0.2485 -19.6,0.1055 -24,-0.3178 z m 266.52421,-12.6739 c -20.5175,-5.5136 -32.3261,-23.645 -27.6357,-42.4332 2.9925,-11.987 14.2905,-31.9637 18.0773,-31.9637 3.2612,0 2.6258,4.0694 -2.8532,18.2728 -7.2379,18.7633 2.1026,32.0372 25.2206,35.8411 17.73487,2.9182 47.62027,-7.1204 52.63047,-17.6787 1.7657,-3.721 1.7344,-4.0676 -3.3747,-37.3455 -2.8364,-18.47437 -6.0285,-40.56473 -7.0936,-49.08973 -1.3391,-10.71799 -2.9383,-18.49139 -5.1837,-25.19602 -3.0616,-9.14177 -3.1798,-10.01729 -2.0684,-15.31608 1.2453,-5.93695 8.0606,-20.74524 9.7567,-21.19948 0.55,-0.14729 1.9987,3.02197 3.2194,7.0428 2.165,7.13177 4.4214,10.56954 9.0647,13.81054 l 2.2841,1.59431 -3.0341,10.80539 c -1.6688,5.94297 -3.0341,11.99337 -3.0341,13.44533 0,1.45197 2.6961,21.73642 5.9912,45.07657 5.5717,39.46457 5.9205,43.00947 4.9807,50.61557 -1.6578,13.4182 -5.5453,21.9926 -13.0415,28.765 -5.7235,5.1708 -12.7851,8.0812 -30.708,12.6563 -16.71507,4.2667 -23.99337,4.7702 -33.19817,2.2967 z m -1129.83536,-14.1107 c -1.27113,-0.2427 -2.56556,-1.1043 -2.87651,-1.9147 -0.71127,-1.8535 3.43106,-6.3715 5.84174,-6.3715 5.60438,0 15.84592,-6.5506 15.84592,-10.1352 0,-0.9685 -2.30692,-4.533 -5.12648,-7.9211 -4.95933,-5.9592 -5.1078,-6.3178 -4.55348,-10.9981 0.99996,-8.4432 5.24544,-14.9456 9.75802,-14.9456 3.79684,0 8.55603,4.9935 12.21854,12.8201 2.49352,5.3285 2.86982,7.1269 2.37157,11.3338 -1.21493,10.2582 -9.40945,22.6328 -17.83338,26.9304 -3.57022,1.8213 -9.86888,2.3052 -15.64594,1.2019 z m 1333.31113,-3.8808 c -1.65,-0.2465 -10.425,-1.3538 -19.5,-2.4608 -36.4624,-4.4477 -46.9106,-10.2701 -53.5281,-29.8298 -2.8498,-8.4235 -4.2228,-17.5509 -9.4187,-62.61483 -2.8226,-24.48034 -4.633,-36.37992 -6.4658,-42.5 -1.4,-4.675 -2.5549,-9.8106 -2.5664,-11.41245 -0.022,-3.06612 5.1285,-12.04721 7.4114,-12.92324 1.9048,-0.73095 6.2373,4.14821 7.9211,8.92052 0.7872,2.23107 1.9478,8.97469 2.5791,14.98583 0.6314,6.01114 2.7222,21.72934 4.6463,34.92934 1.9241,13.2 4.3494,32.04602 5.3896,41.88003 1.8895,17.8632 1.8944,17.8833 5.2114,21.3059 9.6967,10.0057 20.2316,13.8173 45.2785,16.3824 31.6018,3.2363 58.9521,3.5557 86.0416,1.0047 52.1023,-4.9064 66.7791,-7.0102 78.0277,-11.1846 6.0874,-2.259 8.0249,-5.1568 8.9521,-13.3884 1.774,-15.751 9.6245,-30.34761 20.2559,-37.66216 3.8401,-2.64212 5.5503,-3.1712 10.2503,-3.1712 3.7608,0 6.7258,0.63887 8.8954,1.91666 6.9412,4.08821 12.7328,17.1278 11.907,26.8082 -0.2603,3.0509 -2.1338,8.921 -4.6518,14.5742 l -4.216,9.4658 2.2897,1.7375 c 4.0836,3.0987 11.674,4.3334 26.2897,4.2763 22.6429,-0.088 33.905,-2.8104 43,-10.3925 3.3,-2.7511 6.6339,-5.0135 7.4087,-5.0274 0.7748,-0.014 5.4998,2.5966 10.5,5.8014 12.9798,8.3189 13.8557,8.578 26.5431,7.8521 13.3357,-0.763 19.4787,-2.073 24.1646,-5.1533 1.989,-1.3074 9.911,-10.179 17.6043,-19.7144 19.0393,-23.59826 23.5692,-26.45468 30.6787,-19.34518 5.3621,5.36208 13.6793,24.55278 13.5447,31.25238 -0.064,3.1939 -2.1581,8.4643 -6.4169,16.1508 l -2.9728,5.3654 -11.0272,-0.4936 c -8.319,-0.3724 -13.1934,-1.1844 -19.8474,-3.3064 -10.2235,-3.2602 -11.1077,-3.0248 -16.8203,4.4773 -1.8477,2.4266 -4.9345,5.2099 -6.8595,6.1851 -5.9339,3.0063 -18.7229,5.1295 -31.5,5.2295 -15.1711,0.1188 -21.0303,-1.2807 -26.8657,-6.4172 -2.4426,-2.1501 -5.1617,-3.9093 -6.0424,-3.9093 -0.8807,0 -6.0633,2.2548 -11.517,5.0107 -12.5522,6.3429 -19.6975,7.4385 -44.0529,6.7547 l -17.522,-0.4919 -15,-5.0478 -15,-5.0478 -19.4934,4.8967 c -26.3821,6.6271 -49.7584,10.412 -79.5066,12.8732 -13.0463,1.0794 -69.135,2.1842 -74,1.4576 z m 187.0179,-46.045 c 6.1646,-4.0862 9.4821,-7.533 9.4821,-9.8517 0,-2.7227 -5.2638,-11.0444 -7.8674,-12.4378 -3.7212,-1.99148 -9.2097,1.8936 -14.0269,9.9291 -2.9549,4.929 -2.6508,7.6549 1.2943,11.6 4.0919,4.0919 5.9048,4.2159 11.1179,0.7604 z m 195.4821,-3.046 c 0,-2.0148 -3.8251,-6.3144 -5.6176,-6.3144 -1.2706,0 -4.3824,3.7312 -4.3824,5.2547 0,1.1356 3.976,2.6064 7.25,2.6819 1.9374,0.045 2.75,-0.4347 2.75,-1.6222 z m -733.99997,45.448 c -5.0545,-1.8231 -7.466,-7.0402 -5.9719,-12.9193 2.0733,-8.1581 2.1921,-8.215 18.749,-8.9772 16.704,-0.7691 23.7442,-2.0585 28.3425,-5.191 4.2097,-2.8677 5.3134,-4.8135 4.5211,-7.9702 -0.8878,-3.5375 -9.862,-13.043 -19.1278,-20.2602 l -7.6318,-5.9445 0.6336,-4.50003 c 0.3485,-2.475 1.1037,-6.4125 1.6782,-8.75 0.9856,-4.01005 1.2458,-4.25 4.6101,-4.25 15.3117,0 33.7347,27.10553 31.9324,46.98183 -1.708,18.8357 -19.1086,31.2573 -45.6787,32.6081 -5.4457,0.2769 -9.8292,-0.024 -12.0567,-0.8275 z m -166.50001,-4.2065 c -5.2427,-1.9371 -8.1888,-5.774 -9.6329,-12.5459 -1.1735,-5.503 -1.1649,-5.5401 6.729,-28.9606 4.3471,-12.8978 8.6914,-24.26034 9.6539,-25.25002 2.6272,-2.70138 9.0215,-2.32071 14.9171,0.88807 5.5176,3.00304 10.3992,9.01095 14.5888,17.95445 2.3564,5.0305 2.7441,7.1325 2.7441,14.8791 0,8.1803 -0.3068,9.6442 -3.292,15.708 -3.5892,7.2908 -9.1411,12.8549 -15.8649,15.8997 -5.7825,2.6186 -14.8529,3.271 -19.8431,1.4272 z m 22.2147,-22.5132 c 5.71,-2.5922 6.4787,-5.7131 2.737,-11.1124 -5.2619,-7.593 -11.3727,-11.67 -16.1209,-10.7555 -2.1064,0.4056 -5.1202,9.7864 -5.2508,16.3436 -0.067,3.3479 0.3788,4.3028 2.67,5.7233 3.6451,2.26 10.743,2.1715 15.9647,-0.199 z m -782.26428,20.5507 c -4.11493,-1.7924 -8.22593,-6.8799 -9.03219,-11.1776 -1.12479,-5.9956 0.44986,-13.2756 6.62967,-30.6506 3.27365,-9.2041 5.952099,-17.3821 5.952099,-18.17328 0,-0.79117 1.14289,-2.79675 2.53976,-4.45684 2.53091,-3.00781 2.55433,-3.0132 6.71724,-1.54444 10.13407,3.57551 18.31404,10.77246 23.3786,20.56916 3.93445,7.6106 3.89176,17.7181 -0.11243,26.6222 -6.69519,14.888 -24.1648,23.9982 -36.072749,18.8114 z m 21.399539,-23.5997 c 2.28252,-1.6534 4.15004,-3.3901 4.15004,-3.8592 0,-1.5499 -7.99403,-9.9677 -11.55717,-12.1699 -2.98384,-1.8441 -3.73892,-1.9639 -5.12597,-0.8136 -2.36524,1.9615 -4.31945,7.2188 -4.29958,11.5669 0.0142,3.117 0.5833,4.1777 3.23592,6.0321 4.43297,3.0989 8.5944,2.8674 13.59676,-0.7563 z m 333.179351,20.5902 c -0.0161,-0.5038 -3.62931,-27.6252 -8.02931,-60.26965 -4.4,-32.64447 -8,-60.61306 -8,-62.15243 0,-5.37599 3.12636,-13.48821 6.49735,-16.8592 1.81646,-1.81646 3.68515,-3.30238 4.15265,-3.30206 0.89895,6.3e-4 14.47967,115.61224 14.39785,122.56794 -0.0724,6.1577 -2.8041,14.1341 -6.06955,17.7228 -1.60582,1.7648 -2.93286,2.7964 -2.94899,2.2926 z m 2037.12067,-52.5902 c -5.18,-3.75243 -5.4065,-6.75381 -1.0105,-13.39065 4.4588,-6.73158 6.9837,-8.20891 11.1091,-6.50012 1.7802,0.73739 4.9275,2.86825 6.9941,4.73524 5.2554,4.74794 5.0914,7.88029 -0.7164,13.68813 -5.6769,5.6769 -10.0271,6.0667 -16.3763,1.4674 z M 1148.6059,569.30853 c -2.1581,-0.41995 -2.163,-0.46939 -0.5,-4.9798 0.9239,-2.50559 3.0298,-6.09506 4.6798,-7.97658 4.8394,-5.51843 46.8213,-27.03734 127.5,-65.35346 23.375,-11.1013 51.6015,-25.10363 62.7256,-31.11627 34.1844,-18.47688 38.909,-20.29718 41.2634,-15.89788 2.7931,5.21885 -2.5472,11.31014 -17.9107,20.4298 -17.0207,10.10331 -34.9292,19.20935 -70.5783,35.88742 -18.15,8.49129 -57.4109,27.64824 -87.2464,42.57101 -29.8355,14.92276 -55.0355,27.07101 -56,26.99611 -0.9645,-0.0749 -2.7345,-0.32706 -3.9334,-0.56035 z m -643.86278,-3.16639 c -1.67346,-1.0205 -4.23015,-3.26673 -5.68155,-4.99162 -2.27167,-2.69973 -2.51184,-3.58908 -1.72585,-6.39081 1.13961,-4.06222 8.0902,-10.7564 11.1613,-10.74953 1.2588,0.003 4.0887,1.11378 6.2887,2.46879 5.4606,3.3633 7.447,3.16306 14.6213,-1.47391 3.4038,-2.2 6.5986,-4 7.0995,-4 3.7178,0 12.7792,8.40802 12.7792,11.85778 0,2.93093 -6.7967,9.80211 -10.6533,10.77005 -1.7143,0.43026 -4.0859,-0.0743 -6.9968,-1.48847 -2.4219,-1.17665 -4.9539,-2.13793 -5.6267,-2.13618 -0.6727,0.002 -3.9232,1.80032 -7.2232,3.99682 -6.6691,4.43902 -9.5491,4.87731 -14.0426,2.13708 z m 924.41778,-4.40173 c -2.3541,-1.79556 -5.1099,-4.68524 -6.1239,-6.42152 -1.6577,-2.83829 -1.7007,-3.49274 -0.4264,-6.48534 1.6594,-3.897 5.0979,-7.2872 8.8215,-8.69773 2.1766,-0.82451 3.7287,-0.47443 8.7434,1.97209 6.7337,3.28519 6.6597,3.29646 14.7904,-2.25085 2.2991,-1.5686 5.396,-2.852 6.8819,-2.852 5.6789,0 13.4379,7.49792 13.4379,12.98568 0,2.81783 -6.6931,9.64821 -10.3549,10.56725 -1.8109,0.45451 -4.423,-0.0251 -7.8158,-1.43514 -2.8028,-1.16478 -5.7456,-2.11779 -6.5395,-2.11779 -0.7939,0 -3.9572,1.8 -7.0294,4 -3.0723,2.2 -6.6027,4 -7.8455,4 -1.2427,0 -4.1855,-1.46909 -6.5397,-3.26465 z M 643.74122,545.43868 c -3.9779,-1.35752 -9.4587,-6.402 -9.4518,-8.6994 0.01,-2.84069 4.103,-7.60744 8.2648,-9.62217 3.6412,-1.76266 5.4791,-2.04165 9.9717,-1.51364 5.333,0.62679 5.6704,0.51876 10.6349,-3.40542 4.6291,-3.65909 5.4427,-3.96427 8.376,-3.14179 4.5577,1.27793 9.7489,7.12671 9.7489,10.98377 0,5.46387 -4.6192,11.90999 -8.758,12.22175 -1.09,0.0821 -3.8668,-0.47283 -6.1707,-1.23319 -3.9951,-1.31849 -4.4523,-1.24825 -9.8801,1.51763 -8.5457,4.35469 -8.4888,4.34175 -12.7357,2.89246 z m 186.18111,-3.94774 c -6.8592,-2.35809 -10.2564,-6.72535 -8.6068,-11.06435 1.4651,-3.85331 6.9022,-10.4584 9.3751,-11.38902 3.8173,-1.43648 15.5951,6.49392 15.5951,10.50067 0,3.80794 -6.1454,10.85895 -11.0472,12.67515 -0.851,0.31529 -3.2433,-0.01 -5.3162,-0.72245 z m 501.75087,-2.5726 c -2.1381,-1.69769 -4.7255,-4.40762 -5.7497,-6.02207 -1.6055,-2.53078 -1.6899,-3.35133 -0.612,-5.95345 1.631,-3.93756 8.6869,-9.93776 11.6863,-9.93776 1.2937,0 3.9676,0.675 5.9421,1.5 5.3491,2.23499 7.8865,1.86245 13.6219,-2 7.7009,-5.1861 10.9824,-4.6911 16.2036,2.44428 4.4747,6.1152 2.9305,10.97289 -4.9577,15.59567 l -4.3857,2.57023 -4.0283,-2.05509 c -2.2156,-1.1303 -4.8584,-2.05509 -5.8729,-2.05509 -1.0145,0 -4.7203,2.025 -8.2351,4.5 -3.5148,2.475 -7.1408,4.5 -8.0578,4.5 -0.9169,0 -3.4166,-1.38902 -5.5547,-3.08672 z m -817.99798,-0.5183 c -4.9106,-3.2889 -8.2944,-6.37771 -9.5604,-8.72707 -1.95694,-3.63135 7.1687,-13.66791 12.4274,-13.66791 3.3411,0 8.7263,3.80645 11.0753,7.82836 1.673,2.8646 1.7819,3.84882 0.7916,7.15417 -1.382,4.61263 -6.1758,10.01747 -8.8851,10.01747 -1.0775,0 -3.7095,-1.17226 -5.8488,-2.60502 z m -214.08815,-6.16722 c -3.18275,-2.5011 -4.24406,-6.15496 -3.2804,-11.29372 1.16651,-6.22046 2.41791,-9.13532 4.87042,-11.34458 2.45384,-2.21046 2.22444,-2.35529 5.00603,3.16054 3.416,6.77384 5.48885,5.96947 12.44482,-4.82922 3.21323,-4.98831 6.0455,-8.86639 6.29395,-8.61795 0.24844,0.24845 1.44444,2.39696 2.65777,4.77448 1.21333,2.37751 2.74043,4.48587 3.39356,4.68522 1.68795,0.51523 5.3125,-3.39077 5.3125,-5.72502 0,-1.07937 0.93187,-4.45314 2.07083,-7.49727 1.87964,-5.02379 2.25676,-5.43529 4.08466,-4.45703 2.765,1.47979 4.93186,7.09832 4.28264,11.1046 -1.26325,7.79541 -3.90502,15.03429 -6.12348,16.77933 -4.05981,3.19344 -32.10379,15.03412 -35.55183,15.01062 -1.79455,-0.0122 -4.25221,-0.79973 -5.46147,-1.75 z M 1436.5923,528.5263 c -3.7227,-3.84349 -5.3066,-6.27773 -5.3066,-8.15561 0,-3.5422 4.0225,-8.67387 8.4434,-10.77176 3.3799,-1.60386 3.7672,-1.59248 7.8065,0.22928 8.8706,4.00075 12.5574,11.36386 8.1668,16.31034 -3.1789,3.58127 -9.5851,7.86651 -11.7601,7.86651 -1.1635,0 -4.3285,-2.35924 -7.35,-5.47876 z m -1562.05658,1.77303 c -1.2375,-0.23836 -2.25,-0.80102 -2.25,-1.25036 0,-0.84078 7.13053,-6.75151 22,-18.23652 8.720829,-6.73587 20.999999,-18.82217 20.999999,-20.67015 0,-1.24477 -5.25049,-6.31311 -9.74317,-9.40516 -3.80363,-2.61782 -4.13739,-5.40392 -1.65052,-13.7781 1.32158,-4.45025 2.96915,-6.77186 9.29502,-13.09773 8.62531,-8.62531 12.98164,-10.4734 17.58227,-7.45895 4.10711,2.69108 5.55893,6.88466 6.19289,17.88811 0.66154,11.4821 0.6934,11.54318 9.61276,18.42508 3.96555,3.0597 5.63813,4.99016 5.30952,6.12816 -0.26385,0.91374 -0.97386,3.57385 -1.57779,5.91135 -1.0361,4.01015 -1.30135,4.25 -4.69999,4.25 -1.98106,0 -5.52243,-0.95915 -7.86971,-2.13144 -2.81021,-1.40348 -5.14447,-1.9114 -6.83473,-1.48717 -1.41181,0.35434 -6.78656,4.6097 -11.94388,9.45634 -9.85495,9.26129 -18.21679,15.27307 -30.672669,22.05223 -7.2331,3.93665 -8.87526,4.34322 -13.75,3.40431 z m 53.062189,-63.20844 c -0.27531,-1.05279 -1.59547,-2.94278 -2.93368,-4.19997 l -2.43312,-2.28579 -2.51304,2.51304 c -3.73732,3.73732 -2.42973,5.88689 3.58102,5.88689 4.23533,0 4.74056,-0.22497 4.29882,-1.91417 z M 1793.946,518.75506 c 0.8539,-2.8875 1.9276,-5.95741 2.386,-6.82203 1.047,-1.97448 26.3994,-17.82604 51.2871,-32.0672 16.9634,-9.70675 19.4948,-10.86077 23.8234,-10.86077 4.8314,0 4.8432,0.008 4.8432,3.36514 0,1.89109 -0.9086,4.52023 -2.0742,6.00211 -3.1167,3.96216 -18.4379,13.68713 -48.0643,30.50816 -20.56,11.67341 -27.4503,15.12459 -30.1961,15.12459 l -3.5576,0 1.5525,-5.25 z m 588.5397,4.05 c -0.66,-0.66 -1.2,-2.29438 -1.2,-3.63197 0,-4.54898 3.6263,-8.60249 11.7057,-13.08471 4.2868,-2.37825 11.1181,-6.5667 15.1806,-9.30766 18.1228,-12.22762 56.0047,-32.57911 58.1612,-31.24631 1.6226,1.00282 1.0713,8.11111 -0.7975,10.28216 -0.9625,1.1182 -13.225,8.98903 -27.25,17.49074 -14.025,8.5017 -31.1018,18.88667 -37.9485,23.0777 -12.3716,7.57299 -15.554,8.71751 -17.8515,6.42005 z M -32.107291,517.42327 c -1.09218,-2.84617 -0.64133,-5.56124 1.39936,-8.42713 3.24129,-4.55196 18.87425,-15.84185 43.49365,-31.41044 24.53328,-15.51414 28.59296,-17.16015 30.41184,-12.33064 1.24179,3.29724 -1.0192,6.93503 -7.41802,11.93513 -8.80308,6.87881 -64.45629,41.79825 -66.63683,41.81109 -0.35366,0.002 -0.91616,-0.70802 -1.25,-1.57801 z m 2518.642991,-0.0805 c -0.7534,-0.30399 -1.25,-2.38853 -1.25,-5.24674 0,-3.63706 0.5244,-5.22554 2.25,-6.81551 2.7304,-2.51576 18.8162,-12.69893 44.1094,-27.92354 15.2863,-9.20124 19.5837,-11.35193 22.6826,-11.35193 4.5568,0 5.7175,2.16875 3.9793,7.43539 -1.6478,4.99305 -8.1323,10.38959 -20.2581,16.8593 -5.9053,3.15074 -13.7803,7.68481 -17.5,10.07571 -8.3231,5.34971 -30.6854,17.65859 -31.8855,17.55065 -0.4827,-0.0434 -1.4402,-0.30592 -2.1277,-0.58333 z m -432.5562,-4.51873 c -4.9997,-1.82287 -3.041,-4.29871 9.1465,-11.56128 6.2372,-3.71674 11.3622,-7.20771 11.3889,-7.75771 0.027,-0.55 -1.1985,-1.61561 -2.7227,-2.36802 -2.5334,-1.25058 -3.6235,-1.0453 -12.6977,2.39119 -10.9142,4.1333 -12.5037,3.91725 -11.3058,-1.53672 0.9311,-4.23929 6.5997,-10.41927 13.902,-15.15604 4.8971,-3.17658 6.7816,-3.83041 11.0399,-3.83041 6.2814,0 14.552,2.04529 24.8051,6.13415 7.7341,3.08433 7.75,3.09831 7.75,6.83037 0,7.6034 -5.8044,12.89006 -22.0498,20.083 -17.8195,7.88988 -22.9389,9.07479 -29.2564,6.77147 z m 69.6955,-3.33875 c -2.5839,-2.58392 -2.613,-4.23435 -0.1626,-9.22066 0.6623,-1.34778 10.0999,-7.58324 23.6872,-15.65024 35.8977,-21.31318 44.5294,-25.84943 50.2288,-26.39707 l 4.9777,-0.4783 -0.3102,4.83327 c -0.306,4.76857 -0.4106,4.90482 -7.8102,10.17971 -18.185,12.96335 -44.4115,28.49355 -60.2986,35.70628 l -7.7985,3.54054 -2.5136,-2.51353 z M 727.74022,506.55052 c -2.101,-2.10104 -2.4545,-3.38786 -2.4545,-8.93491 0,-7.47056 0.9495,-10.54952 4.1887,-13.58281 l 2.3113,-2.16431 0.5,4.31828 c 0.9264,8.00061 6.2128,6.04321 14.6697,-5.43171 1.9253,-2.6125 3.8907,-4.75 4.3674,-4.75 0.4768,0 2.2776,2.05046 4.0018,4.55658 1.8713,2.71974 3.767,4.43299 4.7027,4.25 0.8811,-0.17232 2.9347,-3.59121 4.689,-7.80658 2.6846,-6.45066 3.4975,-7.5438 5.81051,-7.81306 2.1884,-0.25475 2.8117,0.17534 3.3474,2.30951 1.1442,4.55913 -0.2402,11.36757 -3.7206,18.29765 -3.91691,7.79898 -7.48171,10.26802 -18.50221,12.81465 -3.7761,0.87259 -9.397,2.6676 -12.4907,3.98889 -7.0371,3.00542 -8.3689,2.99934 -11.4205,-0.0522 z M 86.952389,505.33839 c -0.36667,-0.36666 -0.66667,-2.39827 -0.66667,-4.51468 0,-2.97608 0.73643,-4.61973 3.25,-7.25372 2.6549,-2.78209 53.720131,-36.38068 61.434261,-40.42093 1.20134,-0.6292 4.01384,-1.144 6.25,-1.144 l 4.06574,0 0,4.42208 c 0,3.96277 -0.44143,4.80148 -4.25,8.07497 -2.3375,2.00909 -9.2,6.6261 -15.25,10.26003 -6.05,3.63393 -16.175,10.05324 -22.5,14.26514 -21.152441,14.08567 -30.063461,18.58099 -32.333331,16.31111 z m 357.694101,-5.83557 c -1.14367,-2.98035 0.72257,-6.35936 6.4235,-11.63042 7.93637,-7.33793 18.00178,-13.85409 50.55332,-32.72727 23.04221,-13.35973 28.51151,-16.14007 31.75001,-16.14007 3.6527,0 3.9124,0.19296 3.9124,2.90733 0,3.5498 -6.1844,9.42685 -18.6429,17.71648 -16.05076,10.67979 -68.79826,41.37619 -71.09926,41.37619 -1.27634,0 -2.58002,-0.67601 -2.89707,-1.50224 z m -181.78153,-4.15186 c -1.2929,-3.36924 -0.5243,-8.29475 1.67076,-10.70689 3.04262,-3.34353 47.78577,-29.63901 50.43234,-29.63901 2.25346,0 3.31766,1.75826 3.31766,5.48144 0,5.9341 -33.04964,28.68531 -50.73304,34.92437 -3.63119,1.28116 -4.17577,1.2742 -4.68772,-0.0599 z m 692.45597,-1.28016 c -2.7795,-5.19342 -0.029,-9.44662 10.1323,-15.66589 4.5829,-2.80509 18.6825,-10.96882 31.3325,-18.14162 37.64647,-21.34631 38.88017,-21.7938 38.30127,-13.89237 -0.2848,3.88717 -0.7396,4.42667 -8.3013,9.84671 -4.4,3.15381 -17,11.10365 -27.99997,17.66629 -38.6149,23.0378 -41.2773,24.27432 -43.4648,20.18688 z m -154.7024,-3.64081 c -0.3324,-0.86629 -0.066,-3.37237 0.5922,-5.56908 1.0586,-3.53304 2.3558,-4.74621 11.2403,-10.5116 10.3256,-6.70062 38.6812,-23.20585 47.8434,-27.84865 2.8356,-1.43692 6.3562,-2.47376 7.8235,-2.30409 2.3499,0.27173 2.7037,0.79948 2.9689,4.42848 0.2763,3.7797 -0.065,4.44047 -4.137,8 -2.4409,2.13401 -6.8515,5.27368 -9.8011,6.97705 -2.9497,1.70338 -11.438,6.64982 -18.863,10.9921 -18.2147,10.65227 -31.6515,17.41086 -34.6149,17.41086 -1.3463,0 -2.7199,-0.70878 -3.0523,-1.57507 z m 911.67137,-8.91992 c -2.1279,-2.56392 1.2592,-6.02642 10.734,-10.97302 4.819,-2.51589 9.6618,-5.26899 10.7618,-6.11801 1.9854,-1.53239 1.9828,-1.55779 -0.3608,-3.47882 -3.106,-2.54601 -5.5352,-2.42957 -11.9885,0.57461 -5.4565,2.54015 -12.1507,3.3338 -12.1507,1.44057 0,-3.69291 9.0886,-15.60588 14.4195,-18.90059 1.8241,-1.12736 4.8385,-2.04943 6.6985,-2.04904 5.7781,0.001 22.5131,4.98014 32.632,9.70851 10.2204,4.77579 -4.4868,20.25895 -27.4559,28.90451 -7.6804,2.89089 -21.201,3.40831 -23.2899,0.89128 z m -265.5042,-6.38315 c -1.65,-0.35282 -2.8875,-0.97458 -2.75,-1.38168 0.1375,-0.4071 0.25,-1.15004 0.25,-1.65097 0,-0.90742 1.9865,-1.93203 15.75,-8.12377 7.2229,-3.24932 8.3291,-4.48634 6.05,-6.76544 -1.7725,-1.77246 -6.056,-1.46408 -11.9536,0.86056 -2.9482,1.16207 -6.2388,1.80679 -7.5465,1.47858 l -2.3187,-0.58196 2.0527,-4.02365 c 2.5802,-5.05759 8.4581,-11.61948 12.0913,-13.49827 1.5265,-0.78939 4.3904,-1.43526 6.3643,-1.43526 2.878,0 14.8788,3.97029 28.7605,9.51498 1.2634,0.50464 1.75,1.82474 1.75,4.74762 0,5.88747 -3.5608,9.97001 -12.407,14.22484 -12.7899,6.15171 -26.535,8.67826 -36.093,6.63442 z m -737.37188,-17.8825 c -1.4214,-2.65589 -0.2467,-6.76167 2.7208,-9.50989 6.6232,-6.13365 62.44791,-38.93655 64.75591,-38.05089 0.8586,0.3295 1.3952,2.01307 1.3952,4.37772 0,3.03366 -0.684,4.49344 -3.25,6.93605 -8.33961,7.93859 -57.69051,38.00765 -62.38011,38.00765 -1.2647,0 -2.7236,-0.79229 -3.2418,-1.76064 z M 294.6074,450.60915 c 0.29462,-0.76776 1.0794,-3.21074 1.74396,-5.42885 1.40147,-4.67767 2.183,-5.29185 25.99369,-20.42765 18.16443,-11.54662 28.49876,-17.13874 29.98041,-16.22303 0.52814,0.32641 0.96026,1.99964 0.96026,3.71829 0,5.6567 -8.80778,12.74883 -38.59976,31.08101 -10.14059,6.23991 -15.01438,8.67614 -17.35699,8.67614 -2.37652,0 -3.11239,-0.37743 -2.72157,-1.39591 z"
       id="path4288"
       inkscape:connector-curvature="0" />
    <g
       id="g4256"
       style="fill:#d40000"
       transform="translate(0,-425.00559)">
      <path
         id="path4254"
         d="m 596.84652,1154.2022 c -0.7743,-2.4397 1.4125,-8.0298 4.0512,-10.3562 1.0384,-0.9155 12.8413,-6.9509 26.2287,-13.4122 25.8214,-12.4624 26.9088,-12.7201 25.6946,-6.089 -1.3332,7.2807 -10.8223,14.3673 -32.5353,24.2975 -16.2079,7.4126 -22.386,8.8781 -23.4392,5.5599 z"
         style="fill:#d40000"
         inkscape:connector-curvature="0" />
      <path
         id="path4220"
         d="m 630.75702,1117.6034 c -1.9608,-1.4436 -1.9606,-1.4714 0.029,-5.2136 2.7573,-5.1869 9.9333,-10.4722 26.6753,-19.6472 16.4823,-9.0326 19.1385,-9.4939 19.6393,-3.4109 0.2687,3.2632 -0.1839,4.285 -3.1002,7 -2.7826,2.5904 -34.1378,20.0691 -39.7431,22.1544 -0.8408,0.3128 -2.4158,-0.084 -3.5,-0.8827 z"
         style="fill:#d40000"
         inkscape:connector-curvature="0" />
    </g>
  </g>
</svg>
