<?xml version="1.0" encoding="UTF-8" standalone="no"?>
<!-- Created with Inkscape (http://www.inkscape.org/) -->

<svg
   xmlns:dc="http://purl.org/dc/elements/1.1/"
   xmlns:cc="http://creativecommons.org/ns#"
   xmlns:rdf="http://www.w3.org/1999/02/22-rdf-syntax-ns#"
   xmlns:svg="http://www.w3.org/2000/svg"
   xmlns="http://www.w3.org/2000/svg"
   xmlns:sodipodi="http://sodipodi.sourceforge.net/DTD/sodipodi-0.dtd"
   xmlns:inkscape="http://www.inkscape.org/namespaces/inkscape"
   width="49.724327mm"
   height="17.18049mm"
   viewBox="0 0 176.18856 60.875753"
   id="svg2"
   version="1.1"
   inkscape:version="0.91 r13725"
   sodipodi:docname="clear-letters.svg">
  <defs
     id="defs4" />
  <sodipodi:namedview
     id="base"
     pagecolor="#ffffff"
     bordercolor="#666666"
     borderopacity="1.0"
     inkscape:pageopacity="0.0"
     inkscape:pageshadow="2"
     inkscape:zoom="1.979899"
     inkscape:cx="15.602864"
     inkscape:cy="-28.954906"
     inkscape:document-units="px"
     inkscape:current-layer="layer1"
     showgrid="false"
     fit-margin-top="0"
     fit-margin-left="0"
     fit-margin-right="0"
     fit-margin-bottom="0"
     inkscape:window-width="1920"
     inkscape:window-height="1001"
     inkscape:window-x="-9"
     inkscape:window-y="-9"
     inkscape:window-maximized="1" />
  <metadata
     id="metadata7">
    <rdf:RDF>
      <cc:Work
         rdf:about="">
        <dc:format>image/svg+xml</dc:format>
        <dc:type
           rdf:resource="http://purl.org/dc/dcmitype/StillImage" />
        <dc:title />
      </cc:Work>
    </rdf:RDF>
  </metadata>
  <g
     inkscape:label="Layer 1"
     inkscape:groupmode="layer"
     id="layer1"
     transform="translate(-51.008204,-33.240954)">
    <g
       style="font-style:normal;font-weight:normal;font-size:40px;line-height:125%;font-family:sans-serif;letter-spacing:0px;word-spacing:0px;fill:#000000;fill-opacity:1;stroke:none;stroke-width:1px;stroke-linecap:butt;stroke-linejoin:miter;stroke-opacity:1"
       id="text4136">
      <path
         d="m 222.29592,46.415016 q 0.58594,-1.40625 0.74219,-0.07813 0,0 0.91796,10.117188 1.54297,13.476562 -0.17578,16.796875 -0.23437,0.449218 -0.42968,0.234375 -0.17579,-0.234375 -0.15625,-0.664063 0.0977,-4.726562 -0.27344,-7.558594 -0.35156,-2.832031 -0.85938,-7.617187 l -0.85937,-7.832031 q -0.0781,-0.664063 0.21484,-1.347657 l 0.87891,-2.050781 z m 3.45703,-5.390625 q -2.16797,0.429688 -3.06641,0.722656 -0.89843,0.273438 -3.3789,1.367188 -0.52735,0.214844 -0.76172,-0.136719 -0.48828,-0.722656 1.5625,-1.992187 -1.48438,-0.742188 -1.66016,-1.679688 -0.3125,-1.621094 1.34766,-3.925781 1.67969,-2.285156 3.57422,-2.128906 1.21093,0.09766 1.07422,1.367187 -0.11719,1.25 -0.70313,2.070313 -0.58594,0.820312 -0.99609,0.175781 -0.41016,-0.644531 -1.21094,-0.722656 -0.78125,-0.07813 -1.23047,0.449218 -0.44922,0.527344 0.0781,1.035157 1.32812,1.25 3.88671,1.328125 0.41016,0 1.23047,-0.195313 0.82032,-0.195312 1.13282,-0.175781 0.33203,0 0.46875,0.253906 0.15625,0.234375 0.0586,0.449219 -0.76172,1.601562 -1.40625,1.738281 z"
         style="font-style:normal;font-variant:normal;font-weight:normal;font-stretch:normal;font-family:'Amiri Quran';-inkscape-font-specification:'Amiri Quran'"
         id="path4136" />
      <path
         d="m 197.94045,60.497047 q 0.66406,-0.46875 1.62109,0.09766 2.59766,1.523437 3.65235,3.867187 1.07422,2.34375 0.50781,4.804688 -0.54688,2.460937 -2.03125,3.828125 -1.48438,1.367187 -3.49609,1.386718 -2.71485,0.03906 -3.59375,-1.894531 -0.85938,-1.953125 -0.0391,-5.195312 0.83985,-3.242188 3.08594,-5.820313 0.0781,-0.07813 0.0781,-0.507812 0,-0.429688 0.21484,-0.566407 z m 3.78906,8.59375 q 0.48828,-0.371093 -0.19531,-1.191406 -1.85547,-2.285156 -3.55469,-2.246094 -0.85937,0.01953 -1.46484,1.132813 -0.60547,1.113281 -0.42969,1.835937 0.33203,1.464844 2.30469,1.464844 1.99219,0 3.33984,-0.996094 z"
         style="font-style:normal;font-variant:normal;font-weight:normal;font-stretch:normal;font-family:'Amiri Quran';-inkscape-font-specification:'Amiri Quran'"
         id="path4138" />
      <path
         d="m 166.94436,55.165016 q 1.17187,-0.566406 2.8125,0.410156 1.66015,0.957032 2.34375,1.933594 0.42968,0.605469 -0.52735,0.410156 -5,-0.996093 -8.51562,3.457032 -0.17578,0.234375 0.0977,0.507812 2.79297,2.578125 6.58203,2.167969 0.64454,-0.07812 1.875,-0.820313 4.66797,-2.890625 5.27344,-3.183593 0.74219,-0.351563 0.3711,0.683593 -0.89844,2.539063 -1.40625,2.773438 -3.24219,1.445312 -7.92969,4.882812 -5.19531,3.808594 -5.91797,10.371094 -0.37109,3.4375 1.69922,6.074219 3.28125,4.160156 14.84375,3.769531 3.125,-0.09766 8.18359,-1.015625 0.42969,-0.07813 0.50781,0.15625 0.19532,0.605469 -4.33593,2.871094 -2.53907,1.269531 -3.94532,1.40625 -5.8789,0.605469 -9.64843,-0.253906 -8.78907,-1.992188 -8.4961,-10.839844 0.29297,-8.847656 5.35157,-13.789063 -3.14454,-1.25 -4.14063,-2.636718 -0.41016,-0.566407 -0.35156,-1.269532 0.15625,-1.875 0.99609,-3.417968 1.83594,-3.457032 4.27735,-4.648438 z"
         style="font-style:normal;font-variant:normal;font-weight:normal;font-stretch:normal;font-family:'Amiri Quran';-inkscape-font-specification:'Amiri Quran'"
         id="path4140" />
      <path
         d="m 145.36232,64.481422 -0.95703,2.148438 q -0.15625,0.332031 -0.44922,0.371094 -9.57031,1.269531 -13.39843,3.769531 -7.51953,4.921875 -5.87891,11.875 0.89844,3.867187 5.78125,6.015625 2.63672,1.152344 8.35938,1.484375 5.72265,0.351562 10.625,-0.09766 0.625,-0.05859 0.80078,0.15625 0.17578,0.234375 -0.0195,0.507812 -0.17579,0.273438 -0.48829,0.371094 -2.42187,0.703125 -3.80859,1.542969 -2.05078,1.230468 -2.53906,1.269531 -11.75781,1.035156 -16.97266,-2.773438 -5.21484,-3.808593 -3.35937,-11.933593 1.85547,-8.125 9.6875,-11.875 -5.41016,-1.308594 -8.10547,0.273437 -0.23438,0.136719 -0.46875,0.09766 -0.21485,-0.05859 -0.21485,-0.273437 0.0391,-0.9375 0.41016,-1.972656 0.74219,-2.089844 3.84766,-2.265625 1.54297,-0.07813 4.92187,0.585937 3.37891,0.664063 5.70313,0.625 2.34375,-0.03906 5.76172,-0.625 1.17187,-0.195312 0.76171,0.722656 z"
         style="font-style:normal;font-variant:normal;font-weight:normal;font-stretch:normal;font-family:'Amiri Quran';-inkscape-font-specification:'Amiri Quran'"
         id="path4142" />
      <path
         d="m 95.381855,55.165016 q 1.171875,-0.566406 2.8125,0.410156 1.660156,0.957032 2.343755,1.933594 0.42968,0.605469 -0.52735,0.410156 -4.999999,-0.996093 -8.515624,3.457032 -0.175781,0.234375 0.09766,0.507812 2.792968,2.578125 6.582031,2.167969 0.644531,-0.07812 1.874996,-0.820313 4.66797,-2.890625 5.27344,-3.183593 0.74219,-0.351563 0.3711,0.683593 -0.89844,2.539063 -1.40625,2.773438 -3.24219,1.445312 -7.929692,4.882812 -5.195313,3.808594 -5.917969,10.371094 -0.371094,3.4375 1.699219,6.074219 3.28125,4.160156 14.843752,3.769531 3.125,-0.09766 8.18359,-1.015625 0.42969,-0.07813 0.50781,0.15625 0.19532,0.605469 -4.33593,2.871094 -2.53907,1.269531 -3.94532,1.40625 -5.8789,0.605469 -9.648434,-0.253906 -8.789062,-1.992188 -8.496093,-10.839844 0.292968,-8.847656 5.351562,-13.789063 -3.144531,-1.25 -4.140625,-2.636718 -0.410156,-0.566407 -0.351562,-1.269532 0.15625,-1.875 0.996093,-3.417968 1.835938,-3.457032 4.277344,-4.648438 z M 93.27248,47.157204 q 0.09766,-0.15625 0.332031,-0.07813 1.582032,0.546875 2.832032,1.660156 0.175781,0.15625 0.05859,0.351562 l -1.914062,3.027344 q -0.117188,0.175781 -0.410156,-0.05859 -0.273438,-0.234375 -2.792969,-1.757812 -0.15625,-0.09766 -0.05859,-0.234375 l 1.953125,-2.910156 z"
         style="font-style:normal;font-variant:normal;font-weight:normal;font-stretch:normal;font-family:'Amiri Quran';-inkscape-font-specification:'Amiri Quran'"
         id="path4144" />
      <path
         d="m 73.799824,64.481422 -0.957031,2.148438 q -0.15625,0.332031 -0.449219,0.371094 -9.570313,1.269531 -13.398438,3.769531 -7.519531,4.921875 -5.878906,11.875 0.898438,3.867187 5.78125,6.015625 2.636719,1.152344 8.359375,1.484375 5.722656,0.351562 10.625,-0.09766 0.625,-0.05859 0.800781,0.15625 0.175782,0.234375 -0.01953,0.507812 -0.175781,0.273438 -0.488281,0.371094 -2.421875,0.703125 -3.808594,1.542969 -2.050781,1.230468 -2.539062,1.269531 -11.757813,1.035156 -16.972657,-2.773438 -5.214843,-3.808593 -3.359375,-11.933593 1.855469,-8.125 9.6875,-11.875 -5.410156,-1.308594 -8.105468,0.273437 -0.234375,0.136719 -0.46875,0.09766 -0.214844,-0.05859 -0.214844,-0.273437 0.03906,-0.9375 0.410156,-1.972656 0.742188,-2.089844 3.847656,-2.265625 1.542969,-0.07813 4.921875,0.585937 3.378907,0.664063 5.703125,0.625 2.34375,-0.03906 5.761719,-0.625 1.171875,-0.195312 0.761719,0.722656 z M 61.514668,53.602516 q 0.09766,-0.15625 0.332031,-0.07813 1.582031,0.546875 2.832031,1.660156 0.175781,0.15625 0.05859,0.351563 l -1.914063,3.027344 q -0.117187,0.175781 -0.410156,-0.05859 -0.273437,-0.234375 -2.792969,-1.757813 -0.15625,-0.09766 -0.05859,-0.234375 l 1.953125,-2.910156 z"
         style="font-style:normal;font-variant:normal;font-weight:normal;font-stretch:normal;font-family:'Amiri Quran';-inkscape-font-specification:'Amiri Quran'"
         id="path4146" />
    </g>
  </g>
</svg>
