<?xml version="1.0" encoding="UTF-8" standalone="no"?>
<!-- Created with Inkscape (http://www.inkscape.org/) -->

<svg
   xmlns:dc="http://purl.org/dc/elements/1.1/"
   xmlns:cc="http://creativecommons.org/ns#"
   xmlns:rdf="http://www.w3.org/1999/02/22-rdf-syntax-ns#"
   xmlns:svg="http://www.w3.org/2000/svg"
   xmlns="http://www.w3.org/2000/svg"
   xmlns:sodipodi="http://sodipodi.sourceforge.net/DTD/sodipodi-0.dtd"
   xmlns:inkscape="http://www.inkscape.org/namespaces/inkscape"
   width="46.157619mm"
   height="20.648466mm"
   viewBox="0 0 163.55062 73.163856"
   id="svg2"
   version="1.1"
   inkscape:version="0.91 r13725"
   sodipodi:docname="tanween.svg">
  <defs
     id="defs4">
    <clipPath
       clipPathUnits="userSpaceOnUse"
       id="clipPath4243">
      <rect
         style="fill:#444142;fill-opacity:1;stroke:#000000;stroke-width:0.36520541;stroke-linecap:butt;stroke-linejoin:round;stroke-miterlimit:4;stroke-dasharray:none;stroke-opacity:1"
         id="rect4245"
         width="12.613366"
         height="15.381223"
         x="382.62189"
         y="38.644787" />
    </clipPath>
    <clipPath
       clipPathUnits="userSpaceOnUse"
       id="clipPath4251">
      <rect
         style="fill:#444142;fill-opacity:1;stroke:#000000;stroke-width:0.30000001;stroke-linecap:butt;stroke-linejoin:round;stroke-miterlimit:4;stroke-dasharray:none;stroke-opacity:1"
         id="rect4253"
         width="16.160715"
         height="22.232143"
         x="443.48215"
         y="218.52289" />
    </clipPath>
    <clipPath
       clipPathUnits="userSpaceOnUse"
       id="clipPath4261">
      <rect
         style="fill:#444142;fill-opacity:1;stroke:#000000;stroke-width:0.30000001;stroke-linecap:butt;stroke-linejoin:round;stroke-miterlimit:4;stroke-dasharray:none;stroke-opacity:1"
         id="rect4263"
         width="13.25"
         height="12.21875"
         x="740.15625"
         y="169.45593" />
    </clipPath>
    <clipPath
       clipPathUnits="userSpaceOnUse"
       id="clipPath4271">
      <rect
         style="fill:#444142;fill-opacity:1;stroke:#000000;stroke-width:0.30000001;stroke-linecap:butt;stroke-linejoin:round;stroke-miterlimit:4;stroke-dasharray:none;stroke-opacity:1"
         id="rect4273"
         width="20.727068"
         height="14.849242"
         x="343.25613"
         y="297.96765"
         clip-path="none" />
    </clipPath>
    <clipPath
       clipPathUnits="userSpaceOnUse"
       id="clipPath4278">
      <rect
         style="opacity:0.41800005;fill:#444142;fill-opacity:1;stroke:#000000;stroke-width:0.20428672;stroke-linecap:butt;stroke-linejoin:round;stroke-miterlimit:4;stroke-dasharray:none;stroke-opacity:1"
         id="rect4280"
         width="17.132139"
         height="41.248787"
         x="11.641942"
         y="162.36798" />
    </clipPath>
    <clipPath
       clipPathUnits="userSpaceOnUse"
       id="clipPath4336">
      <rect
         style="opacity:0.41800005;fill:#444142;fill-opacity:1;stroke:#000000;stroke-width:0.30000001;stroke-linecap:butt;stroke-linejoin:round;stroke-miterlimit:4;stroke-dasharray:none;stroke-opacity:1"
         id="rect4338"
         width="21.213219"
         height="34.206287"
         x="71.11515"
         y="167.82855" />
    </clipPath>
    <clipPath
       clipPathUnits="userSpaceOnUse"
       id="clipPath4189">
      <rect
         style="opacity:0.28200001;fill:#444142;fill-opacity:1;stroke:#000000;stroke-width:0.30000001;stroke-linecap:butt;stroke-linejoin:round;stroke-miterlimit:4;stroke-dasharray:none;stroke-opacity:1"
         id="rect4191"
         width="30.980709"
         height="48.56802"
         x="14.928301"
         y="107.63886" />
    </clipPath>
    <clipPath
       clipPathUnits="userSpaceOnUse"
       id="clipPath4232">
      <rect
         style="opacity:0.28200001;fill:#444142;fill-opacity:1;stroke:#000000;stroke-width:0.30000001;stroke-linecap:butt;stroke-linejoin:round;stroke-miterlimit:4;stroke-dasharray:none;stroke-opacity:1"
         id="rect4234"
         width="30.875"
         height="51.75"
         x="78.875"
         y="106.36221" />
    </clipPath>
    <clipPath
       clipPathUnits="userSpaceOnUse"
       id="clipPath4959">
      <rect
         style="opacity:0.59299999;fill:#cc0000;fill-opacity:1;stroke:none;stroke-width:0.30000001;stroke-linecap:butt;stroke-linejoin:round;stroke-miterlimit:4;stroke-dasharray:none;stroke-opacity:1"
         id="rect4961"
         width="30.405592"
         height="45.254833"
         x="32.880466"
         y="136.48215" />
    </clipPath>
  </defs>
  <sodipodi:namedview
     id="base"
     pagecolor="#ffffff"
     bordercolor="#666666"
     borderopacity="1.0"
     inkscape:pageopacity="0.0"
     inkscape:pageshadow="2"
     inkscape:zoom="2"
     inkscape:cx="172.89862"
     inkscape:cy="1.3818497"
     inkscape:document-units="px"
     inkscape:current-layer="layer1"
     showgrid="false"
     inkscape:window-width="1920"
     inkscape:window-height="1001"
     inkscape:window-x="-9"
     inkscape:window-y="-9"
     inkscape:window-maximized="1"
     showguides="true"
     inkscape:guide-bbox="true"
     fit-margin-top="0"
     fit-margin-left="0"
     fit-margin-right="0"
     fit-margin-bottom="0">
    <sodipodi:guide
       position="35.782508,41.427172"
       orientation="1,0"
       id="guide4949" />
    <sodipodi:guide
       position="143.29966,18.385113"
       orientation="0,1"
       id="guide5194" />
    <sodipodi:guide
       position="124.52622,29.533552"
       orientation="1,0"
       id="guide5235" />
    <sodipodi:guide
       position="125.342,28.411992"
       orientation="0,1"
       id="guide5237" />
    <sodipodi:guide
       position="22.137557,26.312772"
       orientation="1,0"
       id="guide5239" />
  </sodipodi:namedview>
  <metadata
     id="metadata7">
    <rdf:RDF>
      <cc:Work
         rdf:about="">
        <dc:format>image/svg+xml</dc:format>
        <dc:type
           rdf:resource="http://purl.org/dc/dcmitype/StillImage" />
        <dc:title />
      </cc:Work>
    </rdf:RDF>
  </metadata>
  <g
     inkscape:label="Layer 1"
     inkscape:groupmode="layer"
     id="layer1"
     transform="translate(-11.637842,-60.020959)">
    <path
       inkscape:connector-curvature="0"
       id="path4951"
       d="m 56.616412,121.27053 c -0.44128,0 -1.00168,0.32934 -3.0625,1.80273 -2.94323,2.10428 -4.27865,3.15756 -5.28516,4.16406 -0.61855,0.61855 -0.72656,0.81648 -0.72656,1.33399 0,0.51478 0.04981,0.60937 0.32617,0.60937 0.49617,0 7.06144,-4.76304 8.62891,-6.25976 0.51447,-0.49125 0.66015,-0.74215 0.66015,-1.14063 0,-0.4796 -0.03355,-0.50976 -0.54101,-0.50976 z m 1.3457,3.64062 c -0.31798,0.0238 -0.83618,0.25553 -1.64062,0.70117 -2.03668,1.12829 -4.50118,2.68812 -6.22461,3.94336 -1.36221,0.99214 -1.49223,1.13481 -1.70508,1.85156 -0.12676,0.42685 -0.23047,0.79702 -0.23047,0.82422 0,0.0272 0.19674,0.0508 0.43555,0.0508 0.40305,0 1.46473,-0.63172 6.81054,-4.04296 1.87277,-1.19504 2.99024,-2.23428 2.99024,-2.78321 0,-0.38539 -0.11757,-0.56874 -0.43555,-0.54492 z"
       style="fill:#d40000" />
    <path
       style="font-style:normal;font-weight:normal;font-size:40px;line-height:125%;font-family:sans-serif;letter-spacing:0px;word-spacing:0px;fill:#000000;fill-opacity:1;stroke:none;stroke-width:1px;stroke-linecap:butt;stroke-linejoin:miter;stroke-opacity:1"
       d="m 43.173828,89.349609 c -0.08362,-0.01282 -0.179687,0.07031 -0.287109,0.246094 l -1.269531,2.070313 c -0.15625,0.260416 -0.195313,0.605468 -0.117188,1.035156 0.403646,2.200521 0.722656,4.160156 0.957031,5.878906 0.247396,1.705732 0.410157,3.945312 0.488281,6.718752 0.07813,2.76041 0.221355,5.50781 0.429688,8.24219 0.247396,3.24218 2.122396,4.86328 5.625,4.86328 0.01311,0 0.02604,-0.0107 0.03906,-0.0137 1.48e-4,0.006 -1.48e-4,0.008 0,0.0137 0.820313,0.0781 1.738282,0.0781 2.753907,0 1.015625,-0.0781 3.509114,-0.78125 7.480469,-2.10938 1.40625,-0.46875 3.007812,-0.85937 4.804687,-1.17187 1.796875,-0.3125 3.417969,-0.38412 4.863281,-0.21485 0.234375,0.013 0.475261,-0.1888 0.722656,-0.60547 0.247396,-0.41666 0.61198,-1.15234 1.09375,-2.20703 0.117188,-0.26041 0.104167,-0.44922 -0.03906,-0.5664 -0.143229,-0.11719 -0.332031,-0.17578 -0.566406,-0.17578 -1.484375,0.026 -3.027344,-0.16276 -4.628906,-0.56641 -1.588542,-0.41667 -2.929688,-0.8724 -4.023438,-1.36719 -3.046875,-1.39323 -5.052083,-2.10937 -6.015625,-2.14844 -0.963542,-0.0391 -2.220052,0.91146 -3.769531,2.85157 -0.976563,1.22396 -1.829427,2.55208 -2.558594,3.98437 -0.04642,0.0971 -0.07703,0.3564 -0.101562,0.69141 -0.01894,-0.002 -0.03506,-0.007 -0.05469,-0.008 -2.473958,-0.14323 -3.808594,-1.45183 -4.003906,-3.92579 -0.09115,-1.14583 -0.273438,-4.49869 -0.546875,-10.05859 -0.143229,-2.942708 -0.46224,-6.477864 -0.957031,-10.605468 -0.07324,-0.545248 -0.178996,-0.8302 -0.31836,-0.851563 z m 12.580078,8.605469 c -0.05534,0.01302 -0.10026,0.04557 -0.132812,0.09766 l -1.953125,2.910152 c -0.0651,0.0911 -0.04557,0.16927 0.05859,0.23438 1.679688,1.01562 2.610678,1.60156 2.792969,1.75781 0.195313,0.15625 0.332031,0.17578 0.410157,0.0586 l 1.914062,-3.027338 c 0.07813,-0.130208 0.05859,-0.247396 -0.05859,-0.351562 -0.833333,-0.742188 -1.777344,-1.295573 -2.832031,-1.660157 -0.07813,-0.02604 -0.14388,-0.03255 -0.199219,-0.01953 z m -1.578125,13.183592 c 1.523438,0.026 3.11849,0.51432 4.785157,1.46485 0.182291,0.1302 0.253906,0.24088 0.214843,0.33203 -0.02604,0.0781 -0.104166,0.13021 -0.234375,0.15625 l -1.71875,0.42968 c -3.424479,0.88542 -5.755208,1.28907 -6.992187,1.21094 0.416666,-1.15885 0.970052,-2.04427 1.660156,-2.65625 0.690104,-0.625 1.451823,-0.9375 2.285156,-0.9375 z"
       id="text4136"
       inkscape:connector-curvature="0" />
    <path
       style="fill:#d40000"
       d="m 56.552016,84.132591 c -0.44128,0 -1.00168,0.32934 -3.0625,1.80273 -2.94323,2.10428 -4.27865,3.15756 -5.28516,4.16406 -0.61855,0.61855 -0.72656,0.81648 -0.72656,1.33399 0,0.51478 0.04981,0.60937 0.32617,0.60937 0.49617,0 7.06144,-4.76304 8.62891,-6.25976 0.51447,-0.49125 0.66015,-0.74215 0.66015,-1.14063 0,-0.4796 -0.03355,-0.50976 -0.54101,-0.50976 z m 1.3457,3.64062 c -0.31798,0.0238 -0.83618,0.25553 -1.64062,0.70117 -2.03668,1.12829 -4.50118,2.68812 -6.22461,3.94336 -1.36221,0.99214 -1.49223,1.13481 -1.70508,1.85156 -0.12676,0.42685 -0.23047,0.79702 -0.23047,0.82422 0,0.0272 0.19674,0.0508 0.43555,0.0508 0.40305,0 1.46473,-0.63172 6.81054,-4.04296 1.87277,-1.19504 2.99024,-2.23428 2.99024,-2.78321 0,-0.38539 -0.11757,-0.56874 -0.43555,-0.54492 z"
       id="path4938"
       inkscape:connector-curvature="0" />
    <g
       id="g5140"
       transform="translate(-245.53048,-71.45719)"
       style="fill:#d40000">
      <path
         id="path5046"
         d="m 399.18018,167.12295 c -0.43952,-0.43952 0.32154,-1.54158 1.90624,-2.76034 1.1679,-0.89821 4.13425,-2.71924 4.42947,-2.71924 0.30991,0 0.44386,0.36279 0.31845,0.86247 -0.17987,0.71666 -1.2824,1.69485 -3.62809,3.21891 -2.13236,1.38546 -2.75235,1.67192 -3.02607,1.3982 z"
         style="fill:#d40000"
         inkscape:connector-curvature="0" />
      <path
         id="path5024"
         d="m 401.66149,161.85007 c -0.72186,-0.72186 1.79944,-3.06615 6.43538,-5.98359 0.77934,-0.49045 1.50362,-0.89172 1.60952,-0.89172 0.10589,0 0.23804,0.18132 0.29367,0.40295 0.0753,0.30004 -0.003,0.5398 -0.30762,0.93885 -0.81525,1.06884 -3.89916,3.36995 -6.68811,4.99042 -1.20625,0.70087 -1.19116,0.69477 -1.34284,0.54309 z"
         style="fill:#d40000"
         inkscape:connector-curvature="0" />
    </g>
    <g
       style="fill:#d40000"
       transform="translate(-247.26531,-34.031714)"
       id="g4176">
      <path
         inkscape:connector-curvature="0"
         style="fill:#d40000"
         d="m 399.18018,167.12295 c -0.43952,-0.43952 0.32154,-1.54158 1.90624,-2.76034 1.1679,-0.89821 4.13425,-2.71924 4.42947,-2.71924 0.30991,0 0.44386,0.36279 0.31845,0.86247 -0.17987,0.71666 -1.2824,1.69485 -3.62809,3.21891 -2.13236,1.38546 -2.75235,1.67192 -3.02607,1.3982 z"
         id="path4178" />
      <path
         inkscape:connector-curvature="0"
         style="fill:#d40000"
         d="m 401.66149,161.85007 c -0.72186,-0.72186 1.79944,-3.06615 6.43538,-5.98359 0.77934,-0.49045 1.50362,-0.89172 1.60952,-0.89172 0.10589,0 0.23804,0.18132 0.29367,0.40295 0.0753,0.30004 -0.003,0.5398 -0.30762,0.93885 -0.81525,1.06884 -3.89916,3.36995 -6.68811,4.99042 -1.20625,0.70087 -1.19116,0.69477 -1.34284,0.54309 z"
         id="path4180" />
    </g>
    <text
       xml:space="preserve"
       style="font-style:normal;font-weight:normal;font-size:40px;line-height:125%;font-family:sans-serif;letter-spacing:0px;word-spacing:0px;fill:#000000;fill-opacity:1;stroke:none;stroke-width:1px;stroke-linecap:butt;stroke-linejoin:miter;stroke-opacity:1"
       x="11.405342"
       y="71.068459"
       id="text4278"
       sodipodi:linespacing="125%"><tspan
         sodipodi:role="line"
         id="tspan4280"
         x="11.405342"
         y="71.068459"
         style="font-style:normal;font-variant:normal;font-weight:normal;font-stretch:normal;font-size:15px;font-family:Lato;-inkscape-font-specification:Lato">With Iẓhār</tspan></text>
    <text
       sodipodi:linespacing="125%"
       id="text4282"
       y="72.362206"
       x="120.27346"
       style="font-style:normal;font-weight:normal;font-size:40px;line-height:125%;font-family:sans-serif;letter-spacing:0px;word-spacing:0px;fill:#000000;fill-opacity:1;stroke:none;stroke-width:1px;stroke-linecap:butt;stroke-linejoin:miter;stroke-opacity:1"
       xml:space="preserve"><tspan
         style="font-style:normal;font-variant:normal;font-weight:normal;font-stretch:normal;font-size:15px;font-family:Lato;-inkscape-font-specification:Lato"
         y="72.362206"
         x="120.27346"
         id="tspan4284"
         sodipodi:role="line">Without</tspan></text>
    <path
       inkscape:connector-curvature="0"
       style="font-style:normal;font-weight:normal;font-size:40px;line-height:125%;font-family:sans-serif;letter-spacing:0px;word-spacing:0px;fill:#000000;fill-opacity:1;stroke:none;stroke-width:1px;stroke-linecap:butt;stroke-linejoin:miter;stroke-opacity:1"
       d="m 145.51045,89.349616 c -0.0836,-0.0128 -0.17969,0.0703 -0.28711,0.24609 l -1.26953,2.07032 c -0.15625,0.26041 -0.19532,0.60546 -0.11719,1.03515 0.40365,2.20052 0.72266,4.16016 0.95703,5.87891 0.2474,1.705734 0.41016,3.945314 0.48828,6.718754 0.0781,2.76041 0.22136,5.50781 0.42969,8.24219 0.2474,3.24218 2.1224,4.86328 5.625,4.86328 0.0131,0 0.026,-0.0107 0.0391,-0.0137 1.5e-4,0.006 -1.5e-4,0.008 0,0.0137 0.82031,0.0781 1.73828,0.0781 2.75391,0 1.01562,-0.0781 3.50911,-0.78125 7.48047,-2.10938 1.40625,-0.46875 3.00781,-0.85937 4.80468,-1.17187 1.79688,-0.3125 3.41797,-0.38412 4.86328,-0.21485 0.23438,0.013 0.47527,-0.1888 0.72266,-0.60547 0.2474,-0.41666 0.61198,-1.15234 1.09375,-2.20703 0.11719,-0.26041 0.10417,-0.44922 -0.0391,-0.5664 -0.14323,-0.11719 -0.33203,-0.17578 -0.56641,-0.17578 -1.48437,0.026 -3.02734,-0.16276 -4.6289,-0.56641 -1.58854,-0.41667 -2.92969,-0.8724 -4.02344,-1.36719 -3.04688,-1.39323 -5.05208,-2.10937 -6.01563,-2.14844 -0.96354,-0.0391 -2.22005,0.91146 -3.76953,2.85157 -0.97656,1.22396 -1.82942,2.55208 -2.55859,3.98437 -0.0464,0.0971 -0.077,0.3564 -0.10156,0.69141 -0.0189,-0.002 -0.0351,-0.007 -0.0547,-0.008 -2.47396,-0.14323 -3.8086,-1.45183 -4.00391,-3.92579 -0.0911,-1.14583 -0.27344,-4.49869 -0.54687,-10.05859 -0.14323,-2.942714 -0.46224,-6.477864 -0.95703,-10.605474 -0.0732,-0.54525 -0.179,-0.8302 -0.31836,-0.85156 z m 12.58008,8.60547 c -0.0553,0.013 -0.10026,0.0456 -0.13282,0.0977 l -1.95312,2.910164 c -0.0651,0.0911 -0.0456,0.16927 0.0586,0.23438 1.67969,1.01562 2.61068,1.60156 2.79297,1.75781 0.19531,0.15625 0.33203,0.17578 0.41015,0.0586 l 1.91407,-3.027344 c 0.0781,-0.13021 0.0586,-0.2474 -0.0586,-0.35156 -0.83334,-0.74219 -1.77735,-1.29558 -2.83203,-1.66016 -0.0781,-0.026 -0.14388,-0.0326 -0.19922,-0.0195 z m -1.57813,13.183594 c 1.52344,0.026 3.11849,0.51432 4.78516,1.46485 0.18229,0.1302 0.2539,0.24088 0.21484,0.33203 -0.026,0.0781 -0.10417,0.13021 -0.23437,0.15625 l -1.71875,0.42968 c -3.42448,0.88542 -5.75521,1.28907 -6.99219,1.21094 0.41667,-1.15885 0.97005,-2.04427 1.66015,-2.65625 0.69011,-0.625 1.45183,-0.9375 2.28516,-0.9375 z"
       id="path5183" />
    <path
       style="fill:#d40000"
       d="m 132.41211,91.796875 c -0.14948,0.006 -0.30956,0.035 -0.48047,0.0859 -1.54451,0.46003 -3.277,3.74318 -2.62109,4.96875 0.0838,0.15664 0.50038,0.53877 0.92383,0.84961 0.42344,0.31084 0.81136,0.69968 0.86328,0.86328 0.14735,0.46425 -0.44917,1.13544 -2.4043,2.708985 -1.98442,1.59711 -3.36314,2.98588 -3.1582,3.17969 0.074,0.07 0.27472,0.16017 0.44531,0.20117 0.17059,0.041 0.36346,0.0838 0.42969,0.0937 0.0662,0.01 1.04681,-0.60246 2.17773,-1.35937 1.47645,-0.98816 2.33376,-1.68858 3.04102,-2.48633 1.30258,-1.469255 1.35375,-1.491465 2.36328,-1.021495 1.01709,0.473465 1.32774,0.482345 1.78711,0.0508 0.64728,-0.60809 0.49143,-1.16699 -0.63086,-2.2793 l -0.98828,-0.98047 -0.0703,-1.57422 c -0.1038,-2.2925 -0.63139,-3.34594 -1.67774,-3.3007 z m -6.39258,0.24023 c -0.36535,-0.0176 -0.72603,0.14703 -1.11914,0.49219 -0.73491,0.64525 -1.66784,2.55973 -1.75391,3.59766 l -0.0684,0.81054 1.0293,1.14844 1.03125,1.14844 -0.50976,0.5293 c -0.28031,0.291215 -1.34755,1.163215 -2.3711,1.937505 -2.30007,1.73996 -2.71484,2.11611 -2.71484,2.47265 0,0.22485 0.12495,0.28125 0.62305,0.28125 1.0235,0 3.78627,-1.4739 4.75976,-2.53906 0.43065,-0.4712 1.119,-1.14684 1.5293,-1.50195 0.68775,-0.595285 0.79713,-0.637895 1.40429,-0.554695 0.59599,0.0817 0.69663,0.0451 1.05665,-0.38281 0.54565,-0.64847 0.50106,-1.12051 -0.21094,-2.22071 -0.55701,-0.86071 -0.62197,-1.07362 -0.75781,-2.48437 -0.14768,-1.53359 -0.15305,-1.54683 -0.78125,-2.13281 -0.41154,-0.38388 -0.78114,-0.58399 -1.14649,-0.60157 z m 5.93164,2.30469 a 0.87283492,0.87283492 0 0 1 0.87305,0.87305 0.87283492,0.87283492 0 0 1 -0.87305,0.87305 0.87283492,0.87283492 0 0 1 -0.87304,-0.87305 0.87283492,0.87283492 0 0 1 0.87304,-0.87305 z m -6.29883,0.50977 a 0.87283492,0.87283492 0 0 1 0.87305,0.87109 0.87283492,0.87283492 0 0 1 -0.87305,0.87305 0.87283492,0.87283492 0 0 1 -0.87109,-0.87305 0.87283492,0.87283492 0 0 1 0.87109,-0.87109 z"
       id="path5216"
       inkscape:connector-curvature="0" />
    <path
       inkscape:connector-curvature="0"
       id="path5185"
       d="m 136.26144,104.77958 c -0.11719,-0.0163 -0.19532,0.0579 -0.23438,0.2207 l -0.97656,4.00391 c -0.026,0.0781 0,0.17578 0.0781,0.29296 1.69271,2.09636 2.73438,3.84766 3.125,5.25391 0.0521,0.22135 0.026,0.42969 -0.0781,0.625 -1.14584,2.1875 -2.99479,4.10807 -5.54688,5.76172 -1.71875,1.10677 -3.24218,1.74479 -4.57031,1.91406 -1.32812,0.16927 -2.90365,-0.026 -4.72656,-0.58594 -0.13021,-0.0391 -0.24089,-0.0195 -0.33203,0.0586 -0.0911,0.0781 -0.13672,0.16927 -0.13672,0.27344 0,0.10417 0.0521,0.1888 0.15625,0.25391 0.75521,0.46875 2.69531,1.23047 5.82031,2.28515 0.59896,0.20834 1.23698,0.22136 1.91406,0.0391 2.5,-0.65104 4.52474,-1.97265 6.07422,-3.96484 1.54948,-1.97917 2.48047,-4.1276 2.79297,-6.44531 0.15625,-1.79688 -0.026,-3.58724 -0.54687,-5.3711 -0.52084,-1.79687 -1.30209,-3.22916 -2.34375,-4.29687 -0.19532,-0.19531 -0.35157,-0.30208 -0.46875,-0.31836 z"
       style="font-style:normal;font-weight:normal;font-size:40px;line-height:125%;font-family:sans-serif;letter-spacing:0px;word-spacing:0px;fill:#000000;fill-opacity:1;stroke:none;stroke-width:1px;stroke-linecap:butt;stroke-linejoin:miter;stroke-opacity:1" />
    <path
       style="font-style:normal;font-weight:normal;font-size:40px;line-height:125%;font-family:sans-serif;letter-spacing:0px;word-spacing:0px;fill:#000000;fill-opacity:1;stroke:none;stroke-width:1px;stroke-linecap:butt;stroke-linejoin:miter;stroke-opacity:1"
       d="m 33.88644,104.77958 c -0.11719,-0.0163 -0.19532,0.0579 -0.23438,0.2207 l -0.97656,4.00391 c -0.026,0.0781 0,0.17578 0.0781,0.29296 1.69271,2.09636 2.73438,3.84766 3.125,5.25391 0.0521,0.22135 0.026,0.42969 -0.0781,0.625 -1.14584,2.1875 -2.99479,4.10807 -5.54688,5.76172 -1.71875,1.10677 -3.24218,1.74479 -4.57031,1.91406 -1.32812,0.16927 -2.90365,-0.026 -4.72656,-0.58594 -0.13021,-0.0391 -0.24089,-0.0195 -0.33203,0.0586 -0.0911,0.0781 -0.13672,0.16927 -0.13672,0.27344 0,0.10417 0.0521,0.1888 0.15625,0.25391 0.75521,0.46875 2.69531,1.23047 5.82031,2.28515 0.59896,0.20834 1.23698,0.22136 1.91406,0.0391 2.5,-0.65104 4.52474,-1.97265 6.07422,-3.96484 1.54948,-1.97917 2.48047,-4.1276 2.79297,-6.44531 0.15625,-1.79688 -0.026,-3.58724 -0.54687,-5.3711 -0.52084,-1.79687 -1.30209,-3.22916 -2.34375,-4.29687 -0.19532,-0.19531 -0.35157,-0.30208 -0.46875,-0.31836 z"
       id="path5204"
       inkscape:connector-curvature="0" />
    <path
       style="fill:#d40000"
       d="M 19.212891 26.951172 C 16.933481 26.900392 14.430259 29.511058 13.037109 33.580078 C 12.164389 36.129008 12.179358 38.099512 13.080078 39.169922 C 13.660308 39.859492 14.074053 39.788837 14.845703 38.867188 C 15.202763 38.440718 15.584859 38.091797 15.693359 38.091797 C 16.023129 38.091797 16.707031 38.714805 16.707031 39.015625 C 16.707031 39.187935 15.680865 40.192751 14.078125 41.587891 C 12.632335 42.846411 11.409628 43.977526 11.361328 44.103516 C 11.313028 44.229496 11.354372 44.429745 11.451172 44.546875 C 11.751322 44.908535 12.689674 44.793219 13.527344 44.292969 C 13.953814 44.038289 15.280479 43.132797 16.474609 42.279297 C 17.668739 41.425787 18.804287 40.683059 18.998047 40.630859 C 19.204267 40.575259 19.654754 40.667463 20.083984 40.851562 C 21.295884 41.371382 22.134766 40.968539 22.134766 39.867188 C 22.134766 39.507447 21.922506 39.139366 21.291016 38.410156 C 20.316246 37.284556 20.193052 36.897172 20.419922 35.669922 C 20.740742 33.934432 20.585536 33.138876 19.785156 32.410156 C 19.168936 31.849106 18.785914 31.821034 17.865234 32.271484 C 16.822064 32.781854 16.118744 33.589236 15.271484 35.253906 C 14.620494 36.532956 14.610347 36.544397 14.341797 36.216797 C 13.596487 35.307617 14.453624 33.088672 16.302734 31.138672 C 17.533614 29.840642 18.561431 29.582271 19.744141 30.275391 C 20.217481 30.552801 20.553776 30.649884 20.816406 30.583984 C 21.286686 30.465954 21.706063 29.697246 21.726562 28.916016 C 21.745463 28.194286 21.149285 27.513905 20.171875 27.140625 C 19.859245 27.021235 19.538521 26.958422 19.212891 26.951172 z M 18.097656 34.40625 A 1.2153398 1.2153398 0 0 1 19.3125 35.621094 A 1.2153398 1.2153398 0 0 1 18.097656 36.835938 A 1.2153398 1.2153398 0 0 1 16.882812 35.621094 A 1.2153398 1.2153398 0 0 1 18.097656 34.40625 z "
       transform="translate(11.637842,60.020959)"
       id="path5231" />
  </g>
</svg>
