<?xml version="1.0" encoding="UTF-8" standalone="no"?>
<svg
   xmlns:dc="http://purl.org/dc/elements/1.1/"
   xmlns:cc="http://creativecommons.org/ns#"
   xmlns:rdf="http://www.w3.org/1999/02/22-rdf-syntax-ns#"
   xmlns:svg="http://www.w3.org/2000/svg"
   xmlns="http://www.w3.org/2000/svg"
   version="1.1"
   id="svg2"
   viewBox="0 0 367.89063 55.000001"
   height="15.522223mm"
   width="103.82691mm">
  <defs
     id="defs4" />
  <metadata
     id="metadata7">
    <rdf:RDF>
      <cc:Work
         rdf:about="">
        <dc:format>image/svg+xml</dc:format>
        <dc:type
           rdf:resource="http://purl.org/dc/dcmitype/StillImage" />
        <dc:title></dc:title>
      </cc:Work>
    </rdf:RDF>
  </metadata>
  <g
     transform="translate(-80.43303,-96.082327)"
     id="layer1">
    <g
       id="flowRoot3710"
       style="font-style:normal;font-weight:normal;font-size:40px;line-height:125%;font-family:sans-serif;letter-spacing:0px;word-spacing:0px;fill:#000000;fill-opacity:1;stroke:none;stroke-width:1px;stroke-linecap:butt;stroke-linejoin:miter;stroke-opacity:1"
       transform="translate(-119.28572,-87.142863)">
      <path
         id="path3712"
         style="font-style:normal;font-variant:normal;font-weight:normal;font-stretch:normal;font-family:'Noto Kufi Arabic';-inkscape-font-specification:'Noto Kufi Arabic'"
         d="m 558.48828,225.43222 q -0.19531,0 -0.19531,-0.19531 l 0,-2.77344 q 0,-0.15625 0.19531,-0.15625 l 5.27344,0 0,-16.26953 3.55469,0 0,19.39453 -8.82813,0 z m 6.875,8.00781 q -1.03516,0 -1.64062,-0.625 -0.60547,-0.625 -0.60547,-1.77734 0,-1.15234 0.58593,-1.77734 0.60547,-0.625 1.66016,-0.625 1.07422,0 1.66016,0.64453 0.58593,0.66406 0.58593,1.75781 0,1.09375 -0.58593,1.73828 -0.58594,0.66406 -1.66016,0.66406 z" />
      <path
         id="path3714"
         style="font-style:normal;font-variant:normal;font-weight:normal;font-stretch:normal;font-family:'Noto Kufi Arabic';-inkscape-font-specification:'Noto Kufi Arabic'"
         d="m 547.6875,225.43222 q -1.79688,0 -3.32031,-0.58594 -1.50391,-0.60546 -3.125,-2.20703 -0.87891,1.23047 -2.34375,2.01172 -1.46485,0.78125 -3.4961,0.78125 l -13.78906,0 q -0.19531,0 -0.19531,-0.19531 l 0,-2.77344 q 0,-0.15625 0.19531,-0.15625 l 5.72266,0 0,-13.16406 3.39843,0 0,13.16406 4.31641,0 q 1.93359,0 3.00781,-1.26953 1.07422,-1.28906 1.07422,-3.35937 l 0,-8.53516 3.39844,0 0,9.60937 -0.0391,0.44922 q 0.99609,1.71875 2.16797,2.42188 1.1914,0.68359 3.02734,0.68359 l 2.44141,0 0,-16.26953 3.39843,0 0,16.26953 5.35157,0 q 0.21484,0 0.21484,0.15625 l 0,2.77344 q 0,0.19531 -0.21484,0.19531 l -11.19141,0 z" />
      <path
         id="path3716"
         style="font-style:normal;font-variant:normal;font-weight:normal;font-stretch:normal;font-family:'Noto Kufi Arabic';-inkscape-font-specification:'Noto Kufi Arabic'"
         d="m 503.35156,225.43222 q -2.85156,0 -2.85156,2.92969 l 0,9.86328 -3.35938,0 0,-10.46875 q 0,-1.73828 0.64454,-2.94922 0.64453,-1.21094 1.73828,-1.85547 1.11328,-0.64453 2.5,-0.64453 l 0.27343,0 q -1.46484,-3.80859 -1.46484,-6.83594 0,-3.55468 1.42578,-6.36718 1.48438,-1.23047 3.37891,-1.95313 1.89453,-0.72265 3.94531,-0.72265 2.5,0 4.39453,1.11328 1.89453,1.09375 2.91016,3.125 1.01562,2.03125 1.01562,4.60937 0,2.5586 -0.83984,4.70703 0.87891,1.34766 1.95312,1.83594 1.07422,0.48828 2.77344,0.48828 l 0.19531,0 q 0.19532,0 0.19532,0.15625 l 0,2.77344 q 0,0.19531 -0.19532,0.19531 l -0.19531,0 q -2.1289,0 -3.63281,-0.58594 -1.50391,-0.58593 -2.89063,-2.01171 -1.26953,1.32812 -2.96875,1.97265 -1.67968,0.625 -3.51562,0.625 l -5.42969,0 z m 1.07422,-10.64453 q 0,1.85547 0.3125,3.65234 0.33203,1.77735 1.21094,3.86719 l 2.83203,0 q 2.67578,0 4.10156,-1.8164 1.42578,-1.81641 1.42578,-5.25391 0,-2.51953 -1.38672,-4.12109 -1.36718,-1.60157 -3.33984,-1.60157 -2.51953,0 -4.6875,1.64063 -0.33203,0.83984 -0.41016,1.71875 -0.0586,0.85937 -0.0586,1.91406 z" />
      <path
         id="path3718"
         style="font-style:normal;font-variant:normal;font-weight:normal;font-stretch:normal;font-family:'Noto Kufi Arabic';-inkscape-font-specification:'Noto Kufi Arabic'"
         d="m 430.96875,225.43222 q -4.80469,0 -7.48047,-2.42187 -2.67578,-2.44141 -2.67578,-6.81641 0,-4.72656 2.96875,-7.44141 2.96875,-2.71484 7.98828,-2.71484 l 2.63672,0 0,-2.51953 3.41797,0 0,18.78906 9.43359,0 0,-21.26953 3.55469,0 0,21.26953 10.07812,0 0,-21.26953 3.55469,0 0,24.39453 -33.47656,0 z m 3.4375,-3.125 0,-13.16406 -2.51953,0 q -3.59375,0 -5.56641,1.85547 -1.95312,1.83594 -1.95312,5.15625 0,2.98828 1.69922,4.57031 1.69921,1.58203 4.82421,1.58203 l 3.51563,0 z m 39.00391,-27.26562 3.57421,0 0,30.39062 -3.57421,0 0,-30.39062 z m -27.98829,4.23828 q -1.5625,0 -2.42187,-0.9961 -0.85938,-0.99609 -0.85938,-2.89062 l 0,-2.51953 2.07032,0 0,2.16797 q 0,1.07422 0.3125,1.64062 0.33203,0.54688 1.28906,0.54688 1.75781,0 1.75781,-1.83594 l 0,-3.51563 1.875,0 0,2.71485 q 0,1.05469 0.3711,1.44531 0.37109,0.39063 1.15234,0.39063 1.09375,0 1.46484,-0.50782 0.39063,-0.50781 0.39063,-1.67968 l 0,-2.96875 2.07031,0 0,3.32031 q 0,1.875 -0.87891,2.89062 -0.8789,0.9961 -2.55859,0.9961 -1.83594,0 -2.79297,-1.21094 -0.95703,2.01172 -3.24219,2.01172 z m 1.95313,-16.05469 2.28516,0 0,6.60156 -2.28516,0 0,-6.60156 z" />
      <path
         id="path3720"
         style="font-style:normal;font-variant:normal;font-weight:normal;font-stretch:normal;font-family:'Noto Kufi Arabic';-inkscape-font-specification:'Noto Kufi Arabic'"
         d="m 397.0625,195.0416 3.55469,0 0,30.39062 -3.55469,0 0,-30.39062 z" />
      <path
         id="path3722"
         style="font-style:normal;font-variant:normal;font-weight:normal;font-stretch:normal;font-family:'Noto Kufi Arabic';-inkscape-font-specification:'Noto Kufi Arabic'"
         d="m 380.20703,225.43222 q -0.19531,0 -0.19531,-0.19531 l 0,-2.77344 q 0,-0.15625 0.19531,-0.15625 l 5.27344,0 0,-27.26562 3.55469,0 0,30.39062 -8.82813,0 z" />
      <path
         id="path3724"
         style="font-style:normal;font-variant:normal;font-weight:normal;font-stretch:normal;font-family:'Noto Kufi Arabic';-inkscape-font-specification:'Noto Kufi Arabic'"
         d="m 375.63672,225.43222 0,0.95703 q 0,4.04297 -1.83594,6.34766 -1.83594,2.30469 -5.29297,2.30469 -1.91406,0 -4.08203,-1.13282 l 1.03516,-2.67578 q 0.97656,0.42969 1.60156,0.54688 0.625,0.13672 1.36719,0.13672 1.79687,0 2.8125,-1.46485 1.01562,-1.46484 1.01562,-3.86718 l 0,-20.54688 3.37891,0 0,16.26953 4.9414,0 q 0.21485,0 0.21485,0.15625 l 0,2.77344 q 0,0.19531 -0.21485,0.19531 l -4.9414,0 z" />
      <path
         id="path3726"
         style="font-style:normal;font-variant:normal;font-weight:normal;font-stretch:normal;font-family:'Noto Kufi Arabic';-inkscape-font-specification:'Noto Kufi Arabic'"
         d="m 342.86328,225.43222 q -0.19531,0 -0.19531,-0.19531 l 0,-2.77344 q 0,-0.15625 0.19531,-0.15625 l 4.96094,0 q -1.48438,-3.86719 -1.48438,-6.83594 0,-3.57421 1.44532,-6.36718 1.46484,-1.23047 3.35937,-1.95313 1.89453,-0.72265 3.94531,-0.72265 2.5,0 4.39453,1.11328 1.89454,1.09375 2.91016,3.125 1.01563,2.03125 1.01563,4.60937 0,3.14453 -1.15235,5.42969 -1.13281,2.28516 -3.22265,3.51562 -2.07032,1.21094 -4.7461,1.21094 l -11.42578,0 z m 7.07031,-10.64453 q 0,1.85547 0.33203,3.65234 0.33204,1.77735 1.19141,3.86719 l 2.83203,0 q 2.67578,0 4.10156,-1.8164 1.42579,-1.81641 1.42579,-5.25391 0,-2.51953 -1.38672,-4.12109 -1.36719,-1.60157 -3.33985,-1.60157 -1.26953,0 -2.5,0.44922 -1.21093,0.44922 -2.16797,1.19141 -0.33203,0.83984 -0.41015,1.71875 -0.0781,0.85937 -0.0781,1.91406 z" />
      <path
         id="path3728"
         style="font-style:normal;font-variant:normal;font-weight:normal;font-stretch:normal;font-family:'Noto Kufi Arabic';-inkscape-font-specification:'Noto Kufi Arabic'"
         d="m 338.87891,225.43222 q -0.0586,4.7461 -2.46094,7.16797 -2.40235,2.44141 -7.5,2.44141 l -2.8711,0 q -3.75,0 -5.89843,-2.59766 Q 318,229.84628 318,225.39316 q 0,-4.78516 1.64062,-8.84766 l 3.32032,0 q -1.36719,3.45703 -1.36719,8.61328 0,3.24219 1.34766,5 1.34765,1.75782 3.86718,1.75782 l 1.95313,0 q 3.47656,0 5.09765,-1.58203 1.6211,-1.58204 1.6211,-4.82422 l 0,-19.47266 3.39844,0 0,16.26953 4.39453,0 q 0.21484,0 0.21484,0.15625 l 0,2.77344 q 0,0.19531 -0.21484,0.19531 l -4.39453,0 z m -10.35157,-19.41406 q -1.03515,0 -1.64062,-0.625 -0.60547,-0.625 -0.60547,-1.77734 0,-1.15235 0.58594,-1.77735 0.60547,-0.625 1.66015,-0.625 1.07422,0 1.66016,0.66406 0.58594,0.64454 0.58594,1.73829 0,1.09375 -0.58594,1.75781 -0.58594,0.64453 -1.66016,0.64453 z" />
      <path
         id="path3730"
         style="font-style:normal;font-variant:normal;font-weight:normal;font-stretch:normal;font-family:'Noto Kufi Arabic';-inkscape-font-specification:'Noto Kufi Arabic'"
         d="m 294.25,195.0416 3.55469,0 0,30.39062 -3.55469,0 0,-30.39062 z" />
      <path
         id="path3732"
         style="font-style:normal;font-variant:normal;font-weight:normal;font-stretch:normal;font-family:'Noto Kufi Arabic';-inkscape-font-specification:'Noto Kufi Arabic'"
         d="m 277.39453,225.43222 q -0.19531,0 -0.19531,-0.19531 l 0,-2.77344 q 0,-0.15625 0.19531,-0.15625 l 5.27344,0 0,-27.26562 3.55469,0 0,30.39062 -8.82813,0 z" />
      <path
         id="path3734"
         style="font-style:normal;font-variant:normal;font-weight:normal;font-stretch:normal;font-family:'Noto Kufi Arabic';-inkscape-font-specification:'Noto Kufi Arabic'"
         d="m 272.82422,225.43222 0,0.95703 q 0,4.04297 -1.83594,6.34766 -1.83594,2.30469 -5.29297,2.30469 -1.91406,0 -4.08203,-1.13282 l 1.03516,-2.67578 q 0.97656,0.42969 1.60156,0.54688 0.625,0.13672 1.36719,0.13672 1.79687,0 2.8125,-1.46485 1.01562,-1.46484 1.01562,-3.86718 l 0,-20.54688 3.37891,0 0,16.26953 4.9414,0 q 0.21485,0 0.21485,0.15625 l 0,2.77344 q 0,0.19531 -0.21485,0.19531 l -4.9414,0 z" />
      <path
         id="path3736"
         style="font-style:normal;font-variant:normal;font-weight:normal;font-stretch:normal;font-family:'Noto Kufi Arabic';-inkscape-font-specification:'Noto Kufi Arabic'"
         d="m 239.81641,225.43222 q -0.19532,0 -0.19532,-0.19531 l 0,-2.77344 q 0,-0.15625 0.19532,-0.15625 l 17.14843,0 q -1.46484,-1.46484 -2.51953,-7.32422 -0.58594,-3.45703 -1.69922,-4.84375 -1.11328,-1.38672 -3.33984,-1.38672 -2.77344,0 -5.80078,1.60157 l -1.38672,-2.75391 q 1.71875,-1.11328 3.45703,-1.54297 1.75781,-0.42969 3.76953,-0.42969 2.44141,0 4.08203,0.87891 1.64063,0.87891 2.59766,2.61719 0.97656,1.71875 1.48437,4.9414 0.58594,3.57422 1.3086,5.52735 0.74219,1.93359 1.69922,2.79297 l 0,3.04687 -20.80078,0 z" />
      <path
         id="path3738"
         style="font-style:normal;font-variant:normal;font-weight:normal;font-stretch:normal;font-family:'Noto Kufi Arabic';-inkscape-font-specification:'Noto Kufi Arabic'"
         d="m 224.19141,225.43222 q -0.19532,0 -0.19532,-0.19531 l 0,-2.77344 q 0,-0.15625 0.19532,-0.15625 l 6.48437,0 0,-16.26953 3.55469,0 0,16.26953 5.99609,0 q 0.19531,0 0.19531,0.15625 l 0,2.77344 q 0,0.19531 -0.19531,0.19531 l -16.03515,0 z m 4.92187,8.00781 q -0.9375,0 -1.60156,-0.5664 -0.64453,-0.56641 -0.64453,-1.83594 0,-1.26953 0.64453,-1.83594 0.66406,-0.5664 1.60156,-0.5664 1.01563,0 1.62109,0.60547 0.60547,0.625 0.60547,1.79687 0,1.15234 -0.60547,1.77734 -0.58593,0.625 -1.62109,0.625 z m 6.91406,0 q -1.03515,0 -1.64062,-0.625 -0.60547,-0.625 -0.60547,-1.77734 0,-1.15234 0.58594,-1.77734 0.60547,-0.625 1.66015,-0.625 1.07422,0 1.66016,0.64453 0.58594,0.66406 0.58594,1.75781 0,1.09375 -0.58594,1.73828 -0.58594,0.66406 -1.66016,0.66406 z" />
      <path
         id="path3740"
         style="font-style:normal;font-variant:normal;font-weight:normal;font-stretch:normal;font-family:'Noto Kufi Arabic';-inkscape-font-specification:'Noto Kufi Arabic'"
         d="m 205.92969,225.43222 q -2.85157,0 -2.85157,2.92969 l 0,9.86328 -3.35937,0 0,-10.46875 q 0,-1.73828 0.64453,-2.94922 0.64453,-1.21094 1.73828,-1.85547 1.11328,-0.64453 2.5,-0.64453 l 0.27344,0 q -1.46484,-3.80859 -1.46484,-6.83594 0,-3.55468 1.42578,-6.36718 1.48437,-1.23047 3.3789,-1.95313 1.89453,-0.72265 3.94532,-0.72265 2.5,0 4.39453,1.11328 1.89453,1.09375 2.91015,3.125 1.01563,2.03125 1.01563,4.60937 0,2.5586 -0.83985,4.70703 0.87891,1.34766 1.95313,1.83594 1.07422,0.48828 2.77344,0.48828 l 0.19531,0 q 0.19531,0 0.19531,0.15625 l 0,2.77344 q 0,0.19531 -0.19531,0.19531 l -0.19531,0 q -2.12891,0 -3.63282,-0.58594 -1.5039,-0.58593 -2.89062,-2.01171 -1.26953,1.32812 -2.96875,1.97265 -1.67969,0.625 -3.51563,0.625 l -5.42968,0 z m 1.07422,-10.64453 q 0,1.85547 0.3125,3.65234 0.33203,1.77735 1.21093,3.86719 l 2.83203,0 q 2.67579,0 4.10157,-1.8164 1.42578,-1.81641 1.42578,-5.25391 0,-2.51953 -1.38672,-4.12109 -1.36719,-1.60157 -3.33984,-1.60157 -2.51954,0 -4.6875,1.64063 -0.33204,0.83984 -0.41016,1.71875 -0.0586,0.85937 -0.0586,1.91406 z" />
    </g>
  </g>
</svg>
