<?xml version="1.0" encoding="UTF-8" standalone="no"?>
<!-- Created with Inkscape (http://www.inkscape.org/) -->

<svg
   xmlns:dc="http://purl.org/dc/elements/1.1/"
   xmlns:cc="http://creativecommons.org/ns#"
   xmlns:rdf="http://www.w3.org/1999/02/22-rdf-syntax-ns#"
   xmlns:svg="http://www.w3.org/2000/svg"
   xmlns="http://www.w3.org/2000/svg"
   xmlns:sodipodi="http://sodipodi.sourceforge.net/DTD/sodipodi-0.dtd"
   xmlns:inkscape="http://www.inkscape.org/namespaces/inkscape"
   width="14.88834mm"
   height="14.265235mm"
   viewBox="0 0 52.753961 50.546108"
   id="svg4754"
   version="1.1"
   inkscape:version="0.91 r13725"
   sodipodi:docname="khalid-logo.svg">
  <defs
     id="defs4756" />
  <sodipodi:namedview
     id="base"
     pagecolor="#ffffff"
     bordercolor="#666666"
     borderopacity="1.0"
     inkscape:pageopacity="0.0"
     inkscape:pageshadow="2"
     inkscape:zoom="3.959798"
     inkscape:cx="29.945048"
     inkscape:cy="23.504315"
     inkscape:document-units="px"
     inkscape:current-layer="text4762"
     showgrid="false"
     inkscape:window-width="1920"
     inkscape:window-height="1001"
     inkscape:window-x="-9"
     inkscape:window-y="-9"
     inkscape:window-maximized="1"
     fit-margin-top="0"
     fit-margin-left="0"
     fit-margin-right="0"
     fit-margin-bottom="0" />
  <metadata
     id="metadata4759">
    <rdf:RDF>
      <cc:Work
         rdf:about="">
        <dc:format>image/svg+xml</dc:format>
        <dc:type
           rdf:resource="http://purl.org/dc/dcmitype/StillImage" />
        <dc:title></dc:title>
      </cc:Work>
    </rdf:RDF>
  </metadata>
  <g
     inkscape:label="Layer 1"
     inkscape:groupmode="layer"
     id="layer1"
     transform="translate(-167.1875,-295.12244)">
    <g
       style="font-style:normal;font-weight:normal;font-size:40px;line-height:125%;font-family:sans-serif;letter-spacing:0px;word-spacing:0px;fill:#000000;fill-opacity:1;stroke:none;stroke-width:1px;stroke-linecap:butt;stroke-linejoin:miter;stroke-opacity:1"
       id="text4762">
      <path
         d="m 207.16797,321.80136 q 0.19531,-0.25391 0.50781,-0.78125 0.3125,-0.54687 0.64453,-1.15234 0.33203,-0.60547 0.64453,-1.15235 0.3125,-0.5664 0.48828,-0.85937 0.17579,0.19531 0.41016,0.27344 0.25391,0.0781 0.50781,0.0781 1.05469,0 2.01172,-0.58594 0.97656,-0.60547 1.77735,-1.42578 0.82031,-0.82031 1.46484,-1.66015 0.64453,-0.85938 1.05469,-1.36719 -0.11719,0 -0.23438,0 -0.0977,-0.0195 -0.3125,-0.0586 -0.19531,-0.0586 -0.54687,-0.15625 -0.33203,-0.11718 -0.91797,-0.3125 -0.625,-0.21484 -1.36719,-0.48828 -0.74219,-0.27343 -1.50391,-0.27343 -0.70312,0 -1.32812,0.33203 -0.41016,0.21484 -0.60547,0.46875 -0.19531,0.2539 -0.46875,0.64453 -0.23437,0.37109 -0.35156,0.37109 -0.13672,0 -0.13672,-0.29297 0,-0.17578 0.0586,-0.39062 0.52735,-1.48438 1.28907,-2.36328 0.76171,-0.87891 1.60156,-1.23047 0.70312,-0.27344 1.30859,-0.27344 0.60547,0 1.13281,0.19531 0.54688,0.17578 1.09375,0.41016 0.54688,0.23437 1.11329,0.42969 0.5664,0.17578 1.21093,0.17578 0.25391,0 0.46875,-0.0586 0.23438,-0.0781 0.42969,-0.15625 0.21484,-0.0977 0.42969,-0.17578 0.21484,-0.0781 0.48828,-0.0781 0.23437,0 0.3125,0.0977 0.0977,0.0781 0.0977,0.23438 0,0.21484 -0.0781,0.39062 -0.58594,1.07422 -1.23047,2.07032 -0.64453,0.97656 -1.32812,1.97265 -0.66407,0.97657 -1.42578,1.9336 -0.76172,0.9375 -1.6211,1.75781 -0.85937,0.82031 -1.85547,1.44531 -0.97656,0.625 -2.10937,0.95703 -0.11719,0.0586 -0.60547,0.21485 -0.48828,0.15625 -1.03516,0.33203 -0.54687,0.17578 -0.99609,0.33203 -0.44922,0.13672 -0.48828,0.17578 z"
         style="font-style:normal;font-variant:normal;font-weight:normal;font-stretch:normal;font-family:'Urdu Typesetting';-inkscape-font-specification:'Urdu Typesetting'"
         id="path4782"
         inkscape:connector-curvature="0" />
      <path
         d="m 191.19141,324.78964 q 0.15625,-0.83984 0.15625,-1.40625 0.0195,-0.35156 0.0391,-0.80078 0.0195,-0.44922 0.0781,-0.91797 0.0391,-0.46875 0.13672,-0.91797 0.0977,-0.44922 0.27344,-0.80078 0.39062,-0.82031 0.80078,-1.62109 0.41016,-0.80078 0.83984,-1.6211 0.0586,-0.15625 0.17579,-0.15625 0.0391,0.0391 0.0391,0.23438 0,0.52734 -0.0391,0.97656 -0.0195,0.42969 -0.0586,0.85938 -0.0195,0.11718 -0.0195,0.29297 0,0.15625 0,0.35156 0,0.44922 0.0391,0.91797 0.0391,0.44922 0.15625,0.70312 0.33203,0.9375 0.9961,1.32813 0.66406,0.37109 1.66015,0.37109 0.78125,0 1.48438,-0.21484 0.72265,-0.23438 1.38672,-0.58594 0.66406,-0.37109 1.26953,-0.83984 0.625,-0.46875 1.1914,-0.95704 0.39063,-0.21484 0.80079,-0.21484 0.44921,0 0.8789,0.13672 0.44922,0.13672 0.89844,0.13672 0.46875,0 0.74219,-0.42969 0.27343,-0.42969 0.46875,-0.9375 0.21484,-0.52734 0.37109,-0.95703 0.17578,-0.42969 0.44922,-0.42969 0.11719,0 0.15625,0.13672 0.0391,0.13672 0.0391,0.33203 0,0.29297 -0.0586,0.625 -0.0391,0.33203 -0.0391,0.42969 0,0.0977 0.11718,0.11719 0.13672,0.0195 0.23438,0.0195 l 0.0391,0 q 0.21484,0 0.46875,-0.0781 0.27344,-0.0781 0.52734,-0.19531 0.27344,-0.13672 0.48829,-0.29297 0.23437,-0.15625 0.37109,-0.3125 0.0781,-0.0977 0.15625,-0.35156 0.0781,-0.27344 0.15625,-0.54688 0.0977,-0.27343 0.21484,-0.48828 0.13672,-0.21484 0.3125,-0.21484 0.11719,0 0.15625,0.11719 0.0391,0.11718 0.0391,0.21484 l -0.13672,1.54297 0.0977,2.5 q -0.50781,0.21484 -0.85937,0.39062 -0.35156,0.17579 -0.76172,0.39063 -0.72266,0.33203 -1.69922,0.87891 -0.95703,0.54687 -2.07031,1.03515 -0.21485,0.0977 -0.42969,0.15625 -0.19531,0.0586 -0.42969,0.0586 -0.37109,0 -0.83984,-0.13672 -0.44922,-0.13672 -0.89844,-0.13672 -0.23437,0 -0.44922,0.0781 -0.19531,0.0586 -0.37109,0.23438 l -1.64063,1.62109 q -0.72265,0.72266 -1.73828,1.23047 -0.99609,0.50781 -2.05078,0.50781 -0.37109,0 -0.68359,-0.0586 -0.87891,-0.17578 -1.50391,-0.70313 -0.60547,-0.54687 -1.01562,-1.26953 l -1.11328,-0.33203 z"
         style="font-style:normal;font-variant:normal;font-weight:normal;font-stretch:normal;font-family:'Urdu Typesetting';-inkscape-font-specification:'Urdu Typesetting'"
         id="path4784"
         inkscape:connector-curvature="0" />
      <path
         d="m 188.125,325.08261 q 0.87891,0 1.71875,-0.25391 0.83984,-0.2539 1.50391,-0.82031 0.21484,-0.17578 0.37109,-0.41015 0.15625,-0.23438 0.3125,-0.48829 0.0977,-0.21484 0.21484,-0.46875 0.13672,-0.2539 0.42969,-0.2539 0.19531,0 0.25391,0.15625 0.0781,0.13672 0.0781,0.29297 0,0.2539 -0.0781,0.48828 -0.0586,0.21484 -0.13672,0.42969 -0.39063,1.05468 -1.05469,2.05078 -0.64453,0.99609 -1.52344,1.79687 -0.8789,0.78125 -1.95312,1.28906 -1.07422,0.48829 -2.26563,0.52735 l -0.17578,0 q -0.0781,-0.27344 -0.0781,-0.54688 -0.0195,-0.29297 -0.0195,-0.58593 0,-0.41016 0.0195,-1.07422 0.0195,-0.6836 0.0391,-1.3086 0.0391,-0.64453 0.0781,-1.09375 0.0391,-0.46875 0.0977,-0.46875 0.48828,0.39063 0.95703,0.56641 0.46875,0.17578 1.21094,0.17578 z"
         style="font-style:normal;font-variant:normal;font-weight:normal;font-stretch:normal;font-family:'Urdu Typesetting';-inkscape-font-specification:'Urdu Typesetting'"
         id="path4786"
         inkscape:connector-curvature="0" />
      <path
         d="m 184.39453,342.71933 q 0.58594,-0.74219 1.25,-1.52344 0.64453,-0.78125 1.15234,-1.38672 0.0977,-0.0976 0.15625,-0.0976 0.0781,0 0.27344,0.13672 0.50781,0.35156 1.17188,0.85937 0.64453,0.48828 1.21093,0.91797 0.56641,-0.68359 1.15235,-1.40625 0.58594,-0.72266 1.07422,-1.28906 0.0977,-0.0977 0.15625,-0.0977 0.0781,0 0.27343,0.13672 0.50782,0.35156 1.15235,0.83984 0.66406,0.46875 1.23047,0.89844 0.0977,0.0977 0.17578,0.15625 0.0781,0.0586 0.0781,0.13672 0,0.0586 -0.11718,0.21484 l -2.36329,2.85157 q -0.0391,0.0586 -0.11718,0.11718 -0.0586,0.0781 -0.0977,0.0781 -0.0781,0 -0.23437,-0.0977 -0.54688,-0.37109 -1.21094,-0.8789 -0.64453,-0.48829 -1.21094,-0.9961 l -2.20703,2.65625 q -0.0391,0.0586 -0.0977,0.11719 -0.0781,0.0781 -0.11718,0.0781 -0.0781,0 -0.23438,-0.0977 -0.54687,-0.3711 -1.19141,-0.89844 -0.66406,-0.50781 -1.23046,-1.01562 -0.19532,-0.15625 -0.19532,-0.23438 0,-0.0391 0.0391,-0.0977 0.0391,-0.0391 0.0781,-0.0781 z"
         style="font-style:normal;font-variant:normal;font-weight:normal;font-stretch:normal;font-family:'Urdu Typesetting';-inkscape-font-specification:'Urdu Typesetting';fill:#d40000"
         id="path4788"
         inkscape:connector-curvature="0" />
      <path
         d="m 186.67969,327.48495 q -0.0391,1.66016 -0.25391,3.24219 -0.19531,1.5625 -0.625,3.14453 -0.39062,1.46485 -0.95703,2.8125 -0.56641,1.34766 -1.30859,2.53907 -0.74219,1.17187 -1.79688,2.32421 -1.03516,1.15235 -2.30469,2.07032 -1.25,0.91797 -2.69531,1.48437 -1.42578,0.56641 -2.94922,0.56641 -1.09375,0 -2.03125,-0.29297 -0.9375,-0.29297 -1.69922,-0.82031 -0.74218,-0.52735 -1.30859,-1.26953 -0.54688,-0.72266 -0.89844,-1.60157 -0.37109,-0.89843 -0.52734,-1.8164 -0.13672,-0.91797 -0.13672,-1.875 0.0977,-1.28907 0.25391,-2.36328 0.15625,-1.09375 0.41015,-2.07032 0.25391,-0.99609 0.58594,-1.91406 0.33203,-0.9375 0.78125,-1.93359 0.17578,-0.39063 0.37109,-0.74219 0.21485,-0.35156 0.41016,-0.60547 0.19531,-0.27344 0.35156,-0.41016 0.17578,-0.15625 0.29297,-0.15625 0.13672,0 0.13672,0.25391 0,0.23438 -0.13672,0.68359 -0.11719,0.44922 -0.41016,1.19141 -0.54687,1.34766 -0.89843,2.69531 -0.35157,1.34766 -0.35157,2.75391 0,1.21094 0.3711,2.22656 0.39062,0.9961 1.09375,1.71875 0.70312,0.72266 1.71875,1.11328 1.01562,0.41016 2.28515,0.41016 1.97266,0 3.82813,-0.72266 1.85547,-0.72265 3.28125,-1.99218 1.44531,-1.26954 2.30469,-2.98829 0.85937,-1.73828 0.85937,-3.73046 0,-0.60547 -0.0586,-1.25 -0.0391,-0.64454 -0.0977,-1.26954 -0.0586,-0.625 -0.11719,-1.1914 -0.0391,-0.56641 -0.0391,-1.01563 0,-0.68359 0.23438,-1.23047 0.2539,-0.5664 0.5664,-1.13281 0.0977,-0.13672 0.27344,-0.35156 0.17578,-0.21484 0.3125,-0.21484 0.13672,0 0.19531,0.35156 0.0781,0.33203 0.25391,0.48828 0.19531,0.13672 0.41016,0.25391 l 0.0195,2.63671 z m -11.99219,4.39454 q 0.58594,-0.74219 1.23047,-1.52344 0.66406,-0.78125 1.17187,-1.38672 0.0977,-0.0977 0.15625,-0.0977 0.0781,0 0.27344,0.13672 0.50781,0.35156 1.11328,0.80078 0.60547,0.44922 1.17188,0.87891 0.0977,0.0977 0.17578,0.15625 0.0781,0.0586 0.0781,0.13672 0,0.0586 -0.11718,0.21484 l -2.36329,2.85156 q -0.0391,0.0586 -0.11718,0.13672 -0.0586,0.0586 -0.0977,0.0586 -0.0781,0 -0.23437,-0.0977 -0.54688,-0.37109 -1.17188,-0.85937 -0.625,-0.48829 -1.19141,-0.9961 -0.19531,-0.15625 -0.19531,-0.23437 0,-0.0391 0.0391,-0.0781 0.0391,-0.0586 0.0781,-0.0977 z"
         style="font-style:normal;font-variant:normal;font-weight:normal;font-stretch:normal;font-family:'Urdu Typesetting';-inkscape-font-specification:'Urdu Typesetting'"
         id="path4790"
         inkscape:connector-curvature="0" />
    </g>
    <g
       transform="matrix(0.98552122,-0.16955214,0.16955214,0.98552122,0,0)"
       style="font-style:normal;font-weight:normal;font-size:40px;line-height:125%;font-family:sans-serif;letter-spacing:0px;word-spacing:0px;fill:#000000;fill-opacity:1;stroke:none;stroke-width:1px;stroke-linecap:butt;stroke-linejoin:miter;stroke-opacity:1"
       id="text4766">
      <path
         d="m 142.1658,339.24643 q 0.11719,0.50781 0.29297,0.95703 0.19531,0.44922 0.50781,0.78125 0.33203,0.33203 0.78125,0.52734 0.46875,0.19532 1.15235,0.19532 l 1.05468,-3.75 q 0.17579,-0.625 0.54688,-1.32813 0.37109,-0.70312 0.87891,-1.28906 0.52734,-0.58594 1.17187,-0.97656 0.66406,-0.39063 1.40625,-0.39063 0.44922,0 0.85938,0.13672 0.41015,0.13672 0.80078,0.29297 0.39062,0.15625 0.78125,0.29297 0.41015,0.13672 0.85937,0.13672 0.23438,0 0.41016,-0.0781 0.19531,-0.0781 0.37109,-0.17578 0.19531,-0.0977 0.39063,-0.17578 0.21484,-0.0781 0.48828,-0.0781 0.27344,0 0.27344,0.29297 0,0.3125 -0.15625,0.64453 -0.13672,0.3125 -0.29297,0.56641 l -1.05469,1.75781 q -0.76172,1.34766 -1.38672,2.67578 -0.60547,1.3086 -1.48437,2.59766 -1.23047,1.77734 -2.85157,2.75391 -1.60156,0.95703 -3.78906,0.95703 -1.09375,0 -1.85547,-0.46875 -0.76172,-0.46875 -1.23047,-1.21094 -0.48828,-0.74219 -0.70312,-1.66016 -0.23438,-0.9375 -0.25391,-1.85546 l 2.03125,-2.12891 z m 7.5,-2.34375 q -0.89844,0.0391 -1.5625,0.52734 -0.66406,0.46875 -1.15234,1.17188 -0.46875,0.70312 -0.78125,1.54297 -0.3125,0.82031 -0.50781,1.54297 0.91796,0 1.875,-0.3711 0.95703,-0.39062 1.83593,-0.97656 0.89844,-0.58594 1.66016,-1.28906 0.76172,-0.72266 1.30859,-1.40625 -0.27343,-0.13672 -0.625,-0.25391 -0.33203,-0.13672 -0.70312,-0.23437 -0.35156,-0.11719 -0.70313,-0.17579 -0.35156,-0.0781 -0.64453,-0.0781 z"
         style="font-style:normal;font-variant:normal;font-weight:normal;font-stretch:normal;font-family:'Urdu Typesetting';-inkscape-font-specification:'Urdu Typesetting'"
         id="path4771"
         inkscape:connector-curvature="0" />
      <path
         d="m 149.64627,328.73862 q 0.58594,-0.74219 1.25,-1.52344 0.64453,-0.78125 1.15234,-1.38672 0.0977,-0.0977 0.15625,-0.0977 0.0781,0 0.27344,0.13672 0.50781,0.35157 1.11328,0.80078 0.60547,0.44922 1.17188,0.87891 0.0976,0.0977 0.17578,0.15625 0.0781,0.0586 0.0781,0.13672 0,0.0586 -0.11718,0.21484 l -2.36328,2.85157 q -0.0391,0.0586 -0.11719,0.11718 -0.0586,0.0781 -0.0977,0.0781 -0.0781,0 -0.23437,-0.0977 -0.54688,-0.37109 -1.17188,-0.85937 -0.625,-0.48828 -1.1914,-0.9961 -0.19532,-0.15625 -0.19532,-0.23437 0,-0.0391 0.0391,-0.0781 0.0391,-0.0586 0.0781,-0.0976 z"
         style="font-style:normal;font-variant:normal;font-weight:normal;font-stretch:normal;font-family:'Urdu Typesetting';-inkscape-font-specification:'Urdu Typesetting';fill:#d40000"
         id="path4773"
         inkscape:connector-curvature="0" />
      <path
         d="m 140.25174,342.37143 q -0.0586,-0.42969 -0.0977,-0.82031 -0.0391,-0.41016 -0.0391,-0.80078 0,-0.0977 0,-0.33204 0,-0.2539 0.0195,-0.74218 0.0195,-0.50782 0.0586,-1.34766 0.0586,-0.83984 0.11718,-2.14844 0.0781,-1.30859 0.17578,-3.125 0.11719,-1.83593 0.27344,-4.33593 0.0195,-0.25391 0.0391,-0.50782 0.0391,-0.27343 0.11719,-0.46875 l 1.28906,-3.24218 q 0.0781,-0.19532 0.15625,-0.35157 0.0781,-0.15625 0.23438,-0.15625 0.0781,0 0.11719,0.0977 0.0391,0.0977 0.0391,0.54687 0,0.42969 -0.0391,1.26954 -0.0391,0.82031 -0.11719,2.26562 -0.0781,1.44531 -0.21484,3.61328 -0.11719,2.16797 -0.29297,5.27344 0,0.66406 0.0586,1.48437 0.0586,0.82032 0.21484,1.58204 l -2.10937,2.24609 z"
         style="font-style:normal;font-variant:normal;font-weight:normal;font-stretch:normal;font-family:'Urdu Typesetting';-inkscape-font-specification:'Urdu Typesetting'"
         id="path4775"
         inkscape:connector-curvature="0" />
      <path
         d="m 128.35721,339.77377 q 0.11719,0.44922 0.29297,0.80078 0.19531,0.35157 0.41015,0.625 0.48828,0.60547 1.03516,0.87891 0.54687,0.27344 1.11328,0.27344 0.52734,0 1.01563,-0.29297 0.50781,-0.29297 0.8789,-0.76172 0.39063,-0.46875 0.60547,-1.05469 0.23438,-0.58593 0.23438,-1.17187 0,-0.625 -0.0195,-1.36719 -0.0195,-0.74219 -0.0391,-1.38672 0,-0.64453 -0.0195,-1.07422 -0.0195,-0.44922 -0.0195,-0.48828 0,-0.82031 0.0781,-1.58203 0.0781,-0.76172 0.25391,-1.50391 0.0391,-0.17578 0.15625,-0.625 0.13672,-0.46875 0.27344,-0.95703 0.15625,-0.50781 0.29297,-0.95703 0.13672,-0.44922 0.19531,-0.625 0.0586,-0.17578 0.19531,-0.60547 0.13672,-0.42968 0.3125,-0.8789 0.17578,-0.46875 0.3711,-0.80078 0.19531,-0.35157 0.37109,-0.35157 0.15625,0 0.19531,0.15625 0.0391,0.15625 0.0391,0.25391 0,0.33203 -0.15625,1.11328 -0.13671,0.76172 -0.13671,1.875 0,2.44141 -0.0391,4.04297 -0.0391,1.58203 -0.11718,2.65625 -0.0586,1.07422 -0.19532,1.83594 -0.11718,0.74218 -0.29297,1.5039 -0.21484,0.66407 -0.44921,1.46485 -0.23438,0.80078 -0.54688,1.62109 -0.29297,0.80078 -0.70312,1.5625 -0.39063,0.74219 -0.9375,1.32813 -0.52735,0.58593 -1.23047,0.9375 -0.6836,0.35156 -1.58203,0.35156 -0.97657,0 -1.69922,-0.41016 -0.72266,-0.42969 -1.21094,-1.09375 -0.50781,-0.68359 -0.74219,-1.52344 -0.2539,-0.83984 -0.2539,-1.69921 l 2.07031,-2.07032 z"
         style="font-style:normal;font-variant:normal;font-weight:normal;font-stretch:normal;font-family:'Urdu Typesetting';-inkscape-font-specification:'Urdu Typesetting'"
         id="path4777"
         inkscape:connector-curvature="0" />
      <path
         d="m 126.2869,342.19565 q -0.33204,1.07422 -0.70313,2.01172 -0.35156,0.91797 -0.83984,1.91406 -0.39063,0.78125 -0.87891,1.23047 -0.46875,0.46875 -1.30859,0.70312 -0.25391,0.0586 -0.80078,0.19532 -0.52735,0.13671 -1.11329,0.29296 -0.58593,0.15625 -1.11328,0.29297 -0.50781,0.13672 -0.70312,0.19532 -0.0195,0 -0.0391,0 -0.0391,0.0195 -0.0781,0.0195 -0.0977,0 -0.21484,-0.0586 -0.13672,-0.0391 -0.13672,-0.17578 0,-0.0976 0.0977,-0.2539 0.0781,-0.13672 0.3125,-0.35157 1.07422,-1.13281 2.2461,-2.16797 1.1914,-1.03515 2.32422,-2.14843 0.5664,-0.54688 1.05468,-1.13282 0.48829,-0.60546 0.91797,-1.30859 0.42969,-0.70312 0.80078,-1.5625 0.39063,-0.87891 0.74219,-1.97266 l 1.34766,-4.14062 q 0.0586,-0.3125 0.17578,-0.46875 0.11719,-0.15625 0.21484,-0.15625 0.17578,0 0.17578,0.41016 0,0.0781 0,0.15625 0,0.0781 -0.0195,0.17578 -0.0391,0.19531 -0.11718,0.74218 -0.0781,0.52735 -0.15625,1.19141 -0.0781,0.66406 -0.13672,1.36719 -0.0586,0.68359 -0.0586,1.17187 0,0.6836 0.0586,1.13282 0.0586,0.42968 0.21484,0.82031 l -2.26562,1.875 z"
         style="font-style:normal;font-variant:normal;font-weight:normal;font-stretch:normal;font-family:'Urdu Typesetting';-inkscape-font-specification:'Urdu Typesetting'"
         id="path4779"
         inkscape:connector-curvature="0" />
    </g>
  </g>
</svg>
