<?xml version="1.0" encoding="UTF-8" standalone="no"?>
<svg
   xmlns:dc="http://purl.org/dc/elements/1.1/"
   xmlns:cc="http://creativecommons.org/ns#"
   xmlns:rdf="http://www.w3.org/1999/02/22-rdf-syntax-ns#"
   xmlns:svg="http://www.w3.org/2000/svg"
   xmlns="http://www.w3.org/2000/svg"
   version="1.1"
   id="svg2"
   viewBox="0 0 493.75002 391.24999"
   height="110.41944mm"
   width="139.34723mm">
  <defs
     id="defs4" />
  <metadata
     id="metadata7">
    <rdf:RDF>
      <cc:Work
         rdf:about="">
        <dc:format>image/svg+xml</dc:format>
        <dc:type
           rdf:resource="http://purl.org/dc/dcmitype/StillImage" />
        <dc:title />
      </cc:Work>
    </rdf:RDF>
  </metadata>
  <g
     transform="translate(-64.553573,-73.88007)"
     id="layer1">
    <g
       id="g3718"
       transform="matrix(1.25,0,0,-1.25,64.553573,465.13007)">
      <g
         id="g3720"
         transform="scale(0.1,0.1)">
        <path
           d="m 0,0 3950,0 0,3130 L 0,3130 0,0 Z"
           style="fill:#ffffff;fill-opacity:1;fill-rule:nonzero;stroke:none"
           id="path3722" />
        <path
           d="m 0,0 3950,0 0,3130 L 0,3130 0,0 Z"
           style="fill:#ffffff;fill-opacity:1;fill-rule:nonzero;stroke:none"
           id="path3724" />
        <path
           d="m 297.5,325 3255,0 0,2572.5 -3255,0 0,-2572.5 z"
           style="fill:#ffffff;fill-opacity:1;fill-rule:nonzero;stroke:none"
           id="path3726" />
        <path
           d="m 297.5,325 3255,0"
           style="fill:none;stroke:#262626;stroke-width:5.00250006;stroke-linecap:square;stroke-linejoin:round;stroke-miterlimit:10;stroke-dasharray:none;stroke-opacity:1"
           id="path3728" />
        <path
           d="m 297.5,2897.5 3255,0"
           style="fill:none;stroke:#262626;stroke-width:5.00250006;stroke-linecap:square;stroke-linejoin:round;stroke-miterlimit:10;stroke-dasharray:none;stroke-opacity:1"
           id="path3730" />
        <path
           d="m 297.5,325 0,32.551"
           style="fill:none;stroke:#262626;stroke-width:5.00250006;stroke-linecap:square;stroke-linejoin:round;stroke-miterlimit:10;stroke-dasharray:none;stroke-opacity:1"
           id="path3732" />
        <path
           d="m 1382.5,325 0,32.551"
           style="fill:none;stroke:#262626;stroke-width:5.00250006;stroke-linecap:square;stroke-linejoin:round;stroke-miterlimit:10;stroke-dasharray:none;stroke-opacity:1"
           id="path3734" />
        <path
           d="m 2467.5,325 0,32.551"
           style="fill:none;stroke:#262626;stroke-width:5.00250006;stroke-linecap:square;stroke-linejoin:round;stroke-miterlimit:10;stroke-dasharray:none;stroke-opacity:1"
           id="path3736" />
        <path
           d="m 3552.5,325 0,32.551"
           style="fill:none;stroke:#262626;stroke-width:5.00250006;stroke-linecap:square;stroke-linejoin:round;stroke-miterlimit:10;stroke-dasharray:none;stroke-opacity:1"
           id="path3738" />
        <path
           d="m 297.5,2897.5 0,-32.55"
           style="fill:none;stroke:#262626;stroke-width:5.00250006;stroke-linecap:square;stroke-linejoin:round;stroke-miterlimit:10;stroke-dasharray:none;stroke-opacity:1"
           id="path3740" />
        <path
           d="m 1382.5,2897.5 0,-32.55"
           style="fill:none;stroke:#262626;stroke-width:5.00250006;stroke-linecap:square;stroke-linejoin:round;stroke-miterlimit:10;stroke-dasharray:none;stroke-opacity:1"
           id="path3742" />
        <path
           d="m 2467.5,2897.5 0,-32.55"
           style="fill:none;stroke:#262626;stroke-width:5.00250006;stroke-linecap:square;stroke-linejoin:round;stroke-miterlimit:10;stroke-dasharray:none;stroke-opacity:1"
           id="path3744" />
        <path
           d="m 3552.5,2897.5 0,-32.55"
           style="fill:none;stroke:#262626;stroke-width:5.00250006;stroke-linecap:square;stroke-linejoin:round;stroke-miterlimit:10;stroke-dasharray:none;stroke-opacity:1"
           id="path3746" />
        <g
           id="g3748"
           transform="scale(10,10)">
          <text
             transform="matrix(1,0,0,-1,26.75,18)"
             style="font-variant:normal;font-weight:normal;font-size:9.99975014px;font-family:Helvetica;-inkscape-font-specification:Helvetica;writing-mode:lr-tb;fill:#262626;fill-opacity:1;fill-rule:nonzero;stroke:none"
             id="text3750">
            <tspan
               x="0 103.25002 108.80988 114.36974 209.12497 214.68483 220.24469 225.80455 317.62497 323.18481 328.74469 334.30453"
               y="0"
               id="tspan3752">050010001500</tspan>
          </text>
          <text
             transform="matrix(1,0,0,-1,165.875,2.75)"
             style="font-variant:normal;font-weight:normal;font-size:11.00020027px;font-family:Helvetica;-inkscape-font-specification:Helvetica;writing-mode:lr-tb;fill:#262626;fill-opacity:1;fill-rule:nonzero;stroke:none"
             id="text3754">
            <tspan
               x="0 6.7211223 9.163167 18.326334 24.442444 27.5005 31.163567 36.663666 42.779778 48.279877"
               y="0"
               id="tspan3756">Time (sec)</tspan>
          </text>
        </g>
        <path
           d="m 297.5,325 0,2572.5"
           style="fill:none;stroke:#262626;stroke-width:5.00250006;stroke-linecap:square;stroke-linejoin:round;stroke-miterlimit:10;stroke-dasharray:none;stroke-opacity:1"
           id="path3758" />
        <path
           d="m 3552.5,325 0,2572.5"
           style="fill:none;stroke:#262626;stroke-width:5.00250006;stroke-linecap:square;stroke-linejoin:round;stroke-miterlimit:10;stroke-dasharray:none;stroke-opacity:1"
           id="path3760" />
        <path
           d="m 297.5,325 32.551,0"
           style="fill:none;stroke:#262626;stroke-width:5.00250006;stroke-linecap:square;stroke-linejoin:round;stroke-miterlimit:10;stroke-dasharray:none;stroke-opacity:1"
           id="path3762" />
        <path
           d="m 297.5,646.563 32.551,0"
           style="fill:none;stroke:#262626;stroke-width:5.00250006;stroke-linecap:square;stroke-linejoin:round;stroke-miterlimit:10;stroke-dasharray:none;stroke-opacity:1"
           id="path3764" />
        <path
           d="m 297.5,968.125 32.551,0"
           style="fill:none;stroke:#262626;stroke-width:5.00250006;stroke-linecap:square;stroke-linejoin:round;stroke-miterlimit:10;stroke-dasharray:none;stroke-opacity:1"
           id="path3766" />
        <path
           d="m 297.5,1289.69 32.551,0"
           style="fill:none;stroke:#262626;stroke-width:5.00250006;stroke-linecap:square;stroke-linejoin:round;stroke-miterlimit:10;stroke-dasharray:none;stroke-opacity:1"
           id="path3768" />
        <path
           d="m 297.5,1611.25 32.551,0"
           style="fill:none;stroke:#262626;stroke-width:5.00250006;stroke-linecap:square;stroke-linejoin:round;stroke-miterlimit:10;stroke-dasharray:none;stroke-opacity:1"
           id="path3770" />
        <path
           d="m 297.5,1932.81 32.551,0"
           style="fill:none;stroke:#262626;stroke-width:5.00250006;stroke-linecap:square;stroke-linejoin:round;stroke-miterlimit:10;stroke-dasharray:none;stroke-opacity:1"
           id="path3772" />
        <path
           d="m 297.5,2254.38 32.551,0"
           style="fill:none;stroke:#262626;stroke-width:5.00250006;stroke-linecap:square;stroke-linejoin:round;stroke-miterlimit:10;stroke-dasharray:none;stroke-opacity:1"
           id="path3774" />
        <path
           d="m 297.5,2575.94 32.551,0"
           style="fill:none;stroke:#262626;stroke-width:5.00250006;stroke-linecap:square;stroke-linejoin:round;stroke-miterlimit:10;stroke-dasharray:none;stroke-opacity:1"
           id="path3776" />
        <path
           d="m 297.5,2897.5 32.551,0"
           style="fill:none;stroke:#262626;stroke-width:5.00250006;stroke-linecap:square;stroke-linejoin:round;stroke-miterlimit:10;stroke-dasharray:none;stroke-opacity:1"
           id="path3778" />
        <path
           d="m 3552.5,325 -32.55,0"
           style="fill:none;stroke:#262626;stroke-width:5.00250006;stroke-linecap:square;stroke-linejoin:round;stroke-miterlimit:10;stroke-dasharray:none;stroke-opacity:1"
           id="path3780" />
        <path
           d="m 3552.5,646.563 -32.55,0"
           style="fill:none;stroke:#262626;stroke-width:5.00250006;stroke-linecap:square;stroke-linejoin:round;stroke-miterlimit:10;stroke-dasharray:none;stroke-opacity:1"
           id="path3782" />
        <path
           d="m 3552.5,968.125 -32.55,0"
           style="fill:none;stroke:#262626;stroke-width:5.00250006;stroke-linecap:square;stroke-linejoin:round;stroke-miterlimit:10;stroke-dasharray:none;stroke-opacity:1"
           id="path3784" />
        <path
           d="m 3552.5,1289.69 -32.55,0"
           style="fill:none;stroke:#262626;stroke-width:5.00250006;stroke-linecap:square;stroke-linejoin:round;stroke-miterlimit:10;stroke-dasharray:none;stroke-opacity:1"
           id="path3786" />
        <path
           d="m 3552.5,1611.25 -32.55,0"
           style="fill:none;stroke:#262626;stroke-width:5.00250006;stroke-linecap:square;stroke-linejoin:round;stroke-miterlimit:10;stroke-dasharray:none;stroke-opacity:1"
           id="path3788" />
        <path
           d="m 3552.5,1932.81 -32.55,0"
           style="fill:none;stroke:#262626;stroke-width:5.00250006;stroke-linecap:square;stroke-linejoin:round;stroke-miterlimit:10;stroke-dasharray:none;stroke-opacity:1"
           id="path3790" />
        <path
           d="m 3552.5,2254.38 -32.55,0"
           style="fill:none;stroke:#262626;stroke-width:5.00250006;stroke-linecap:square;stroke-linejoin:round;stroke-miterlimit:10;stroke-dasharray:none;stroke-opacity:1"
           id="path3792" />
        <path
           d="m 3552.5,2575.94 -32.55,0"
           style="fill:none;stroke:#262626;stroke-width:5.00250006;stroke-linecap:square;stroke-linejoin:round;stroke-miterlimit:10;stroke-dasharray:none;stroke-opacity:1"
           id="path3794" />
        <path
           d="m 3552.5,2897.5 -32.55,0"
           style="fill:none;stroke:#262626;stroke-width:5.00250006;stroke-linecap:square;stroke-linejoin:round;stroke-miterlimit:10;stroke-dasharray:none;stroke-opacity:1"
           id="path3796" />
        <g
           id="g3798"
           transform="scale(10,10)">
          <text
             transform="matrix(1,0,0,-1,14.5,28.375)"
             style="font-variant:normal;font-weight:normal;font-size:9.99975014px;font-family:Helvetica;-inkscape-font-specification:Helvetica;writing-mode:lr-tb;fill:#262626;fill-opacity:1;fill-rule:nonzero;stroke:none"
             id="text3800">
            <tspan
               x="0 5.5598612"
               y="0"
               id="tspan3802">88</tspan>
            <tspan
               x="0 5.5598612"
               y="-32.1563"
               id="tspan3804">89</tspan>
            <tspan
               x="0 5.5598612"
               y="-64.312599"
               id="tspan3806">90</tspan>
            <tspan
               x="0 5.5598612"
               y="-96.468903"
               id="tspan3808">91</tspan>
            <tspan
               x="0 5.5598612"
               y="-128.6252"
               id="tspan3810">92</tspan>
            <tspan
               x="0 5.5598612"
               y="-160.78149"
               id="tspan3812">93</tspan>
            <tspan
               x="0 5.5598612"
               y="-192.93781"
               id="tspan3814">94</tspan>
            <tspan
               x="0 5.5598612"
               y="-225.0941"
               id="tspan3816">95</tspan>
            <tspan
               x="0 5.5598612"
               y="-257.2504"
               id="tspan3818">96</tspan>
          </text>
          <text
             transform="matrix(0,1,1,0,8.5,138.625)"
             style="font-variant:normal;font-weight:normal;font-size:11.00020027px;font-family:Helvetica;-inkscape-font-specification:Helvetica;writing-mode:lr-tb;fill:#262626;fill-opacity:1;fill-rule:nonzero;stroke:none"
             id="text3820">
            <tspan
               x="0 7.3371334 15.279278 23.221422 26.279478 29.942545 39.721722"
               y="0"
               id="tspan3822">PDR (%)</tspan>
          </text>
        </g>
        <path
           d="m 351.746,338.98 54.258,939.44 54.246,921.03 54.246,-163.99 54.258,71.2 54.246,31.02 54.246,119.68 54.258,106.68 54.246,-178.03 54.246,93.72 54.258,46.43 54.246,6.99 54.25,-8.66 54.25,-6.54 54.25,12.69 54.25,68.79 54.25,20.23 54.25,-13.48 54.25,-69.31 54.25,46.6 54.25,4.39 54.25,19.81 54.25,19.89 54.25,-22.43 54.25,61.71 54.25,-42.09 54.25,-0.91 54.25,-8 54.25,9.49 54.25,14.87 54.25,-4.37 54.25,-40.28 54.25,-26.25 54.25,18.21 54.25,11.79 54.25,-10.31 54.25,-15.56 54.25,23.92 54.25,5.9 54.25,-14.59 54.25,-2.31 54.25,5.91 54.25,-6.4 54.25,-3.81 54.25,-4.23 54.25,-2.55 54.25,8.64 54.25,6.29 54.25,15.71 54.25,-11.02 54.25,-4.52 54.25,-10.05 54.25,4.02 54.25,0.35 54.25,13.89 54.25,-5.45 54.25,-26.69 54.25,31.88 54.25,6.5 54.25,-28.45"
           style="fill:none;stroke:#0072bd;stroke-width:12;stroke-linecap:butt;stroke-linejoin:round;stroke-miterlimit:10;stroke-dasharray:none;stroke-opacity:1"
           id="path3824" />
        <path
           d="m 351.746,838.016 54.258,1090.244 54.246,84.77 54.246,270.26 54.258,190.78 54.246,-88.62 54.246,116.52 54.258,72.74 54.246,-48.54 54.246,45.3 54.258,-33.95 54.246,48.48 54.25,23.75 54.25,6.82 54.25,-5.33 54.25,-0.23 54.25,17.19 54.25,25.32 54.25,37.53 54.25,-50.89 54.25,42.2 54.25,3.63 54.25,5.99 54.25,-13.62 54.25,18.81 54.25,-63.56 54.25,43.64 54.25,23.51 54.25,-16.56 54.25,50.34 54.25,-37.98 54.25,5.92 54.25,6.92 54.25,-26.15 54.25,16.76 54.25,5.04 54.25,-15.5 54.25,-3.8 54.25,-1.73 54.25,34.78 54.25,-14.36 54.25,-9.44 54.25,14.8 54.25,-25.76 54.25,-6.53 54.25,15.49 54.25,7.4 54.25,-11.86 54.25,2.08 54.25,-14.4 54.25,19.39 54.25,-35.47 54.25,15.5 54.25,2.84 54.25,8.21 54.25,14.64 54.25,-5.24 54.25,5.8 54.25,-11.3 54.25,-24.08"
           style="fill:none;stroke:#d95319;stroke-width:12;stroke-linecap:butt;stroke-linejoin:round;stroke-miterlimit:10;stroke-dasharray:none;stroke-opacity:1"
           id="path3826" />
        <path
           d="m 351.746,338.98 54.258,939.44 54.246,921.03 54.246,-163.99 54.258,71.2 54.246,31.02 54.246,119.68 54.258,106.68 54.246,-178.03 54.246,93.72 54.258,46.43 54.246,-9.05 54.25,63.46 54.25,-76.3 54.25,16.16 54.25,47.82 54.25,49.14 54.25,5.86 54.25,-104.51 54.25,-2.23 54.25,23.9 54.25,-9.51 54.25,-0.26 54.25,-13.65 54.25,31.28 54.25,1.03 54.25,-10.81 54.25,-2.33 54.25,24.09 54.25,28.55 54.25,-11.4 54.25,-38.33 54.25,5.79 54.25,-12.67 54.25,17.79 54.25,21.94 54.25,-37.91 54.25,39.06 54.25,-26.9 54.25,12.74 54.25,-3.5 54.25,6.66 54.25,-2.12 54.25,13.36 54.25,-5.74 54.25,16.89 54.25,-8.74 54.25,8.86 54.25,14.24 54.25,-0.84 54.25,-12.14 54.25,-8.49 54.25,21.51 54.25,-20.59 54.25,29.41 54.25,-11.8 54.25,-14.6 54.25,1.12 54.25,0.92 54.25,-4.39"
           style="fill:none;stroke:#edb120;stroke-width:12;stroke-linecap:butt;stroke-linejoin:round;stroke-miterlimit:10;stroke-dasharray:none;stroke-opacity:1"
           id="path3828" />
        <path
           d="m 2390,2402.5 1065,0 0,397.5 -1065,0 0,-397.5 z"
           style="fill:#ffffff;fill-opacity:1;fill-rule:nonzero;stroke:none"
           id="path3830" />
        <g
           id="g3832"
           transform="scale(10,10)">
          <text
             transform="matrix(1,0,0,-1,266.75,268.75)"
             style="font-variant:normal;font-weight:normal;font-size:9px;font-family:Helvetica;-inkscape-font-specification:Helvetica;writing-mode:lr-tb;fill:#000000;fill-opacity:1;fill-rule:nonzero;stroke:none"
             id="text3834">
            <tspan
               x="0 5.0040002 11.007 17.504999 20.007 26.504999 28.503 31.004999 36.008999 41.013 46.016998 48.519001 51.021 58.518002 63.521999 68.526001 73.529999"
               y="0"
               id="tspan3836">LAR without model</tspan>
          </text>
        </g>
        <path
           d="m 2420,2725 225,0"
           style="fill:none;stroke:#0072bd;stroke-width:12;stroke-linecap:butt;stroke-linejoin:round;stroke-miterlimit:10;stroke-dasharray:none;stroke-opacity:1"
           id="path3838" />
        <g
           id="g3840"
           transform="scale(10,10)">
          <text
             transform="matrix(1,0,0,-1,266.75,256.375)"
             style="font-variant:normal;font-weight:normal;font-size:9px;font-family:Helvetica;-inkscape-font-specification:Helvetica;writing-mode:lr-tb;fill:#000000;fill-opacity:1;fill-rule:nonzero;stroke:none"
             id="text3842">
            <tspan
               x="0 6.0029998 12.006 17.01 23.013"
               y="0"
               id="tspan3844">KALAR</tspan>
          </text>
        </g>
        <path
           d="m 2420,2601.25 225,0"
           style="fill:none;stroke:#d95319;stroke-width:12;stroke-linecap:butt;stroke-linejoin:round;stroke-miterlimit:10;stroke-dasharray:none;stroke-opacity:1"
           id="path3846" />
        <g
           id="g3848"
           transform="scale(10,10)">
          <text
             transform="matrix(1,0,0,-1,266.75,244)"
             style="font-variant:normal;font-weight:normal;font-size:9px;font-family:Helvetica;-inkscape-font-specification:Helvetica;writing-mode:lr-tb;fill:#000000;fill-opacity:1;fill-rule:nonzero;stroke:none"
             id="text3850">
            <tspan
               x="0 6.0029998 11.007 16.011 20.511 25.514999 33.012001 38.015999 41.013"
               y="0"
               id="tspan3852">Benchmark</tspan>
          </text>
        </g>
        <path
           d="m 2420,2477.5 225,0"
           style="fill:none;stroke:#edb120;stroke-width:12;stroke-linecap:butt;stroke-linejoin:round;stroke-miterlimit:10;stroke-dasharray:none;stroke-opacity:1"
           id="path3854" />
        <path
           d="m 2390,2402.5 1065,0 0,397.5 -1065,0 0,-397.5 z"
           style="fill:none;stroke:#262626;stroke-width:5.00250006;stroke-linecap:butt;stroke-linejoin:miter;stroke-miterlimit:10;stroke-dasharray:none;stroke-opacity:1"
           id="path3856" />
      </g>
    </g>
  </g>
</svg>
